<?xml version="1.0" encoding="UTF-8" standalone="no"?>
<!DOCTYPE svg PUBLIC "-//W3C//DTD SVG 1.1//EN"
 "http://www.w3.org/Graphics/SVG/1.1/DTD/svg11.dtd">
<!-- Generated by graphviz version 2.43.0 (0)
 -->
<!-- Title: Logger::log Pages: 1 -->
<svg width="416pt" height="104pt"
 viewBox="0.00 0.00 416.00 104.00" xmlns="http://www.w3.org/2000/svg" xmlns:xlink="http://www.w3.org/1999/xlink">
<g id="graph0" class="graph" transform="scale(1 1) rotate(0) translate(4 100)">
<title>Logger::log</title>
<polygon fill="white" stroke="transparent" points="-4,4 -4,-100 412,-100 412,4 -4,4"/>
<!-- Node1 -->
<g id="node1" class="node">
<title>Node1</title>
<g id="a_node1"><a xlink:title="Записывает сообщение в лог.">
<polygon fill="#bfbfbf" stroke="black" points="337,-38.5 337,-57.5 408,-57.5 408,-38.5 337,-38.5"/>
<text text-anchor="middle" x="372.5" y="-45.5" font-family="Helvetica,sans-Serif" font-size="10.00">Logger::log</text>
</a>
</g>
</g>
<!-- Node2 -->
<g id="node2" class="node">
<title>Node2</title>
<g id="a_node2"><a xlink:href="../../df/d10/operation__params_8h.html#a1451d6a0f33f9d0a02a4b055e5839e6e" target="_top" xlink:title="Отображение справки о возможных параметрах командной строки.">
<polygon fill="white" stroke="black" points="227,-76.5 227,-95.5 301,-95.5 301,-76.5 227,-76.5"/>
<text text-anchor="middle" x="264" y="-83.5" font-family="Helvetica,sans-Serif" font-size="10.00">displayHelp</text>
</a>
</g>
</g>
<!-- Node1&#45;&gt;Node2 -->
<g id="edge1" class="edge">
<title>Node1&#45;&gt;Node2</title>
<path fill="none" stroke="midnightblue" d="M335.14,-60.97C320.96,-66.03 304.98,-71.73 291.87,-76.41"/>
<polygon fill="midnightblue" stroke="midnightblue" points="336.38,-64.25 344.63,-57.59 334.03,-57.65 336.38,-64.25"/>
</g>
<!-- Node4 -->
<g id="node4" class="node">
<title>Node4</title>
<g id="a_node4"><a xlink:href="../../df/d0a/main_8cpp.html#a0ddf1224851353fc92bfbff6f499fa97" target="_top" xlink:title="Главная функция программы">
<polygon fill="white" stroke="black" points="0,-38.5 0,-57.5 41,-57.5 41,-38.5 0,-38.5"/>
<text text-anchor="middle" x="20.5" y="-45.5" font-family="Helvetica,sans-Serif" font-size="10.00">main</text>
</a>
</g>
</g>
<!-- Node1&#45;&gt;Node4 -->
<g id="edge6" class="edge">
<title>Node1&#45;&gt;Node4</title>
<path fill="none" stroke="midnightblue" d="M326.67,-48C249.86,-48 96.09,-48 41.38,-48"/>
<polygon fill="midnightblue" stroke="midnightblue" points="326.98,-51.5 336.98,-48 326.98,-44.5 326.98,-51.5"/>
</g>
<!-- Node5 -->
<g id="node5" class="node">
<title>Node5</title>
<g id="a_node5"><a xlink:href="../../d6/dd1/class_b_m_p.html#acdebc7da18509fc92374934ad7a99ae2" target="_top" xlink:title="Получить информацию о изображении.">
<polygon fill="white" stroke="black" points="94.5,-0.5 94.5,-19.5 173.5,-19.5 173.5,-0.5 94.5,-0.5"/>
<text text-anchor="middle" x="134" y="-7.5" font-family="Helvetica,sans-Serif" font-size="10.00">BMP::getInfo</text>
</a>
</g>
</g>
<!-- Node1&#45;&gt;Node5 -->
<g id="edge4" class="edge">
<title>Node1&#45;&gt;Node5</title>
<path fill="none" stroke="midnightblue" d="M326.92,-38.78C318.33,-37.11 309.4,-35.44 301,-34 257.52,-26.54 207.36,-19.51 173.66,-15.01"/>
<polygon fill="midnightblue" stroke="midnightblue" points="326.3,-42.22 336.78,-40.73 327.65,-35.36 326.3,-42.22"/>
</g>
<!-- Node3 -->
<g id="node3" class="node">
<title>Node3</title>
<g id="a_node3"><a xlink:href="../../df/d10/operation__params_8h.html#a00a944e8a68555a108c478465b5e9018" target="_top" xlink:title="Парсинг командной строки и создание объекта OperationParams.">
<polygon fill="white" stroke="black" points="77,-76.5 77,-95.5 191,-95.5 191,-76.5 77,-76.5"/>
<text text-anchor="middle" x="134" y="-83.5" font-family="Helvetica,sans-Serif" font-size="10.00">parseCommandLine</text>
</a>
</g>
</g>
<!-- Node2&#45;&gt;Node3 -->
<g id="edge2" class="edge">
<title>Node2&#45;&gt;Node3</title>
<path fill="none" stroke="midnightblue" d="M216.47,-86C208.21,-86 199.53,-86 191.04,-86"/>
<polygon fill="midnightblue" stroke="midnightblue" points="216.66,-89.5 226.66,-86 216.66,-82.5 216.66,-89.5"/>
</g>
<!-- Node3&#45;&gt;Node4 -->
<g id="edge3" class="edge">
<title>Node3&#45;&gt;Node4</title>
<path fill="none" stroke="midnightblue" d="M95.15,-73.1C77.03,-66.93 56.1,-59.79 41.19,-54.71"/>
<polygon fill="midnightblue" stroke="midnightblue" points="94.27,-76.5 104.86,-76.41 96.53,-69.87 94.27,-76.5"/>
</g>
<!-- Node5&#45;&gt;Node4 -->
<g id="edge5" class="edge">
<title>Node5&#45;&gt;Node4</title>
<path fill="none" stroke="midnightblue" d="M95.15,-22.9C77.03,-29.07 56.1,-36.21 41.19,-41.29"/>
<polygon fill="midnightblue" stroke="midnightblue" points="96.53,-26.13 104.86,-19.59 94.27,-19.5 96.53,-26.13"/>
</g>
</g>
</svg>
