<?xml version="1.0" encoding="UTF-8" standalone="no"?>
<!DOCTYPE svg PUBLIC "-//W3C//DTD SVG 1.1//EN"
 "http://www.w3.org/Graphics/SVG/1.1/DTD/svg11.dtd">
<!-- Generated by graphviz version 2.43.0 (0)
 -->
<!-- Title: Logger::setColorsEnabled Pages: 1 -->
<svg width="375pt" height="28pt"
 viewBox="0.00 0.00 375.00 28.00" xmlns="http://www.w3.org/2000/svg" xmlns:xlink="http://www.w3.org/1999/xlink">
<g id="graph0" class="graph" transform="scale(1 1) rotate(0) translate(4 24)">
<title>Logger::setColorsEnabled</title>
<polygon fill="white" stroke="transparent" points="-4,4 -4,-24 371,-24 371,4 -4,4"/>
<!-- Node1 -->
<g id="node1" class="node">
<title>Node1</title>
<g id="a_node1"><a xlink:title="Устанавливает разрешение использования цветов в выводе.">
<polygon fill="#bfbfbf" stroke="black" points="227,-0.5 227,-19.5 367,-19.5 367,-0.5 227,-0.5"/>
<text text-anchor="middle" x="297" y="-7.5" font-family="Helvetica,sans-Serif" font-size="10.00">Logger::setColorsEnabled</text>
</a>
</g>
</g>
<!-- Node2 -->
<g id="node2" class="node">
<title>Node2</title>
<g id="a_node2"><a xlink:href="../../df/d10/operation__params_8h.html#a00a944e8a68555a108c478465b5e9018" target="_top" xlink:title="Парсинг командной строки и создание объекта OperationParams.">
<polygon fill="white" stroke="black" points="77,-0.5 77,-19.5 191,-19.5 191,-0.5 77,-0.5"/>
<text text-anchor="middle" x="134" y="-7.5" font-family="Helvetica,sans-Serif" font-size="10.00">parseCommandLine</text>
</a>
</g>
</g>
<!-- Node1&#45;&gt;Node2 -->
<g id="edge1" class="edge">
<title>Node1&#45;&gt;Node2</title>
<path fill="none" stroke="midnightblue" d="M216.66,-10C208.01,-10 199.34,-10 191.06,-10"/>
<polygon fill="midnightblue" stroke="midnightblue" points="216.79,-13.5 226.79,-10 216.79,-6.5 216.79,-13.5"/>
</g>
<!-- Node3 -->
<g id="node3" class="node">
<title>Node3</title>
<g id="a_node3"><a xlink:href="../../df/d0a/main_8cpp.html#a0ddf1224851353fc92bfbff6f499fa97" target="_top" xlink:title="Главная функция программы">
<polygon fill="white" stroke="black" points="0,-0.5 0,-19.5 41,-19.5 41,-0.5 0,-0.5"/>
<text text-anchor="middle" x="20.5" y="-7.5" font-family="Helvetica,sans-Serif" font-size="10.00">main</text>
</a>
</g>
</g>
<!-- Node2&#45;&gt;Node3 -->
<g id="edge2" class="edge">
<title>Node2&#45;&gt;Node3</title>
<path fill="none" stroke="midnightblue" d="M66.7,-10C57.37,-10 48.45,-10 41.04,-10"/>
<polygon fill="midnightblue" stroke="midnightblue" points="66.92,-13.5 76.92,-10 66.92,-6.5 66.92,-13.5"/>
</g>
</g>
</svg>
