<?xml version="1.0" encoding="UTF-8" standalone="no"?>
<!DOCTYPE svg PUBLIC "-//W3C//DTD SVG 1.1//EN"
 "http://www.w3.org/Graphics/SVG/1.1/DTD/svg11.dtd">
<!-- Generated by graphviz version 2.43.0 (0)
 -->
<!-- Title: Logger::warn Pages: 1 -->
<svg width="315pt" height="142pt"
 viewBox="0.00 0.00 315.00 142.00" xmlns="http://www.w3.org/2000/svg" xmlns:xlink="http://www.w3.org/1999/xlink">
<g id="graph0" class="graph" transform="scale(1 1) rotate(0) translate(4 138)">
<title>Logger::warn</title>
<polygon fill="white" stroke="transparent" points="-4,4 -4,-138 311,-138 311,4 -4,4"/>
<!-- Node1 -->
<g id="node1" class="node">
<title>Node1</title>
<g id="a_node1"><a xlink:title="Записывает предупреждение в лог.">
<polygon fill="#bfbfbf" stroke="black" points="227,-57.5 227,-76.5 307,-76.5 307,-57.5 227,-57.5"/>
<text text-anchor="middle" x="267" y="-64.5" font-family="Helvetica,sans-Serif" font-size="10.00">Logger::warn</text>
</a>
</g>
</g>
<!-- Node2 -->
<g id="node2" class="node">
<title>Node2</title>
<g id="a_node2"><a xlink:href="../../d6/dd1/class_b_m_p.html#aa5efccdbbacffe75174e3c126efc06ad" target="_top" xlink:title="Копировать область изображения.">
<polygon fill="white" stroke="black" points="100,-114.5 100,-133.5 168,-133.5 168,-114.5 100,-114.5"/>
<text text-anchor="middle" x="134" y="-121.5" font-family="Helvetica,sans-Serif" font-size="10.00">BMP::copy</text>
</a>
</g>
</g>
<!-- Node1&#45;&gt;Node2 -->
<g id="edge1" class="edge">
<title>Node1&#45;&gt;Node2</title>
<path fill="none" stroke="midnightblue" d="M235.03,-80.71C221.52,-86.66 205.49,-93.71 191,-100 179.94,-104.8 167.62,-110.09 157.37,-114.47"/>
<polygon fill="midnightblue" stroke="midnightblue" points="236.63,-83.83 244.36,-76.59 233.8,-77.42 236.63,-83.83"/>
</g>
<!-- Node3 -->
<g id="node3" class="node">
<title>Node3</title>
<g id="a_node3"><a xlink:href="../../df/d0a/main_8cpp.html#a0ddf1224851353fc92bfbff6f499fa97" target="_top" xlink:title="Главная функция программы">
<polygon fill="white" stroke="black" points="0,-57.5 0,-76.5 41,-76.5 41,-57.5 0,-57.5"/>
<text text-anchor="middle" x="20.5" y="-64.5" font-family="Helvetica,sans-Serif" font-size="10.00">main</text>
</a>
</g>
</g>
<!-- Node1&#45;&gt;Node3 -->
<g id="edge3" class="edge">
<title>Node1&#45;&gt;Node3</title>
<path fill="none" stroke="midnightblue" d="M216.95,-67C162.97,-67 78.85,-67 41.05,-67"/>
<polygon fill="midnightblue" stroke="midnightblue" points="216.99,-70.5 226.99,-67 216.99,-63.5 216.99,-70.5"/>
</g>
<!-- Node4 -->
<g id="node4" class="node">
<title>Node4</title>
<g id="a_node4"><a xlink:href="../../df/d10/operation__params_8h.html#a00a944e8a68555a108c478465b5e9018" target="_top" xlink:title="Парсинг командной строки и создание объекта OperationParams.">
<polygon fill="white" stroke="black" points="77,-38.5 77,-57.5 191,-57.5 191,-38.5 77,-38.5"/>
<text text-anchor="middle" x="134" y="-45.5" font-family="Helvetica,sans-Serif" font-size="10.00">parseCommandLine</text>
</a>
</g>
</g>
<!-- Node1&#45;&gt;Node4 -->
<g id="edge4" class="edge">
<title>Node1&#45;&gt;Node4</title>
<path fill="none" stroke="midnightblue" d="M216.76,-59.86C208.43,-58.65 199.72,-57.39 191.23,-56.16"/>
<polygon fill="midnightblue" stroke="midnightblue" points="216.3,-63.33 226.7,-61.3 217.3,-56.4 216.3,-63.33"/>
</g>
<!-- Node5 -->
<g id="node5" class="node">
<title>Node5</title>
<g id="a_node5"><a xlink:href="../../d6/dd1/class_b_m_p.html#aaff3df7f32657d64bf3b5f07e76a4edd" target="_top" xlink:title="Разделить изображение на части.">
<polygon fill="white" stroke="black" points="101.5,-0.5 101.5,-19.5 166.5,-19.5 166.5,-0.5 101.5,-0.5"/>
<text text-anchor="middle" x="134" y="-7.5" font-family="Helvetica,sans-Serif" font-size="10.00">BMP::split</text>
</a>
</g>
</g>
<!-- Node1&#45;&gt;Node5 -->
<g id="edge6" class="edge">
<title>Node1&#45;&gt;Node5</title>
<path fill="none" stroke="midnightblue" d="M239.6,-52.46C225.42,-44.96 207.51,-35.94 191,-29 182.96,-25.62 174.08,-22.39 165.81,-19.58"/>
<polygon fill="midnightblue" stroke="midnightblue" points="238.29,-55.73 248.75,-57.38 241.6,-49.57 238.29,-55.73"/>
</g>
<!-- Node2&#45;&gt;Node3 -->
<g id="edge2" class="edge">
<title>Node2&#45;&gt;Node3</title>
<path fill="none" stroke="midnightblue" d="M99.48,-110.49C92,-107.24 84.16,-103.64 77,-100 62.81,-92.78 47.29,-83.42 36.28,-76.51"/>
<polygon fill="midnightblue" stroke="midnightblue" points="98.13,-113.71 108.7,-114.4 100.87,-107.27 98.13,-113.71"/>
</g>
<!-- Node4&#45;&gt;Node3 -->
<g id="edge5" class="edge">
<title>Node4&#45;&gt;Node3</title>
<path fill="none" stroke="midnightblue" d="M66.99,-59.25C57.56,-60.86 48.53,-62.39 41.04,-63.67"/>
<polygon fill="midnightblue" stroke="midnightblue" points="67.65,-62.69 76.92,-57.56 66.48,-55.79 67.65,-62.69"/>
</g>
<!-- Node5&#45;&gt;Node3 -->
<g id="edge7" class="edge">
<title>Node5&#45;&gt;Node3</title>
<path fill="none" stroke="midnightblue" d="M91.67,-22.58C86.64,-24.53 81.64,-26.68 77,-29 61.12,-36.94 44.54,-48.85 33.68,-57.21"/>
<polygon fill="midnightblue" stroke="midnightblue" points="93.08,-25.79 101.28,-19.08 90.69,-19.21 93.08,-25.79"/>
</g>
</g>
</svg>
