<?xml version="1.0" encoding="UTF-8" standalone="no"?>
<!DOCTYPE svg PUBLIC "-//W3C//DTD SVG 1.1//EN"
 "http://www.w3.org/Graphics/SVG/1.1/DTD/svg11.dtd">
<!-- Generated by graphviz version 2.43.0 (0)
 -->
<!-- Title: include/bmp.h Pages: 1 -->
<svg width="408pt" height="196pt"
 viewBox="0.00 0.00 408.00 196.00" xmlns="http://www.w3.org/2000/svg" xmlns:xlink="http://www.w3.org/1999/xlink">
<g id="graph0" class="graph" transform="scale(1 1) rotate(0) translate(4 192)">
<title>include/bmp.h</title>
<polygon fill="white" stroke="transparent" points="-4,4 -4,-192 404,-192 404,4 -4,4"/>
<!-- Node1 -->
<g id="node1" class="node">
<title>Node1</title>
<g id="a_node1"><a xlink:title="Заголовочный файл, содержащий определения структур и классов.">
<polygon fill="#bfbfbf" stroke="black" points="157,-168.5 157,-187.5 243,-187.5 243,-168.5 157,-168.5"/>
<text text-anchor="middle" x="200" y="-175.5" font-family="Helvetica,sans-Serif" font-size="10.00">include/bmp.h</text>
</a>
</g>
</g>
<!-- Node2 -->
<g id="node2" class="node">
<title>Node2</title>
<g id="a_node2"><a xlink:href="../../df/d10/operation__params_8h.html" target="_top" xlink:title="Заголовочный файл, содержащий определения структур и классов.">
<polygon fill="white" stroke="black" points="58,-112.5 58,-131.5 172,-131.5 172,-112.5 58,-112.5"/>
<text text-anchor="middle" x="115" y="-119.5" font-family="Helvetica,sans-Serif" font-size="10.00">operation_params.h</text>
</a>
</g>
</g>
<!-- Node1&#45;&gt;Node2 -->
<g id="edge1" class="edge">
<title>Node1&#45;&gt;Node2</title>
<path fill="none" stroke="midnightblue" d="M186.34,-168.32C173.08,-159.9 152.73,-146.97 137.15,-137.07"/>
<polygon fill="midnightblue" stroke="midnightblue" points="138.94,-134.06 128.62,-131.65 135.19,-139.97 138.94,-134.06"/>
</g>
<!-- Node3 -->
<g id="node3" class="node">
<title>Node3</title>
<g id="a_node3"><a xlink:href="../../dd/da3/structures_8h.html" target="_top" xlink:title="Заголовочный файл, содержащий определения структур и классов.">
<polygon fill="white" stroke="black" points="20,-56.5 20,-75.5 94,-75.5 94,-56.5 20,-56.5"/>
<text text-anchor="middle" x="57" y="-63.5" font-family="Helvetica,sans-Serif" font-size="10.00">structures.h</text>
</a>
</g>
</g>
<!-- Node1&#45;&gt;Node3 -->
<g id="edge7" class="edge">
<title>Node1&#45;&gt;Node3</title>
<path fill="none" stroke="midnightblue" d="M156.74,-177.19C121.47,-174.76 73.6,-165.01 49,-132 39.04,-118.63 43.11,-99.26 48.41,-85.14"/>
<polygon fill="midnightblue" stroke="midnightblue" points="51.79,-86.12 52.49,-75.55 45.35,-83.38 51.79,-86.12"/>
</g>
<!-- Node4 -->
<g id="node4" class="node">
<title>Node4</title>
<g id="a_node4"><a xlink:title=" ">
<polygon fill="white" stroke="#bfbfbf" points="0,-0.5 0,-19.5 50,-19.5 50,-0.5 0,-0.5"/>
<text text-anchor="middle" x="25" y="-7.5" font-family="Helvetica,sans-Serif" font-size="10.00">cstdint</text>
</a>
</g>
</g>
<!-- Node1&#45;&gt;Node4 -->
<g id="edge8" class="edge">
<title>Node1&#45;&gt;Node4</title>
<path fill="none" stroke="midnightblue" d="M156.96,-174.69C121.44,-170.7 71.59,-160.08 38,-132 10.5,-109.01 5.61,-91.44 11,-56 12.37,-47 15.19,-37.33 17.95,-29.26"/>
<polygon fill="midnightblue" stroke="midnightblue" points="21.27,-30.37 21.4,-19.78 14.69,-27.98 21.27,-30.37"/>
</g>
<!-- Node5 -->
<g id="node5" class="node">
<title>Node5</title>
<g id="a_node5"><a xlink:title=" ">
<polygon fill="white" stroke="#bfbfbf" points="100,-0.5 100,-19.5 144,-19.5 144,-0.5 100,-0.5"/>
<text text-anchor="middle" x="122" y="-7.5" font-family="Helvetica,sans-Serif" font-size="10.00">string</text>
</a>
</g>
</g>
<!-- Node1&#45;&gt;Node5 -->
<g id="edge11" class="edge">
<title>Node1&#45;&gt;Node5</title>
<path fill="none" stroke="midnightblue" d="M204.35,-168.27C214.2,-147.17 235.63,-92.43 213,-56 200.13,-35.28 174.59,-23.82 153.84,-17.65"/>
<polygon fill="midnightblue" stroke="midnightblue" points="154.68,-14.25 144.11,-15.03 152.86,-21.01 154.68,-14.25"/>
</g>
<!-- Node6 -->
<g id="node6" class="node">
<title>Node6</title>
<g id="a_node6"><a xlink:title=" ">
<polygon fill="white" stroke="#bfbfbf" points="156.5,-56.5 156.5,-75.5 203.5,-75.5 203.5,-56.5 156.5,-56.5"/>
<text text-anchor="middle" x="180" y="-63.5" font-family="Helvetica,sans-Serif" font-size="10.00">vector</text>
</a>
</g>
</g>
<!-- Node1&#45;&gt;Node6 -->
<g id="edge12" class="edge">
<title>Node1&#45;&gt;Node6</title>
<path fill="none" stroke="midnightblue" d="M198.43,-168.37C195.2,-150.62 187.76,-109.67 183.38,-85.6"/>
<polygon fill="midnightblue" stroke="midnightblue" points="186.79,-84.8 181.56,-75.59 179.91,-86.06 186.79,-84.8"/>
</g>
<!-- Node7 -->
<g id="node7" class="node">
<title>Node7</title>
<g id="a_node7"><a xlink:title=" ">
<polygon fill="white" stroke="#bfbfbf" points="266.5,-112.5 266.5,-131.5 321.5,-131.5 321.5,-112.5 266.5,-112.5"/>
<text text-anchor="middle" x="294" y="-119.5" font-family="Helvetica,sans-Serif" font-size="10.00">fstream</text>
</a>
</g>
</g>
<!-- Node1&#45;&gt;Node7 -->
<g id="edge9" class="edge">
<title>Node1&#45;&gt;Node7</title>
<path fill="none" stroke="midnightblue" d="M215.1,-168.32C229.9,-159.82 252.69,-146.73 269.98,-136.8"/>
<polygon fill="midnightblue" stroke="midnightblue" points="272.01,-139.67 278.93,-131.65 268.52,-133.6 272.01,-139.67"/>
</g>
<!-- Node8 -->
<g id="node8" class="node">
<title>Node8</title>
<g id="a_node8"><a xlink:title=" ">
<polygon fill="white" stroke="#bfbfbf" points="340,-112.5 340,-131.5 400,-131.5 400,-112.5 340,-112.5"/>
<text text-anchor="middle" x="370" y="-119.5" font-family="Helvetica,sans-Serif" font-size="10.00">iostream</text>
</a>
</g>
</g>
<!-- Node1&#45;&gt;Node8 -->
<g id="edge10" class="edge">
<title>Node1&#45;&gt;Node8</title>
<path fill="none" stroke="midnightblue" d="M226.94,-168.44C255.66,-159.32 301.33,-144.81 333.32,-134.65"/>
<polygon fill="midnightblue" stroke="midnightblue" points="334.72,-137.88 343.19,-131.52 332.6,-131.21 334.72,-137.88"/>
</g>
<!-- Node2&#45;&gt;Node3 -->
<g id="edge2" class="edge">
<title>Node2&#45;&gt;Node3</title>
<path fill="none" stroke="midnightblue" d="M105.68,-112.32C97.11,-104.34 84.19,-92.31 73.81,-82.65"/>
<polygon fill="midnightblue" stroke="midnightblue" points="76.19,-80.09 66.49,-75.83 71.42,-85.21 76.19,-80.09"/>
</g>
<!-- Node2&#45;&gt;Node5 -->
<g id="edge5" class="edge">
<title>Node2&#45;&gt;Node5</title>
<path fill="none" stroke="midnightblue" d="M115.55,-112.37C116.68,-94.62 119.28,-53.67 120.82,-29.6"/>
<polygon fill="midnightblue" stroke="midnightblue" points="124.31,-29.79 121.45,-19.59 117.33,-29.35 124.31,-29.79"/>
</g>
<!-- Node2&#45;&gt;Node6 -->
<g id="edge6" class="edge">
<title>Node2&#45;&gt;Node6</title>
<path fill="none" stroke="midnightblue" d="M125.44,-112.32C135.15,-104.26 149.82,-92.08 161.5,-82.37"/>
<polygon fill="midnightblue" stroke="midnightblue" points="163.91,-84.92 169.37,-75.83 159.44,-79.53 163.91,-84.92"/>
</g>
<!-- Node3&#45;&gt;Node4 -->
<g id="edge3" class="edge">
<title>Node3&#45;&gt;Node4</title>
<path fill="none" stroke="midnightblue" d="M51.72,-56.08C47.29,-48.61 40.84,-37.72 35.38,-28.52"/>
<polygon fill="midnightblue" stroke="midnightblue" points="38.29,-26.57 30.19,-19.75 32.27,-30.14 38.29,-26.57"/>
</g>
<!-- Node3&#45;&gt;Node5 -->
<g id="edge4" class="edge">
<title>Node3&#45;&gt;Node5</title>
<path fill="none" stroke="midnightblue" d="M67.44,-56.32C77.15,-48.26 91.82,-36.08 103.5,-26.37"/>
<polygon fill="midnightblue" stroke="midnightblue" points="105.91,-28.92 111.37,-19.83 101.44,-23.53 105.91,-28.92"/>
</g>
</g>
</svg>
