<?xml version="1.0" encoding="UTF-8" standalone="no"?>
<!DOCTYPE svg PUBLIC "-//W3C//DTD SVG 1.1//EN"
 "http://www.w3.org/Graphics/SVG/1.1/DTD/svg11.dtd">
<!-- Generated by graphviz version 2.43.0 (0)
 -->
<!-- Title: source/bmp.cpp Pages: 1 -->
<svg width="767pt" height="252pt"
 viewBox="0.00 0.00 766.50 252.00" xmlns="http://www.w3.org/2000/svg" xmlns:xlink="http://www.w3.org/1999/xlink">
<g id="graph0" class="graph" transform="scale(1 1) rotate(0) translate(4 248)">
<title>source/bmp.cpp</title>
<polygon fill="white" stroke="transparent" points="-4,4 -4,-248 762.5,-248 762.5,4 -4,4"/>
<!-- Node1 -->
<g id="node1" class="node">
<title>Node1</title>
<g id="a_node1"><a xlink:title="Реализация методов класса BMP для работы с изображениями в формате BMP.">
<polygon fill="#bfbfbf" stroke="black" points="572,-224.5 572,-243.5 666,-243.5 666,-224.5 572,-224.5"/>
<text text-anchor="middle" x="619" y="-231.5" font-family="Helvetica,sans-Serif" font-size="10.00">source/bmp.cpp</text>
</a>
</g>
</g>
<!-- Node2 -->
<g id="node2" class="node">
<title>Node2</title>
<g id="a_node2"><a xlink:href="bmp_8hpp.html" target="_top" xlink:title=" ">
<polygon fill="white" stroke="black" points="330.5,-168.5 330.5,-187.5 389.5,-187.5 389.5,-168.5 330.5,-168.5"/>
<text text-anchor="middle" x="360" y="-175.5" font-family="Helvetica,sans-Serif" font-size="10.00">bmp.hpp</text>
</a>
</g>
</g>
<!-- Node1&#45;&gt;Node2 -->
<g id="edge1" class="edge">
<title>Node1&#45;&gt;Node2</title>
<path fill="none" stroke="midnightblue" d="M577.96,-224.44C529.06,-214.25 447.92,-197.33 399.64,-187.26"/>
<polygon fill="midnightblue" stroke="midnightblue" points="400.07,-183.78 389.57,-185.16 398.64,-190.63 400.07,-183.78"/>
</g>
<!-- Node14 -->
<g id="node14" class="node">
<title>Node14</title>
<g id="a_node14"><a xlink:href="logger_8hpp.html" target="_top" xlink:title=" ">
<polygon fill="white" stroke="black" points="585,-168.5 585,-187.5 653,-187.5 653,-168.5 585,-168.5"/>
<text text-anchor="middle" x="619" y="-175.5" font-family="Helvetica,sans-Serif" font-size="10.00">logger.hpp</text>
</a>
</g>
</g>
<!-- Node1&#45;&gt;Node14 -->
<g id="edge15" class="edge">
<title>Node1&#45;&gt;Node14</title>
<path fill="none" stroke="midnightblue" d="M619,-224.08C619,-217.01 619,-206.86 619,-197.99"/>
<polygon fill="midnightblue" stroke="midnightblue" points="622.5,-197.75 619,-187.75 615.5,-197.75 622.5,-197.75"/>
</g>
<!-- Node16 -->
<g id="node16" class="node">
<title>Node16</title>
<g id="a_node16"><a xlink:href="messages_8hpp.html" target="_top" xlink:title=" ">
<polygon fill="white" stroke="black" points="671.5,-168.5 671.5,-187.5 758.5,-187.5 758.5,-168.5 671.5,-168.5"/>
<text text-anchor="middle" x="715" y="-175.5" font-family="Helvetica,sans-Serif" font-size="10.00">messages.hpp</text>
</a>
</g>
</g>
<!-- Node1&#45;&gt;Node16 -->
<g id="edge18" class="edge">
<title>Node1&#45;&gt;Node16</title>
<path fill="none" stroke="midnightblue" d="M634.42,-224.32C649.54,-215.82 672.82,-202.73 690.47,-192.8"/>
<polygon fill="midnightblue" stroke="midnightblue" points="692.61,-195.61 699.61,-187.65 689.18,-189.51 692.61,-195.61"/>
</g>
<!-- Node3 -->
<g id="node3" class="node">
<title>Node3</title>
<g id="a_node3"><a xlink:href="operation__params_8hpp.html" target="_top" xlink:title=" ">
<polygon fill="white" stroke="black" points="297,-112.5 297,-131.5 423,-131.5 423,-112.5 297,-112.5"/>
<text text-anchor="middle" x="360" y="-119.5" font-family="Helvetica,sans-Serif" font-size="10.00">operation_params.hpp</text>
</a>
</g>
</g>
<!-- Node2&#45;&gt;Node3 -->
<g id="edge2" class="edge">
<title>Node2&#45;&gt;Node3</title>
<path fill="none" stroke="midnightblue" d="M360,-168.08C360,-161.01 360,-150.86 360,-141.99"/>
<polygon fill="midnightblue" stroke="midnightblue" points="363.5,-141.75 360,-131.75 356.5,-141.75 363.5,-141.75"/>
</g>
<!-- Node4 -->
<g id="node4" class="node">
<title>Node4</title>
<g id="a_node4"><a xlink:href="structures_8hpp.html" target="_top" xlink:title=" ">
<polygon fill="white" stroke="black" points="0,-56.5 0,-75.5 86,-75.5 86,-56.5 0,-56.5"/>
<text text-anchor="middle" x="43" y="-63.5" font-family="Helvetica,sans-Serif" font-size="10.00">structures.hpp</text>
</a>
</g>
</g>
<!-- Node2&#45;&gt;Node4 -->
<g id="edge12" class="edge">
<title>Node2&#45;&gt;Node4</title>
<path fill="none" stroke="midnightblue" d="M346.53,-168.3C321.79,-152.45 269.82,-119.78 250,-112 222.48,-101.2 147.88,-86.22 96.19,-76.56"/>
<polygon fill="midnightblue" stroke="midnightblue" points="96.65,-73.09 86.17,-74.71 95.37,-79.97 96.65,-73.09"/>
</g>
<!-- Node8 -->
<g id="node8" class="node">
<title>Node8</title>
<g id="a_node8"><a xlink:title=" ">
<polygon fill="white" stroke="#bfbfbf" points="541,-56.5 541,-75.5 591,-75.5 591,-56.5 541,-56.5"/>
<text text-anchor="middle" x="566" y="-63.5" font-family="Helvetica,sans-Serif" font-size="10.00">cstring</text>
</a>
</g>
</g>
<!-- Node2&#45;&gt;Node8 -->
<g id="edge13" class="edge">
<title>Node2&#45;&gt;Node8</title>
<path fill="none" stroke="midnightblue" d="M376.16,-168.37C411.97,-149.25 498.15,-103.23 540.98,-80.36"/>
<polygon fill="midnightblue" stroke="midnightblue" points="542.74,-83.39 549.91,-75.59 539.44,-77.21 542.74,-83.39"/>
</g>
<!-- Node13 -->
<g id="node13" class="node">
<title>Node13</title>
<g id="a_node13"><a xlink:title=" ">
<polygon fill="white" stroke="#bfbfbf" points="185.5,-112.5 185.5,-131.5 240.5,-131.5 240.5,-112.5 185.5,-112.5"/>
<text text-anchor="middle" x="213" y="-119.5" font-family="Helvetica,sans-Serif" font-size="10.00">fstream</text>
</a>
</g>
</g>
<!-- Node2&#45;&gt;Node13 -->
<g id="edge14" class="edge">
<title>Node2&#45;&gt;Node13</title>
<path fill="none" stroke="midnightblue" d="M336.71,-168.44C312.19,-159.44 273.4,-145.19 245.8,-135.05"/>
<polygon fill="midnightblue" stroke="midnightblue" points="246.78,-131.68 236.18,-131.52 244.36,-138.25 246.78,-131.68"/>
</g>
<!-- Node3&#45;&gt;Node4 -->
<g id="edge3" class="edge">
<title>Node3&#45;&gt;Node4</title>
<path fill="none" stroke="midnightblue" d="M309.19,-112.42C258.03,-103.77 176.54,-89.96 96.4,-76.24"/>
<polygon fill="midnightblue" stroke="midnightblue" points="96.58,-72.72 86.13,-74.48 95.39,-79.61 96.58,-72.72"/>
</g>
<!-- Node6 -->
<g id="node6" class="node">
<title>Node6</title>
<g id="a_node6"><a xlink:title=" ">
<polygon fill="white" stroke="#bfbfbf" points="261.5,-56.5 261.5,-75.5 318.5,-75.5 318.5,-56.5 261.5,-56.5"/>
<text text-anchor="middle" x="290" y="-63.5" font-family="Helvetica,sans-Serif" font-size="10.00">getopt.h</text>
</a>
</g>
</g>
<!-- Node3&#45;&gt;Node6 -->
<g id="edge5" class="edge">
<title>Node3&#45;&gt;Node6</title>
<path fill="none" stroke="midnightblue" d="M348.75,-112.32C338.2,-104.18 322.2,-91.84 309.56,-82.09"/>
<polygon fill="midnightblue" stroke="midnightblue" points="311.51,-79.17 301.45,-75.83 307.23,-84.71 311.51,-79.17"/>
</g>
<!-- Node7 -->
<g id="node7" class="node">
<title>Node7</title>
<g id="a_node7"><a xlink:title=" ">
<polygon fill="white" stroke="#bfbfbf" points="336.5,-56.5 336.5,-75.5 383.5,-75.5 383.5,-56.5 336.5,-56.5"/>
<text text-anchor="middle" x="360" y="-63.5" font-family="Helvetica,sans-Serif" font-size="10.00">vector</text>
</a>
</g>
</g>
<!-- Node3&#45;&gt;Node7 -->
<g id="edge6" class="edge">
<title>Node3&#45;&gt;Node7</title>
<path fill="none" stroke="midnightblue" d="M360,-112.08C360,-105.01 360,-94.86 360,-85.99"/>
<polygon fill="midnightblue" stroke="midnightblue" points="363.5,-85.75 360,-75.75 356.5,-85.75 363.5,-85.75"/>
</g>
<!-- Node3&#45;&gt;Node8 -->
<g id="edge7" class="edge">
<title>Node3&#45;&gt;Node8</title>
<path fill="none" stroke="midnightblue" d="M392.66,-112.48C425.3,-103.97 477.19,-90.41 531.04,-76.25"/>
<polygon fill="midnightblue" stroke="midnightblue" points="531.97,-79.62 540.75,-73.69 530.19,-72.85 531.97,-79.62"/>
</g>
<!-- Node9 -->
<g id="node9" class="node">
<title>Node9</title>
<g id="a_node9"><a xlink:title=" ">
<polygon fill="white" stroke="#bfbfbf" points="401.5,-56.5 401.5,-75.5 466.5,-75.5 466.5,-56.5 401.5,-56.5"/>
<text text-anchor="middle" x="434" y="-63.5" font-family="Helvetica,sans-Serif" font-size="10.00">functional</text>
</a>
</g>
</g>
<!-- Node3&#45;&gt;Node9 -->
<g id="edge8" class="edge">
<title>Node3&#45;&gt;Node9</title>
<path fill="none" stroke="midnightblue" d="M371.89,-112.32C383.15,-104.11 400.29,-91.6 413.71,-81.81"/>
<polygon fill="midnightblue" stroke="midnightblue" points="415.88,-84.56 421.89,-75.83 411.75,-78.9 415.88,-84.56"/>
</g>
<!-- Node10 -->
<g id="node10" class="node">
<title>Node10</title>
<g id="a_node10"><a xlink:title=" ">
<polygon fill="white" stroke="#bfbfbf" points="485,-56.5 485,-75.5 523,-75.5 523,-56.5 485,-56.5"/>
<text text-anchor="middle" x="504" y="-63.5" font-family="Helvetica,sans-Serif" font-size="10.00">map</text>
</a>
</g>
</g>
<!-- Node3&#45;&gt;Node10 -->
<g id="edge9" class="edge">
<title>Node3&#45;&gt;Node10</title>
<path fill="none" stroke="midnightblue" d="M382.82,-112.44C407.85,-103.06 448.08,-87.97 475.25,-77.78"/>
<polygon fill="midnightblue" stroke="midnightblue" points="476.83,-80.93 484.97,-74.14 474.38,-74.37 476.83,-80.93"/>
</g>
<!-- Node11 -->
<g id="node11" class="node">
<title>Node11</title>
<g id="a_node11"><a xlink:title=" ">
<polygon fill="white" stroke="#bfbfbf" points="104,-56.5 104,-75.5 160,-75.5 160,-56.5 104,-56.5"/>
<text text-anchor="middle" x="132" y="-63.5" font-family="Helvetica,sans-Serif" font-size="10.00">sstream</text>
</a>
</g>
</g>
<!-- Node3&#45;&gt;Node11 -->
<g id="edge10" class="edge">
<title>Node3&#45;&gt;Node11</title>
<path fill="none" stroke="midnightblue" d="M323.37,-112.45C286.93,-103.93 229.17,-90.38 170.14,-76.26"/>
<polygon fill="midnightblue" stroke="midnightblue" points="170.82,-72.82 160.28,-73.9 169.19,-79.63 170.82,-72.82"/>
</g>
<!-- Node12 -->
<g id="node12" class="node">
<title>Node12</title>
<g id="a_node12"><a xlink:title=" ">
<polygon fill="white" stroke="#bfbfbf" points="178.5,-56.5 178.5,-75.5 243.5,-75.5 243.5,-56.5 178.5,-56.5"/>
<text text-anchor="middle" x="211" y="-63.5" font-family="Helvetica,sans-Serif" font-size="10.00">stdexcept</text>
</a>
</g>
</g>
<!-- Node3&#45;&gt;Node12 -->
<g id="edge11" class="edge">
<title>Node3&#45;&gt;Node12</title>
<path fill="none" stroke="midnightblue" d="M336.39,-112.44C311.54,-103.44 272.23,-89.19 244.25,-79.05"/>
<polygon fill="midnightblue" stroke="midnightblue" points="245.09,-75.63 234.5,-75.52 242.71,-82.21 245.09,-75.63"/>
</g>
<!-- Node5 -->
<g id="node5" class="node">
<title>Node5</title>
<g id="a_node5"><a xlink:title=" ">
<polygon fill="white" stroke="#bfbfbf" points="309,-0.5 309,-19.5 353,-19.5 353,-0.5 309,-0.5"/>
<text text-anchor="middle" x="331" y="-7.5" font-family="Helvetica,sans-Serif" font-size="10.00">string</text>
</a>
</g>
</g>
<!-- Node4&#45;&gt;Node5 -->
<g id="edge4" class="edge">
<title>Node4&#45;&gt;Node5</title>
<path fill="none" stroke="midnightblue" d="M86.12,-56.92C144.4,-45.99 246.99,-26.75 298.93,-17.01"/>
<polygon fill="midnightblue" stroke="midnightblue" points="299.73,-20.42 308.92,-15.14 298.44,-13.54 299.73,-20.42"/>
</g>
<!-- Node14&#45;&gt;Node5 -->
<g id="edge17" class="edge">
<title>Node14&#45;&gt;Node5</title>
<path fill="none" stroke="midnightblue" d="M620.69,-168.19C624.4,-145.93 630.67,-86.98 600,-56 567.41,-23.08 427.47,-14.19 363.34,-11.83"/>
<polygon fill="midnightblue" stroke="midnightblue" points="363.12,-8.33 353,-11.49 362.88,-15.32 363.12,-8.33"/>
</g>
<!-- Node15 -->
<g id="node15" class="node">
<title>Node15</title>
<g id="a_node15"><a xlink:title=" ">
<polygon fill="white" stroke="#bfbfbf" points="647,-112.5 647,-131.5 707,-131.5 707,-112.5 647,-112.5"/>
<text text-anchor="middle" x="677" y="-119.5" font-family="Helvetica,sans-Serif" font-size="10.00">iostream</text>
</a>
</g>
</g>
<!-- Node14&#45;&gt;Node15 -->
<g id="edge16" class="edge">
<title>Node14&#45;&gt;Node15</title>
<path fill="none" stroke="midnightblue" d="M628.32,-168.32C636.89,-160.34 649.81,-148.31 660.19,-138.65"/>
<polygon fill="midnightblue" stroke="midnightblue" points="662.58,-141.21 667.51,-131.83 657.81,-136.09 662.58,-141.21"/>
</g>
</g>
</svg>
