<?xml version="1.0" encoding="UTF-8" standalone="no"?>
<!DOCTYPE svg PUBLIC "-//W3C//DTD SVG 1.1//EN"
 "http://www.w3.org/Graphics/SVG/1.1/DTD/svg11.dtd">
<!-- Generated by graphviz version 2.43.0 (0)
 -->
<!-- Title: src/bmp.cpp Pages: 1 -->
<svg width="580pt" height="252pt"
 viewBox="0.00 0.00 580.38 252.00" xmlns="http://www.w3.org/2000/svg" xmlns:xlink="http://www.w3.org/1999/xlink">
<g id="graph0" class="graph" transform="scale(1 1) rotate(0) translate(4 248)">
<title>src/bmp.cpp</title>
<polygon fill="white" stroke="transparent" points="-4,4 -4,-248 576.38,-248 576.38,4 -4,4"/>
<!-- Node1 -->
<g id="node1" class="node">
<title>Node1</title>
<g id="a_node1"><a xlink:title="Реализация методов класса BMP для работы с изображениями в формате BMP.">
<polygon fill="#bfbfbf" stroke="black" points="362.38,-224.5 362.38,-243.5 438.38,-243.5 438.38,-224.5 362.38,-224.5"/>
<text text-anchor="middle" x="400.38" y="-231.5" font-family="Helvetica,sans-Serif" font-size="10.00">src/bmp.cpp</text>
</a>
</g>
</g>
<!-- Node2 -->
<g id="node2" class="node">
<title>Node2</title>
<g id="a_node2"><a xlink:href="bmp_8h.html" target="_top" xlink:title="Заголовочный файл, содержащий определения структур и классов.">
<polygon fill="white" stroke="black" points="197.88,-168.5 197.88,-187.5 244.88,-187.5 244.88,-168.5 197.88,-168.5"/>
<text text-anchor="middle" x="221.38" y="-175.5" font-family="Helvetica,sans-Serif" font-size="10.00">bmp.h</text>
</a>
</g>
</g>
<!-- Node1&#45;&gt;Node2 -->
<g id="edge1" class="edge">
<title>Node1&#45;&gt;Node2</title>
<path fill="none" stroke="midnightblue" d="M372.02,-224.44C340.22,-214.85 288.68,-199.3 254.91,-189.11"/>
<polygon fill="midnightblue" stroke="midnightblue" points="255.63,-185.67 245.04,-186.14 253.6,-192.38 255.63,-185.67"/>
</g>
<!-- Node8 -->
<g id="node8" class="node">
<title>Node8</title>
<g id="a_node8"><a xlink:title=" ">
<polygon fill="white" stroke="#bfbfbf" points="316.88,-112.5 316.88,-131.5 371.88,-131.5 371.88,-112.5 316.88,-112.5"/>
<text text-anchor="middle" x="344.38" y="-119.5" font-family="Helvetica,sans-Serif" font-size="10.00">fstream</text>
</a>
</g>
</g>
<!-- Node1&#45;&gt;Node8 -->
<g id="edge18" class="edge">
<title>Node1&#45;&gt;Node8</title>
<path fill="none" stroke="midnightblue" d="M395.99,-224.37C386.83,-206.38 365.54,-164.55 353.36,-140.63"/>
<polygon fill="midnightblue" stroke="midnightblue" points="356.41,-138.92 348.76,-131.59 350.17,-142.09 356.41,-138.92"/>
</g>
<!-- Node10 -->
<g id="node10" class="node">
<title>Node10</title>
<g id="a_node10"><a xlink:href="logger_8h.html" target="_top" xlink:title="Заголовочный файл, содержащий определения структур и классов.">
<polygon fill="white" stroke="black" points="344.38,-56.5 344.38,-75.5 400.38,-75.5 400.38,-56.5 344.38,-56.5"/>
<text text-anchor="middle" x="372.38" y="-63.5" font-family="Helvetica,sans-Serif" font-size="10.00">logger.h</text>
</a>
</g>
</g>
<!-- Node1&#45;&gt;Node10 -->
<g id="edge14" class="edge">
<title>Node1&#45;&gt;Node10</title>
<path fill="none" stroke="midnightblue" d="M399.01,-224.49C395.82,-204.72 387.62,-154.18 380.38,-112 378.89,-103.29 377.18,-93.64 375.73,-85.52"/>
<polygon fill="midnightblue" stroke="midnightblue" points="379.16,-84.84 373.95,-75.62 372.27,-86.08 379.16,-84.84"/>
</g>
<!-- Node11 -->
<g id="node11" class="node">
<title>Node11</title>
<g id="a_node11"><a xlink:href="messages_8h.html" target="_top" xlink:title="Заголовочный файл, содержащий определения структур и классов.">
<polygon fill="white" stroke="black" points="428.88,-168.5 428.88,-187.5 503.88,-187.5 503.88,-168.5 428.88,-168.5"/>
<text text-anchor="middle" x="466.38" y="-175.5" font-family="Helvetica,sans-Serif" font-size="10.00">messages.h</text>
</a>
</g>
</g>
<!-- Node1&#45;&gt;Node11 -->
<g id="edge16" class="edge">
<title>Node1&#45;&gt;Node11</title>
<path fill="none" stroke="midnightblue" d="M410.99,-224.32C420.84,-216.26 435.73,-204.08 447.6,-194.37"/>
<polygon fill="midnightblue" stroke="midnightblue" points="450.06,-196.88 455.59,-187.83 445.63,-191.46 450.06,-196.88"/>
</g>
<!-- Node12 -->
<g id="node12" class="node">
<title>Node12</title>
<g id="a_node12"><a xlink:title=" ">
<polygon fill="white" stroke="#bfbfbf" points="522.38,-168.5 522.38,-187.5 572.38,-187.5 572.38,-168.5 522.38,-168.5"/>
<text text-anchor="middle" x="547.38" y="-175.5" font-family="Helvetica,sans-Serif" font-size="10.00">cstring</text>
</a>
</g>
</g>
<!-- Node1&#45;&gt;Node12 -->
<g id="edge17" class="edge">
<title>Node1&#45;&gt;Node12</title>
<path fill="none" stroke="midnightblue" d="M423.68,-224.44C448.19,-215.44 486.98,-201.19 514.58,-191.05"/>
<polygon fill="midnightblue" stroke="midnightblue" points="516.02,-194.25 524.2,-187.52 513.61,-187.68 516.02,-194.25"/>
</g>
<!-- Node3 -->
<g id="node3" class="node">
<title>Node3</title>
<g id="a_node3"><a xlink:href="operation__params_8h.html" target="_top" xlink:title="Заголовочный файл, содержащий определения структур и классов.">
<polygon fill="white" stroke="black" points="30.38,-112.5 30.38,-131.5 144.38,-131.5 144.38,-112.5 30.38,-112.5"/>
<text text-anchor="middle" x="87.38" y="-119.5" font-family="Helvetica,sans-Serif" font-size="10.00">operation_params.h</text>
</a>
</g>
</g>
<!-- Node2&#45;&gt;Node3 -->
<g id="edge2" class="edge">
<title>Node2&#45;&gt;Node3</title>
<path fill="none" stroke="midnightblue" d="M200.15,-168.44C178,-159.52 143.06,-145.44 117.95,-135.32"/>
<polygon fill="midnightblue" stroke="midnightblue" points="119.1,-132.01 108.52,-131.52 116.48,-138.5 119.1,-132.01"/>
</g>
<!-- Node4 -->
<g id="node4" class="node">
<title>Node4</title>
<g id="a_node4"><a xlink:href="structures_8h.html" target="_top" xlink:title="Заголовочный файл, содержащий определения структур и классов.">
<polygon fill="white" stroke="black" points="21.38,-56.5 21.38,-75.5 95.38,-75.5 95.38,-56.5 21.38,-56.5"/>
<text text-anchor="middle" x="58.38" y="-63.5" font-family="Helvetica,sans-Serif" font-size="10.00">structures.h</text>
</a>
</g>
</g>
<!-- Node2&#45;&gt;Node4 -->
<g id="edge8" class="edge">
<title>Node2&#45;&gt;Node4</title>
<path fill="none" stroke="midnightblue" d="M197.53,-175.26C149.37,-171.21 43.23,-159.3 21.38,-132 8.93,-116.43 24.73,-96.15 39.37,-82.41"/>
<polygon fill="midnightblue" stroke="midnightblue" points="42,-84.76 47.2,-75.53 37.38,-79.51 42,-84.76"/>
</g>
<!-- Node5 -->
<g id="node5" class="node">
<title>Node5</title>
<g id="a_node5"><a xlink:title=" ">
<polygon fill="white" stroke="#bfbfbf" points="25.38,-0.5 25.38,-19.5 75.38,-19.5 75.38,-0.5 25.38,-0.5"/>
<text text-anchor="middle" x="50.38" y="-7.5" font-family="Helvetica,sans-Serif" font-size="10.00">cstdint</text>
</a>
</g>
</g>
<!-- Node2&#45;&gt;Node5 -->
<g id="edge9" class="edge">
<title>Node2&#45;&gt;Node5</title>
<path fill="none" stroke="midnightblue" d="M197.77,-175.47C148.33,-171.73 36.6,-160.26 13.38,-132 -8.06,-105.9 0.78,-87.73 12.38,-56 16.44,-44.91 24.57,-34.67 32.27,-26.76"/>
<polygon fill="midnightblue" stroke="midnightblue" points="34.86,-29.14 39.67,-19.7 30.02,-24.07 34.86,-29.14"/>
</g>
<!-- Node6 -->
<g id="node6" class="node">
<title>Node6</title>
<g id="a_node6"><a xlink:title=" ">
<polygon fill="white" stroke="#bfbfbf" points="125.38,-0.5 125.38,-19.5 169.38,-19.5 169.38,-0.5 125.38,-0.5"/>
<text text-anchor="middle" x="147.38" y="-7.5" font-family="Helvetica,sans-Serif" font-size="10.00">string</text>
</a>
</g>
</g>
<!-- Node2&#45;&gt;Node6 -->
<g id="edge12" class="edge">
<title>Node2&#45;&gt;Node6</title>
<path fill="none" stroke="midnightblue" d="M228.01,-168.27C234.15,-159.61 242.84,-145.67 246.38,-132 254.86,-99.3 264.67,-84.4 246.38,-56 231.76,-33.29 202.55,-21.91 179.64,-16.28"/>
<polygon fill="midnightblue" stroke="midnightblue" points="180.14,-12.81 169.63,-14.09 178.64,-19.65 180.14,-12.81"/>
</g>
<!-- Node7 -->
<g id="node7" class="node">
<title>Node7</title>
<g id="a_node7"><a xlink:title=" ">
<polygon fill="white" stroke="#bfbfbf" points="190.88,-56.5 190.88,-75.5 237.88,-75.5 237.88,-56.5 190.88,-56.5"/>
<text text-anchor="middle" x="214.38" y="-63.5" font-family="Helvetica,sans-Serif" font-size="10.00">vector</text>
</a>
</g>
</g>
<!-- Node2&#45;&gt;Node7 -->
<g id="edge13" class="edge">
<title>Node2&#45;&gt;Node7</title>
<path fill="none" stroke="midnightblue" d="M224.62,-168.14C228.77,-155.61 235.03,-131.99 231.38,-112 229.7,-102.76 226.21,-92.95 222.83,-84.85"/>
<polygon fill="midnightblue" stroke="midnightblue" points="226.01,-83.4 218.75,-75.69 219.62,-86.25 226.01,-83.4"/>
</g>
<!-- Node2&#45;&gt;Node8 -->
<g id="edge10" class="edge">
<title>Node2&#45;&gt;Node8</title>
<path fill="none" stroke="midnightblue" d="M240.87,-168.44C261.03,-159.6 292.71,-145.69 315.71,-135.59"/>
<polygon fill="midnightblue" stroke="midnightblue" points="317.24,-138.74 324.98,-131.52 314.42,-132.33 317.24,-138.74"/>
</g>
<!-- Node9 -->
<g id="node9" class="node">
<title>Node9</title>
<g id="a_node9"><a xlink:title=" ">
<polygon fill="white" stroke="#bfbfbf" points="162.38,-112.5 162.38,-131.5 222.38,-131.5 222.38,-112.5 162.38,-112.5"/>
<text text-anchor="middle" x="192.38" y="-119.5" font-family="Helvetica,sans-Serif" font-size="10.00">iostream</text>
</a>
</g>
</g>
<!-- Node2&#45;&gt;Node9 -->
<g id="edge11" class="edge">
<title>Node2&#45;&gt;Node9</title>
<path fill="none" stroke="midnightblue" d="M216.59,-168.08C212.62,-160.69 206.86,-149.95 201.95,-140.81"/>
<polygon fill="midnightblue" stroke="midnightblue" points="204.9,-138.91 197.08,-131.75 198.73,-142.22 204.9,-138.91"/>
</g>
<!-- Node3&#45;&gt;Node4 -->
<g id="edge3" class="edge">
<title>Node3&#45;&gt;Node4</title>
<path fill="none" stroke="midnightblue" d="M82.59,-112.08C78.62,-104.69 72.86,-93.95 67.95,-84.81"/>
<polygon fill="midnightblue" stroke="midnightblue" points="70.9,-82.91 63.08,-75.75 64.73,-86.22 70.9,-82.91"/>
</g>
<!-- Node3&#45;&gt;Node6 -->
<g id="edge6" class="edge">
<title>Node3&#45;&gt;Node6</title>
<path fill="none" stroke="midnightblue" d="M92.09,-112.37C101.91,-94.38 124.72,-52.55 137.77,-28.63"/>
<polygon fill="midnightblue" stroke="midnightblue" points="140.98,-30.05 142.7,-19.59 134.84,-26.69 140.98,-30.05"/>
</g>
<!-- Node3&#45;&gt;Node7 -->
<g id="edge7" class="edge">
<title>Node3&#45;&gt;Node7</title>
<path fill="none" stroke="midnightblue" d="M107.51,-112.44C128.41,-103.56 161.32,-89.56 185.1,-79.45"/>
<polygon fill="midnightblue" stroke="midnightblue" points="186.52,-82.65 194.35,-75.52 183.78,-76.21 186.52,-82.65"/>
</g>
<!-- Node4&#45;&gt;Node5 -->
<g id="edge4" class="edge">
<title>Node4&#45;&gt;Node5</title>
<path fill="none" stroke="midnightblue" d="M57.06,-56.08C56,-48.93 54.48,-38.64 53.15,-29.69"/>
<polygon fill="midnightblue" stroke="midnightblue" points="56.61,-29.13 51.68,-19.75 49.68,-30.16 56.61,-29.13"/>
</g>
<!-- Node4&#45;&gt;Node6 -->
<g id="edge5" class="edge">
<title>Node4&#45;&gt;Node6</title>
<path fill="none" stroke="midnightblue" d="M72.68,-56.32C86.57,-47.9 107.88,-34.97 124.19,-25.07"/>
<polygon fill="midnightblue" stroke="midnightblue" points="126.39,-27.83 133.12,-19.65 122.75,-21.85 126.39,-27.83"/>
</g>
<!-- Node10&#45;&gt;Node6 -->
<g id="edge15" class="edge">
<title>Node10&#45;&gt;Node6</title>
<path fill="none" stroke="midnightblue" d="M344.34,-58.27C302.46,-48.22 223.79,-29.34 179.6,-18.73"/>
<polygon fill="midnightblue" stroke="midnightblue" points="180.22,-15.28 169.68,-16.35 178.58,-22.09 180.22,-15.28"/>
</g>
</g>
</svg>
