<?xml version="1.0" encoding="UTF-8" standalone="no"?>
<!DOCTYPE svg PUBLIC "-//W3C//DTD SVG 1.1//EN"
 "http://www.w3.org/Graphics/SVG/1.1/DTD/svg11.dtd">
<!-- Generated by graphviz version 2.43.0 (0)
 -->
<!-- Title: src/bmp.cpp Pages: 1 -->
<svg width="401pt" height="84pt"
 viewBox="0.00 0.00 401.00 84.00" xmlns="http://www.w3.org/2000/svg" xmlns:xlink="http://www.w3.org/1999/xlink">
<g id="graph0" class="graph" transform="scale(1 1) rotate(0) translate(4 80)">
<title>src/bmp.cpp</title>
<polygon fill="white" stroke="transparent" points="-4,4 -4,-80 397,-80 397,4 -4,4"/>
<!-- Node1 -->
<g id="node1" class="node">
<title>Node1</title>
<g id="a_node1"><a xlink:title="Реализация методов класса BMP для работы с изображениями в формате BMP.">
<polygon fill="#bfbfbf" stroke="black" points="169.5,-56.5 169.5,-75.5 245.5,-75.5 245.5,-56.5 169.5,-56.5"/>
<text text-anchor="middle" x="207.5" y="-63.5" font-family="Helvetica,sans-Serif" font-size="10.00">src/bmp.cpp</text>
</a>
</g>
</g>
<!-- Node2 -->
<g id="node2" class="node">
<title>Node2</title>
<g id="a_node2"><a xlink:title=" ">
<polygon fill="white" stroke="#bfbfbf" points="0,-0.5 0,-19.5 59,-19.5 59,-0.5 0,-0.5"/>
<text text-anchor="middle" x="29.5" y="-7.5" font-family="Helvetica,sans-Serif" font-size="10.00">bmp.hpp</text>
</a>
</g>
</g>
<!-- Node1&#45;&gt;Node2 -->
<g id="edge1" class="edge">
<title>Node1&#45;&gt;Node2</title>
<path fill="none" stroke="midnightblue" d="M179.3,-56.44C149.09,-47.28 100.99,-32.69 67.47,-22.52"/>
<polygon fill="midnightblue" stroke="midnightblue" points="68.16,-19.07 57.57,-19.52 66.13,-25.77 68.16,-19.07"/>
</g>
<!-- Node3 -->
<g id="node3" class="node">
<title>Node3</title>
<g id="a_node3"><a xlink:title=" ">
<polygon fill="white" stroke="#bfbfbf" points="77.5,-0.5 77.5,-19.5 145.5,-19.5 145.5,-0.5 77.5,-0.5"/>
<text text-anchor="middle" x="111.5" y="-7.5" font-family="Helvetica,sans-Serif" font-size="10.00">logger.hpp</text>
</a>
</g>
</g>
<!-- Node1&#45;&gt;Node3 -->
<g id="edge2" class="edge">
<title>Node1&#45;&gt;Node3</title>
<path fill="none" stroke="midnightblue" d="M192.08,-56.32C176.96,-47.82 153.68,-34.73 136.03,-24.8"/>
<polygon fill="midnightblue" stroke="midnightblue" points="137.32,-21.51 126.89,-19.65 133.89,-27.61 137.32,-21.51"/>
</g>
<!-- Node4 -->
<g id="node4" class="node">
<title>Node4</title>
<g id="a_node4"><a xlink:title=" ">
<polygon fill="white" stroke="#bfbfbf" points="164,-0.5 164,-19.5 251,-19.5 251,-0.5 164,-0.5"/>
<text text-anchor="middle" x="207.5" y="-7.5" font-family="Helvetica,sans-Serif" font-size="10.00">messages.hpp</text>
</a>
</g>
</g>
<!-- Node1&#45;&gt;Node4 -->
<g id="edge3" class="edge">
<title>Node1&#45;&gt;Node4</title>
<path fill="none" stroke="midnightblue" d="M207.5,-56.08C207.5,-49.01 207.5,-38.86 207.5,-29.99"/>
<polygon fill="midnightblue" stroke="midnightblue" points="211,-29.75 207.5,-19.75 204,-29.75 211,-29.75"/>
</g>
<!-- Node5 -->
<g id="node5" class="node">
<title>Node5</title>
<g id="a_node5"><a xlink:title=" ">
<polygon fill="white" stroke="#bfbfbf" points="269.5,-0.5 269.5,-19.5 319.5,-19.5 319.5,-0.5 269.5,-0.5"/>
<text text-anchor="middle" x="294.5" y="-7.5" font-family="Helvetica,sans-Serif" font-size="10.00">cstring</text>
</a>
</g>
</g>
<!-- Node1&#45;&gt;Node5 -->
<g id="edge4" class="edge">
<title>Node1&#45;&gt;Node5</title>
<path fill="none" stroke="midnightblue" d="M221.48,-56.32C235.05,-47.9 255.88,-34.97 271.82,-25.07"/>
<polygon fill="midnightblue" stroke="midnightblue" points="273.91,-27.9 280.56,-19.65 270.21,-21.95 273.91,-27.9"/>
</g>
<!-- Node6 -->
<g id="node6" class="node">
<title>Node6</title>
<g id="a_node6"><a xlink:title=" ">
<polygon fill="white" stroke="#bfbfbf" points="338,-0.5 338,-19.5 393,-19.5 393,-0.5 338,-0.5"/>
<text text-anchor="middle" x="365.5" y="-7.5" font-family="Helvetica,sans-Serif" font-size="10.00">fstream</text>
</a>
</g>
</g>
<!-- Node1&#45;&gt;Node6 -->
<g id="edge5" class="edge">
<title>Node1&#45;&gt;Node6</title>
<path fill="none" stroke="midnightblue" d="M232.54,-56.44C259.12,-47.36 301.31,-32.94 331.02,-22.78"/>
<polygon fill="midnightblue" stroke="midnightblue" points="332.25,-26.06 340.58,-19.52 329.99,-19.44 332.25,-26.06"/>
</g>
</g>
</svg>
