<?xml version="1.0" encoding="UTF-8" standalone="no"?>
<!DOCTYPE svg PUBLIC "-//W3C//DTD SVG 1.1//EN"
 "http://www.w3.org/Graphics/SVG/1.1/DTD/svg11.dtd">
<!-- Generated by graphviz version 2.43.0 (0)
 -->
<!-- Title: Logger::exit Pages: 1 -->
<svg width="554pt" height="325pt"
 viewBox="0.00 0.00 554.00 325.05" xmlns="http://www.w3.org/2000/svg" xmlns:xlink="http://www.w3.org/1999/xlink">
<g id="graph0" class="graph" transform="scale(1 1) rotate(0) translate(4 321.05)">
<title>Logger::exit</title>
<polygon fill="white" stroke="transparent" points="-4,4 -4,-321.05 550,-321.05 550,4 -4,4"/>
<!-- Node1 -->
<g id="node1" class="node">
<title>Node1</title>
<g id="a_node1"><a xlink:title="Записывает сообщение и завершает программу с заданным кодом выхода.">
<polygon fill="#bfbfbf" stroke="black" points="472,-145.55 472,-164.55 546,-164.55 546,-145.55 472,-145.55"/>
<text text-anchor="middle" x="509" y="-152.55" font-family="Helvetica,sans-Serif" font-size="10.00">Logger::exit</text>
</a>
</g>
</g>
<!-- Node2 -->
<g id="node2" class="node">
<title>Node2</title>
<g id="a_node2"><a xlink:href="class_b_m_p.html#a1a6520856e149fb370934fae327947fd" target="_top" xlink:title="Конструктор класса BMP.">
<polygon fill="white" stroke="black" points="365,-297.55 365,-316.55 431,-316.55 431,-297.55 365,-297.55"/>
<text text-anchor="middle" x="398" y="-304.55" font-family="Helvetica,sans-Serif" font-size="10.00">BMP::BMP</text>
</a>
</g>
</g>
<!-- Node1&#45;&gt;Node2 -->
<g id="edge1" class="edge">
<title>Node1&#45;&gt;Node2</title>
<path fill="none" stroke="midnightblue" d="M500.73,-174.09C489.82,-200.82 467.12,-249.9 436,-283.05 430.76,-288.63 423.97,-293.51 417.64,-297.39"/>
<polygon fill="midnightblue" stroke="midnightblue" points="504.02,-175.31 504.45,-164.72 497.51,-172.73 504.02,-175.31"/>
</g>
<!-- Node3 -->
<g id="node3" class="node">
<title>Node3</title>
<g id="a_node3"><a xlink:href="main_8cpp.html#a0ddf1224851353fc92bfbff6f499fa97" target="_top" xlink:title="Главная функция программы">
<polygon fill="white" stroke="black" points="0,-136.55 0,-155.55 41,-155.55 41,-136.55 0,-136.55"/>
<text text-anchor="middle" x="20.5" y="-143.55" font-family="Helvetica,sans-Serif" font-size="10.00">main</text>
</a>
</g>
</g>
<!-- Node1&#45;&gt;Node3 -->
<g id="edge2" class="edge">
<title>Node1&#45;&gt;Node3</title>
<path fill="none" stroke="midnightblue" d="M490.61,-171.51C476.89,-183.46 456.67,-198.91 436,-207.05 287.3,-265.57 218.37,-301.56 77,-227.05 47.89,-211.71 31.13,-173.46 24.64,-155.56"/>
<polygon fill="midnightblue" stroke="midnightblue" points="493.17,-173.91 498.26,-164.61 488.48,-168.71 493.17,-173.91"/>
</g>
<!-- Node4 -->
<g id="node4" class="node">
<title>Node4</title>
<g id="a_node4"><a xlink:href="class_b_m_p.html#a6760433189c91bee33a1e884909c3818" target="_top" xlink:title="Отразить изображение относительно указанной оси.">
<polygon fill="white" stroke="black" points="97,-198.55 97,-217.55 171,-217.55 171,-198.55 97,-198.55"/>
<text text-anchor="middle" x="134" y="-205.55" font-family="Helvetica,sans-Serif" font-size="10.00">BMP::mirror</text>
</a>
</g>
</g>
<!-- Node1&#45;&gt;Node4 -->
<g id="edge3" class="edge">
<title>Node1&#45;&gt;Node4</title>
<path fill="none" stroke="midnightblue" d="M482.08,-169.21C468.72,-175.82 451.92,-183.09 436,-187.05 342.72,-210.27 228.51,-210.99 171.31,-209.54"/>
<polygon fill="midnightblue" stroke="midnightblue" points="483.84,-172.24 491.15,-164.57 480.65,-166.01 483.84,-172.24"/>
</g>
<!-- Node5 -->
<g id="node5" class="node">
<title>Node5</title>
<g id="a_node5"><a xlink:href="operation__params_8hpp.html#a0048eb016cc89e79b003ff63259ea264" target="_top" xlink:title="Парсинг командной строки и создание объекта Operations.">
<polygon fill="white" stroke="black" points="77,-136.55 77,-155.55 191,-155.55 191,-136.55 77,-136.55"/>
<text text-anchor="middle" x="134" y="-143.55" font-family="Helvetica,sans-Serif" font-size="10.00">parseCommandLine</text>
</a>
</g>
</g>
<!-- Node1&#45;&gt;Node5 -->
<g id="edge5" class="edge">
<title>Node1&#45;&gt;Node5</title>
<path fill="none" stroke="midnightblue" d="M462.01,-165.04C453.4,-166.61 444.45,-168.04 436,-169.05 343.73,-180.02 318.9,-187.73 227,-174.05 203.55,-170.56 177.81,-162.33 159.53,-155.69"/>
<polygon fill="midnightblue" stroke="midnightblue" points="462.74,-168.46 471.91,-163.15 461.43,-161.59 462.74,-168.46"/>
</g>
<!-- Node6 -->
<g id="node6" class="node">
<title>Node6</title>
<g id="a_node6"><a xlink:href="operation__params_8cpp.html#adfab6ddfafab9bed92ac967c3a0fe0dd" target="_top" xlink:title=" ">
<polygon fill="white" stroke="black" points="227,-145.55 227,-164.55 324,-164.55 324,-145.55 227,-145.55"/>
<text text-anchor="middle" x="275.5" y="-152.55" font-family="Helvetica,sans-Serif" font-size="10.00">parseCoordinate</text>
</a>
</g>
</g>
<!-- Node1&#45;&gt;Node6 -->
<g id="edge7" class="edge">
<title>Node1&#45;&gt;Node6</title>
<path fill="none" stroke="midnightblue" d="M461.82,-155.05C421.88,-155.05 364.38,-155.05 324.05,-155.05"/>
<polygon fill="midnightblue" stroke="midnightblue" points="461.83,-158.55 471.83,-155.05 461.83,-151.55 461.83,-158.55"/>
</g>
<!-- Node7 -->
<g id="node7" class="node">
<title>Node7</title>
<g id="a_node7"><a xlink:href="operation__params_8hpp.html#abbd547560acd14f298e5d36dcf0398d3" target="_top" xlink:title="Парсинг строки с RGB&#45;значением цвета.">
<polygon fill="white" stroke="black" points="243,-69.55 243,-88.55 308,-88.55 308,-69.55 243,-69.55"/>
<text text-anchor="middle" x="275.5" y="-76.55" font-family="Helvetica,sans-Serif" font-size="10.00">parseRGB</text>
</a>
</g>
</g>
<!-- Node1&#45;&gt;Node7 -->
<g id="edge9" class="edge">
<title>Node1&#45;&gt;Node7</title>
<path fill="none" stroke="midnightblue" d="M492.22,-138.23C478.67,-124.94 457.9,-107.16 436,-98.05 394.16,-80.65 341.17,-77.68 308.04,-77.84"/>
<polygon fill="midnightblue" stroke="midnightblue" points="489.81,-140.77 499.32,-145.43 494.8,-135.85 489.81,-140.77"/>
</g>
<!-- Node8 -->
<g id="node8" class="node">
<title>Node8</title>
<g id="a_node8"><a xlink:href="operation__params_8hpp.html#acb9b051691fc7054f0232d28aef686c4" target="_top" xlink:title="Парсинг строки с числами, разделенными пробелами.">
<polygon fill="white" stroke="black" points="360,-107.55 360,-126.55 436,-126.55 436,-107.55 360,-107.55"/>
<text text-anchor="middle" x="398" y="-114.55" font-family="Helvetica,sans-Serif" font-size="10.00">parseValues</text>
</a>
</g>
</g>
<!-- Node1&#45;&gt;Node8 -->
<g id="edge11" class="edge">
<title>Node1&#45;&gt;Node8</title>
<path fill="none" stroke="midnightblue" d="M470.79,-142.08C456.27,-137.02 439.92,-131.32 426.5,-126.64"/>
<polygon fill="midnightblue" stroke="midnightblue" points="469.9,-145.47 480.49,-145.46 472.2,-138.86 469.9,-145.47"/>
</g>
<!-- Node9 -->
<g id="node9" class="node">
<title>Node9</title>
<g id="a_node9"><a xlink:href="class_b_m_p.html#ad6023dacfbf10c0326a59f7e996aba27" target="_top" xlink:title="Сохранить изображение в файл.">
<polygon fill="white" stroke="black" points="241.5,-31.55 241.5,-50.55 309.5,-50.55 309.5,-31.55 241.5,-31.55"/>
<text text-anchor="middle" x="275.5" y="-38.55" font-family="Helvetica,sans-Serif" font-size="10.00">BMP::save</text>
</a>
</g>
</g>
<!-- Node1&#45;&gt;Node9 -->
<g id="edge15" class="edge">
<title>Node1&#45;&gt;Node9</title>
<path fill="none" stroke="midnightblue" d="M496.66,-137.18C484.09,-118.91 462.12,-91.14 436,-76.05 396.48,-53.22 343.58,-45.26 309.76,-42.5"/>
<polygon fill="midnightblue" stroke="midnightblue" points="493.75,-139.13 502.2,-145.52 499.58,-135.25 493.75,-139.13"/>
</g>
<!-- Node10 -->
<g id="node10" class="node">
<title>Node10</title>
<g id="a_node10"><a xlink:href="class_b_m_p.html#aaff3df7f32657d64bf3b5f07e76a4edd" target="_top" xlink:title="Разделить изображение на части.">
<polygon fill="white" stroke="black" points="101.5,-3.55 101.5,-22.55 166.5,-22.55 166.5,-3.55 101.5,-3.55"/>
<text text-anchor="middle" x="134" y="-10.55" font-family="Helvetica,sans-Serif" font-size="10.00">BMP::split</text>
</a>
</g>
</g>
<!-- Node1&#45;&gt;Node10 -->
<g id="edge17" class="edge">
<title>Node1&#45;&gt;Node10</title>
<path fill="none" stroke="midnightblue" d="M500.86,-135.72C490.55,-110.66 469.04,-67.5 436,-45.05 352.77,11.51 225.63,1.36 166.84,-7.35"/>
<polygon fill="midnightblue" stroke="midnightblue" points="497.68,-137.21 504.59,-145.24 504.2,-134.66 497.68,-137.21"/>
</g>
<!-- Node4&#45;&gt;Node3 -->
<g id="edge4" class="edge">
<title>Node4&#45;&gt;Node3</title>
<path fill="none" stroke="midnightblue" d="M106.56,-193.35C85.6,-181.69 56.92,-165.74 38.8,-155.67"/>
<polygon fill="midnightblue" stroke="midnightblue" points="105.14,-196.56 115.58,-198.36 108.54,-190.44 105.14,-196.56"/>
</g>
<!-- Node5&#45;&gt;Node3 -->
<g id="edge6" class="edge">
<title>Node5&#45;&gt;Node3</title>
<path fill="none" stroke="midnightblue" d="M66.7,-146.05C57.37,-146.05 48.45,-146.05 41.04,-146.05"/>
<polygon fill="midnightblue" stroke="midnightblue" points="66.92,-149.55 76.92,-146.05 66.92,-142.55 66.92,-149.55"/>
</g>
<!-- Node6&#45;&gt;Node5 -->
<g id="edge8" class="edge">
<title>Node6&#45;&gt;Node5</title>
<path fill="none" stroke="midnightblue" d="M216.7,-151.32C208.22,-150.77 199.5,-150.21 191.06,-149.67"/>
<polygon fill="midnightblue" stroke="midnightblue" points="216.68,-154.83 226.88,-151.98 217.13,-147.84 216.68,-154.83"/>
</g>
<!-- Node7&#45;&gt;Node5 -->
<g id="edge10" class="edge">
<title>Node7&#45;&gt;Node5</title>
<path fill="none" stroke="midnightblue" d="M245.15,-93.15C218.05,-106.16 178.55,-125.13 154.95,-136.47"/>
<polygon fill="midnightblue" stroke="midnightblue" points="247.01,-96.13 254.51,-88.65 243.98,-89.82 247.01,-96.13"/>
</g>
<!-- Node8&#45;&gt;Node5 -->
<g id="edge12" class="edge">
<title>Node8&#45;&gt;Node5</title>
<path fill="none" stroke="midnightblue" d="M349.77,-122.28C305.3,-127.2 238.64,-134.58 191.4,-139.81"/>
<polygon fill="midnightblue" stroke="midnightblue" points="350.19,-125.75 359.74,-121.17 349.42,-118.8 350.19,-125.75"/>
</g>
<!-- Node8&#45;&gt;Node6 -->
<g id="edge13" class="edge">
<title>Node8&#45;&gt;Node6</title>
<path fill="none" stroke="midnightblue" d="M356.79,-129.73C340.51,-134.86 322.02,-140.69 306.9,-145.46"/>
<polygon fill="midnightblue" stroke="midnightblue" points="358.11,-132.98 366.59,-126.64 356,-126.31 358.11,-132.98"/>
</g>
<!-- Node8&#45;&gt;Node7 -->
<g id="edge14" class="edge">
<title>Node8&#45;&gt;Node7</title>
<path fill="none" stroke="midnightblue" d="M356.79,-104.37C340.51,-99.23 322.02,-93.41 306.9,-88.64"/>
<polygon fill="midnightblue" stroke="midnightblue" points="356,-107.79 366.59,-107.46 358.11,-101.12 356,-107.79"/>
</g>
<!-- Node9&#45;&gt;Node3 -->
<g id="edge16" class="edge">
<title>Node9&#45;&gt;Node3</title>
<path fill="none" stroke="midnightblue" d="M240.9,-54.41C236.23,-56.29 231.49,-58.21 227,-60.05 158.45,-88.1 77.47,-122.31 41.01,-137.76"/>
<polygon fill="midnightblue" stroke="midnightblue" points="242.33,-57.61 250.31,-50.64 239.72,-51.11 242.33,-57.61"/>
</g>
<!-- Node10&#45;&gt;Node3 -->
<g id="edge18" class="edge">
<title>Node10&#45;&gt;Node3</title>
<path fill="none" stroke="midnightblue" d="M116.84,-30.27C105.47,-42.55 90.02,-59.57 77,-75.05 59.08,-96.37 39.25,-122.37 28.83,-136.23"/>
<polygon fill="midnightblue" stroke="midnightblue" points="119.41,-32.65 123.66,-22.95 114.28,-27.88 119.41,-32.65"/>
</g>
</g>
</svg>
