<?xml version="1.0" encoding="UTF-8" standalone="no"?>
<!DOCTYPE svg PUBLIC "-//W3C//DTD SVG 1.1//EN"
 "http://www.w3.org/Graphics/SVG/1.1/DTD/svg11.dtd">
<!-- Generated by graphviz version 2.43.0 (0)
 -->
<!-- Title: Logger::exit Pages: 1 -->
<svg width="554pt" height="370pt"
 viewBox="0.00 0.00 554.00 370.00" xmlns="http://www.w3.org/2000/svg" xmlns:xlink="http://www.w3.org/1999/xlink">
<g id="graph0" class="graph" transform="scale(1 1) rotate(0) translate(4 366)">
<title>Logger::exit</title>
<polygon fill="white" stroke="transparent" points="-4,4 -4,-366 550,-366 550,4 -4,4"/>
<!-- Node1 -->
<g id="node1" class="node">
<title>Node1</title>
<g id="a_node1"><a xlink:title="Записывает сообщение и завершает программу с заданным кодом выхода.">
<polygon fill="#bfbfbf" stroke="black" points="472,-171.5 472,-190.5 546,-190.5 546,-171.5 472,-171.5"/>
<text text-anchor="middle" x="509" y="-178.5" font-family="Helvetica,sans-Serif" font-size="10.00">Logger::exit</text>
</a>
</g>
</g>
<!-- Node2 -->
<g id="node2" class="node">
<title>Node2</title>
<g id="a_node2"><a xlink:href="class_b_m_p.html#a1a6520856e149fb370934fae327947fd" target="_top" xlink:title="Конструктор класса BMP.">
<polygon fill="white" stroke="black" points="365,-342.5 365,-361.5 431,-361.5 431,-342.5 365,-342.5"/>
<text text-anchor="middle" x="398" y="-349.5" font-family="Helvetica,sans-Serif" font-size="10.00">BMP::BMP</text>
</a>
</g>
</g>
<!-- Node1&#45;&gt;Node2 -->
<g id="edge1" class="edge">
<title>Node1&#45;&gt;Node2</title>
<path fill="none" stroke="midnightblue" d="M502.27,-200.32C492.58,-230.39 470.59,-288.99 436,-328 431.02,-333.61 424.43,-338.45 418.2,-342.27"/>
<polygon fill="midnightblue" stroke="midnightblue" points="505.65,-201.21 505.28,-190.62 498.97,-199.13 505.65,-201.21"/>
</g>
<!-- Node3 -->
<g id="node3" class="node">
<title>Node3</title>
<g id="a_node3"><a xlink:href="class_b_m_p.html#aa5efccdbbacffe75174e3c126efc06ad" target="_top" xlink:title="Копировать область изображения.">
<polygon fill="white" stroke="black" points="100,-304.5 100,-323.5 168,-323.5 168,-304.5 100,-304.5"/>
<text text-anchor="middle" x="134" y="-311.5" font-family="Helvetica,sans-Serif" font-size="10.00">BMP::copy</text>
</a>
</g>
</g>
<!-- Node1&#45;&gt;Node3 -->
<g id="edge2" class="edge">
<title>Node1&#45;&gt;Node3</title>
<path fill="none" stroke="midnightblue" d="M501.35,-200.39C491.48,-225.86 470.35,-269.72 436,-290 350.45,-340.5 226.62,-329.39 168.06,-320.21"/>
<polygon fill="midnightblue" stroke="midnightblue" points="504.74,-201.32 504.89,-190.72 498.17,-198.91 504.74,-201.32"/>
</g>
<!-- Node4 -->
<g id="node4" class="node">
<title>Node4</title>
<g id="a_node4"><a xlink:href="main_8cpp.html#a0ddf1224851353fc92bfbff6f499fa97" target="_top" xlink:title="Главная функция программы">
<polygon fill="white" stroke="black" points="0,-190.5 0,-209.5 41,-209.5 41,-190.5 0,-190.5"/>
<text text-anchor="middle" x="20.5" y="-197.5" font-family="Helvetica,sans-Serif" font-size="10.00">main</text>
</a>
</g>
</g>
<!-- Node1&#45;&gt;Node4 -->
<g id="edge4" class="edge">
<title>Node1&#45;&gt;Node4</title>
<path fill="none" stroke="midnightblue" d="M490.55,-197.69C476.79,-209.89 456.57,-225.85 436,-235 389.65,-255.63 374.49,-252.09 324,-257 214.09,-267.69 181.23,-266.5 77,-230 62.53,-224.93 47.29,-216.44 36.44,-209.78"/>
<polygon fill="midnightblue" stroke="midnightblue" points="493.2,-200 498.22,-190.67 488.48,-194.84 493.2,-200"/>
</g>
<!-- Node5 -->
<g id="node5" class="node">
<title>Node5</title>
<g id="a_node5"><a xlink:href="class_b_m_p.html#a6760433189c91bee33a1e884909c3818" target="_top" xlink:title="Отразить изображение относительно указанной оси.">
<polygon fill="white" stroke="black" points="238.5,-228.5 238.5,-247.5 312.5,-247.5 312.5,-228.5 238.5,-228.5"/>
<text text-anchor="middle" x="275.5" y="-235.5" font-family="Helvetica,sans-Serif" font-size="10.00">BMP::mirror</text>
</a>
</g>
</g>
<!-- Node1&#45;&gt;Node5 -->
<g id="edge5" class="edge">
<title>Node1&#45;&gt;Node5</title>
<path fill="none" stroke="midnightblue" d="M481.71,-195.21C468.37,-201.86 451.69,-209.32 436,-214 394.67,-226.31 345.35,-232.5 312.6,-235.47"/>
<polygon fill="midnightblue" stroke="midnightblue" points="483.48,-198.24 490.78,-190.56 480.29,-192.01 483.48,-198.24"/>
</g>
<!-- Node6 -->
<g id="node6" class="node">
<title>Node6</title>
<g id="a_node6"><a xlink:href="operation__params_8h.html#a0048eb016cc89e79b003ff63259ea264" target="_top" xlink:title="Парсинг командной строки и создание объекта Operations.">
<polygon fill="white" stroke="black" points="77,-152.5 77,-171.5 191,-171.5 191,-152.5 77,-152.5"/>
<text text-anchor="middle" x="134" y="-159.5" font-family="Helvetica,sans-Serif" font-size="10.00">parseCommandLine</text>
</a>
</g>
</g>
<!-- Node1&#45;&gt;Node6 -->
<g id="edge7" class="edge">
<title>Node1&#45;&gt;Node6</title>
<path fill="none" stroke="midnightblue" d="M461.59,-184.7C453.09,-185.24 444.28,-185.71 436,-186 343.14,-189.22 319.24,-192.18 227,-181 209.51,-178.88 190.41,-175.17 174.16,-171.58"/>
<polygon fill="midnightblue" stroke="midnightblue" points="462.03,-188.18 471.77,-184.01 461.55,-181.19 462.03,-188.18"/>
</g>
<!-- Node7 -->
<g id="node7" class="node">
<title>Node7</title>
<g id="a_node7"><a xlink:href="operation__params_8cpp.html#adfab6ddfafab9bed92ac967c3a0fe0dd" target="_top" xlink:title=" ">
<polygon fill="white" stroke="black" points="227,-152.5 227,-171.5 324,-171.5 324,-152.5 227,-152.5"/>
<text text-anchor="middle" x="275.5" y="-159.5" font-family="Helvetica,sans-Serif" font-size="10.00">parseCoordinate</text>
</a>
</g>
</g>
<!-- Node1&#45;&gt;Node7 -->
<g id="edge9" class="edge">
<title>Node1&#45;&gt;Node7</title>
<path fill="none" stroke="midnightblue" d="M461.82,-177.21C421.88,-173.93 364.38,-169.21 324.05,-165.9"/>
<polygon fill="midnightblue" stroke="midnightblue" points="461.58,-180.7 471.83,-178.03 462.15,-173.72 461.58,-180.7"/>
</g>
<!-- Node8 -->
<g id="node8" class="node">
<title>Node8</title>
<g id="a_node8"><a xlink:href="operation__params_8h.html#abbd547560acd14f298e5d36dcf0398d3" target="_top" xlink:title="Парсинг строки с RGB&#45;значением цвета.">
<polygon fill="white" stroke="black" points="243,-76.5 243,-95.5 308,-95.5 308,-76.5 243,-76.5"/>
<text text-anchor="middle" x="275.5" y="-83.5" font-family="Helvetica,sans-Serif" font-size="10.00">parseRGB</text>
</a>
</g>
</g>
<!-- Node1&#45;&gt;Node8 -->
<g id="edge11" class="edge">
<title>Node1&#45;&gt;Node8</title>
<path fill="none" stroke="midnightblue" d="M496.4,-162.78C483.87,-144.79 462.14,-118.13 436,-105 395.38,-84.6 341.82,-82.47 308.27,-83.62"/>
<polygon fill="midnightblue" stroke="midnightblue" points="493.62,-164.91 502.09,-171.28 499.44,-161.02 493.62,-164.91"/>
</g>
<!-- Node9 -->
<g id="node9" class="node">
<title>Node9</title>
<g id="a_node9"><a xlink:href="operation__params_8h.html#acb9b051691fc7054f0232d28aef686c4" target="_top" xlink:title="Парсинг строки с числами, разделенными пробелами.">
<polygon fill="white" stroke="black" points="360,-114.5 360,-133.5 436,-133.5 436,-114.5 360,-114.5"/>
<text text-anchor="middle" x="398" y="-121.5" font-family="Helvetica,sans-Serif" font-size="10.00">parseValues</text>
</a>
</g>
</g>
<!-- Node1&#45;&gt;Node9 -->
<g id="edge13" class="edge">
<title>Node1&#45;&gt;Node9</title>
<path fill="none" stroke="midnightblue" d="M480.63,-166.69C460.8,-156.32 434.53,-142.58 417.22,-133.53"/>
<polygon fill="midnightblue" stroke="midnightblue" points="479.03,-169.8 489.51,-171.33 482.27,-163.6 479.03,-169.8"/>
</g>
<!-- Node10 -->
<g id="node10" class="node">
<title>Node10</title>
<g id="a_node10"><a xlink:href="class_b_m_p.html#ad6023dacfbf10c0326a59f7e996aba27" target="_top" xlink:title="Сохранить изображение в файл.">
<polygon fill="white" stroke="black" points="100,-76.5 100,-95.5 168,-95.5 168,-76.5 100,-76.5"/>
<text text-anchor="middle" x="134" y="-83.5" font-family="Helvetica,sans-Serif" font-size="10.00">BMP::save</text>
</a>
</g>
</g>
<!-- Node1&#45;&gt;Node10 -->
<g id="edge17" class="edge">
<title>Node1&#45;&gt;Node10</title>
<path fill="none" stroke="midnightblue" d="M500.14,-162.02C489.39,-138.68 467.73,-99.83 436,-81 348.35,-28.99 219.59,-59.12 163.2,-76.42"/>
<polygon fill="midnightblue" stroke="midnightblue" points="496.97,-163.51 504.2,-171.26 503.38,-160.69 496.97,-163.51"/>
</g>
<!-- Node11 -->
<g id="node11" class="node">
<title>Node11</title>
<g id="a_node11"><a xlink:href="class_b_m_p.html#aaff3df7f32657d64bf3b5f07e76a4edd" target="_top" xlink:title="Разделить изображение на части.">
<polygon fill="white" stroke="black" points="365.5,-0.5 365.5,-19.5 430.5,-19.5 430.5,-0.5 365.5,-0.5"/>
<text text-anchor="middle" x="398" y="-7.5" font-family="Helvetica,sans-Serif" font-size="10.00">BMP::split</text>
</a>
</g>
</g>
<!-- Node1&#45;&gt;Node11 -->
<g id="edge19" class="edge">
<title>Node1&#45;&gt;Node11</title>
<path fill="none" stroke="midnightblue" d="M502.27,-161.68C492.58,-131.61 470.59,-73.01 436,-34 431.02,-28.39 424.43,-23.55 418.2,-19.73"/>
<polygon fill="midnightblue" stroke="midnightblue" points="498.97,-162.87 505.28,-171.38 505.65,-160.79 498.97,-162.87"/>
</g>
<!-- Node3&#45;&gt;Node4 -->
<g id="edge3" class="edge">
<title>Node3&#45;&gt;Node4</title>
<path fill="none" stroke="midnightblue" d="M92.19,-300.08C86.76,-297.24 81.52,-293.89 77,-290 50.31,-266.98 32.43,-227.87 25.17,-209.75"/>
<polygon fill="midnightblue" stroke="midnightblue" points="90.87,-303.33 101.41,-304.41 93.85,-296.99 90.87,-303.33"/>
</g>
<!-- Node5&#45;&gt;Node4 -->
<g id="edge6" class="edge">
<title>Node5&#45;&gt;Node4</title>
<path fill="none" stroke="midnightblue" d="M228.26,-231.06C172.44,-222.67 81.08,-208.95 41.18,-202.96"/>
<polygon fill="midnightblue" stroke="midnightblue" points="227.84,-234.53 238.25,-232.56 228.88,-227.61 227.84,-234.53"/>
</g>
<!-- Node6&#45;&gt;Node4 -->
<g id="edge8" class="edge">
<title>Node6&#45;&gt;Node4</title>
<path fill="none" stroke="midnightblue" d="M95.15,-174.9C77.03,-181.07 56.1,-188.21 41.19,-193.29"/>
<polygon fill="midnightblue" stroke="midnightblue" points="96.53,-178.13 104.86,-171.59 94.27,-171.5 96.53,-178.13"/>
</g>
<!-- Node7&#45;&gt;Node6 -->
<g id="edge10" class="edge">
<title>Node7&#45;&gt;Node6</title>
<path fill="none" stroke="midnightblue" d="M216.7,-162C208.22,-162 199.5,-162 191.06,-162"/>
<polygon fill="midnightblue" stroke="midnightblue" points="216.88,-165.5 226.88,-162 216.88,-158.5 216.88,-165.5"/>
</g>
<!-- Node8&#45;&gt;Node6 -->
<g id="edge12" class="edge">
<title>Node8&#45;&gt;Node6</title>
<path fill="none" stroke="midnightblue" d="M245.63,-100.32C239.45,-103.46 232.99,-106.8 227,-110 200.31,-124.28 169.8,-141.75 151.49,-152.37"/>
<polygon fill="midnightblue" stroke="midnightblue" points="247.63,-103.23 254.98,-95.61 244.48,-96.98 247.63,-103.23"/>
</g>
<!-- Node9&#45;&gt;Node6 -->
<g id="edge14" class="edge">
<title>Node9&#45;&gt;Node6</title>
<path fill="none" stroke="midnightblue" d="M349.55,-128.12C315.37,-131.37 268.2,-136.46 227,-143 210.57,-145.61 192.63,-149.16 176.99,-152.48"/>
<polygon fill="midnightblue" stroke="midnightblue" points="350.09,-131.58 359.72,-127.17 349.44,-124.61 350.09,-131.58"/>
</g>
<!-- Node9&#45;&gt;Node7 -->
<g id="edge15" class="edge">
<title>Node9&#45;&gt;Node7</title>
<path fill="none" stroke="midnightblue" d="M356.79,-136.68C340.51,-141.81 322.02,-147.64 306.9,-152.41"/>
<polygon fill="midnightblue" stroke="midnightblue" points="358.11,-139.93 366.59,-133.59 356,-133.26 358.11,-139.93"/>
</g>
<!-- Node9&#45;&gt;Node8 -->
<g id="edge16" class="edge">
<title>Node9&#45;&gt;Node8</title>
<path fill="none" stroke="midnightblue" d="M356.79,-111.32C340.51,-106.19 322.02,-100.36 306.9,-95.59"/>
<polygon fill="midnightblue" stroke="midnightblue" points="356,-114.74 366.59,-114.41 358.11,-108.07 356,-114.74"/>
</g>
<!-- Node10&#45;&gt;Node4 -->
<g id="edge18" class="edge">
<title>Node10&#45;&gt;Node4</title>
<path fill="none" stroke="midnightblue" d="M116.44,-102.82C105.28,-114.16 90.24,-129.46 77,-143 60.78,-159.59 41.94,-178.95 30.91,-190.31"/>
<polygon fill="midnightblue" stroke="midnightblue" points="118.95,-105.25 123.47,-95.67 113.97,-100.34 118.95,-105.25"/>
</g>
<!-- Node11&#45;&gt;Node4 -->
<g id="edge20" class="edge">
<title>Node11&#45;&gt;Node4</title>
<path fill="none" stroke="midnightblue" d="M355.2,-5.62C288.76,-1.01 158.28,-1.83 77,-67 36.79,-99.24 25.36,-165.72 22.42,-190.45"/>
<polygon fill="midnightblue" stroke="midnightblue" points="355.06,-9.12 365.29,-6.4 355.59,-2.14 355.06,-9.12"/>
</g>
</g>
</svg>
