<?xml version="1.0" encoding="UTF-8" standalone="no"?>
<!DOCTYPE svg PUBLIC "-//W3C//DTD SVG 1.1//EN"
 "http://www.w3.org/Graphics/SVG/1.1/DTD/svg11.dtd">
<!-- Generated by graphviz version 2.43.0 (0)
 -->
<!-- Title: Logger::exit Pages: 1 -->
<svg width="407pt" height="66pt"
 viewBox="0.00 0.00 407.00 66.00" xmlns="http://www.w3.org/2000/svg" xmlns:xlink="http://www.w3.org/1999/xlink">
<g id="graph0" class="graph" transform="scale(1 1) rotate(0) translate(4 62)">
<title>Logger::exit</title>
<polygon fill="white" stroke="transparent" points="-4,4 -4,-62 403,-62 403,4 -4,4"/>
<!-- Node1 -->
<g id="node1" class="node">
<title>Node1</title>
<g id="a_node1"><a xlink:title="Записывает сообщение и завершает программу с заданным кодом выхода.">
<polygon fill="#bfbfbf" stroke="black" points="0,-19.5 0,-38.5 74,-38.5 74,-19.5 0,-19.5"/>
<text text-anchor="middle" x="37" y="-26.5" font-family="Helvetica,sans-Serif" font-size="10.00">Logger::exit</text>
</a>
</g>
</g>
<!-- Node2 -->
<g id="node2" class="node">
<title>Node2</title>
<g id="a_node2"><a xlink:href="class_logger.html#ab6042fdfcbb14026098e0df9d6b32f27" target="_top" xlink:title="Записывает ошибку в лог с красным цветом.">
<polygon fill="white" stroke="black" points="110,-19.5 110,-38.5 189,-38.5 189,-19.5 110,-19.5"/>
<text text-anchor="middle" x="149.5" y="-26.5" font-family="Helvetica,sans-Serif" font-size="10.00">Logger::error</text>
</a>
</g>
</g>
<!-- Node1&#45;&gt;Node2 -->
<g id="edge1" class="edge">
<title>Node1&#45;&gt;Node2</title>
<path fill="none" stroke="midnightblue" d="M74.18,-29C82.42,-29 91.29,-29 99.95,-29"/>
<polygon fill="midnightblue" stroke="midnightblue" points="99.95,-32.5 109.95,-29 99.95,-25.5 99.95,-32.5"/>
</g>
<!-- Node3 -->
<g id="node3" class="node">
<title>Node3</title>
<g id="a_node3"><a xlink:href="class_logger.html#ad83dbe66156650acca19d3772ce41229" target="_top" xlink:title="Записывает сообщение в лог с определенным цветом.">
<polygon fill="white" stroke="black" points="225,-19.5 225,-38.5 296,-38.5 296,-19.5 225,-19.5"/>
<text text-anchor="middle" x="260.5" y="-26.5" font-family="Helvetica,sans-Serif" font-size="10.00">Logger::log</text>
</a>
</g>
</g>
<!-- Node2&#45;&gt;Node3 -->
<g id="edge2" class="edge">
<title>Node2&#45;&gt;Node3</title>
<path fill="none" stroke="midnightblue" d="M189.24,-29C197.5,-29 206.3,-29 214.77,-29"/>
<polygon fill="midnightblue" stroke="midnightblue" points="214.88,-32.5 224.88,-29 214.88,-25.5 214.88,-32.5"/>
</g>
<!-- Node4 -->
<g id="node4" class="node">
<title>Node4</title>
<g id="a_node4"><a xlink:href="logger_8cpp.html#afe00396766eb6b8ca4674de4c5d3d949" target="_top" xlink:title=" ">
<polygon fill="white" stroke="black" points="332,-38.5 332,-57.5 399,-57.5 399,-38.5 332,-38.5"/>
<text text-anchor="middle" x="365.5" y="-45.5" font-family="Helvetica,sans-Serif" font-size="10.00">resetColor</text>
</a>
</g>
</g>
<!-- Node3&#45;&gt;Node4 -->
<g id="edge3" class="edge">
<title>Node3&#45;&gt;Node4</title>
<path fill="none" stroke="midnightblue" d="M296.08,-35.38C304.4,-36.91 313.38,-38.57 322.01,-40.16"/>
<polygon fill="midnightblue" stroke="midnightblue" points="321.45,-43.62 331.92,-41.99 322.72,-36.73 321.45,-43.62"/>
</g>
<!-- Node5 -->
<g id="node5" class="node">
<title>Node5</title>
<g id="a_node5"><a xlink:href="logger_8cpp.html#a47a17bf6298ba8d1f42d32b14449e277" target="_top" xlink:title=" ">
<polygon fill="white" stroke="black" points="337,-0.5 337,-19.5 394,-19.5 394,-0.5 337,-0.5"/>
<text text-anchor="middle" x="365.5" y="-7.5" font-family="Helvetica,sans-Serif" font-size="10.00">setColor</text>
</a>
</g>
</g>
<!-- Node3&#45;&gt;Node5 -->
<g id="edge4" class="edge">
<title>Node3&#45;&gt;Node5</title>
<path fill="none" stroke="midnightblue" d="M296.08,-22.62C305.89,-20.81 316.61,-18.83 326.6,-16.99"/>
<polygon fill="midnightblue" stroke="midnightblue" points="327.47,-20.39 336.67,-15.13 326.2,-13.51 327.47,-20.39"/>
</g>
</g>
</svg>
