<?xml version="1.0" encoding="UTF-8" standalone="no"?>
<!DOCTYPE svg PUBLIC "-//W3C//DTD SVG 1.1//EN"
 "http://www.w3.org/Graphics/SVG/1.1/DTD/svg11.dtd">
<!-- Generated by graphviz version 2.43.0 (0)
 -->
<!-- Title: Logger::warn Pages: 1 -->
<svg width="298pt" height="66pt"
 viewBox="0.00 0.00 298.00 66.00" xmlns="http://www.w3.org/2000/svg" xmlns:xlink="http://www.w3.org/1999/xlink">
<g id="graph0" class="graph" transform="scale(1 1) rotate(0) translate(4 62)">
<title>Logger::warn</title>
<polygon fill="white" stroke="transparent" points="-4,4 -4,-62 294,-62 294,4 -4,4"/>
<!-- Node1 -->
<g id="node1" class="node">
<title>Node1</title>
<g id="a_node1"><a xlink:title="Записывает предупреждение в лог с желтым цветом.">
<polygon fill="#bfbfbf" stroke="black" points="0,-19.5 0,-38.5 80,-38.5 80,-19.5 0,-19.5"/>
<text text-anchor="middle" x="40" y="-26.5" font-family="Helvetica,sans-Serif" font-size="10.00">Logger::warn</text>
</a>
</g>
</g>
<!-- Node2 -->
<g id="node2" class="node">
<title>Node2</title>
<g id="a_node2"><a xlink:href="class_logger.html#ad83dbe66156650acca19d3772ce41229" target="_top" xlink:title="Записывает сообщение в лог с определенным цветом.">
<polygon fill="white" stroke="black" points="116,-19.5 116,-38.5 187,-38.5 187,-19.5 116,-19.5"/>
<text text-anchor="middle" x="151.5" y="-26.5" font-family="Helvetica,sans-Serif" font-size="10.00">Logger::log</text>
</a>
</g>
</g>
<!-- Node1&#45;&gt;Node2 -->
<g id="edge1" class="edge">
<title>Node1&#45;&gt;Node2</title>
<path fill="none" stroke="midnightblue" d="M80.22,-29C88.51,-29 97.32,-29 105.79,-29"/>
<polygon fill="midnightblue" stroke="midnightblue" points="105.91,-32.5 115.91,-29 105.91,-25.5 105.91,-32.5"/>
</g>
<!-- Node3 -->
<g id="node3" class="node">
<title>Node3</title>
<g id="a_node3"><a xlink:href="logger_8cpp.html#afe00396766eb6b8ca4674de4c5d3d949" target="_top" xlink:title=" ">
<polygon fill="white" stroke="black" points="223,-38.5 223,-57.5 290,-57.5 290,-38.5 223,-38.5"/>
<text text-anchor="middle" x="256.5" y="-45.5" font-family="Helvetica,sans-Serif" font-size="10.00">resetColor</text>
</a>
</g>
</g>
<!-- Node2&#45;&gt;Node3 -->
<g id="edge2" class="edge">
<title>Node2&#45;&gt;Node3</title>
<path fill="none" stroke="midnightblue" d="M187.08,-35.38C195.4,-36.91 204.38,-38.57 213.01,-40.16"/>
<polygon fill="midnightblue" stroke="midnightblue" points="212.45,-43.62 222.92,-41.99 213.72,-36.73 212.45,-43.62"/>
</g>
<!-- Node4 -->
<g id="node4" class="node">
<title>Node4</title>
<g id="a_node4"><a xlink:href="logger_8cpp.html#a47a17bf6298ba8d1f42d32b14449e277" target="_top" xlink:title=" ">
<polygon fill="white" stroke="black" points="228,-0.5 228,-19.5 285,-19.5 285,-0.5 228,-0.5"/>
<text text-anchor="middle" x="256.5" y="-7.5" font-family="Helvetica,sans-Serif" font-size="10.00">setColor</text>
</a>
</g>
</g>
<!-- Node2&#45;&gt;Node4 -->
<g id="edge3" class="edge">
<title>Node2&#45;&gt;Node4</title>
<path fill="none" stroke="midnightblue" d="M187.08,-22.62C196.89,-20.81 207.61,-18.83 217.6,-16.99"/>
<polygon fill="midnightblue" stroke="midnightblue" points="218.47,-20.39 227.67,-15.13 217.2,-13.51 218.47,-20.39"/>
</g>
</g>
</svg>
