<?xml version="1.0" encoding="UTF-8" standalone="no"?>
<!DOCTYPE svg PUBLIC "-//W3C//DTD SVG 1.1//EN"
 "http://www.w3.org/Graphics/SVG/1.1/DTD/svg11.dtd">
<!-- Generated by graphviz version 2.43.0 (0)
 -->
<!-- Title: Logger::error Pages: 1 -->
<svg width="528pt" height="256pt"
 viewBox="0.00 0.00 528.00 256.00" xmlns="http://www.w3.org/2000/svg" xmlns:xlink="http://www.w3.org/1999/xlink">
<g id="graph0" class="graph" transform="scale(1 1) rotate(0) translate(4 252)">
<title>Logger::error</title>
<polygon fill="white" stroke="transparent" points="-4,4 -4,-252 524,-252 524,4 -4,4"/>
<!-- Node1 -->
<g id="node1" class="node">
<title>Node1</title>
<g id="a_node1"><a xlink:title="Записывает ошибку в лог.">
<polygon fill="#bfbfbf" stroke="black" points="441,-114.5 441,-133.5 520,-133.5 520,-114.5 441,-114.5"/>
<text text-anchor="middle" x="480.5" y="-121.5" font-family="Helvetica,sans-Serif" font-size="10.00">Logger::error</text>
</a>
</g>
</g>
<!-- Node2 -->
<g id="node2" class="node">
<title>Node2</title>
<g id="a_node2"><a xlink:href="class_logger.html#ac2b605d549e7b4d89fd229230fe99bb4" target="_top" xlink:title="Записывает сообщение и завершает программу с заданным кодом выхода.">
<polygon fill="white" stroke="black" points="331,-114.5 331,-133.5 405,-133.5 405,-114.5 331,-114.5"/>
<text text-anchor="middle" x="368" y="-121.5" font-family="Helvetica,sans-Serif" font-size="10.00">Logger::exit</text>
</a>
</g>
</g>
<!-- Node1&#45;&gt;Node2 -->
<g id="edge1" class="edge">
<title>Node1&#45;&gt;Node2</title>
<path fill="none" stroke="midnightblue" d="M430.6,-124C422.07,-124 413.33,-124 405.22,-124"/>
<polygon fill="midnightblue" stroke="midnightblue" points="430.85,-127.5 440.85,-124 430.85,-120.5 430.85,-127.5"/>
</g>
<!-- Node3 -->
<g id="node3" class="node">
<title>Node3</title>
<g id="a_node3"><a xlink:href="class_b_m_p.html#a1a6520856e149fb370934fae327947fd" target="_top" xlink:title="Конструктор класса BMP.">
<polygon fill="white" stroke="black" points="228,-228.5 228,-247.5 294,-247.5 294,-228.5 228,-228.5"/>
<text text-anchor="middle" x="261" y="-235.5" font-family="Helvetica,sans-Serif" font-size="10.00">BMP::BMP</text>
</a>
</g>
</g>
<!-- Node2&#45;&gt;Node3 -->
<g id="edge2" class="edge">
<title>Node2&#45;&gt;Node3</title>
<path fill="none" stroke="midnightblue" d="M354.81,-141.99C341.41,-161.04 318.63,-191.43 295,-214 289.57,-219.19 282.98,-224.19 277.12,-228.28"/>
<polygon fill="midnightblue" stroke="midnightblue" points="357.78,-143.84 360.59,-133.63 352.02,-139.86 357.78,-143.84"/>
</g>
<!-- Node4 -->
<g id="node4" class="node">
<title>Node4</title>
<g id="a_node4"><a xlink:href="class_b_m_p.html#aa5efccdbbacffe75174e3c126efc06ad" target="_top" xlink:title="Копировать область изображения.">
<polygon fill="white" stroke="black" points="100,-190.5 100,-209.5 168,-209.5 168,-190.5 100,-190.5"/>
<text text-anchor="middle" x="134" y="-197.5" font-family="Helvetica,sans-Serif" font-size="10.00">BMP::copy</text>
</a>
</g>
</g>
<!-- Node2&#45;&gt;Node4 -->
<g id="edge3" class="edge">
<title>Node2&#45;&gt;Node4</title>
<path fill="none" stroke="midnightblue" d="M349.07,-140.72C335.33,-152.54 315.34,-167.71 295,-176 253.39,-192.97 201.29,-198.1 168.07,-199.57"/>
<polygon fill="midnightblue" stroke="midnightblue" points="351.61,-143.15 356.76,-133.89 346.96,-137.91 351.61,-143.15"/>
</g>
<!-- Node5 -->
<g id="node5" class="node">
<title>Node5</title>
<g id="a_node5"><a xlink:href="main_8cpp.html#a0ddf1224851353fc92bfbff6f499fa97" target="_top" xlink:title="Главная функция программы">
<polygon fill="white" stroke="black" points="0,-114.5 0,-133.5 41,-133.5 41,-114.5 0,-114.5"/>
<text text-anchor="middle" x="20.5" y="-121.5" font-family="Helvetica,sans-Serif" font-size="10.00">main</text>
</a>
</g>
</g>
<!-- Node2&#45;&gt;Node5 -->
<g id="edge5" class="edge">
<title>Node2&#45;&gt;Node5</title>
<path fill="none" stroke="midnightblue" d="M321,-133.97C312.4,-135.54 303.45,-136.98 295,-138 198.78,-149.61 172.6,-158.91 77,-143 64.74,-140.96 51.56,-136.55 41.13,-132.49"/>
<polygon fill="midnightblue" stroke="midnightblue" points="321.74,-137.39 330.9,-132.07 320.42,-130.51 321.74,-137.39"/>
</g>
<!-- Node6 -->
<g id="node6" class="node">
<title>Node6</title>
<g id="a_node6"><a xlink:href="class_b_m_p.html#a6760433189c91bee33a1e884909c3818" target="_top" xlink:title="Отразить изображение относительно указанной оси.">
<polygon fill="white" stroke="black" points="97,-114.5 97,-133.5 171,-133.5 171,-114.5 97,-114.5"/>
<text text-anchor="middle" x="134" y="-121.5" font-family="Helvetica,sans-Serif" font-size="10.00">BMP::mirror</text>
</a>
</g>
</g>
<!-- Node2&#45;&gt;Node6 -->
<g id="edge6" class="edge">
<title>Node2&#45;&gt;Node6</title>
<path fill="none" stroke="midnightblue" d="M320.62,-124C276.7,-124 211.66,-124 171.38,-124"/>
<polygon fill="midnightblue" stroke="midnightblue" points="320.75,-127.5 330.75,-124 320.75,-120.5 320.75,-127.5"/>
</g>
<!-- Node7 -->
<g id="node7" class="node">
<title>Node7</title>
<g id="a_node7"><a xlink:href="operation__params_8h.html#a00a944e8a68555a108c478465b5e9018" target="_top" xlink:title="Парсинг командной строки и создание объекта OperationParams.">
<polygon fill="white" stroke="black" points="77,-76.5 77,-95.5 191,-95.5 191,-76.5 77,-76.5"/>
<text text-anchor="middle" x="134" y="-83.5" font-family="Helvetica,sans-Serif" font-size="10.00">parseCommandLine</text>
</a>
</g>
</g>
<!-- Node2&#45;&gt;Node7 -->
<g id="edge8" class="edge">
<title>Node2&#45;&gt;Node7</title>
<path fill="none" stroke="midnightblue" d="M320.67,-116.41C283.43,-110.31 230.97,-101.72 191.31,-95.22"/>
<polygon fill="midnightblue" stroke="midnightblue" points="320.32,-119.9 330.75,-118.06 321.45,-112.99 320.32,-119.9"/>
</g>
<!-- Node8 -->
<g id="node8" class="node">
<title>Node8</title>
<g id="a_node8"><a xlink:href="operation__params_8h.html#abbd547560acd14f298e5d36dcf0398d3" target="_top" xlink:title="Парсинг строки с RGB&#45;значением цвета.">
<polygon fill="white" stroke="black" points="228.5,-38.5 228.5,-57.5 293.5,-57.5 293.5,-38.5 228.5,-38.5"/>
<text text-anchor="middle" x="261" y="-45.5" font-family="Helvetica,sans-Serif" font-size="10.00">parseRGB</text>
</a>
</g>
</g>
<!-- Node2&#45;&gt;Node8 -->
<g id="edge10" class="edge">
<title>Node2&#45;&gt;Node8</title>
<path fill="none" stroke="midnightblue" d="M345.36,-108.33C324.24,-93.05 292.81,-70.3 275.19,-57.55"/>
<polygon fill="midnightblue" stroke="midnightblue" points="343.55,-111.35 353.7,-114.37 347.65,-105.68 343.55,-111.35"/>
</g>
<!-- Node9 -->
<g id="node9" class="node">
<title>Node9</title>
<g id="a_node9"><a xlink:href="class_b_m_p.html#ad6023dacfbf10c0326a59f7e996aba27" target="_top" xlink:title="Сохранить изображение в файл.">
<polygon fill="white" stroke="black" points="227,-0.5 227,-19.5 295,-19.5 295,-0.5 227,-0.5"/>
<text text-anchor="middle" x="261" y="-7.5" font-family="Helvetica,sans-Serif" font-size="10.00">BMP::save</text>
</a>
</g>
</g>
<!-- Node2&#45;&gt;Node9 -->
<g id="edge12" class="edge">
<title>Node2&#45;&gt;Node9</title>
<path fill="none" stroke="midnightblue" d="M356.26,-105.68C343.56,-85.16 320.87,-51.8 295,-29 291.03,-25.5 286.32,-22.34 281.72,-19.64"/>
<polygon fill="midnightblue" stroke="midnightblue" points="353.34,-107.62 361.51,-114.37 359.33,-104 353.34,-107.62"/>
</g>
<!-- Node4&#45;&gt;Node5 -->
<g id="edge4" class="edge">
<title>Node4&#45;&gt;Node5</title>
<path fill="none" stroke="midnightblue" d="M96.06,-186.34C89.5,-183.32 82.89,-179.85 77,-176 58.21,-163.72 39.9,-144.82 29.72,-133.5"/>
<polygon fill="midnightblue" stroke="midnightblue" points="94.97,-189.69 105.54,-190.46 97.76,-183.27 94.97,-189.69"/>
</g>
<!-- Node6&#45;&gt;Node5 -->
<g id="edge7" class="edge">
<title>Node6&#45;&gt;Node5</title>
<path fill="none" stroke="midnightblue" d="M86.6,-124C70.76,-124 53.89,-124 41.29,-124"/>
<polygon fill="midnightblue" stroke="midnightblue" points="86.8,-127.5 96.8,-124 86.8,-120.5 86.8,-127.5"/>
</g>
<!-- Node7&#45;&gt;Node5 -->
<g id="edge9" class="edge">
<title>Node7&#45;&gt;Node5</title>
<path fill="none" stroke="midnightblue" d="M94.91,-98.91C88.92,-100.94 82.79,-103.03 77,-105 65.05,-109.07 51.65,-113.66 41.02,-117.3"/>
<polygon fill="midnightblue" stroke="midnightblue" points="96.45,-102.08 104.79,-95.55 94.2,-95.45 96.45,-102.08"/>
</g>
<!-- Node8&#45;&gt;Node7 -->
<g id="edge11" class="edge">
<title>Node8&#45;&gt;Node7</title>
<path fill="none" stroke="midnightblue" d="M218.77,-60.54C201.76,-65.7 182.37,-71.6 166.53,-76.41"/>
<polygon fill="midnightblue" stroke="midnightblue" points="219.91,-63.85 228.46,-57.59 217.87,-57.15 219.91,-63.85"/>
</g>
<!-- Node9&#45;&gt;Node5 -->
<g id="edge13" class="edge">
<title>Node9&#45;&gt;Node5</title>
<path fill="none" stroke="midnightblue" d="M216.96,-17.14C178.19,-24.97 120.74,-40.16 77,-67 56.52,-79.57 38.24,-101.38 28.63,-114.07"/>
<polygon fill="midnightblue" stroke="midnightblue" points="217.74,-20.55 226.89,-15.21 216.4,-13.68 217.74,-20.55"/>
</g>
</g>
</svg>
