<?xml version="1.0" encoding="UTF-8" standalone="no"?>
<!DOCTYPE svg PUBLIC "-//W3C//DTD SVG 1.1//EN"
 "http://www.w3.org/Graphics/SVG/1.1/DTD/svg11.dtd">
<!-- Generated by graphviz version 2.43.0 (0)
 -->
<!-- Title: Logger::setColorsEnabled Pages: 1 -->
<svg width="375pt" height="66pt"
 viewBox="0.00 0.00 375.00 66.00" xmlns="http://www.w3.org/2000/svg" xmlns:xlink="http://www.w3.org/1999/xlink">
<g id="graph0" class="graph" transform="scale(1 1) rotate(0) translate(4 62)">
<title>Logger::setColorsEnabled</title>
<polygon fill="white" stroke="transparent" points="-4,4 -4,-62 371,-62 371,4 -4,4"/>
<!-- Node1 -->
<g id="node1" class="node">
<title>Node1</title>
<g id="a_node1"><a xlink:title="Устанавливает разрешение использования цветов в выводе.">
<polygon fill="#bfbfbf" stroke="black" points="227,-19.5 227,-38.5 367,-38.5 367,-19.5 227,-19.5"/>
<text text-anchor="middle" x="297" y="-26.5" font-family="Helvetica,sans-Serif" font-size="10.00">Logger::setColorsEnabled</text>
</a>
</g>
</g>
<!-- Node2 -->
<g id="node2" class="node">
<title>Node2</title>
<g id="a_node2"><a xlink:href="class_logger.html#a7a1eda8377415680de5f3cfc5ec7ce96" target="_top" xlink:title="Конструктор для класса Logger.">
<polygon fill="white" stroke="black" points="89.5,-38.5 89.5,-57.5 178.5,-57.5 178.5,-38.5 89.5,-38.5"/>
<text text-anchor="middle" x="134" y="-45.5" font-family="Helvetica,sans-Serif" font-size="10.00">Logger::Logger</text>
</a>
</g>
</g>
<!-- Node1&#45;&gt;Node2 -->
<g id="edge1" class="edge">
<title>Node1&#45;&gt;Node2</title>
<path fill="none" stroke="midnightblue" d="M216.76,-38.35C203.61,-39.9 190.41,-41.46 178.57,-42.86"/>
<polygon fill="midnightblue" stroke="midnightblue" points="217.27,-41.82 226.79,-37.17 216.45,-34.86 217.27,-41.82"/>
</g>
<!-- Node3 -->
<g id="node3" class="node">
<title>Node3</title>
<g id="a_node3"><a xlink:href="operation__params_8hpp.html#a0048eb016cc89e79b003ff63259ea264" target="_top" xlink:title="Парсинг командной строки и создание объекта Operations.">
<polygon fill="white" stroke="black" points="77,-0.5 77,-19.5 191,-19.5 191,-0.5 77,-0.5"/>
<text text-anchor="middle" x="134" y="-7.5" font-family="Helvetica,sans-Serif" font-size="10.00">parseCommandLine</text>
</a>
</g>
</g>
<!-- Node1&#45;&gt;Node3 -->
<g id="edge2" class="edge">
<title>Node1&#45;&gt;Node3</title>
<path fill="none" stroke="midnightblue" d="M216.66,-19.64C208.01,-18.62 199.34,-17.59 191.06,-16.62"/>
<polygon fill="midnightblue" stroke="midnightblue" points="216.45,-23.14 226.79,-20.83 217.27,-16.18 216.45,-23.14"/>
</g>
<!-- Node4 -->
<g id="node4" class="node">
<title>Node4</title>
<g id="a_node4"><a xlink:href="main_8cpp.html#a0ddf1224851353fc92bfbff6f499fa97" target="_top" xlink:title="Главная функция программы">
<polygon fill="white" stroke="black" points="0,-0.5 0,-19.5 41,-19.5 41,-0.5 0,-0.5"/>
<text text-anchor="middle" x="20.5" y="-7.5" font-family="Helvetica,sans-Serif" font-size="10.00">main</text>
</a>
</g>
</g>
<!-- Node3&#45;&gt;Node4 -->
<g id="edge3" class="edge">
<title>Node3&#45;&gt;Node4</title>
<path fill="none" stroke="midnightblue" d="M66.7,-10C57.37,-10 48.45,-10 41.04,-10"/>
<polygon fill="midnightblue" stroke="midnightblue" points="66.92,-13.5 76.92,-10 66.92,-6.5 66.92,-13.5"/>
</g>
</g>
</svg>
