<?xml version="1.0" encoding="UTF-8" standalone="no"?>
<!DOCTYPE svg PUBLIC "-//W3C//DTD SVG 1.1//EN"
 "http://www.w3.org/Graphics/SVG/1.1/DTD/svg11.dtd">
<!-- Generated by graphviz version 2.43.0 (0)
 -->
<!-- Title: Logger::exit Pages: 1 -->
<svg width="411pt" height="294pt"
 viewBox="0.00 0.00 411.00 294.00" xmlns="http://www.w3.org/2000/svg" xmlns:xlink="http://www.w3.org/1999/xlink">
<g id="graph0" class="graph" transform="scale(1 1) rotate(0) translate(4 290)">
<title>Logger::exit</title>
<polygon fill="white" stroke="transparent" points="-4,4 -4,-290 407,-290 407,4 -4,4"/>
<!-- Node1 -->
<g id="node1" class="node">
<title>Node1</title>
<g id="a_node1"><a xlink:title="Записывает сообщение и завершает программу с заданным кодом выхода.">
<polygon fill="#bfbfbf" stroke="black" points="329,-133.5 329,-152.5 403,-152.5 403,-133.5 329,-133.5"/>
<text text-anchor="middle" x="366" y="-140.5" font-family="Helvetica,sans-Serif" font-size="10.00">Logger::exit</text>
</a>
</g>
</g>
<!-- Node2 -->
<g id="node2" class="node">
<title>Node2</title>
<g id="a_node2"><a xlink:href="class_b_m_p.html#a1a6520856e149fb370934fae327947fd" target="_top" xlink:title="Конструктор класса BMP.">
<polygon fill="white" stroke="black" points="227,-266.5 227,-285.5 293,-285.5 293,-266.5 227,-266.5"/>
<text text-anchor="middle" x="260" y="-273.5" font-family="Helvetica,sans-Serif" font-size="10.00">BMP::BMP</text>
</a>
</g>
</g>
<!-- Node1&#45;&gt;Node2 -->
<g id="edge1" class="edge">
<title>Node1&#45;&gt;Node2</title>
<path fill="none" stroke="midnightblue" d="M355.38,-161.49C342.95,-184.34 319.69,-223.67 293,-252 287.95,-257.36 281.6,-262.39 275.89,-266.46"/>
<polygon fill="midnightblue" stroke="midnightblue" points="358.55,-162.99 360.17,-152.52 352.38,-159.69 358.55,-162.99"/>
</g>
<!-- Node3 -->
<g id="node3" class="node">
<title>Node3</title>
<g id="a_node3"><a xlink:href="class_b_m_p.html#aa5efccdbbacffe75174e3c126efc06ad" target="_top" xlink:title="Копировать область изображения.">
<polygon fill="white" stroke="black" points="100,-228.5 100,-247.5 168,-247.5 168,-228.5 100,-228.5"/>
<text text-anchor="middle" x="134" y="-235.5" font-family="Helvetica,sans-Serif" font-size="10.00">BMP::copy</text>
</a>
</g>
</g>
<!-- Node1&#45;&gt;Node3 -->
<g id="edge2" class="edge">
<title>Node1&#45;&gt;Node3</title>
<path fill="none" stroke="midnightblue" d="M352.06,-161.12C339.12,-177.76 317.63,-201.66 293,-214 253.31,-233.89 201.52,-238.29 168.25,-238.8"/>
<polygon fill="midnightblue" stroke="midnightblue" points="355.15,-162.84 358.34,-152.74 349.55,-158.65 355.15,-162.84"/>
</g>
<!-- Node4 -->
<g id="node4" class="node">
<title>Node4</title>
<g id="a_node4"><a xlink:href="main_8cpp.html#a0ddf1224851353fc92bfbff6f499fa97" target="_top" xlink:title="Главная функция программы">
<polygon fill="white" stroke="black" points="0,-133.5 0,-152.5 41,-152.5 41,-133.5 0,-133.5"/>
<text text-anchor="middle" x="20.5" y="-140.5" font-family="Helvetica,sans-Serif" font-size="10.00">main</text>
</a>
</g>
</g>
<!-- Node1&#45;&gt;Node4 -->
<g id="edge4" class="edge">
<title>Node1&#45;&gt;Node4</title>
<path fill="none" stroke="midnightblue" d="M332.62,-156.06C278.52,-175.97 166.8,-208.8 77,-181 59.15,-175.48 41.93,-162.01 31.53,-152.69"/>
<polygon fill="midnightblue" stroke="midnightblue" points="333.92,-159.32 342.04,-152.51 331.45,-152.77 333.92,-159.32"/>
</g>
<!-- Node5 -->
<g id="node5" class="node">
<title>Node5</title>
<g id="a_node5"><a xlink:href="class_b_m_p.html#a6760433189c91bee33a1e884909c3818" target="_top" xlink:title="Отразить изображение относительно указанной оси.">
<polygon fill="white" stroke="black" points="97,-152.5 97,-171.5 171,-171.5 171,-152.5 97,-152.5"/>
<text text-anchor="middle" x="134" y="-159.5" font-family="Helvetica,sans-Serif" font-size="10.00">BMP::mirror</text>
</a>
</g>
</g>
<!-- Node1&#45;&gt;Node5 -->
<g id="edge5" class="edge">
<title>Node1&#45;&gt;Node5</title>
<path fill="none" stroke="midnightblue" d="M318.79,-146.82C275.36,-150.4 211.25,-155.7 171.36,-159"/>
<polygon fill="midnightblue" stroke="midnightblue" points="319.13,-150.3 328.81,-145.99 318.56,-143.32 319.13,-150.3"/>
</g>
<!-- Node6 -->
<g id="node6" class="node">
<title>Node6</title>
<g id="a_node6"><a xlink:href="operation__params_8h.html#a00a944e8a68555a108c478465b5e9018" target="_top" xlink:title="Парсинг командной строки и создание объекта OperationParams.">
<polygon fill="white" stroke="black" points="77,-114.5 77,-133.5 191,-133.5 191,-114.5 77,-114.5"/>
<text text-anchor="middle" x="134" y="-121.5" font-family="Helvetica,sans-Serif" font-size="10.00">parseCommandLine</text>
</a>
</g>
</g>
<!-- Node1&#45;&gt;Node6 -->
<g id="edge7" class="edge">
<title>Node1&#45;&gt;Node6</title>
<path fill="none" stroke="midnightblue" d="M318.37,-139.15C281.6,-136.11 230.17,-131.86 191.14,-128.64"/>
<polygon fill="midnightblue" stroke="midnightblue" points="318.56,-142.68 328.81,-140.01 319.13,-135.7 318.56,-142.68"/>
</g>
<!-- Node7 -->
<g id="node7" class="node">
<title>Node7</title>
<g id="a_node7"><a xlink:href="operation__params_8h.html#abbd547560acd14f298e5d36dcf0398d3" target="_top" xlink:title="Парсинг строки с RGB&#45;значением цвета.">
<polygon fill="white" stroke="black" points="227.5,-76.5 227.5,-95.5 292.5,-95.5 292.5,-76.5 227.5,-76.5"/>
<text text-anchor="middle" x="260" y="-83.5" font-family="Helvetica,sans-Serif" font-size="10.00">parseRGB</text>
</a>
</g>
</g>
<!-- Node1&#45;&gt;Node7 -->
<g id="edge9" class="edge">
<title>Node1&#45;&gt;Node7</title>
<path fill="none" stroke="midnightblue" d="M338.37,-128.41C319.51,-118.07 294.75,-104.5 278.38,-95.53"/>
<polygon fill="midnightblue" stroke="midnightblue" points="336.91,-131.59 347.36,-133.33 340.27,-125.46 336.91,-131.59"/>
</g>
<!-- Node8 -->
<g id="node8" class="node">
<title>Node8</title>
<g id="a_node8"><a xlink:href="class_b_m_p.html#ad6023dacfbf10c0326a59f7e996aba27" target="_top" xlink:title="Сохранить изображение в файл.">
<polygon fill="white" stroke="black" points="100,-67.5 100,-86.5 168,-86.5 168,-67.5 100,-67.5"/>
<text text-anchor="middle" x="134" y="-74.5" font-family="Helvetica,sans-Serif" font-size="10.00">BMP::save</text>
</a>
</g>
</g>
<!-- Node1&#45;&gt;Node8 -->
<g id="edge11" class="edge">
<title>Node1&#45;&gt;Node8</title>
<path fill="none" stroke="midnightblue" d="M354.26,-124.97C342.07,-106.45 320.28,-78.73 293,-67 251.09,-48.97 197.1,-58.53 164.31,-67.48"/>
<polygon fill="midnightblue" stroke="midnightblue" points="351.31,-126.85 359.6,-133.44 357.23,-123.12 351.31,-126.85"/>
</g>
<!-- Node9 -->
<g id="node9" class="node">
<title>Node9</title>
<g id="a_node9"><a xlink:href="class_b_m_p.html#aaff3df7f32657d64bf3b5f07e76a4edd" target="_top" xlink:title="Разделить изображение на части.">
<polygon fill="white" stroke="black" points="227.5,-0.5 227.5,-19.5 292.5,-19.5 292.5,-0.5 227.5,-0.5"/>
<text text-anchor="middle" x="260" y="-7.5" font-family="Helvetica,sans-Serif" font-size="10.00">BMP::split</text>
</a>
</g>
</g>
<!-- Node1&#45;&gt;Node9 -->
<g id="edge13" class="edge">
<title>Node1&#45;&gt;Node9</title>
<path fill="none" stroke="midnightblue" d="M355.38,-124.51C342.95,-101.66 319.69,-62.33 293,-34 287.95,-28.64 281.6,-23.61 275.89,-19.54"/>
<polygon fill="midnightblue" stroke="midnightblue" points="352.38,-126.31 360.17,-133.48 358.55,-123.01 352.38,-126.31"/>
</g>
<!-- Node3&#45;&gt;Node4 -->
<g id="edge3" class="edge">
<title>Node3&#45;&gt;Node4</title>
<path fill="none" stroke="midnightblue" d="M93.93,-224.29C87.97,-221.36 82.12,-217.94 77,-214 54.19,-196.44 35.5,-167.44 26.79,-152.52"/>
<polygon fill="midnightblue" stroke="midnightblue" points="92.73,-227.59 103.28,-228.5 95.6,-221.21 92.73,-227.59"/>
</g>
<!-- Node5&#45;&gt;Node4 -->
<g id="edge6" class="edge">
<title>Node5&#45;&gt;Node4</title>
<path fill="none" stroke="midnightblue" d="M86.6,-154.09C70.76,-151.39 53.89,-148.52 41.29,-146.37"/>
<polygon fill="midnightblue" stroke="midnightblue" points="86.35,-157.6 96.8,-155.83 87.53,-150.7 86.35,-157.6"/>
</g>
<!-- Node6&#45;&gt;Node4 -->
<g id="edge8" class="edge">
<title>Node6&#45;&gt;Node4</title>
<path fill="none" stroke="midnightblue" d="M66.99,-135.25C57.56,-136.86 48.53,-138.39 41.04,-139.67"/>
<polygon fill="midnightblue" stroke="midnightblue" points="67.65,-138.69 76.92,-133.56 66.48,-131.79 67.65,-138.69"/>
</g>
<!-- Node7&#45;&gt;Node6 -->
<g id="edge10" class="edge">
<title>Node7&#45;&gt;Node6</title>
<path fill="none" stroke="midnightblue" d="M218.1,-98.54C201.23,-103.7 181.99,-109.6 166.28,-114.41"/>
<polygon fill="midnightblue" stroke="midnightblue" points="219.17,-101.87 227.71,-95.59 217.12,-95.17 219.17,-101.87"/>
</g>
<!-- Node8&#45;&gt;Node4 -->
<g id="edge12" class="edge">
<title>Node8&#45;&gt;Node4</title>
<path fill="none" stroke="midnightblue" d="M102.93,-91.09C94.42,-95.33 85.24,-100.15 77,-105 61.9,-113.89 45.44,-125.4 34.4,-133.42"/>
<polygon fill="midnightblue" stroke="midnightblue" points="104.71,-94.12 112.16,-86.58 101.64,-87.83 104.71,-94.12"/>
</g>
<!-- Node9&#45;&gt;Node4 -->
<g id="edge14" class="edge">
<title>Node9&#45;&gt;Node4</title>
<path fill="none" stroke="midnightblue" d="M217.39,-12.48C177.95,-16.66 118.72,-27.9 77,-58 49.56,-77.8 32.06,-115.71 25.03,-133.43"/>
<polygon fill="midnightblue" stroke="midnightblue" points="217.83,-15.95 227.46,-11.52 217.17,-8.98 217.83,-15.95"/>
</g>
</g>
</svg>
