<?xml version="1.0" encoding="UTF-8" standalone="no"?>
<!DOCTYPE svg PUBLIC "-//W3C//DTD SVG 1.1//EN"
 "http://www.w3.org/Graphics/SVG/1.1/DTD/svg11.dtd">
<!-- Generated by graphviz version 2.43.0 (0)
 -->
<!-- Title: BMP::BMP Pages: 1 -->
<svg width="509pt" height="66pt"
 viewBox="0.00 0.00 509.00 66.00" xmlns="http://www.w3.org/2000/svg" xmlns:xlink="http://www.w3.org/1999/xlink">
<g id="graph0" class="graph" transform="scale(1 1) rotate(0) translate(4 62)">
<title>BMP::BMP</title>
<polygon fill="white" stroke="transparent" points="-4,4 -4,-62 505,-62 505,4 -4,4"/>
<!-- Node1 -->
<g id="node1" class="node">
<title>Node1</title>
<g id="a_node1"><a xlink:title="Конструктор класса BMP.">
<polygon fill="#bfbfbf" stroke="black" points="0,-19.5 0,-38.5 66,-38.5 66,-19.5 0,-19.5"/>
<text text-anchor="middle" x="33" y="-26.5" font-family="Helvetica,sans-Serif" font-size="10.00">BMP::BMP</text>
</a>
</g>
</g>
<!-- Node2 -->
<g id="node2" class="node">
<title>Node2</title>
<g id="a_node2"><a xlink:href="class_logger.html#ad044e18a74f8f7417e2bf8d8b64a9e3d" target="_top" xlink:title="Записывает сообщение и завершает программу с заданным кодом выхода.">
<polygon fill="white" stroke="black" points="102,-19.5 102,-38.5 176,-38.5 176,-19.5 102,-19.5"/>
<text text-anchor="middle" x="139" y="-26.5" font-family="Helvetica,sans-Serif" font-size="10.00">Logger::exit</text>
</a>
</g>
</g>
<!-- Node1&#45;&gt;Node2 -->
<g id="edge1" class="edge">
<title>Node1&#45;&gt;Node2</title>
<path fill="none" stroke="midnightblue" d="M66.05,-29C74.2,-29 83.12,-29 91.82,-29"/>
<polygon fill="midnightblue" stroke="midnightblue" points="91.88,-32.5 101.88,-29 91.88,-25.5 91.88,-32.5"/>
</g>
<!-- Node3 -->
<g id="node3" class="node">
<title>Node3</title>
<g id="a_node3"><a xlink:href="class_logger.html#a32783adace456c614c77d2944036e31b" target="_top" xlink:title="Записывает ошибку в лог с красным цветом.">
<polygon fill="white" stroke="black" points="212,-19.5 212,-38.5 291,-38.5 291,-19.5 212,-19.5"/>
<text text-anchor="middle" x="251.5" y="-26.5" font-family="Helvetica,sans-Serif" font-size="10.00">Logger::error</text>
</a>
</g>
</g>
<!-- Node2&#45;&gt;Node3 -->
<g id="edge2" class="edge">
<title>Node2&#45;&gt;Node3</title>
<path fill="none" stroke="midnightblue" d="M176.18,-29C184.42,-29 193.29,-29 201.95,-29"/>
<polygon fill="midnightblue" stroke="midnightblue" points="201.95,-32.5 211.95,-29 201.95,-25.5 201.95,-32.5"/>
</g>
<!-- Node4 -->
<g id="node4" class="node">
<title>Node4</title>
<g id="a_node4"><a xlink:href="class_logger.html#a6faf175f206bf5734a4824c98296c677" target="_top" xlink:title="Записывает сообщение в лог с определенным цветом.">
<polygon fill="white" stroke="black" points="327,-19.5 327,-38.5 398,-38.5 398,-19.5 327,-19.5"/>
<text text-anchor="middle" x="362.5" y="-26.5" font-family="Helvetica,sans-Serif" font-size="10.00">Logger::log</text>
</a>
</g>
</g>
<!-- Node3&#45;&gt;Node4 -->
<g id="edge3" class="edge">
<title>Node3&#45;&gt;Node4</title>
<path fill="none" stroke="midnightblue" d="M291.24,-29C299.5,-29 308.3,-29 316.77,-29"/>
<polygon fill="midnightblue" stroke="midnightblue" points="316.88,-32.5 326.88,-29 316.88,-25.5 316.88,-32.5"/>
</g>
<!-- Node5 -->
<g id="node5" class="node">
<title>Node5</title>
<g id="a_node5"><a xlink:href="logger_8cpp.html#a3ae85e4766efbf5abe5eaf6e5c4afc32" target="_top" xlink:title=" ">
<polygon fill="white" stroke="black" points="434,-38.5 434,-57.5 501,-57.5 501,-38.5 434,-38.5"/>
<text text-anchor="middle" x="467.5" y="-45.5" font-family="Helvetica,sans-Serif" font-size="10.00">resetColor</text>
</a>
</g>
</g>
<!-- Node4&#45;&gt;Node5 -->
<g id="edge4" class="edge">
<title>Node4&#45;&gt;Node5</title>
<path fill="none" stroke="midnightblue" d="M398.08,-35.38C406.4,-36.91 415.38,-38.57 424.01,-40.16"/>
<polygon fill="midnightblue" stroke="midnightblue" points="423.45,-43.62 433.92,-41.99 424.72,-36.73 423.45,-43.62"/>
</g>
<!-- Node6 -->
<g id="node6" class="node">
<title>Node6</title>
<g id="a_node6"><a xlink:href="logger_8cpp.html#a81d09f8360558968e2402c1565126734" target="_top" xlink:title=" ">
<polygon fill="white" stroke="black" points="439,-0.5 439,-19.5 496,-19.5 496,-0.5 439,-0.5"/>
<text text-anchor="middle" x="467.5" y="-7.5" font-family="Helvetica,sans-Serif" font-size="10.00">setColor</text>
</a>
</g>
</g>
<!-- Node4&#45;&gt;Node6 -->
<g id="edge5" class="edge">
<title>Node4&#45;&gt;Node6</title>
<path fill="none" stroke="midnightblue" d="M398.08,-22.62C407.89,-20.81 418.61,-18.83 428.6,-16.99"/>
<polygon fill="midnightblue" stroke="midnightblue" points="429.47,-20.39 438.67,-15.13 428.2,-13.51 429.47,-20.39"/>
</g>
</g>
</svg>
