<?xml version="1.0" encoding="UTF-8" standalone="no"?>
<!DOCTYPE svg PUBLIC "-//W3C//DTD SVG 1.1//EN"
 "http://www.w3.org/Graphics/SVG/1.1/DTD/svg11.dtd">
<!-- Generated by graphviz version 2.43.0 (0)
 -->
<!-- Title: Logger::log Pages: 1 -->
<svg width="782pt" height="512pt"
 viewBox="0.00 0.00 782.00 512.00" xmlns="http://www.w3.org/2000/svg" xmlns:xlink="http://www.w3.org/1999/xlink">
<g id="graph0" class="graph" transform="scale(1 1) rotate(0) translate(4 508)">
<title>Logger::log</title>
<polygon fill="white" stroke="transparent" points="-4,4 -4,-508 778,-508 778,4 -4,4"/>
<!-- Node1 -->
<g id="node1" class="node">
<title>Node1</title>
<g id="a_node1"><a xlink:title="Записывает сообщение в лог с определенным цветом.">
<polygon fill="#bfbfbf" stroke="black" points="703,-247.5 703,-266.5 774,-266.5 774,-247.5 703,-247.5"/>
<text text-anchor="middle" x="738.5" y="-254.5" font-family="Helvetica,sans-Serif" font-size="10.00">Logger::log</text>
</a>
</g>
</g>
<!-- Node2 -->
<g id="node2" class="node">
<title>Node2</title>
<g id="a_node2"><a xlink:href="operation__params_8h.html#a1451d6a0f33f9d0a02a4b055e5839e6e" target="_top" xlink:title="Отображение справки о возможных параметрах командной строки.">
<polygon fill="white" stroke="black" points="475,-413.5 475,-432.5 549,-432.5 549,-413.5 475,-413.5"/>
<text text-anchor="middle" x="512" y="-420.5" font-family="Helvetica,sans-Serif" font-size="10.00">displayHelp</text>
</a>
</g>
</g>
<!-- Node1&#45;&gt;Node2 -->
<g id="edge1" class="edge">
<title>Node1&#45;&gt;Node2</title>
<path fill="none" stroke="midnightblue" d="M716.42,-272.59C670.66,-306.42 563.4,-385.73 526.08,-413.33"/>
<polygon fill="midnightblue" stroke="midnightblue" points="718.5,-275.4 724.46,-266.64 714.34,-269.77 718.5,-275.4"/>
</g>
<!-- Node4 -->
<g id="node4" class="node">
<title>Node4</title>
<g id="a_node4"><a xlink:href="main_8cpp.html#a0ddf1224851353fc92bfbff6f499fa97" target="_top" xlink:title="Главная функция программы">
<polygon fill="white" stroke="black" points="0,-190.5 0,-209.5 41,-209.5 41,-190.5 0,-190.5"/>
<text text-anchor="middle" x="20.5" y="-197.5" font-family="Helvetica,sans-Serif" font-size="10.00">main</text>
</a>
</g>
</g>
<!-- Node1&#45;&gt;Node4 -->
<g id="edge27" class="edge">
<title>Node1&#45;&gt;Node4</title>
<path fill="none" stroke="midnightblue" d="M730.86,-276.15C709.39,-334.15 636.02,-504 513,-504 513,-504 513,-504 274.5,-504 173.15,-504 139.6,-469.71 77,-390 32,-332.7 23.47,-240 21.87,-209.83"/>
<polygon fill="midnightblue" stroke="midnightblue" points="734.17,-277.28 734.26,-266.68 727.58,-274.91 734.17,-277.28"/>
</g>
<!-- Node5 -->
<g id="node5" class="node">
<title>Node5</title>
<g id="a_node5"><a xlink:href="class_logger.html#ab6042fdfcbb14026098e0df9d6b32f27" target="_top" xlink:title="Записывает ошибку в лог с красным цветом.">
<polygon fill="white" stroke="black" points="588,-247.5 588,-266.5 667,-266.5 667,-247.5 588,-247.5"/>
<text text-anchor="middle" x="627.5" y="-254.5" font-family="Helvetica,sans-Serif" font-size="10.00">Logger::error</text>
</a>
</g>
</g>
<!-- Node1&#45;&gt;Node5 -->
<g id="edge4" class="edge">
<title>Node1&#45;&gt;Node5</title>
<path fill="none" stroke="midnightblue" d="M692.61,-257C684.14,-257 675.36,-257 667.12,-257"/>
<polygon fill="midnightblue" stroke="midnightblue" points="692.71,-260.5 702.71,-257 692.71,-253.5 692.71,-260.5"/>
</g>
<!-- Node15 -->
<g id="node15" class="node">
<title>Node15</title>
<g id="a_node15"><a xlink:href="class_b_m_p.html#acdebc7da18509fc92374934ad7a99ae2" target="_top" xlink:title="Получить информацию о изображении.">
<polygon fill="white" stroke="black" points="94.5,-0.5 94.5,-19.5 173.5,-19.5 173.5,-0.5 94.5,-0.5"/>
<text text-anchor="middle" x="134" y="-7.5" font-family="Helvetica,sans-Serif" font-size="10.00">BMP::getInfo</text>
</a>
</g>
</g>
<!-- Node1&#45;&gt;Node15 -->
<g id="edge25" class="edge">
<title>Node1&#45;&gt;Node15</title>
<path fill="none" stroke="midnightblue" d="M730.86,-237.85C709.39,-179.85 636.02,-10 513,-10 513,-10 513,-10 397,-10 317.63,-10 224.73,-10 173.62,-10"/>
<polygon fill="midnightblue" stroke="midnightblue" points="727.58,-239.09 734.26,-247.32 734.17,-236.72 727.58,-239.09"/>
</g>
<!-- Node16 -->
<g id="node16" class="node">
<title>Node16</title>
<g id="a_node16"><a xlink:href="class_logger.html#a24b519e0f53e73937f93edd2da37ea76" target="_top" xlink:title="Записывает предупреждение в лог с желтым цветом.">
<polygon fill="white" stroke="black" points="472,-76.5 472,-95.5 552,-95.5 552,-76.5 472,-76.5"/>
<text text-anchor="middle" x="512" y="-83.5" font-family="Helvetica,sans-Serif" font-size="10.00">Logger::warn</text>
</a>
</g>
</g>
<!-- Node1&#45;&gt;Node16 -->
<g id="edge28" class="edge">
<title>Node1&#45;&gt;Node16</title>
<path fill="none" stroke="midnightblue" d="M716.76,-241.2C670.99,-206.34 562.52,-123.72 525.57,-95.58"/>
<polygon fill="midnightblue" stroke="midnightblue" points="714.71,-244.04 724.79,-247.32 718.95,-238.47 714.71,-244.04"/>
</g>
<!-- Node3 -->
<g id="node3" class="node">
<title>Node3</title>
<g id="a_node3"><a xlink:href="operation__params_8h.html#a0048eb016cc89e79b003ff63259ea264" target="_top" xlink:title="Парсинг командной строки и создание объекта Operations.">
<polygon fill="white" stroke="black" points="77,-361.5 77,-380.5 191,-380.5 191,-361.5 77,-361.5"/>
<text text-anchor="middle" x="134" y="-368.5" font-family="Helvetica,sans-Serif" font-size="10.00">parseCommandLine</text>
</a>
</g>
</g>
<!-- Node2&#45;&gt;Node3 -->
<g id="edge2" class="edge">
<title>Node2&#45;&gt;Node3</title>
<path fill="none" stroke="midnightblue" d="M474.49,-435.58C419.17,-452.57 311.6,-477.42 227,-447 189.76,-433.61 156.88,-397.89 142.58,-380.62"/>
<polygon fill="midnightblue" stroke="midnightblue" points="475.71,-438.87 484.19,-432.52 473.6,-432.19 475.71,-438.87"/>
</g>
<!-- Node3&#45;&gt;Node4 -->
<g id="edge3" class="edge">
<title>Node3&#45;&gt;Node4</title>
<path fill="none" stroke="midnightblue" d="M119.21,-353.41C107.52,-338.24 90.55,-315.6 77,-295 57.05,-264.68 36.14,-227.04 26.69,-209.64"/>
<polygon fill="midnightblue" stroke="midnightblue" points="116.51,-355.65 125.41,-361.4 122.04,-351.35 116.51,-355.65"/>
</g>
<!-- Node6 -->
<g id="node6" class="node">
<title>Node6</title>
<g id="a_node6"><a xlink:href="class_logger.html#adaa34620512b5fa13d3098602eb4aef0" target="_top" xlink:title="Записывает сообщение и завершает программу с заданным кодом выхода.">
<polygon fill="white" stroke="black" points="475,-247.5 475,-266.5 549,-266.5 549,-247.5 475,-247.5"/>
<text text-anchor="middle" x="512" y="-254.5" font-family="Helvetica,sans-Serif" font-size="10.00">Logger::exit</text>
</a>
</g>
</g>
<!-- Node5&#45;&gt;Node6 -->
<g id="edge5" class="edge">
<title>Node5&#45;&gt;Node6</title>
<path fill="none" stroke="midnightblue" d="M577.61,-257C568.1,-257 558.29,-257 549.27,-257"/>
<polygon fill="midnightblue" stroke="midnightblue" points="577.76,-260.5 587.76,-257 577.76,-253.5 577.76,-260.5"/>
</g>
<!-- Node6&#45;&gt;Node3 -->
<g id="edge12" class="edge">
<title>Node6&#45;&gt;Node3</title>
<path fill="none" stroke="midnightblue" d="M465.43,-269.16C385.9,-290.37 229.88,-332.02 227,-333 202.12,-341.43 174.35,-353.24 155.9,-361.45"/>
<polygon fill="midnightblue" stroke="midnightblue" points="466.43,-272.51 475.19,-266.55 464.63,-265.75 466.43,-272.51"/>
</g>
<!-- Node6&#45;&gt;Node4 -->
<g id="edge9" class="edge">
<title>Node6&#45;&gt;Node4</title>
<path fill="none" stroke="midnightblue" d="M464.71,-247C455.22,-244.99 445.29,-242.9 436,-241 386.3,-230.82 374.31,-225.49 324,-219 217.8,-205.29 89.29,-201.37 41.05,-200.34"/>
<polygon fill="midnightblue" stroke="midnightblue" points="464.27,-250.49 474.78,-249.15 465.73,-243.64 464.27,-250.49"/>
</g>
<!-- Node7 -->
<g id="node7" class="node">
<title>Node7</title>
<g id="a_node7"><a xlink:href="class_b_m_p.html#a1a6520856e149fb370934fae327947fd" target="_top" xlink:title="Конструктор класса BMP.">
<polygon fill="white" stroke="black" points="365,-152.5 365,-171.5 431,-171.5 431,-152.5 365,-152.5"/>
<text text-anchor="middle" x="398" y="-159.5" font-family="Helvetica,sans-Serif" font-size="10.00">BMP::BMP</text>
</a>
</g>
</g>
<!-- Node6&#45;&gt;Node7 -->
<g id="edge6" class="edge">
<title>Node6&#45;&gt;Node7</title>
<path fill="none" stroke="midnightblue" d="M494.49,-239.67C479.81,-224.69 457.4,-202.84 436,-186 429.5,-180.89 421.9,-175.82 415.28,-171.66"/>
<polygon fill="midnightblue" stroke="midnightblue" points="492.33,-242.47 501.8,-247.22 497.36,-237.6 492.33,-242.47"/>
</g>
<!-- Node8 -->
<g id="node8" class="node">
<title>Node8</title>
<g id="a_node8"><a xlink:href="class_b_m_p.html#aa5efccdbbacffe75174e3c126efc06ad" target="_top" xlink:title="Копировать область изображения.">
<polygon fill="white" stroke="black" points="364,-76.5 364,-95.5 432,-95.5 432,-76.5 364,-76.5"/>
<text text-anchor="middle" x="398" y="-83.5" font-family="Helvetica,sans-Serif" font-size="10.00">BMP::copy</text>
</a>
</g>
</g>
<!-- Node6&#45;&gt;Node8 -->
<g id="edge7" class="edge">
<title>Node6&#45;&gt;Node8</title>
<path fill="none" stroke="midnightblue" d="M504.83,-237.69C494.46,-207.63 471.19,-149.04 436,-110 430.87,-104.31 424.11,-99.41 417.76,-95.54"/>
<polygon fill="midnightblue" stroke="midnightblue" points="501.57,-239 508.06,-247.38 508.22,-236.79 501.57,-239"/>
</g>
<!-- Node9 -->
<g id="node9" class="node">
<title>Node9</title>
<g id="a_node9"><a xlink:href="class_b_m_p.html#a6760433189c91bee33a1e884909c3818" target="_top" xlink:title="Отразить изображение относительно указанной оси.">
<polygon fill="white" stroke="black" points="238.5,-137.5 238.5,-156.5 312.5,-156.5 312.5,-137.5 238.5,-137.5"/>
<text text-anchor="middle" x="275.5" y="-144.5" font-family="Helvetica,sans-Serif" font-size="10.00">BMP::mirror</text>
</a>
</g>
</g>
<!-- Node6&#45;&gt;Node9 -->
<g id="edge10" class="edge">
<title>Node6&#45;&gt;Node9</title>
<path fill="none" stroke="midnightblue" d="M504.89,-237.82C495.17,-210.95 473.37,-163.15 436,-143 396.01,-121.44 341.8,-129.15 308,-137.47"/>
<polygon fill="midnightblue" stroke="midnightblue" points="501.58,-238.97 508.13,-247.3 508.21,-236.7 501.58,-238.97"/>
</g>
<!-- Node10 -->
<g id="node10" class="node">
<title>Node10</title>
<g id="a_node10"><a xlink:href="operation__params_8cpp.html#adfab6ddfafab9bed92ac967c3a0fe0dd" target="_top" xlink:title=" ">
<polygon fill="white" stroke="black" points="227,-342.5 227,-361.5 324,-361.5 324,-342.5 227,-342.5"/>
<text text-anchor="middle" x="275.5" y="-349.5" font-family="Helvetica,sans-Serif" font-size="10.00">parseCoordinate</text>
</a>
</g>
</g>
<!-- Node6&#45;&gt;Node10 -->
<g id="edge13" class="edge">
<title>Node6&#45;&gt;Node10</title>
<path fill="none" stroke="midnightblue" d="M497.74,-274.67C484.18,-291.33 461.53,-315.55 436,-328 401.01,-345.06 357,-350.67 324.07,-352.23"/>
<polygon fill="midnightblue" stroke="midnightblue" points="500.54,-276.77 503.97,-266.74 495.03,-272.44 500.54,-276.77"/>
</g>
<!-- Node11 -->
<g id="node11" class="node">
<title>Node11</title>
<g id="a_node11"><a xlink:href="operation__params_8h.html#abbd547560acd14f298e5d36dcf0398d3" target="_top" xlink:title="Парсинг строки с RGB&#45;значением цвета.">
<polygon fill="white" stroke="black" points="243,-418.5 243,-437.5 308,-437.5 308,-418.5 243,-418.5"/>
<text text-anchor="middle" x="275.5" y="-425.5" font-family="Helvetica,sans-Serif" font-size="10.00">parseRGB</text>
</a>
</g>
</g>
<!-- Node6&#45;&gt;Node11 -->
<g id="edge15" class="edge">
<title>Node6&#45;&gt;Node11</title>
<path fill="none" stroke="midnightblue" d="M507.57,-276.36C500.58,-309.58 481.33,-376.95 436,-409 398.32,-435.65 342.7,-435.78 308.08,-432.55"/>
<polygon fill="midnightblue" stroke="midnightblue" points="511.02,-276.99 509.49,-266.5 504.14,-275.65 511.02,-276.99"/>
</g>
<!-- Node12 -->
<g id="node12" class="node">
<title>Node12</title>
<g id="a_node12"><a xlink:href="operation__params_8h.html#acb9b051691fc7054f0232d28aef686c4" target="_top" xlink:title="Парсинг строки с числами, разделенными пробелами.">
<polygon fill="white" stroke="black" points="360,-380.5 360,-399.5 436,-399.5 436,-380.5 360,-380.5"/>
<text text-anchor="middle" x="398" y="-387.5" font-family="Helvetica,sans-Serif" font-size="10.00">parseValues</text>
</a>
</g>
</g>
<!-- Node6&#45;&gt;Node12 -->
<g id="edge17" class="edge">
<title>Node6&#45;&gt;Node12</title>
<path fill="none" stroke="midnightblue" d="M501.13,-275.76C488.33,-298.9 464.25,-338.51 436,-366 430.4,-371.45 423.39,-376.36 416.98,-380.31"/>
<polygon fill="midnightblue" stroke="midnightblue" points="504.37,-277.13 506.05,-266.67 498.22,-273.8 504.37,-277.13"/>
</g>
<!-- Node13 -->
<g id="node13" class="node">
<title>Node13</title>
<g id="a_node13"><a xlink:href="class_b_m_p.html#ad6023dacfbf10c0326a59f7e996aba27" target="_top" xlink:title="Сохранить изображение в файл.">
<polygon fill="white" stroke="black" points="100,-266.5 100,-285.5 168,-285.5 168,-266.5 100,-266.5"/>
<text text-anchor="middle" x="134" y="-273.5" font-family="Helvetica,sans-Serif" font-size="10.00">BMP::save</text>
</a>
</g>
</g>
<!-- Node6&#45;&gt;Node13 -->
<g id="edge21" class="edge">
<title>Node6&#45;&gt;Node13</title>
<path fill="none" stroke="midnightblue" d="M464.69,-260.23C455.2,-260.85 445.28,-261.47 436,-262 338.85,-267.5 223.98,-272.4 168.42,-274.67"/>
<polygon fill="midnightblue" stroke="midnightblue" points="465.02,-263.72 474.77,-259.56 464.56,-256.73 465.02,-263.72"/>
</g>
<!-- Node14 -->
<g id="node14" class="node">
<title>Node14</title>
<g id="a_node14"><a xlink:href="class_b_m_p.html#aaff3df7f32657d64bf3b5f07e76a4edd" target="_top" xlink:title="Разделить изображение на части.">
<polygon fill="white" stroke="black" points="243,-228.5 243,-247.5 308,-247.5 308,-228.5 243,-228.5"/>
<text text-anchor="middle" x="275.5" y="-235.5" font-family="Helvetica,sans-Serif" font-size="10.00">BMP::split</text>
</a>
</g>
</g>
<!-- Node6&#45;&gt;Node14 -->
<g id="edge23" class="edge">
<title>Node6&#45;&gt;Node14</title>
<path fill="none" stroke="midnightblue" d="M464.8,-253.26C418.5,-249.51 348.48,-243.83 308.15,-240.56"/>
<polygon fill="midnightblue" stroke="midnightblue" points="464.62,-256.75 474.87,-254.07 465.19,-249.78 464.62,-256.75"/>
</g>
<!-- Node8&#45;&gt;Node4 -->
<g id="edge8" class="edge">
<title>Node8&#45;&gt;Node4</title>
<path fill="none" stroke="midnightblue" d="M353.7,-89.86C290.38,-96.79 169.96,-114.85 77,-158 59.46,-166.14 42.17,-180.51 31.66,-190.14"/>
<polygon fill="midnightblue" stroke="midnightblue" points="354.15,-93.33 363.73,-88.81 353.42,-86.37 354.15,-93.33"/>
</g>
<!-- Node9&#45;&gt;Node4 -->
<g id="edge11" class="edge">
<title>Node9&#45;&gt;Node4</title>
<path fill="none" stroke="midnightblue" d="M228.33,-155.41C188.21,-162.89 128.6,-174.4 77,-186 65.07,-188.68 51.8,-192.02 41.22,-194.76"/>
<polygon fill="midnightblue" stroke="midnightblue" points="229.15,-158.82 238.34,-153.55 227.87,-151.94 229.15,-158.82"/>
</g>
<!-- Node10&#45;&gt;Node3 -->
<g id="edge14" class="edge">
<title>Node10&#45;&gt;Node3</title>
<path fill="none" stroke="midnightblue" d="M216.7,-359.87C208.22,-361.03 199.5,-362.21 191.06,-363.36"/>
<polygon fill="midnightblue" stroke="midnightblue" points="217.45,-363.3 226.88,-358.49 216.5,-356.37 217.45,-363.3"/>
</g>
<!-- Node11&#45;&gt;Node3 -->
<g id="edge16" class="edge">
<title>Node11&#45;&gt;Node3</title>
<path fill="none" stroke="midnightblue" d="M241.85,-414.66C216.26,-404.2 181.29,-389.91 158.43,-380.57"/>
<polygon fill="midnightblue" stroke="midnightblue" points="240.57,-417.92 251.15,-418.46 243.22,-411.44 240.57,-417.92"/>
</g>
<!-- Node12&#45;&gt;Node3 -->
<g id="edge18" class="edge">
<title>Node12&#45;&gt;Node3</title>
<path fill="none" stroke="midnightblue" d="M349.49,-386.55C305.02,-383.33 238.54,-378.51 191.4,-375.09"/>
<polygon fill="midnightblue" stroke="midnightblue" points="349.51,-390.07 359.74,-387.3 350.02,-383.08 349.51,-390.07"/>
</g>
<!-- Node12&#45;&gt;Node10 -->
<g id="edge19" class="edge">
<title>Node12&#45;&gt;Node10</title>
<path fill="none" stroke="midnightblue" d="M356.79,-377.32C340.51,-372.19 322.02,-366.36 306.9,-361.59"/>
<polygon fill="midnightblue" stroke="midnightblue" points="356,-380.74 366.59,-380.41 358.11,-374.07 356,-380.74"/>
</g>
<!-- Node12&#45;&gt;Node11 -->
<g id="edge20" class="edge">
<title>Node12&#45;&gt;Node11</title>
<path fill="none" stroke="midnightblue" d="M356.79,-402.68C340.51,-407.81 322.02,-413.64 306.9,-418.41"/>
<polygon fill="midnightblue" stroke="midnightblue" points="358.11,-405.93 366.59,-399.59 356,-399.26 358.11,-405.93"/>
</g>
<!-- Node13&#45;&gt;Node4 -->
<g id="edge22" class="edge">
<title>Node13&#45;&gt;Node4</title>
<path fill="none" stroke="midnightblue" d="M96.06,-262.34C89.5,-259.32 82.89,-255.85 77,-252 58.21,-239.72 39.9,-220.82 29.72,-209.5"/>
<polygon fill="midnightblue" stroke="midnightblue" points="94.97,-265.69 105.54,-266.46 97.76,-259.27 94.97,-265.69"/>
</g>
<!-- Node14&#45;&gt;Node4 -->
<g id="edge24" class="edge">
<title>Node14&#45;&gt;Node4</title>
<path fill="none" stroke="midnightblue" d="M232.63,-234.46C192.5,-230.7 130.3,-223.92 77,-214 64.98,-211.76 51.7,-208.44 41.14,-205.6"/>
<polygon fill="midnightblue" stroke="midnightblue" points="232.57,-237.97 242.84,-235.39 233.2,-231 232.57,-237.97"/>
</g>
<!-- Node15&#45;&gt;Node4 -->
<g id="edge26" class="edge">
<title>Node15&#45;&gt;Node4</title>
<path fill="none" stroke="midnightblue" d="M89.19,-24.26C84.69,-26.99 80.49,-30.21 77,-34 33.77,-80.94 24.12,-162.57 22.04,-190.39"/>
<polygon fill="midnightblue" stroke="midnightblue" points="90.87,-27.33 98.12,-19.61 87.63,-21.13 90.87,-27.33"/>
</g>
<!-- Node16&#45;&gt;Node4 -->
<g id="edge30" class="edge">
<title>Node16&#45;&gt;Node4</title>
<path fill="none" stroke="midnightblue" d="M470.77,-73.86C459.62,-71.03 447.43,-68.43 436,-67 276.2,-47.07 211.48,-27.41 77,-116 48.97,-134.46 31.77,-172.48 24.92,-190.34"/>
<polygon fill="midnightblue" stroke="midnightblue" points="470.11,-77.3 480.68,-76.5 471.91,-70.54 470.11,-77.3"/>
</g>
<!-- Node16&#45;&gt;Node8 -->
<g id="edge29" class="edge">
<title>Node16&#45;&gt;Node8</title>
<path fill="none" stroke="midnightblue" d="M461.57,-86C451.57,-86 441.29,-86 432.02,-86"/>
<polygon fill="midnightblue" stroke="midnightblue" points="461.83,-89.5 471.83,-86 461.83,-82.5 461.83,-89.5"/>
</g>
</g>
</svg>
