<?xml version="1.0" encoding="UTF-8" standalone="no"?>
<!DOCTYPE svg PUBLIC "-//W3C//DTD SVG 1.1//EN"
 "http://www.w3.org/Graphics/SVG/1.1/DTD/svg11.dtd">
<!-- Generated by graphviz version 2.43.0 (0)
 -->
<!-- Title: BMP::copy Pages: 1 -->
<svg width="512pt" height="66pt"
 viewBox="0.00 0.00 512.00 66.00" xmlns="http://www.w3.org/2000/svg" xmlns:xlink="http://www.w3.org/1999/xlink">
<g id="graph0" class="graph" transform="scale(1 1) rotate(0) translate(4 62)">
<title>BMP::copy</title>
<polygon fill="white" stroke="transparent" points="-4,4 -4,-62 508,-62 508,4 -4,4"/>
<!-- Node1 -->
<g id="node1" class="node">
<title>Node1</title>
<g id="a_node1"><a xlink:title="Копировать область изображения.">
<polygon fill="#bfbfbf" stroke="black" points="0,-19.5 0,-38.5 68,-38.5 68,-19.5 0,-19.5"/>
<text text-anchor="middle" x="34" y="-26.5" font-family="Helvetica,sans-Serif" font-size="10.00">BMP::copy</text>
</a>
</g>
</g>
<!-- Node2 -->
<g id="node2" class="node">
<title>Node2</title>
<g id="a_node2"><a xlink:href="class_logger.html#adaa34620512b5fa13d3098602eb4aef0" target="_top" xlink:title="Записывает сообщение и завершает программу с заданным кодом выхода.">
<polygon fill="white" stroke="black" points="104,-38.5 104,-57.5 178,-57.5 178,-38.5 104,-38.5"/>
<text text-anchor="middle" x="141" y="-45.5" font-family="Helvetica,sans-Serif" font-size="10.00">Logger::exit</text>
</a>
</g>
</g>
<!-- Node1&#45;&gt;Node2 -->
<g id="edge1" class="edge">
<title>Node1&#45;&gt;Node2</title>
<path fill="none" stroke="midnightblue" d="M68.22,-35.01C76.34,-36.48 85.17,-38.08 93.78,-39.64"/>
<polygon fill="midnightblue" stroke="midnightblue" points="93.25,-43.1 103.72,-41.43 94.5,-36.21 93.25,-43.1"/>
</g>
<!-- Node7 -->
<g id="node7" class="node">
<title>Node7</title>
<g id="a_node7"><a xlink:href="class_logger.html#a24b519e0f53e73937f93edd2da37ea76" target="_top" xlink:title="Записывает предупреждение в лог с желтым цветом.">
<polygon fill="white" stroke="black" points="214,-0.5 214,-19.5 294,-19.5 294,-0.5 214,-0.5"/>
<text text-anchor="middle" x="254" y="-7.5" font-family="Helvetica,sans-Serif" font-size="10.00">Logger::warn</text>
</a>
</g>
</g>
<!-- Node1&#45;&gt;Node7 -->
<g id="edge6" class="edge">
<title>Node1&#45;&gt;Node7</title>
<path fill="none" stroke="midnightblue" d="M68.11,-26.11C104.13,-22.98 162.09,-17.92 203.51,-14.31"/>
<polygon fill="midnightblue" stroke="midnightblue" points="204.01,-17.78 213.66,-13.43 203.4,-10.81 204.01,-17.78"/>
</g>
<!-- Node3 -->
<g id="node3" class="node">
<title>Node3</title>
<g id="a_node3"><a xlink:href="class_logger.html#ab6042fdfcbb14026098e0df9d6b32f27" target="_top" xlink:title="Записывает ошибку в лог с красным цветом.">
<polygon fill="white" stroke="black" points="214.5,-38.5 214.5,-57.5 293.5,-57.5 293.5,-38.5 214.5,-38.5"/>
<text text-anchor="middle" x="254" y="-45.5" font-family="Helvetica,sans-Serif" font-size="10.00">Logger::error</text>
</a>
</g>
</g>
<!-- Node2&#45;&gt;Node3 -->
<g id="edge2" class="edge">
<title>Node2&#45;&gt;Node3</title>
<path fill="none" stroke="midnightblue" d="M178.04,-48C186.41,-48 195.46,-48 204.28,-48"/>
<polygon fill="midnightblue" stroke="midnightblue" points="204.46,-51.5 214.46,-48 204.46,-44.5 204.46,-51.5"/>
</g>
<!-- Node4 -->
<g id="node4" class="node">
<title>Node4</title>
<g id="a_node4"><a xlink:href="class_logger.html#ad83dbe66156650acca19d3772ce41229" target="_top" xlink:title="Записывает сообщение в лог с определенным цветом.">
<polygon fill="white" stroke="black" points="330,-19.5 330,-38.5 401,-38.5 401,-19.5 330,-19.5"/>
<text text-anchor="middle" x="365.5" y="-26.5" font-family="Helvetica,sans-Serif" font-size="10.00">Logger::log</text>
</a>
</g>
</g>
<!-- Node3&#45;&gt;Node4 -->
<g id="edge3" class="edge">
<title>Node3&#45;&gt;Node4</title>
<path fill="none" stroke="midnightblue" d="M293.61,-41.3C302.1,-39.83 311.17,-38.25 319.88,-36.74"/>
<polygon fill="midnightblue" stroke="midnightblue" points="320.64,-40.16 329.89,-35.01 319.44,-33.27 320.64,-40.16"/>
</g>
<!-- Node5 -->
<g id="node5" class="node">
<title>Node5</title>
<g id="a_node5"><a xlink:href="logger_8cpp.html#afe00396766eb6b8ca4674de4c5d3d949" target="_top" xlink:title=" ">
<polygon fill="white" stroke="black" points="437,-38.5 437,-57.5 504,-57.5 504,-38.5 437,-38.5"/>
<text text-anchor="middle" x="470.5" y="-45.5" font-family="Helvetica,sans-Serif" font-size="10.00">resetColor</text>
</a>
</g>
</g>
<!-- Node4&#45;&gt;Node5 -->
<g id="edge4" class="edge">
<title>Node4&#45;&gt;Node5</title>
<path fill="none" stroke="midnightblue" d="M401.08,-35.38C409.4,-36.91 418.38,-38.57 427.01,-40.16"/>
<polygon fill="midnightblue" stroke="midnightblue" points="426.45,-43.62 436.92,-41.99 427.72,-36.73 426.45,-43.62"/>
</g>
<!-- Node6 -->
<g id="node6" class="node">
<title>Node6</title>
<g id="a_node6"><a xlink:href="logger_8cpp.html#a47a17bf6298ba8d1f42d32b14449e277" target="_top" xlink:title=" ">
<polygon fill="white" stroke="black" points="442,-0.5 442,-19.5 499,-19.5 499,-0.5 442,-0.5"/>
<text text-anchor="middle" x="470.5" y="-7.5" font-family="Helvetica,sans-Serif" font-size="10.00">setColor</text>
</a>
</g>
</g>
<!-- Node4&#45;&gt;Node6 -->
<g id="edge5" class="edge">
<title>Node4&#45;&gt;Node6</title>
<path fill="none" stroke="midnightblue" d="M401.08,-22.62C410.89,-20.81 421.61,-18.83 431.6,-16.99"/>
<polygon fill="midnightblue" stroke="midnightblue" points="432.47,-20.39 441.67,-15.13 431.2,-13.51 432.47,-20.39"/>
</g>
<!-- Node7&#45;&gt;Node4 -->
<g id="edge7" class="edge">
<title>Node7&#45;&gt;Node4</title>
<path fill="none" stroke="midnightblue" d="M294.22,-16.81C302.51,-18.24 311.32,-19.77 319.79,-21.24"/>
<polygon fill="midnightblue" stroke="midnightblue" points="319.46,-24.74 329.91,-23 320.65,-17.84 319.46,-24.74"/>
</g>
</g>
</svg>
