<?xml version="1.0" encoding="UTF-8" standalone="no"?>
<!DOCTYPE svg PUBLIC "-//W3C//DTD SVG 1.1//EN"
 "http://www.w3.org/Graphics/SVG/1.1/DTD/svg11.dtd">
<!-- Generated by graphviz version 2.43.0 (0)
 -->
<!-- Title: Logger::warn Pages: 1 -->
<svg width="269pt" height="47pt"
 viewBox="0.00 0.00 269.00 47.00" xmlns="http://www.w3.org/2000/svg" xmlns:xlink="http://www.w3.org/1999/xlink">
<g id="graph0" class="graph" transform="scale(1 1) rotate(0) translate(4 43)">
<title>Logger::warn</title>
<polygon fill="white" stroke="transparent" points="-4,4 -4,-43 265,-43 265,4 -4,4"/>
<!-- Node1 -->
<g id="node1" class="node">
<title>Node1</title>
<g id="a_node1"><a xlink:title="Записывает предупреждение в лог с желтым цветом.">
<polygon fill="#bfbfbf" stroke="black" points="181,-0.5 181,-19.5 261,-19.5 261,-0.5 181,-0.5"/>
<text text-anchor="middle" x="221" y="-7.5" font-family="Helvetica,sans-Serif" font-size="10.00">Logger::warn</text>
</a>
</g>
</g>
<!-- Node2 -->
<g id="node2" class="node">
<title>Node2</title>
<g id="a_node2"><a xlink:href="class_b_m_p.html#aa5efccdbbacffe75174e3c126efc06ad" target="_top" xlink:title="Копировать область изображения.">
<polygon fill="white" stroke="black" points="77,-19.5 77,-38.5 145,-38.5 145,-19.5 77,-19.5"/>
<text text-anchor="middle" x="111" y="-26.5" font-family="Helvetica,sans-Serif" font-size="10.00">BMP::copy</text>
</a>
</g>
</g>
<!-- Node1&#45;&gt;Node2 -->
<g id="edge1" class="edge">
<title>Node1&#45;&gt;Node2</title>
<path fill="none" stroke="midnightblue" d="M170.65,-18.68C161.97,-20.21 153.14,-21.76 145.05,-23.19"/>
<polygon fill="midnightblue" stroke="midnightblue" points="171.46,-22.09 180.7,-16.91 170.25,-15.2 171.46,-22.09"/>
</g>
<!-- Node3 -->
<g id="node3" class="node">
<title>Node3</title>
<g id="a_node3"><a xlink:href="main_8cpp.html#a0ddf1224851353fc92bfbff6f499fa97" target="_top" xlink:title="Главная функция программы">
<polygon fill="white" stroke="black" points="0,-0.5 0,-19.5 41,-19.5 41,-0.5 0,-0.5"/>
<text text-anchor="middle" x="20.5" y="-7.5" font-family="Helvetica,sans-Serif" font-size="10.00">main</text>
</a>
</g>
</g>
<!-- Node1&#45;&gt;Node3 -->
<g id="edge3" class="edge">
<title>Node1&#45;&gt;Node3</title>
<path fill="none" stroke="midnightblue" d="M170.77,-10C128.89,-10 70.9,-10 41.03,-10"/>
<polygon fill="midnightblue" stroke="midnightblue" points="170.78,-13.5 180.78,-10 170.78,-6.5 170.78,-13.5"/>
</g>
<!-- Node2&#45;&gt;Node3 -->
<g id="edge2" class="edge">
<title>Node2&#45;&gt;Node3</title>
<path fill="none" stroke="midnightblue" d="M66.8,-19.72C57.85,-17.8 48.85,-15.87 41.25,-14.24"/>
<polygon fill="midnightblue" stroke="midnightblue" points="66.28,-23.19 76.79,-21.87 67.75,-16.35 66.28,-23.19"/>
</g>
</g>
</svg>
