<?xml version="1.0" encoding="UTF-8" standalone="no"?>
<!DOCTYPE svg PUBLIC "-//W3C//DTD SVG 1.1//EN"
 "http://www.w3.org/Graphics/SVG/1.1/DTD/svg11.dtd">
<!-- Generated by graphviz version 2.43.0 (0)
 -->
<!-- Title: include/logger.h Pages: 1 -->
<svg width="444pt" height="84pt"
 viewBox="0.00 0.00 443.50 84.00" xmlns="http://www.w3.org/2000/svg" xmlns:xlink="http://www.w3.org/1999/xlink">
<g id="graph0" class="graph" transform="scale(1 1) rotate(0) translate(4 80)">
<title>include/logger.h</title>
<polygon fill="white" stroke="transparent" points="-4,4 -4,-80 439.5,-80 439.5,4 -4,4"/>
<!-- Node1 -->
<g id="node1" class="node">
<title>Node1</title>
<g id="a_node1"><a xlink:title="Заголовочный файл, содержащий определения структур и классов.">
<polygon fill="#bfbfbf" stroke="black" points="138,-56.5 138,-75.5 232,-75.5 232,-56.5 138,-56.5"/>
<text text-anchor="middle" x="185" y="-63.5" font-family="Helvetica,sans-Serif" font-size="10.00">include/logger.h</text>
</a>
</g>
</g>
<!-- Node2 -->
<g id="node2" class="node">
<title>Node2</title>
<g id="a_node2"><a xlink:href="bmp_8cpp.html" target="_top" xlink:title="Реализация методов класса BMP для работы с изображениями в формате BMP.">
<polygon fill="white" stroke="black" points="0,-0.5 0,-19.5 76,-19.5 76,-0.5 0,-0.5"/>
<text text-anchor="middle" x="38" y="-7.5" font-family="Helvetica,sans-Serif" font-size="10.00">src/bmp.cpp</text>
</a>
</g>
</g>
<!-- Node1&#45;&gt;Node2 -->
<g id="edge1" class="edge">
<title>Node1&#45;&gt;Node2</title>
<path fill="none" stroke="midnightblue" d="M152.08,-52.91C124.44,-42.75 85.66,-28.51 61.18,-19.52"/>
<polygon fill="midnightblue" stroke="midnightblue" points="151.11,-56.28 161.71,-56.44 153.53,-49.71 151.11,-56.28"/>
</g>
<!-- Node3 -->
<g id="node3" class="node">
<title>Node3</title>
<g id="a_node3"><a xlink:href="logger_8cpp.html" target="_top" xlink:title="Implementation file for the Logger class.">
<polygon fill="white" stroke="black" points="94,-0.5 94,-19.5 178,-19.5 178,-0.5 94,-0.5"/>
<text text-anchor="middle" x="136" y="-7.5" font-family="Helvetica,sans-Serif" font-size="10.00">src/logger.cpp</text>
</a>
</g>
</g>
<!-- Node1&#45;&gt;Node3 -->
<g id="edge2" class="edge">
<title>Node1&#45;&gt;Node3</title>
<path fill="none" stroke="midnightblue" d="M169.97,-48.43C161.38,-38.97 150.96,-27.48 143.94,-19.75"/>
<polygon fill="midnightblue" stroke="midnightblue" points="167.6,-51.03 176.91,-56.08 172.78,-46.33 167.6,-51.03"/>
</g>
<!-- Node4 -->
<g id="node4" class="node">
<title>Node4</title>
<g id="a_node4"><a xlink:href="main_8cpp.html" target="_top" xlink:title="Главный файл программы">
<polygon fill="white" stroke="black" points="195.5,-0.5 195.5,-19.5 274.5,-19.5 274.5,-0.5 195.5,-0.5"/>
<text text-anchor="middle" x="235" y="-7.5" font-family="Helvetica,sans-Serif" font-size="10.00">src/main.cpp</text>
</a>
</g>
</g>
<!-- Node1&#45;&gt;Node4 -->
<g id="edge3" class="edge">
<title>Node1&#45;&gt;Node4</title>
<path fill="none" stroke="midnightblue" d="M200.08,-48.72C208.89,-39.2 219.67,-27.56 226.9,-19.75"/>
<polygon fill="midnightblue" stroke="midnightblue" points="197.48,-46.37 193.26,-56.08 202.62,-51.12 197.48,-46.37"/>
</g>
<!-- Node5 -->
<g id="node5" class="node">
<title>Node5</title>
<g id="a_node5"><a xlink:href="operation__params_8cpp.html" target="_top" xlink:title="Определяет функции для анализа параметров операций из командной строки.">
<polygon fill="white" stroke="black" points="292.5,-0.5 292.5,-19.5 435.5,-19.5 435.5,-0.5 292.5,-0.5"/>
<text text-anchor="middle" x="364" y="-7.5" font-family="Helvetica,sans-Serif" font-size="10.00">src/operation_params.cpp</text>
</a>
</g>
</g>
<!-- Node1&#45;&gt;Node5 -->
<g id="edge4" class="edge">
<title>Node1&#45;&gt;Node5</title>
<path fill="none" stroke="midnightblue" d="M223.33,-53.44C257.08,-43.26 305.45,-28.66 335.77,-19.52"/>
<polygon fill="midnightblue" stroke="midnightblue" points="221.93,-50.2 213.36,-56.44 223.95,-56.91 221.93,-50.2"/>
</g>
</g>
</svg>
