<?xml version="1.0" encoding="UTF-8" standalone="no"?>
<!DOCTYPE svg PUBLIC "-//W3C//DTD SVG 1.1//EN"
 "http://www.w3.org/Graphics/SVG/1.1/DTD/svg11.dtd">
<!-- Generated by graphviz version 2.43.0 (0)
 -->
<!-- Title: resetColor Pages: 1 -->
<svg width="750pt" height="446pt"
 viewBox="0.00 0.00 750.00 445.52" xmlns="http://www.w3.org/2000/svg" xmlns:xlink="http://www.w3.org/1999/xlink">
<g id="graph0" class="graph" transform="scale(1 1) rotate(0) translate(4 441.52)">
<title>resetColor</title>
<polygon fill="white" stroke="transparent" points="-4,4 -4,-441.52 746,-441.52 746,4 -4,4"/>
<!-- Node1 -->
<g id="node1" class="node">
<title>Node1</title>
<g id="a_node1"><a xlink:title=" ">
<polygon fill="#bfbfbf" stroke="black" points="675,-81.19 675,-100.19 742,-100.19 742,-81.19 675,-81.19"/>
<text text-anchor="middle" x="708.5" y="-88.19" font-family="Helvetica,sans-Serif" font-size="10.00">resetColor</text>
</a>
</g>
</g>
<!-- Node2 -->
<g id="node2" class="node">
<title>Node2</title>
<g id="a_node2"><a xlink:href="class_logger.html#ad83dbe66156650acca19d3772ce41229" target="_top" xlink:title="Записывает сообщение в лог с определенным цветом.">
<polygon fill="white" stroke="black" points="568,-81.19 568,-100.19 639,-100.19 639,-81.19 568,-81.19"/>
<text text-anchor="middle" x="603.5" y="-88.19" font-family="Helvetica,sans-Serif" font-size="10.00">Logger::log</text>
</a>
</g>
</g>
<!-- Node1&#45;&gt;Node2 -->
<g id="edge1" class="edge">
<title>Node1&#45;&gt;Node2</title>
<path fill="none" stroke="midnightblue" d="M664.7,-90.69C656.14,-90.69 647.25,-90.69 639.01,-90.69"/>
<polygon fill="midnightblue" stroke="midnightblue" points="664.91,-94.19 674.91,-90.69 664.91,-87.19 664.91,-94.19"/>
</g>
<!-- Node3 -->
<g id="node3" class="node">
<title>Node3</title>
<g id="a_node3"><a xlink:href="operation__params_8h.html#a1451d6a0f33f9d0a02a4b055e5839e6e" target="_top" xlink:title="Отображение справки о возможных параметрах командной строки.">
<polygon fill="white" stroke="black" points="343,-43.19 343,-62.19 417,-62.19 417,-43.19 343,-43.19"/>
<text text-anchor="middle" x="380" y="-50.19" font-family="Helvetica,sans-Serif" font-size="10.00">displayHelp</text>
</a>
</g>
</g>
<!-- Node2&#45;&gt;Node3 -->
<g id="edge2" class="edge">
<title>Node2&#45;&gt;Node3</title>
<path fill="none" stroke="midnightblue" d="M557.9,-81.57C549.32,-79.89 540.39,-78.19 532,-76.69 492.8,-69.69 447.7,-62.65 417.07,-58.03"/>
<polygon fill="midnightblue" stroke="midnightblue" points="557.28,-85.01 567.77,-83.52 558.64,-78.14 557.28,-85.01"/>
</g>
<!-- Node5 -->
<g id="node5" class="node">
<title>Node5</title>
<g id="a_node5"><a xlink:href="main_8cpp.html#a0ddf1224851353fc92bfbff6f499fa97" target="_top" xlink:title="Главная функция программы">
<polygon fill="white" stroke="black" points="0,-233.19 0,-252.19 41,-252.19 41,-233.19 0,-233.19"/>
<text text-anchor="middle" x="20.5" y="-240.19" font-family="Helvetica,sans-Serif" font-size="10.00">main</text>
</a>
</g>
</g>
<!-- Node2&#45;&gt;Node5 -->
<g id="edge22" class="edge">
<title>Node2&#45;&gt;Node5</title>
<path fill="none" stroke="midnightblue" d="M599.63,-110.26C587.78,-182.88 535.78,-432.69 381,-432.69 381,-432.69 381,-432.69 266,-432.69 180.73,-432.69 142.11,-454.75 77,-399.69 30.64,-360.49 22.99,-279.96 21.74,-252.28"/>
<polygon fill="midnightblue" stroke="midnightblue" points="603.12,-110.62 601.2,-100.2 596.2,-109.54 603.12,-110.62"/>
</g>
<!-- Node6 -->
<g id="node6" class="node">
<title>Node6</title>
<g id="a_node6"><a xlink:href="class_logger.html#ab6042fdfcbb14026098e0df9d6b32f27" target="_top" xlink:title="Записывает ошибку в лог с красным цветом.">
<polygon fill="white" stroke="black" points="453,-176.19 453,-195.19 532,-195.19 532,-176.19 453,-176.19"/>
<text text-anchor="middle" x="492.5" y="-183.19" font-family="Helvetica,sans-Serif" font-size="10.00">Logger::error</text>
</a>
</g>
</g>
<!-- Node2&#45;&gt;Node6 -->
<g id="edge5" class="edge">
<title>Node2&#45;&gt;Node6</title>
<path fill="none" stroke="midnightblue" d="M583.56,-107.2C560.72,-127.11 523.08,-159.91 504.53,-176.08"/>
<polygon fill="midnightblue" stroke="midnightblue" points="586.01,-109.71 591.25,-100.5 581.41,-104.43 586.01,-109.71"/>
</g>
<!-- Node14 -->
<g id="node14" class="node">
<title>Node14</title>
<g id="a_node14"><a xlink:href="class_b_m_p.html#acdebc7da18509fc92374934ad7a99ae2" target="_top" xlink:title="Получить информацию о изображении.">
<polygon fill="white" stroke="black" points="453,-5.19 453,-24.19 532,-24.19 532,-5.19 453,-5.19"/>
<text text-anchor="middle" x="492.5" y="-12.19" font-family="Helvetica,sans-Serif" font-size="10.00">BMP::getInfo</text>
</a>
</g>
</g>
<!-- Node2&#45;&gt;Node14 -->
<g id="edge20" class="edge">
<title>Node2&#45;&gt;Node14</title>
<path fill="none" stroke="midnightblue" d="M581.88,-74.83C567.99,-64.3 549.13,-50.33 532,-38.69 524.7,-33.74 516.42,-28.52 509.41,-24.23"/>
<polygon fill="midnightblue" stroke="midnightblue" points="580.16,-77.91 590.23,-81.19 584.4,-72.34 580.16,-77.91"/>
</g>
<!-- Node15 -->
<g id="node15" class="node">
<title>Node15</title>
<g id="a_node15"><a xlink:href="class_logger.html#a24b519e0f53e73937f93edd2da37ea76" target="_top" xlink:title="Записывает предупреждение в лог с желтым цветом.">
<polygon fill="white" stroke="black" points="227,-81.19 227,-100.19 307,-100.19 307,-81.19 227,-81.19"/>
<text text-anchor="middle" x="267" y="-88.19" font-family="Helvetica,sans-Serif" font-size="10.00">Logger::warn</text>
</a>
</g>
</g>
<!-- Node2&#45;&gt;Node15 -->
<g id="edge23" class="edge">
<title>Node2&#45;&gt;Node15</title>
<path fill="none" stroke="midnightblue" d="M557.89,-90.69C492.04,-90.69 369.85,-90.69 307.23,-90.69"/>
<polygon fill="midnightblue" stroke="midnightblue" points="557.96,-94.19 567.96,-90.69 557.96,-87.19 557.96,-94.19"/>
</g>
<!-- Node4 -->
<g id="node4" class="node">
<title>Node4</title>
<g id="a_node4"><a xlink:href="operation__params_8h.html#a00a944e8a68555a108c478465b5e9018" target="_top" xlink:title="Парсинг командной строки и создание объекта OperationParams.">
<polygon fill="white" stroke="black" points="77,-119.19 77,-138.19 191,-138.19 191,-119.19 77,-119.19"/>
<text text-anchor="middle" x="134" y="-126.19" font-family="Helvetica,sans-Serif" font-size="10.00">parseCommandLine</text>
</a>
</g>
</g>
<!-- Node3&#45;&gt;Node4 -->
<g id="edge3" class="edge">
<title>Node3&#45;&gt;Node4</title>
<path fill="none" stroke="midnightblue" d="M332.98,-53.34C302.21,-55 261.24,-59.6 227,-71.69 195.46,-82.83 163.3,-106.04 146.63,-119.14"/>
<polygon fill="midnightblue" stroke="midnightblue" points="333.17,-56.84 343,-52.89 332.85,-49.84 333.17,-56.84"/>
</g>
<!-- Node4&#45;&gt;Node5 -->
<g id="edge4" class="edge">
<title>Node4&#45;&gt;Node5</title>
<path fill="none" stroke="midnightblue" d="M116.44,-145.51C105.28,-156.85 90.24,-172.15 77,-185.69 60.78,-202.28 41.94,-221.64 30.91,-233"/>
<polygon fill="midnightblue" stroke="midnightblue" points="118.95,-147.94 123.47,-138.36 113.97,-143.03 118.95,-147.94"/>
</g>
<!-- Node7 -->
<g id="node7" class="node">
<title>Node7</title>
<g id="a_node7"><a xlink:href="class_logger.html#adaa34620512b5fa13d3098602eb4aef0" target="_top" xlink:title="Записывает сообщение и завершает программу с заданным кодом выхода.">
<polygon fill="white" stroke="black" points="343,-233.19 343,-252.19 417,-252.19 417,-233.19 343,-233.19"/>
<text text-anchor="middle" x="380" y="-240.19" font-family="Helvetica,sans-Serif" font-size="10.00">Logger::exit</text>
</a>
</g>
</g>
<!-- Node6&#45;&gt;Node7 -->
<g id="edge6" class="edge">
<title>Node6&#45;&gt;Node7</title>
<path fill="none" stroke="midnightblue" d="M463.76,-200C443.65,-210.38 417.02,-224.11 399.47,-233.17"/>
<polygon fill="midnightblue" stroke="midnightblue" points="465.47,-203.06 472.76,-195.36 462.26,-196.84 465.47,-203.06"/>
</g>
<!-- Node7&#45;&gt;Node4 -->
<g id="edge13" class="edge">
<title>Node7&#45;&gt;Node4</title>
<path fill="none" stroke="midnightblue" d="M370.61,-223.94C359.52,-201.61 337.75,-165.14 307,-147.69 271.99,-127.82 226.5,-123.55 191.1,-123.99"/>
<polygon fill="midnightblue" stroke="midnightblue" points="367.49,-225.55 374.94,-233.09 373.82,-222.55 367.49,-225.55"/>
</g>
<!-- Node7&#45;&gt;Node5 -->
<g id="edge10" class="edge">
<title>Node7&#45;&gt;Node5</title>
<path fill="none" stroke="midnightblue" d="M371.07,-261.67C360.35,-284.54 338.82,-321.88 307,-337.69 214.21,-383.79 166.74,-351.48 77,-299.69 55.95,-287.54 37.61,-265.16 28.2,-252.35"/>
<polygon fill="midnightblue" stroke="midnightblue" points="374.37,-262.86 375.24,-252.3 367.98,-260.02 374.37,-262.86"/>
</g>
<!-- Node8 -->
<g id="node8" class="node">
<title>Node8</title>
<g id="a_node8"><a xlink:href="class_b_m_p.html#a1a6520856e149fb370934fae327947fd" target="_top" xlink:title="Конструктор класса BMP.">
<polygon fill="white" stroke="black" points="234,-309.19 234,-328.19 300,-328.19 300,-309.19 234,-309.19"/>
<text text-anchor="middle" x="267" y="-316.19" font-family="Helvetica,sans-Serif" font-size="10.00">BMP::BMP</text>
</a>
</g>
</g>
<!-- Node7&#45;&gt;Node8 -->
<g id="edge7" class="edge">
<title>Node7&#45;&gt;Node8</title>
<path fill="none" stroke="midnightblue" d="M358.07,-258.44C343.85,-268.97 324.52,-283 307,-294.69 299.59,-299.64 291.2,-304.85 284.11,-309.15"/>
<polygon fill="midnightblue" stroke="midnightblue" points="360.27,-261.16 366.2,-252.38 356.09,-255.55 360.27,-261.16"/>
</g>
<!-- Node9 -->
<g id="node9" class="node">
<title>Node9</title>
<g id="a_node9"><a xlink:href="class_b_m_p.html#aa5efccdbbacffe75174e3c126efc06ad" target="_top" xlink:title="Копировать область изображения.">
<polygon fill="white" stroke="black" points="100,-195.19 100,-214.19 168,-214.19 168,-195.19 100,-195.19"/>
<text text-anchor="middle" x="134" y="-202.19" font-family="Helvetica,sans-Serif" font-size="10.00">BMP::copy</text>
</a>
</g>
</g>
<!-- Node7&#45;&gt;Node9 -->
<g id="edge8" class="edge">
<title>Node7&#45;&gt;Node9</title>
<path fill="none" stroke="midnightblue" d="M332.85,-235.51C284.75,-228.01 210.56,-216.46 168.02,-209.83"/>
<polygon fill="midnightblue" stroke="midnightblue" points="332.58,-239 343,-237.09 333.65,-232.09 332.58,-239"/>
</g>
<!-- Node10 -->
<g id="node10" class="node">
<title>Node10</title>
<g id="a_node10"><a xlink:href="class_b_m_p.html#a6760433189c91bee33a1e884909c3818" target="_top" xlink:title="Отразить изображение относительно указанной оси.">
<polygon fill="white" stroke="black" points="97,-271.19 97,-290.19 171,-290.19 171,-271.19 97,-271.19"/>
<text text-anchor="middle" x="134" y="-278.19" font-family="Helvetica,sans-Serif" font-size="10.00">BMP::mirror</text>
</a>
</g>
</g>
<!-- Node7&#45;&gt;Node10 -->
<g id="edge11" class="edge">
<title>Node7&#45;&gt;Node10</title>
<path fill="none" stroke="midnightblue" d="M332.91,-252.03C324.32,-253.67 315.4,-255.29 307,-256.69 260.31,-264.48 206.2,-271.75 171.33,-276.2"/>
<polygon fill="midnightblue" stroke="midnightblue" points="333.65,-255.45 342.81,-250.12 332.33,-248.58 333.65,-255.45"/>
</g>
<!-- Node11 -->
<g id="node11" class="node">
<title>Node11</title>
<g id="a_node11"><a xlink:href="operation__params_8h.html#abbd547560acd14f298e5d36dcf0398d3" target="_top" xlink:title="Парсинг строки с RGB&#45;значением цвета.">
<polygon fill="white" stroke="black" points="234.5,-157.19 234.5,-176.19 299.5,-176.19 299.5,-157.19 234.5,-157.19"/>
<text text-anchor="middle" x="267" y="-164.19" font-family="Helvetica,sans-Serif" font-size="10.00">parseRGB</text>
</a>
</g>
</g>
<!-- Node7&#45;&gt;Node11 -->
<g id="edge14" class="edge">
<title>Node7&#45;&gt;Node11</title>
<path fill="none" stroke="midnightblue" d="M358.07,-226.95C343.85,-216.41 324.52,-202.39 307,-190.69 299.59,-185.75 291.2,-180.54 284.11,-176.24"/>
<polygon fill="midnightblue" stroke="midnightblue" points="356.09,-229.84 366.2,-233.01 360.27,-224.22 356.09,-229.84"/>
</g>
<!-- Node12 -->
<g id="node12" class="node">
<title>Node12</title>
<g id="a_node12"><a xlink:href="class_b_m_p.html#ad6023dacfbf10c0326a59f7e996aba27" target="_top" xlink:title="Сохранить изображение в файл.">
<polygon fill="white" stroke="black" points="100,-233.19 100,-252.19 168,-252.19 168,-233.19 100,-233.19"/>
<text text-anchor="middle" x="134" y="-240.19" font-family="Helvetica,sans-Serif" font-size="10.00">BMP::save</text>
</a>
</g>
</g>
<!-- Node7&#45;&gt;Node12 -->
<g id="edge16" class="edge">
<title>Node7&#45;&gt;Node12</title>
<path fill="none" stroke="midnightblue" d="M332.85,-242.69C284.75,-242.69 210.56,-242.69 168.02,-242.69"/>
<polygon fill="midnightblue" stroke="midnightblue" points="333,-246.19 343,-242.69 333,-239.19 333,-246.19"/>
</g>
<!-- Node13 -->
<g id="node13" class="node">
<title>Node13</title>
<g id="a_node13"><a xlink:href="class_b_m_p.html#aaff3df7f32657d64bf3b5f07e76a4edd" target="_top" xlink:title="Разделить изображение на части.">
<polygon fill="white" stroke="black" points="234.5,-385.19 234.5,-404.19 299.5,-404.19 299.5,-385.19 234.5,-385.19"/>
<text text-anchor="middle" x="267" y="-392.19" font-family="Helvetica,sans-Serif" font-size="10.00">BMP::split</text>
</a>
</g>
</g>
<!-- Node7&#45;&gt;Node13 -->
<g id="edge18" class="edge">
<title>Node7&#45;&gt;Node13</title>
<path fill="none" stroke="midnightblue" d="M371.84,-261.84C361.06,-288.69 338.51,-337.92 307,-370.69 301.6,-376.31 294.62,-381.14 288.06,-384.97"/>
<polygon fill="midnightblue" stroke="midnightblue" points="375.14,-263.01 375.51,-252.42 368.62,-260.47 375.14,-263.01"/>
</g>
<!-- Node9&#45;&gt;Node5 -->
<g id="edge9" class="edge">
<title>Node9&#45;&gt;Node5</title>
<path fill="none" stroke="midnightblue" d="M94.91,-217.6C88.92,-219.64 82.79,-221.72 77,-223.69 65.05,-227.77 51.65,-232.35 41.02,-236"/>
<polygon fill="midnightblue" stroke="midnightblue" points="96.45,-220.77 104.79,-214.25 94.2,-214.15 96.45,-220.77"/>
</g>
<!-- Node10&#45;&gt;Node5 -->
<g id="edge12" class="edge">
<title>Node10&#45;&gt;Node5</title>
<path fill="none" stroke="midnightblue" d="M94.91,-267.79C88.92,-265.75 82.79,-263.67 77,-261.69 65.05,-257.62 51.65,-253.03 41.02,-249.39"/>
<polygon fill="midnightblue" stroke="midnightblue" points="94.2,-271.24 104.79,-271.14 96.45,-264.61 94.2,-271.24"/>
</g>
<!-- Node11&#45;&gt;Node4 -->
<g id="edge15" class="edge">
<title>Node11&#45;&gt;Node4</title>
<path fill="none" stroke="midnightblue" d="M224.46,-154.64C206.16,-149.33 184.95,-143.18 167.79,-138.2"/>
<polygon fill="midnightblue" stroke="midnightblue" points="223.71,-158.07 234.29,-157.49 225.66,-151.35 223.71,-158.07"/>
</g>
<!-- Node12&#45;&gt;Node5 -->
<g id="edge17" class="edge">
<title>Node12&#45;&gt;Node5</title>
<path fill="none" stroke="midnightblue" d="M89.66,-242.69C72.89,-242.69 54.53,-242.69 41.09,-242.69"/>
<polygon fill="midnightblue" stroke="midnightblue" points="89.85,-246.19 99.85,-242.69 89.85,-239.19 89.85,-246.19"/>
</g>
<!-- Node13&#45;&gt;Node5 -->
<g id="edge19" class="edge">
<title>Node13&#45;&gt;Node5</title>
<path fill="none" stroke="midnightblue" d="M224.37,-400.48C182.89,-403.9 119.43,-402.55 77,-370.69 37.29,-340.88 25.59,-276.73 22.5,-252.36"/>
<polygon fill="midnightblue" stroke="midnightblue" points="224.79,-403.95 234.41,-399.52 224.13,-396.98 224.79,-403.95"/>
</g>
<!-- Node14&#45;&gt;Node5 -->
<g id="edge21" class="edge">
<title>Node14&#45;&gt;Node5</title>
<path fill="none" stroke="midnightblue" d="M442.77,-6.81C357.73,4.01 181.36,12.99 77,-76.69 28.37,-118.48 22.2,-204.15 21.53,-232.98"/>
<polygon fill="midnightblue" stroke="midnightblue" points="442.55,-10.31 452.92,-8.17 443.47,-3.37 442.55,-10.31"/>
</g>
<!-- Node15&#45;&gt;Node4 -->
<g id="edge26" class="edge">
<title>Node15&#45;&gt;Node4</title>
<path fill="none" stroke="midnightblue" d="M223.29,-103.08C205.35,-108.29 184.8,-114.25 168.05,-119.11"/>
<polygon fill="midnightblue" stroke="midnightblue" points="224.31,-106.43 232.94,-100.28 222.36,-99.71 224.31,-106.43"/>
</g>
<!-- Node15&#45;&gt;Node5 -->
<g id="edge25" class="edge">
<title>Node15&#45;&gt;Node5</title>
<path fill="none" stroke="midnightblue" d="M216.66,-82.67C175.36,-78.76 116.93,-80.09 77,-109.69 35.59,-140.38 24.89,-207.8 22.29,-232.97"/>
<polygon fill="midnightblue" stroke="midnightblue" points="216.45,-86.17 226.77,-83.77 217.21,-79.21 216.45,-86.17"/>
</g>
<!-- Node15&#45;&gt;Node9 -->
<g id="edge24" class="edge">
<title>Node15&#45;&gt;Node9</title>
<path fill="none" stroke="midnightblue" d="M247.02,-107.21C219.28,-131.35 168.55,-175.5 146.14,-195"/>
<polygon fill="midnightblue" stroke="midnightblue" points="249.59,-109.62 254.83,-100.41 244.99,-104.34 249.59,-109.62"/>
</g>
</g>
</svg>
