<?xml version="1.0" encoding="UTF-8" standalone="no"?>
<!DOCTYPE svg PUBLIC "-//W3C//DTD SVG 1.1//EN"
 "http://www.w3.org/Graphics/SVG/1.1/DTD/svg11.dtd">
<!-- Generated by graphviz version 2.43.0 (0)
 -->
<!-- Title: include/logger.hpp Pages: 1 -->
<svg width="517pt" height="84pt"
 viewBox="0.00 0.00 516.50 84.00" xmlns="http://www.w3.org/2000/svg" xmlns:xlink="http://www.w3.org/1999/xlink">
<g id="graph0" class="graph" transform="scale(1 1) rotate(0) translate(4 80)">
<title>include/logger.hpp</title>
<polygon fill="white" stroke="transparent" points="-4,4 -4,-80 512.5,-80 512.5,4 -4,4"/>
<!-- Node1 -->
<g id="node1" class="node">
<title>Node1</title>
<g id="a_node1"><a xlink:title=" ">
<polygon fill="#bfbfbf" stroke="black" points="169,-56.5 169,-75.5 275,-75.5 275,-56.5 169,-56.5"/>
<text text-anchor="middle" x="222" y="-63.5" font-family="Helvetica,sans-Serif" font-size="10.00">include/logger.hpp</text>
</a>
</g>
</g>
<!-- Node2 -->
<g id="node2" class="node">
<title>Node2</title>
<g id="a_node2"><a xlink:href="bmp_8cpp.html" target="_top" xlink:title="Реализация методов класса BMP для работы с изображениями в формате BMP.">
<polygon fill="white" stroke="black" points="0,-0.5 0,-19.5 94,-19.5 94,-0.5 0,-0.5"/>
<text text-anchor="middle" x="47" y="-7.5" font-family="Helvetica,sans-Serif" font-size="10.00">source/bmp.cpp</text>
</a>
</g>
</g>
<!-- Node1&#45;&gt;Node2 -->
<g id="edge1" class="edge">
<title>Node1&#45;&gt;Node2</title>
<path fill="none" stroke="midnightblue" d="M184.53,-53.44C151.53,-43.26 104.24,-28.66 74.6,-19.52"/>
<polygon fill="midnightblue" stroke="midnightblue" points="183.68,-56.84 194.27,-56.44 185.75,-50.15 183.68,-56.84"/>
</g>
<!-- Node3 -->
<g id="node3" class="node">
<title>Node3</title>
<g id="a_node3"><a xlink:href="logger_8cpp.html" target="_top" xlink:title="Implementation file for the Logger class.">
<polygon fill="white" stroke="black" points="112,-0.5 112,-19.5 214,-19.5 214,-0.5 112,-0.5"/>
<text text-anchor="middle" x="163" y="-7.5" font-family="Helvetica,sans-Serif" font-size="10.00">source/logger.cpp</text>
</a>
</g>
</g>
<!-- Node1&#45;&gt;Node3 -->
<g id="edge2" class="edge">
<title>Node1&#45;&gt;Node3</title>
<path fill="none" stroke="midnightblue" d="M205.11,-49.54C194.59,-39.91 181.43,-27.87 172.65,-19.83"/>
<polygon fill="midnightblue" stroke="midnightblue" points="202.78,-52.15 212.52,-56.32 207.51,-46.99 202.78,-52.15"/>
</g>
<!-- Node4 -->
<g id="node4" class="node">
<title>Node4</title>
<g id="a_node4"><a xlink:href="main_8cpp.html" target="_top" xlink:title="Главный файл программы">
<polygon fill="white" stroke="black" points="232.5,-0.5 232.5,-19.5 329.5,-19.5 329.5,-0.5 232.5,-0.5"/>
<text text-anchor="middle" x="281" y="-7.5" font-family="Helvetica,sans-Serif" font-size="10.00">source/main.cpp</text>
</a>
</g>
</g>
<!-- Node1&#45;&gt;Node4 -->
<g id="edge3" class="edge">
<title>Node1&#45;&gt;Node4</title>
<path fill="none" stroke="midnightblue" d="M238.89,-49.54C249.41,-39.91 262.57,-27.87 271.35,-19.83"/>
<polygon fill="midnightblue" stroke="midnightblue" points="236.49,-46.99 231.48,-56.32 241.22,-52.15 236.49,-46.99"/>
</g>
<!-- Node5 -->
<g id="node5" class="node">
<title>Node5</title>
<g id="a_node5"><a xlink:href="operation__params_8cpp.html" target="_top" xlink:title=" ">
<polygon fill="white" stroke="black" points="347.5,-0.5 347.5,-19.5 508.5,-19.5 508.5,-0.5 347.5,-0.5"/>
<text text-anchor="middle" x="428" y="-7.5" font-family="Helvetica,sans-Serif" font-size="10.00">source/operation_params.cpp</text>
</a>
</g>
</g>
<!-- Node1&#45;&gt;Node5 -->
<g id="edge4" class="edge">
<title>Node1&#45;&gt;Node5</title>
<path fill="none" stroke="midnightblue" d="M264.62,-53.83C303.51,-43.63 360.16,-28.78 395.51,-19.52"/>
<polygon fill="midnightblue" stroke="midnightblue" points="263.43,-50.52 254.64,-56.44 265.2,-57.29 263.43,-50.52"/>
</g>
</g>
</svg>
