<?xml version="1.0" encoding="UTF-8" standalone="no"?>
<!DOCTYPE svg PUBLIC "-//W3C//DTD SVG 1.1//EN"
 "http://www.w3.org/Graphics/SVG/1.1/DTD/svg11.dtd">
<!-- Generated by graphviz version 2.43.0 (0)
 -->
<!-- Title: setColor Pages: 1 -->
<svg width="870pt" height="475pt"
 viewBox="0.00 0.00 870.00 474.62" xmlns="http://www.w3.org/2000/svg" xmlns:xlink="http://www.w3.org/1999/xlink">
<g id="graph0" class="graph" transform="scale(1 1) rotate(0) translate(4 470.62)">
<title>setColor</title>
<polygon fill="white" stroke="transparent" points="-4,4 -4,-470.62 866,-470.62 866,4 -4,4"/>
<!-- Node1 -->
<g id="node1" class="node">
<title>Node1</title>
<g id="a_node1"><a xlink:title=" ">
<polygon fill="#bfbfbf" stroke="black" points="805,-229.12 805,-248.12 862,-248.12 862,-229.12 805,-229.12"/>
<text text-anchor="middle" x="833.5" y="-236.12" font-family="Helvetica,sans-Serif" font-size="10.00">setColor</text>
</a>
</g>
</g>
<!-- Node2 -->
<g id="node2" class="node">
<title>Node2</title>
<g id="a_node2"><a xlink:href="class_logger.html#a6faf175f206bf5734a4824c98296c677" target="_top" xlink:title="Записывает сообщение в лог с определенным цветом.">
<polygon fill="white" stroke="black" points="698,-229.12 698,-248.12 769,-248.12 769,-229.12 698,-229.12"/>
<text text-anchor="middle" x="733.5" y="-236.12" font-family="Helvetica,sans-Serif" font-size="10.00">Logger::log</text>
</a>
</g>
</g>
<!-- Node1&#45;&gt;Node2 -->
<g id="edge1" class="edge">
<title>Node1&#45;&gt;Node2</title>
<path fill="none" stroke="midnightblue" d="M794.93,-238.62C786.47,-238.62 777.53,-238.62 769.2,-238.62"/>
<polygon fill="midnightblue" stroke="midnightblue" points="794.94,-242.12 804.94,-238.62 794.94,-235.12 794.94,-242.12"/>
</g>
<!-- Node3 -->
<g id="node3" class="node">
<title>Node3</title>
<g id="a_node3"><a xlink:href="operation__params_8hpp.html#a1451d6a0f33f9d0a02a4b055e5839e6e" target="_top" xlink:title="Отображение справки о возможных параметрах командной строки.">
<polygon fill="white" stroke="black" points="472,-381.12 472,-400.12 546,-400.12 546,-381.12 472,-381.12"/>
<text text-anchor="middle" x="509" y="-388.12" font-family="Helvetica,sans-Serif" font-size="10.00">displayHelp</text>
</a>
</g>
</g>
<!-- Node2&#45;&gt;Node3 -->
<g id="edge2" class="edge">
<title>Node2&#45;&gt;Node3</title>
<path fill="none" stroke="midnightblue" d="M710.25,-253.82C664.57,-285.03 561.37,-355.53 523.91,-381.12"/>
<polygon fill="midnightblue" stroke="midnightblue" points="712.3,-256.66 718.58,-248.13 708.35,-250.88 712.3,-256.66"/>
</g>
<!-- Node5 -->
<g id="node5" class="node">
<title>Node5</title>
<g id="a_node5"><a xlink:href="main_8cpp.html#a0ddf1224851353fc92bfbff6f499fa97" target="_top" xlink:title="Главная функция программы">
<polygon fill="white" stroke="black" points="0,-153.12 0,-172.12 41,-172.12 41,-153.12 0,-153.12"/>
<text text-anchor="middle" x="20.5" y="-160.12" font-family="Helvetica,sans-Serif" font-size="10.00">main</text>
</a>
</g>
</g>
<!-- Node2&#45;&gt;Node5 -->
<g id="edge26" class="edge">
<title>Node2&#45;&gt;Node5</title>
<path fill="none" stroke="midnightblue" d="M724.94,-257.69C701.8,-312.51 626.41,-466.62 510,-466.62 510,-466.62 510,-466.62 274.5,-466.62 173.15,-466.62 139.6,-432.33 77,-352.62 32,-295.33 23.47,-202.63 21.87,-172.45"/>
<polygon fill="midnightblue" stroke="midnightblue" points="728.3,-258.71 728.86,-248.13 721.83,-256.05 728.3,-258.71"/>
</g>
<!-- Node6 -->
<g id="node6" class="node">
<title>Node6</title>
<g id="a_node6"><a xlink:href="class_logger.html#a32783adace456c614c77d2944036e31b" target="_top" xlink:title="Записывает ошибку в лог с красным цветом.">
<polygon fill="white" stroke="black" points="582.5,-229.12 582.5,-248.12 661.5,-248.12 661.5,-229.12 582.5,-229.12"/>
<text text-anchor="middle" x="622" y="-236.12" font-family="Helvetica,sans-Serif" font-size="10.00">Logger::error</text>
</a>
</g>
</g>
<!-- Node2&#45;&gt;Node6 -->
<g id="edge5" class="edge">
<title>Node2&#45;&gt;Node6</title>
<path fill="none" stroke="midnightblue" d="M687.57,-238.62C678.95,-238.62 670,-238.62 661.61,-238.62"/>
<polygon fill="midnightblue" stroke="midnightblue" points="687.85,-242.12 697.85,-238.62 687.85,-235.12 687.85,-242.12"/>
</g>
<!-- Node15 -->
<g id="node15" class="node">
<title>Node15</title>
<g id="a_node15"><a xlink:href="class_b_m_p.html#acdebc7da18509fc92374934ad7a99ae2" target="_top" xlink:title="Получить информацию о изображении.">
<polygon fill="white" stroke="black" points="94.5,-39.12 94.5,-58.12 173.5,-58.12 173.5,-39.12 94.5,-39.12"/>
<text text-anchor="middle" x="134" y="-46.12" font-family="Helvetica,sans-Serif" font-size="10.00">BMP::getInfo</text>
</a>
</g>
</g>
<!-- Node2&#45;&gt;Node15 -->
<g id="edge24" class="edge">
<title>Node2&#45;&gt;Node15</title>
<path fill="none" stroke="midnightblue" d="M722.46,-219.94C695.2,-172.04 614.8,-48.62 510,-48.62 510,-48.62 510,-48.62 397,-48.62 317.63,-48.62 224.73,-48.62 173.62,-48.62"/>
<polygon fill="midnightblue" stroke="midnightblue" points="719.54,-221.9 727.46,-228.94 725.66,-218.5 719.54,-221.9"/>
</g>
<!-- Node16 -->
<g id="node16" class="node">
<title>Node16</title>
<g id="a_node16"><a xlink:href="class_logger.html#a0ba83481220ad6ddb4686d9d77de00d3" target="_top" xlink:title="Записывает предупреждение в лог с желтым цветом.">
<polygon fill="white" stroke="black" points="582,-1.12 582,-20.12 662,-20.12 662,-1.12 582,-1.12"/>
<text text-anchor="middle" x="622" y="-8.12" font-family="Helvetica,sans-Serif" font-size="10.00">Logger::warn</text>
</a>
</g>
</g>
<!-- Node2&#45;&gt;Node16 -->
<g id="edge27" class="edge">
<title>Node2&#45;&gt;Node16</title>
<path fill="none" stroke="midnightblue" d="M730.17,-218.97C724.65,-179.95 707.66,-91.56 662,-34.62 657.32,-28.79 650.82,-24.01 644.47,-20.29"/>
<polygon fill="midnightblue" stroke="midnightblue" points="726.71,-219.54 731.48,-229 733.65,-218.63 726.71,-219.54"/>
</g>
<!-- Node4 -->
<g id="node4" class="node">
<title>Node4</title>
<g id="a_node4"><a xlink:href="operation__params_8hpp.html#a0048eb016cc89e79b003ff63259ea264" target="_top" xlink:title="Парсинг командной строки и создание объекта Operations.">
<polygon fill="white" stroke="black" points="77,-324.12 77,-343.12 191,-343.12 191,-324.12 77,-324.12"/>
<text text-anchor="middle" x="134" y="-331.12" font-family="Helvetica,sans-Serif" font-size="10.00">parseCommandLine</text>
</a>
</g>
</g>
<!-- Node3&#45;&gt;Node4 -->
<g id="edge3" class="edge">
<title>Node3&#45;&gt;Node4</title>
<path fill="none" stroke="midnightblue" d="M463.98,-402.63C407.44,-415.87 307.08,-431.93 227,-404.62 190.91,-392.32 157.96,-359.48 143.19,-343.14"/>
<polygon fill="midnightblue" stroke="midnightblue" points="465.11,-405.96 474.01,-400.21 463.46,-399.16 465.11,-405.96"/>
</g>
<!-- Node4&#45;&gt;Node5 -->
<g id="edge4" class="edge">
<title>Node4&#45;&gt;Node5</title>
<path fill="none" stroke="midnightblue" d="M119.21,-316.03C107.52,-300.86 90.55,-278.22 77,-257.62 57.05,-227.3 36.14,-189.66 26.69,-172.26"/>
<polygon fill="midnightblue" stroke="midnightblue" points="116.51,-318.27 125.41,-324.02 122.04,-313.98 116.51,-318.27"/>
</g>
<!-- Node7 -->
<g id="node7" class="node">
<title>Node7</title>
<g id="a_node7"><a xlink:href="class_logger.html#ad044e18a74f8f7417e2bf8d8b64a9e3d" target="_top" xlink:title="Записывает сообщение и завершает программу с заданным кодом выхода.">
<polygon fill="white" stroke="black" points="472,-229.12 472,-248.12 546,-248.12 546,-229.12 472,-229.12"/>
<text text-anchor="middle" x="509" y="-236.12" font-family="Helvetica,sans-Serif" font-size="10.00">Logger::exit</text>
</a>
</g>
</g>
<!-- Node6&#45;&gt;Node7 -->
<g id="edge6" class="edge">
<title>Node6&#45;&gt;Node7</title>
<path fill="none" stroke="midnightblue" d="M572.34,-238.62C563.56,-238.62 554.55,-238.62 546.2,-238.62"/>
<polygon fill="midnightblue" stroke="midnightblue" points="572.49,-242.12 582.49,-238.62 572.49,-235.12 572.49,-242.12"/>
</g>
<!-- Node7&#45;&gt;Node4 -->
<g id="edge11" class="edge">
<title>Node7&#45;&gt;Node4</title>
<path fill="none" stroke="midnightblue" d="M502.25,-257.96C493.06,-285.18 472.3,-334.07 436,-357.62 357.9,-408.29 318.32,-389.74 227,-371.62 199.71,-366.21 170.36,-352.57 152.33,-343.2"/>
<polygon fill="midnightblue" stroke="midnightblue" points="505.6,-258.97 505.31,-248.38 498.93,-256.84 505.6,-258.97"/>
</g>
<!-- Node7&#45;&gt;Node5 -->
<g id="edge8" class="edge">
<title>Node7&#45;&gt;Node5</title>
<path fill="none" stroke="midnightblue" d="M500.07,-219.65C489.35,-196.77 467.82,-159.43 436,-143.62 298.59,-75.35 102.89,-133.84 41.02,-155.42"/>
<polygon fill="midnightblue" stroke="midnightblue" points="496.98,-221.3 504.24,-229.01 503.37,-218.45 496.98,-221.3"/>
</g>
<!-- Node8 -->
<g id="node8" class="node">
<title>Node8</title>
<g id="a_node8"><a xlink:href="class_b_m_p.html#a1a6520856e149fb370934fae327947fd" target="_top" xlink:title="Конструктор класса BMP.">
<polygon fill="white" stroke="black" points="365,-153.12 365,-172.12 431,-172.12 431,-153.12 365,-153.12"/>
<text text-anchor="middle" x="398" y="-160.12" font-family="Helvetica,sans-Serif" font-size="10.00">BMP::BMP</text>
</a>
</g>
</g>
<!-- Node7&#45;&gt;Node8 -->
<g id="edge7" class="edge">
<title>Node7&#45;&gt;Node8</title>
<path fill="none" stroke="midnightblue" d="M489.34,-222.18C475.23,-210.17 455.09,-193.92 436,-181.62 430.78,-178.26 424.89,-175.01 419.37,-172.18"/>
<polygon fill="midnightblue" stroke="midnightblue" points="487.42,-225.15 497.28,-229.03 491.99,-219.85 487.42,-225.15"/>
</g>
<!-- Node9 -->
<g id="node9" class="node">
<title>Node9</title>
<g id="a_node9"><a xlink:href="class_b_m_p.html#a6760433189c91bee33a1e884909c3818" target="_top" xlink:title="Отразить изображение относительно указанной оси.">
<polygon fill="white" stroke="black" points="238.5,-77.12 238.5,-96.12 312.5,-96.12 312.5,-77.12 238.5,-77.12"/>
<text text-anchor="middle" x="275.5" y="-84.12" font-family="Helvetica,sans-Serif" font-size="10.00">BMP::mirror</text>
</a>
</g>
</g>
<!-- Node7&#45;&gt;Node9 -->
<g id="edge9" class="edge">
<title>Node7&#45;&gt;Node9</title>
<path fill="none" stroke="midnightblue" d="M502.97,-219.22C494.42,-190.42 474.15,-136.94 436,-110.62 399.58,-85.5 347.36,-82.24 312.72,-83.44"/>
<polygon fill="midnightblue" stroke="midnightblue" points="499.63,-220.25 505.69,-228.94 506.37,-218.37 499.63,-220.25"/>
</g>
<!-- Node10 -->
<g id="node10" class="node">
<title>Node10</title>
<g id="a_node10"><a xlink:href="operation__params_8cpp.html#adfab6ddfafab9bed92ac967c3a0fe0dd" target="_top" xlink:title=" ">
<polygon fill="white" stroke="black" points="227,-343.12 227,-362.12 324,-362.12 324,-343.12 227,-343.12"/>
<text text-anchor="middle" x="275.5" y="-350.12" font-family="Helvetica,sans-Serif" font-size="10.00">parseCoordinate</text>
</a>
</g>
</g>
<!-- Node7&#45;&gt;Node10 -->
<g id="edge12" class="edge">
<title>Node7&#45;&gt;Node10</title>
<path fill="none" stroke="midnightblue" d="M499.58,-257.33C488.47,-279.62 466.67,-316.04 436,-333.62 402.13,-353.04 357.6,-356.9 324.2,-356.41"/>
<polygon fill="midnightblue" stroke="midnightblue" points="502.79,-258.74 503.93,-248.2 496.47,-255.73 502.79,-258.74"/>
</g>
<!-- Node11 -->
<g id="node11" class="node">
<title>Node11</title>
<g id="a_node11"><a xlink:href="operation__params_8hpp.html#abbd547560acd14f298e5d36dcf0398d3" target="_top" xlink:title="Парсинг строки с RGB&#45;значением цвета.">
<polygon fill="white" stroke="black" points="243,-267.12 243,-286.12 308,-286.12 308,-267.12 243,-267.12"/>
<text text-anchor="middle" x="275.5" y="-274.12" font-family="Helvetica,sans-Serif" font-size="10.00">parseRGB</text>
</a>
</g>
</g>
<!-- Node7&#45;&gt;Node11 -->
<g id="edge14" class="edge">
<title>Node7&#45;&gt;Node11</title>
<path fill="none" stroke="midnightblue" d="M461.9,-247.89C453.3,-249.53 444.39,-251.18 436,-252.62 391.71,-260.26 340.26,-267.75 308.04,-272.28"/>
<polygon fill="midnightblue" stroke="midnightblue" points="462.64,-251.31 471.8,-245.98 461.31,-244.44 462.64,-251.31"/>
</g>
<!-- Node12 -->
<g id="node12" class="node">
<title>Node12</title>
<g id="a_node12"><a xlink:href="operation__params_8hpp.html#acb9b051691fc7054f0232d28aef686c4" target="_top" xlink:title="Парсинг строки с числами, разделенными пробелами.">
<polygon fill="white" stroke="black" points="360,-305.12 360,-324.12 436,-324.12 436,-305.12 360,-305.12"/>
<text text-anchor="middle" x="398" y="-312.12" font-family="Helvetica,sans-Serif" font-size="10.00">parseValues</text>
</a>
</g>
</g>
<!-- Node7&#45;&gt;Node12 -->
<g id="edge16" class="edge">
<title>Node7&#45;&gt;Node12</title>
<path fill="none" stroke="midnightblue" d="M486.98,-254.23C472.72,-264.71 453.38,-278.72 436,-290.62 428.92,-295.47 420.96,-300.67 414.23,-304.98"/>
<polygon fill="midnightblue" stroke="midnightblue" points="489.16,-256.97 495.13,-248.21 485.01,-251.33 489.16,-256.97"/>
</g>
<!-- Node13 -->
<g id="node13" class="node">
<title>Node13</title>
<g id="a_node13"><a xlink:href="class_b_m_p.html#ad6023dacfbf10c0326a59f7e996aba27" target="_top" xlink:title="Сохранить изображение в файл.">
<polygon fill="white" stroke="black" points="100,-229.12 100,-248.12 168,-248.12 168,-229.12 100,-229.12"/>
<text text-anchor="middle" x="134" y="-236.12" font-family="Helvetica,sans-Serif" font-size="10.00">BMP::save</text>
</a>
</g>
</g>
<!-- Node7&#45;&gt;Node13 -->
<g id="edge20" class="edge">
<title>Node7&#45;&gt;Node13</title>
<path fill="none" stroke="midnightblue" d="M461.63,-238.62C385.25,-238.62 234.83,-238.62 168.16,-238.62"/>
<polygon fill="midnightblue" stroke="midnightblue" points="461.9,-242.12 471.9,-238.62 461.9,-235.12 461.9,-242.12"/>
</g>
<!-- Node14 -->
<g id="node14" class="node">
<title>Node14</title>
<g id="a_node14"><a xlink:href="class_b_m_p.html#aaff3df7f32657d64bf3b5f07e76a4edd" target="_top" xlink:title="Разделить изображение на части.">
<polygon fill="white" stroke="black" points="365.5,-191.12 365.5,-210.12 430.5,-210.12 430.5,-191.12 365.5,-191.12"/>
<text text-anchor="middle" x="398" y="-198.12" font-family="Helvetica,sans-Serif" font-size="10.00">BMP::split</text>
</a>
</g>
</g>
<!-- Node7&#45;&gt;Node14 -->
<g id="edge22" class="edge">
<title>Node7&#45;&gt;Node14</title>
<path fill="none" stroke="midnightblue" d="M470.79,-225.65C456.27,-220.59 439.92,-214.89 426.5,-210.21"/>
<polygon fill="midnightblue" stroke="midnightblue" points="469.9,-229.05 480.49,-229.03 472.2,-222.44 469.9,-229.05"/>
</g>
<!-- Node9&#45;&gt;Node5 -->
<g id="edge10" class="edge">
<title>Node9&#45;&gt;Node5</title>
<path fill="none" stroke="midnightblue" d="M228.34,-84.3C186.84,-84 125.18,-88.12 77,-110.62 56.18,-120.34 38.02,-140.87 28.53,-153.03"/>
<polygon fill="midnightblue" stroke="midnightblue" points="228.38,-87.8 238.44,-84.46 228.49,-80.8 228.38,-87.8"/>
</g>
<!-- Node10&#45;&gt;Node4 -->
<g id="edge13" class="edge">
<title>Node10&#45;&gt;Node4</title>
<path fill="none" stroke="midnightblue" d="M216.7,-344.75C208.22,-343.6 199.5,-342.41 191.06,-341.26"/>
<polygon fill="midnightblue" stroke="midnightblue" points="216.5,-348.25 226.88,-346.14 217.45,-341.32 216.5,-348.25"/>
</g>
<!-- Node11&#45;&gt;Node4 -->
<g id="edge15" class="edge">
<title>Node11&#45;&gt;Node4</title>
<path fill="none" stroke="midnightblue" d="M241.85,-289.96C216.26,-300.42 181.29,-314.71 158.43,-324.05"/>
<polygon fill="midnightblue" stroke="midnightblue" points="243.22,-293.19 251.15,-286.16 240.57,-286.71 243.22,-293.19"/>
</g>
<!-- Node12&#45;&gt;Node4 -->
<g id="edge17" class="edge">
<title>Node12&#45;&gt;Node4</title>
<path fill="none" stroke="midnightblue" d="M349.49,-318.07C305.02,-321.29 238.54,-326.11 191.4,-329.53"/>
<polygon fill="midnightblue" stroke="midnightblue" points="350.02,-321.54 359.74,-317.32 349.51,-314.56 350.02,-321.54"/>
</g>
<!-- Node12&#45;&gt;Node10 -->
<g id="edge18" class="edge">
<title>Node12&#45;&gt;Node10</title>
<path fill="none" stroke="midnightblue" d="M356.79,-327.3C340.51,-332.44 322.02,-338.27 306.9,-343.04"/>
<polygon fill="midnightblue" stroke="midnightblue" points="358.11,-330.56 366.59,-324.21 356,-323.88 358.11,-330.56"/>
</g>
<!-- Node12&#45;&gt;Node11 -->
<g id="edge19" class="edge">
<title>Node12&#45;&gt;Node11</title>
<path fill="none" stroke="midnightblue" d="M356.79,-301.94C340.51,-296.81 322.02,-290.98 306.9,-286.21"/>
<polygon fill="midnightblue" stroke="midnightblue" points="356,-305.36 366.59,-305.03 358.11,-298.69 356,-305.36"/>
</g>
<!-- Node13&#45;&gt;Node5 -->
<g id="edge21" class="edge">
<title>Node13&#45;&gt;Node5</title>
<path fill="none" stroke="midnightblue" d="M110.61,-223.36C88.19,-208.08 54.38,-185.03 35.51,-172.17"/>
<polygon fill="midnightblue" stroke="midnightblue" points="108.64,-226.26 118.88,-229 112.59,-220.47 108.64,-226.26"/>
</g>
<!-- Node14&#45;&gt;Node5 -->
<g id="edge23" class="edge">
<title>Node14&#45;&gt;Node5</title>
<path fill="none" stroke="midnightblue" d="M355.02,-196.37C274.3,-188.21 100.23,-170.59 41.4,-164.64"/>
<polygon fill="midnightblue" stroke="midnightblue" points="355.01,-199.89 365.31,-197.42 355.71,-192.93 355.01,-199.89"/>
</g>
<!-- Node15&#45;&gt;Node5 -->
<g id="edge25" class="edge">
<title>Node15&#45;&gt;Node5</title>
<path fill="none" stroke="midnightblue" d="M92.19,-62.54C86.76,-65.39 81.52,-68.73 77,-72.62 50.31,-95.64 32.43,-134.76 25.17,-152.88"/>
<polygon fill="midnightblue" stroke="midnightblue" points="93.85,-65.63 101.41,-58.21 90.87,-59.29 93.85,-65.63"/>
</g>
<!-- Node16&#45;&gt;Node5 -->
<g id="edge28" class="edge">
<title>Node16&#45;&gt;Node5</title>
<path fill="none" stroke="midnightblue" d="M571.63,-10.62C526.64,-10.62 458.36,-10.62 399,-10.62 399,-10.62 399,-10.62 274.5,-10.62 186.32,-10.62 147.96,22.73 77,-29.62 35.53,-60.22 24.86,-127.7 22.28,-152.89"/>
<polygon fill="midnightblue" stroke="midnightblue" points="571.7,-14.12 581.7,-10.62 571.7,-7.12 571.7,-14.12"/>
</g>
</g>
</svg>
