<?xml version="1.0" encoding="UTF-8" standalone="no"?>
<!DOCTYPE svg PUBLIC "-//W3C//DTD SVG 1.1//EN"
 "http://www.w3.org/Graphics/SVG/1.1/DTD/svg11.dtd">
<!-- Generated by graphviz version 2.43.0 (0)
 -->
<!-- Title: resetColor Pages: 1 -->
<svg width="879pt" height="512pt"
 viewBox="0.00 0.00 879.00 512.00" xmlns="http://www.w3.org/2000/svg" xmlns:xlink="http://www.w3.org/1999/xlink">
<g id="graph0" class="graph" transform="scale(1 1) rotate(0) translate(4 508)">
<title>resetColor</title>
<polygon fill="white" stroke="transparent" points="-4,4 -4,-508 875,-508 875,4 -4,4"/>
<!-- Node1 -->
<g id="node1" class="node">
<title>Node1</title>
<g id="a_node1"><a xlink:title=" ">
<polygon fill="#bfbfbf" stroke="black" points="804,-76.5 804,-95.5 871,-95.5 871,-76.5 804,-76.5"/>
<text text-anchor="middle" x="837.5" y="-83.5" font-family="Helvetica,sans-Serif" font-size="10.00">resetColor</text>
</a>
</g>
</g>
<!-- Node2 -->
<g id="node2" class="node">
<title>Node2</title>
<g id="a_node2"><a xlink:href="class_logger.html#ad83dbe66156650acca19d3772ce41229" target="_top" xlink:title="Записывает сообщение в лог с определенным цветом.">
<polygon fill="white" stroke="black" points="697,-76.5 697,-95.5 768,-95.5 768,-76.5 697,-76.5"/>
<text text-anchor="middle" x="732.5" y="-83.5" font-family="Helvetica,sans-Serif" font-size="10.00">Logger::log</text>
</a>
</g>
</g>
<!-- Node1&#45;&gt;Node2 -->
<g id="edge1" class="edge">
<title>Node1&#45;&gt;Node2</title>
<path fill="none" stroke="midnightblue" d="M793.7,-86C785.14,-86 776.25,-86 768.01,-86"/>
<polygon fill="midnightblue" stroke="midnightblue" points="793.91,-89.5 803.91,-86 793.91,-82.5 793.91,-89.5"/>
</g>
<!-- Node3 -->
<g id="node3" class="node">
<title>Node3</title>
<g id="a_node3"><a xlink:href="operation__params_8h.html#a1451d6a0f33f9d0a02a4b055e5839e6e" target="_top" xlink:title="Отображение справки о возможных параметрах командной строки.">
<polygon fill="white" stroke="black" points="472,-76.5 472,-95.5 546,-95.5 546,-76.5 472,-76.5"/>
<text text-anchor="middle" x="509" y="-83.5" font-family="Helvetica,sans-Serif" font-size="10.00">displayHelp</text>
</a>
</g>
</g>
<!-- Node2&#45;&gt;Node3 -->
<g id="edge2" class="edge">
<title>Node2&#45;&gt;Node3</title>
<path fill="none" stroke="midnightblue" d="M686.81,-86C645.42,-86 584.64,-86 546.2,-86"/>
<polygon fill="midnightblue" stroke="midnightblue" points="686.89,-89.5 696.89,-86 686.89,-82.5 686.89,-89.5"/>
</g>
<!-- Node5 -->
<g id="node5" class="node">
<title>Node5</title>
<g id="a_node5"><a xlink:href="main_8cpp.html#a0ddf1224851353fc92bfbff6f499fa97" target="_top" xlink:title="Главная функция программы">
<polygon fill="white" stroke="black" points="0,-304.5 0,-323.5 41,-323.5 41,-304.5 0,-304.5"/>
<text text-anchor="middle" x="20.5" y="-311.5" font-family="Helvetica,sans-Serif" font-size="10.00">main</text>
</a>
</g>
</g>
<!-- Node2&#45;&gt;Node5 -->
<g id="edge28" class="edge">
<title>Node2&#45;&gt;Node5</title>
<path fill="none" stroke="midnightblue" d="M730.5,-105.56C725.16,-188.15 692.76,-504 510,-504 510,-504 510,-504 274.5,-504 182.5,-504 145.38,-503.55 77,-442 40.28,-408.94 26.84,-347.29 22.89,-323.61"/>
<polygon fill="midnightblue" stroke="midnightblue" points="734,-105.7 731.09,-95.52 727.01,-105.29 734,-105.7"/>
</g>
<!-- Node6 -->
<g id="node6" class="node">
<title>Node6</title>
<g id="a_node6"><a xlink:href="class_logger.html#ab6042fdfcbb14026098e0df9d6b32f27" target="_top" xlink:title="Записывает ошибку в лог с красным цветом.">
<polygon fill="white" stroke="black" points="582,-190.5 582,-209.5 661,-209.5 661,-190.5 582,-190.5"/>
<text text-anchor="middle" x="621.5" y="-197.5" font-family="Helvetica,sans-Serif" font-size="10.00">Logger::error</text>
</a>
</g>
</g>
<!-- Node2&#45;&gt;Node6 -->
<g id="edge5" class="edge">
<title>Node2&#45;&gt;Node6</title>
<path fill="none" stroke="midnightblue" d="M715.1,-103.15C691.9,-127.42 650.25,-170.98 631.77,-190.31"/>
<polygon fill="midnightblue" stroke="midnightblue" points="717.83,-105.37 722.21,-95.72 712.77,-100.53 717.83,-105.37"/>
</g>
<!-- Node16 -->
<g id="node16" class="node">
<title>Node16</title>
<g id="a_node16"><a xlink:href="class_b_m_p.html#acdebc7da18509fc92374934ad7a99ae2" target="_top" xlink:title="Получить информацию о изображении.">
<polygon fill="white" stroke="black" points="582,-0.5 582,-19.5 661,-19.5 661,-0.5 582,-0.5"/>
<text text-anchor="middle" x="621.5" y="-7.5" font-family="Helvetica,sans-Serif" font-size="10.00">BMP::getInfo</text>
</a>
</g>
</g>
<!-- Node2&#45;&gt;Node16 -->
<g id="edge26" class="edge">
<title>Node2&#45;&gt;Node16</title>
<path fill="none" stroke="midnightblue" d="M710.88,-70.13C696.99,-59.6 678.13,-45.63 661,-34 653.7,-29.04 645.42,-23.83 638.41,-19.53"/>
<polygon fill="midnightblue" stroke="midnightblue" points="709.16,-73.22 719.23,-76.5 713.4,-67.65 709.16,-73.22"/>
</g>
<!-- Node17 -->
<g id="node17" class="node">
<title>Node17</title>
<g id="a_node17"><a xlink:href="class_logger.html#a24b519e0f53e73937f93edd2da37ea76" target="_top" xlink:title="Записывает предупреждение в лог с желтым цветом.">
<polygon fill="white" stroke="black" points="235.5,-38.5 235.5,-57.5 315.5,-57.5 315.5,-38.5 235.5,-38.5"/>
<text text-anchor="middle" x="275.5" y="-45.5" font-family="Helvetica,sans-Serif" font-size="10.00">Logger::warn</text>
</a>
</g>
</g>
<!-- Node2&#45;&gt;Node17 -->
<g id="edge29" class="edge">
<title>Node2&#45;&gt;Node17</title>
<path fill="none" stroke="midnightblue" d="M686.55,-80.99C649.01,-76.91 594.05,-71.15 546,-67 464.22,-59.93 368.31,-53.65 315.81,-50.38"/>
<polygon fill="midnightblue" stroke="midnightblue" points="686.34,-84.49 696.66,-82.1 687.1,-77.53 686.34,-84.49"/>
</g>
<!-- Node4 -->
<g id="node4" class="node">
<title>Node4</title>
<g id="a_node4"><a xlink:href="operation__params_8h.html#a0048eb016cc89e79b003ff63259ea264" target="_top" xlink:title="Парсинг командной строки и создание объекта Operations.">
<polygon fill="white" stroke="black" points="77,-190.5 77,-209.5 191,-209.5 191,-190.5 77,-190.5"/>
<text text-anchor="middle" x="134" y="-197.5" font-family="Helvetica,sans-Serif" font-size="10.00">parseCommandLine</text>
</a>
</g>
</g>
<!-- Node3&#45;&gt;Node4 -->
<g id="edge3" class="edge">
<title>Node3&#45;&gt;Node4</title>
<path fill="none" stroke="midnightblue" d="M461.79,-97.63C405.79,-112.04 308.77,-138.01 227,-165 203.31,-172.82 176.72,-183.1 158.24,-190.5"/>
<polygon fill="midnightblue" stroke="midnightblue" points="462.94,-100.95 471.76,-95.08 461.2,-94.17 462.94,-100.95"/>
</g>
<!-- Node4&#45;&gt;Node5 -->
<g id="edge4" class="edge">
<title>Node4&#45;&gt;Node5</title>
<path fill="none" stroke="midnightblue" d="M116.23,-217.15C92.49,-241.42 49.89,-284.98 30.98,-304.31"/>
<polygon fill="midnightblue" stroke="midnightblue" points="119,-219.32 123.49,-209.72 114,-214.42 119,-219.32"/>
</g>
<!-- Node7 -->
<g id="node7" class="node">
<title>Node7</title>
<g id="a_node7"><a xlink:href="class_logger.html#adaa34620512b5fa13d3098602eb4aef0" target="_top" xlink:title="Записывает сообщение и завершает программу с заданным кодом выхода.">
<polygon fill="white" stroke="black" points="472,-266.5 472,-285.5 546,-285.5 546,-266.5 472,-266.5"/>
<text text-anchor="middle" x="509" y="-273.5" font-family="Helvetica,sans-Serif" font-size="10.00">Logger::exit</text>
</a>
</g>
</g>
<!-- Node6&#45;&gt;Node7 -->
<g id="edge6" class="edge">
<title>Node6&#45;&gt;Node7</title>
<path fill="none" stroke="midnightblue" d="M598.02,-215.46C575.8,-230.75 542.5,-253.64 523.88,-266.45"/>
<polygon fill="midnightblue" stroke="midnightblue" points="600.25,-218.18 606.51,-209.63 596.28,-212.41 600.25,-218.18"/>
</g>
<!-- Node7&#45;&gt;Node4 -->
<g id="edge13" class="edge">
<title>Node7&#45;&gt;Node4</title>
<path fill="none" stroke="midnightblue" d="M496.88,-257.74C484.49,-239.15 462.66,-211.11 436,-197 347.78,-150.31 223.65,-174.96 166.3,-190.49"/>
<polygon fill="midnightblue" stroke="midnightblue" points="493.98,-259.71 502.32,-266.24 499.88,-255.94 493.98,-259.71"/>
</g>
<!-- Node7&#45;&gt;Node5 -->
<g id="edge10" class="edge">
<title>Node7&#45;&gt;Node5</title>
<path fill="none" stroke="midnightblue" d="M506.48,-295.71C502.42,-332.86 487.8,-412.61 436,-447 400.7,-470.44 167.75,-469.47 77,-409 45.84,-388.24 29.86,-343.58 24.08,-323.79"/>
<polygon fill="midnightblue" stroke="midnightblue" points="509.97,-295.93 507.43,-285.64 503,-295.27 509.97,-295.93"/>
</g>
<!-- Node8 -->
<g id="node8" class="node">
<title>Node8</title>
<g id="a_node8"><a xlink:href="class_b_m_p.html#a1a6520856e149fb370934fae327947fd" target="_top" xlink:title="Конструктор класса BMP.">
<polygon fill="white" stroke="black" points="365,-418.5 365,-437.5 431,-437.5 431,-418.5 365,-418.5"/>
<text text-anchor="middle" x="398" y="-425.5" font-family="Helvetica,sans-Serif" font-size="10.00">BMP::BMP</text>
</a>
</g>
</g>
<!-- Node7&#45;&gt;Node8 -->
<g id="edge7" class="edge">
<title>Node7&#45;&gt;Node8</title>
<path fill="none" stroke="midnightblue" d="M500.73,-295.04C489.82,-321.77 467.12,-370.85 436,-404 430.76,-409.58 423.97,-414.47 417.64,-418.34"/>
<polygon fill="midnightblue" stroke="midnightblue" points="504.02,-296.26 504.45,-285.67 497.51,-293.68 504.02,-296.26"/>
</g>
<!-- Node9 -->
<g id="node9" class="node">
<title>Node9</title>
<g id="a_node9"><a xlink:href="class_b_m_p.html#aa5efccdbbacffe75174e3c126efc06ad" target="_top" xlink:title="Копировать область изображения.">
<polygon fill="white" stroke="black" points="100,-114.5 100,-133.5 168,-133.5 168,-114.5 100,-114.5"/>
<text text-anchor="middle" x="134" y="-121.5" font-family="Helvetica,sans-Serif" font-size="10.00">BMP::copy</text>
</a>
</g>
</g>
<!-- Node7&#45;&gt;Node9 -->
<g id="edge8" class="edge">
<title>Node7&#45;&gt;Node9</title>
<path fill="none" stroke="midnightblue" d="M500.83,-257.12C490.48,-232.68 468.93,-190.78 436,-170 351.28,-116.54 227.05,-117.02 168.23,-120.88"/>
<polygon fill="midnightblue" stroke="midnightblue" points="497.59,-258.45 504.57,-266.41 504.08,-255.83 497.59,-258.45"/>
</g>
<!-- Node10 -->
<g id="node10" class="node">
<title>Node10</title>
<g id="a_node10"><a xlink:href="class_b_m_p.html#a6760433189c91bee33a1e884909c3818" target="_top" xlink:title="Отразить изображение относительно указанной оси.">
<polygon fill="white" stroke="black" points="97,-380.5 97,-399.5 171,-399.5 171,-380.5 97,-380.5"/>
<text text-anchor="middle" x="134" y="-387.5" font-family="Helvetica,sans-Serif" font-size="10.00">BMP::mirror</text>
</a>
</g>
</g>
<!-- Node7&#45;&gt;Node10 -->
<g id="edge11" class="edge">
<title>Node7&#45;&gt;Node10</title>
<path fill="none" stroke="midnightblue" d="M496.88,-294.26C484.49,-312.85 462.66,-340.89 436,-355 349.75,-400.65 230.45,-398.52 171.29,-393.89"/>
<polygon fill="midnightblue" stroke="midnightblue" points="499.88,-296.06 502.32,-285.76 493.98,-292.29 499.88,-296.06"/>
</g>
<!-- Node11 -->
<g id="node11" class="node">
<title>Node11</title>
<g id="a_node11"><a xlink:href="operation__params_8cpp.html#adfab6ddfafab9bed92ac967c3a0fe0dd" target="_top" xlink:title=" ">
<polygon fill="white" stroke="black" points="227,-266.5 227,-285.5 324,-285.5 324,-266.5 227,-266.5"/>
<text text-anchor="middle" x="275.5" y="-273.5" font-family="Helvetica,sans-Serif" font-size="10.00">parseCoordinate</text>
</a>
</g>
</g>
<!-- Node7&#45;&gt;Node11 -->
<g id="edge14" class="edge">
<title>Node7&#45;&gt;Node11</title>
<path fill="none" stroke="midnightblue" d="M461.82,-276C421.88,-276 364.38,-276 324.05,-276"/>
<polygon fill="midnightblue" stroke="midnightblue" points="461.83,-279.5 471.83,-276 461.83,-272.5 461.83,-279.5"/>
</g>
<!-- Node12 -->
<g id="node12" class="node">
<title>Node12</title>
<g id="a_node12"><a xlink:href="operation__params_8h.html#abbd547560acd14f298e5d36dcf0398d3" target="_top" xlink:title="Парсинг строки с RGB&#45;значением цвета.">
<polygon fill="white" stroke="black" points="243,-190.5 243,-209.5 308,-209.5 308,-190.5 243,-190.5"/>
<text text-anchor="middle" x="275.5" y="-197.5" font-family="Helvetica,sans-Serif" font-size="10.00">parseRGB</text>
</a>
</g>
</g>
<!-- Node7&#45;&gt;Node12 -->
<g id="edge16" class="edge">
<title>Node7&#45;&gt;Node12</title>
<path fill="none" stroke="midnightblue" d="M492.22,-259.18C478.67,-245.89 457.9,-228.11 436,-219 394.16,-201.6 341.17,-198.63 308.04,-198.79"/>
<polygon fill="midnightblue" stroke="midnightblue" points="489.81,-261.72 499.32,-266.38 494.8,-256.8 489.81,-261.72"/>
</g>
<!-- Node13 -->
<g id="node13" class="node">
<title>Node13</title>
<g id="a_node13"><a xlink:href="operation__params_8h.html#acb9b051691fc7054f0232d28aef686c4" target="_top" xlink:title="Парсинг строки с числами, разделенными пробелами.">
<polygon fill="white" stroke="black" points="360,-228.5 360,-247.5 436,-247.5 436,-228.5 360,-228.5"/>
<text text-anchor="middle" x="398" y="-235.5" font-family="Helvetica,sans-Serif" font-size="10.00">parseValues</text>
</a>
</g>
</g>
<!-- Node7&#45;&gt;Node13 -->
<g id="edge18" class="edge">
<title>Node7&#45;&gt;Node13</title>
<path fill="none" stroke="midnightblue" d="M470.79,-263.03C456.27,-257.97 439.92,-252.27 426.5,-247.59"/>
<polygon fill="midnightblue" stroke="midnightblue" points="469.9,-266.42 480.49,-266.41 472.2,-259.81 469.9,-266.42"/>
</g>
<!-- Node14 -->
<g id="node14" class="node">
<title>Node14</title>
<g id="a_node14"><a xlink:href="class_b_m_p.html#ad6023dacfbf10c0326a59f7e996aba27" target="_top" xlink:title="Сохранить изображение в файл.">
<polygon fill="white" stroke="black" points="241.5,-342.5 241.5,-361.5 309.5,-361.5 309.5,-342.5 241.5,-342.5"/>
<text text-anchor="middle" x="275.5" y="-349.5" font-family="Helvetica,sans-Serif" font-size="10.00">BMP::save</text>
</a>
</g>
</g>
<!-- Node7&#45;&gt;Node14 -->
<g id="edge22" class="edge">
<title>Node7&#45;&gt;Node14</title>
<path fill="none" stroke="midnightblue" d="M492.22,-292.82C478.67,-306.11 457.9,-323.89 436,-333 394.8,-350.13 342.8,-353.27 309.59,-353.22"/>
<polygon fill="midnightblue" stroke="midnightblue" points="494.8,-295.2 499.32,-285.62 489.81,-290.28 494.8,-295.2"/>
</g>
<!-- Node15 -->
<g id="node15" class="node">
<title>Node15</title>
<g id="a_node15"><a xlink:href="class_b_m_p.html#aaff3df7f32657d64bf3b5f07e76a4edd" target="_top" xlink:title="Разделить изображение на части.">
<polygon fill="white" stroke="black" points="365.5,-304.5 365.5,-323.5 430.5,-323.5 430.5,-304.5 365.5,-304.5"/>
<text text-anchor="middle" x="398" y="-311.5" font-family="Helvetica,sans-Serif" font-size="10.00">BMP::split</text>
</a>
</g>
</g>
<!-- Node7&#45;&gt;Node15 -->
<g id="edge24" class="edge">
<title>Node7&#45;&gt;Node15</title>
<path fill="none" stroke="midnightblue" d="M470.79,-288.97C456.27,-294.03 439.92,-299.73 426.5,-304.41"/>
<polygon fill="midnightblue" stroke="midnightblue" points="472.2,-292.19 480.49,-285.59 469.9,-285.58 472.2,-292.19"/>
</g>
<!-- Node9&#45;&gt;Node5 -->
<g id="edge9" class="edge">
<title>Node9&#45;&gt;Node5</title>
<path fill="none" stroke="midnightblue" d="M113.34,-140.52C101.62,-151.15 87.1,-165.79 77,-181 49.05,-223.11 30.65,-281.57 24.14,-304.36"/>
<polygon fill="midnightblue" stroke="midnightblue" points="115.73,-143.07 120.92,-133.84 111.1,-137.82 115.73,-143.07"/>
</g>
<!-- Node10&#45;&gt;Node5 -->
<g id="edge12" class="edge">
<title>Node10&#45;&gt;Node5</title>
<path fill="none" stroke="midnightblue" d="M96.06,-376.34C89.5,-373.32 82.89,-369.85 77,-366 58.21,-353.72 39.9,-334.82 29.72,-323.5"/>
<polygon fill="midnightblue" stroke="midnightblue" points="94.97,-379.69 105.54,-380.46 97.76,-373.27 94.97,-379.69"/>
</g>
<!-- Node11&#45;&gt;Node4 -->
<g id="edge15" class="edge">
<title>Node11&#45;&gt;Node4</title>
<path fill="none" stroke="midnightblue" d="M245.63,-261.68C239.45,-258.54 232.99,-255.2 227,-252 200.31,-237.72 169.8,-220.25 151.49,-209.63"/>
<polygon fill="midnightblue" stroke="midnightblue" points="244.48,-265.02 254.98,-266.39 247.63,-258.77 244.48,-265.02"/>
</g>
<!-- Node12&#45;&gt;Node4 -->
<g id="edge17" class="edge">
<title>Node12&#45;&gt;Node4</title>
<path fill="none" stroke="midnightblue" d="M232.75,-200C219.7,-200 205.07,-200 191.19,-200"/>
<polygon fill="midnightblue" stroke="midnightblue" points="232.85,-203.5 242.85,-200 232.85,-196.5 232.85,-203.5"/>
</g>
<!-- Node13&#45;&gt;Node4 -->
<g id="edge19" class="edge">
<title>Node13&#45;&gt;Node4</title>
<path fill="none" stroke="midnightblue" d="M349.55,-233.88C315.37,-230.63 268.2,-225.54 227,-219 210.57,-216.39 192.63,-212.84 176.99,-209.52"/>
<polygon fill="midnightblue" stroke="midnightblue" points="349.44,-237.39 359.72,-234.83 350.09,-230.42 349.44,-237.39"/>
</g>
<!-- Node13&#45;&gt;Node11 -->
<g id="edge20" class="edge">
<title>Node13&#45;&gt;Node11</title>
<path fill="none" stroke="midnightblue" d="M356.79,-250.68C340.51,-255.81 322.02,-261.64 306.9,-266.41"/>
<polygon fill="midnightblue" stroke="midnightblue" points="358.11,-253.93 366.59,-247.59 356,-247.26 358.11,-253.93"/>
</g>
<!-- Node13&#45;&gt;Node12 -->
<g id="edge21" class="edge">
<title>Node13&#45;&gt;Node12</title>
<path fill="none" stroke="midnightblue" d="M356.79,-225.32C340.51,-220.19 322.02,-214.36 306.9,-209.59"/>
<polygon fill="midnightblue" stroke="midnightblue" points="356,-228.74 366.59,-228.41 358.11,-222.07 356,-228.74"/>
</g>
<!-- Node14&#45;&gt;Node5 -->
<g id="edge23" class="edge">
<title>Node14&#45;&gt;Node5</title>
<path fill="none" stroke="midnightblue" d="M231.47,-348.35C191.3,-344.57 129.79,-337.83 77,-328 64.98,-325.76 51.7,-322.44 41.14,-319.6"/>
<polygon fill="midnightblue" stroke="midnightblue" points="231.18,-351.84 241.46,-349.27 231.82,-344.87 231.18,-351.84"/>
</g>
<!-- Node15&#45;&gt;Node5 -->
<g id="edge25" class="edge">
<title>Node15&#45;&gt;Node5</title>
<path fill="none" stroke="midnightblue" d="M355.02,-314C274.3,-314 100.23,-314 41.4,-314"/>
<polygon fill="midnightblue" stroke="midnightblue" points="355.31,-317.5 365.31,-314 355.31,-310.5 355.31,-317.5"/>
</g>
<!-- Node16&#45;&gt;Node5 -->
<g id="edge27" class="edge">
<title>Node16&#45;&gt;Node5</title>
<path fill="none" stroke="midnightblue" d="M571.64,-10C526.76,-10 458.4,-10 399,-10 399,-10 399,-10 274.5,-10 185.03,-10 140.63,13.9 77,-49 39.56,-86.01 25.15,-261.14 22.13,-304.35"/>
<polygon fill="midnightblue" stroke="midnightblue" points="571.69,-13.5 581.69,-10 571.69,-6.5 571.69,-13.5"/>
</g>
<!-- Node17&#45;&gt;Node4 -->
<g id="edge32" class="edge">
<title>Node17&#45;&gt;Node4</title>
<path fill="none" stroke="midnightblue" d="M239.54,-62.35C235,-65.13 230.67,-68.34 227,-72 201.96,-97 211.64,-114.26 191,-143 177.73,-161.48 158.48,-179.67 146.36,-190.37"/>
<polygon fill="midnightblue" stroke="midnightblue" points="241.29,-65.39 248.4,-57.53 237.94,-59.24 241.29,-65.39"/>
</g>
<!-- Node17&#45;&gt;Node5 -->
<g id="edge31" class="edge">
<title>Node17&#45;&gt;Node5</title>
<path fill="none" stroke="midnightblue" d="M225.34,-49.1C180.65,-52.77 115.91,-65.25 77,-105 20.54,-162.68 19.77,-270.89 20.97,-304.07"/>
<polygon fill="midnightblue" stroke="midnightblue" points="225.67,-52.58 235.4,-48.39 225.18,-45.6 225.67,-52.58"/>
</g>
<!-- Node17&#45;&gt;Node9 -->
<g id="edge30" class="edge">
<title>Node17&#45;&gt;Node9</title>
<path fill="none" stroke="midnightblue" d="M245.63,-62.32C239.45,-65.46 232.99,-68.8 227,-72 200.31,-86.28 169.8,-103.75 151.49,-114.37"/>
<polygon fill="midnightblue" stroke="midnightblue" points="247.63,-65.23 254.98,-57.61 244.48,-58.98 247.63,-65.23"/>
</g>
</g>
</svg>
