<?xml version="1.0" encoding="UTF-8" standalone="no"?>
<!DOCTYPE svg PUBLIC "-//W3C//DTD SVG 1.1//EN"
 "http://www.w3.org/Graphics/SVG/1.1/DTD/svg11.dtd">
<!-- Generated by graphviz version 2.43.0 (0)
 -->
<!-- Title: main Pages: 1 -->
<svg width="812pt" height="560pt"
 viewBox="0.00 0.00 812.00 560.00" xmlns="http://www.w3.org/2000/svg" xmlns:xlink="http://www.w3.org/1999/xlink">
<g id="graph0" class="graph" transform="scale(1 1) rotate(0) translate(4 556)">
<title>main</title>
<polygon fill="white" stroke="transparent" points="-4,4 -4,-556 808,-556 808,4 -4,4"/>
<!-- Node1 -->
<g id="node1" class="node">
<title>Node1</title>
<g id="a_node1"><a xlink:title="Главная функция программы">
<polygon fill="#bfbfbf" stroke="black" points="0,-342.5 0,-361.5 41,-361.5 41,-342.5 0,-342.5"/>
<text text-anchor="middle" x="20.5" y="-349.5" font-family="Helvetica,sans-Serif" font-size="10.00">main</text>
</a>
</g>
</g>
<!-- Node2 -->
<g id="node2" class="node">
<title>Node2</title>
<g id="a_node2"><a xlink:href="class_b_m_p.html#a93eafd24ac18b0f450764d631a911e22" target="_top" xlink:title="Заменить цвет на изображении.">
<polygon fill="white" stroke="black" points="80.5,-532.5 80.5,-551.5 187.5,-551.5 187.5,-532.5 80.5,-532.5"/>
<text text-anchor="middle" x="134" y="-539.5" font-family="Helvetica,sans-Serif" font-size="10.00">BMP::colorReplace</text>
</a>
</g>
</g>
<!-- Node1&#45;&gt;Node2 -->
<g id="edge1" class="edge">
<title>Node1&#45;&gt;Node2</title>
<path fill="none" stroke="midnightblue" d="M22.04,-361.61C24.12,-389.43 33.77,-471.06 77,-518 80.49,-521.79 84.69,-525.01 89.19,-527.74"/>
<polygon fill="midnightblue" stroke="midnightblue" points="87.63,-530.87 98.12,-532.39 90.87,-524.67 87.63,-530.87"/>
</g>
<!-- Node3 -->
<g id="node3" class="node">
<title>Node3</title>
<g id="a_node3"><a xlink:href="class_b_m_p.html#aa5efccdbbacffe75174e3c126efc06ad" target="_top" xlink:title="Копировать область изображения.">
<polygon fill="white" stroke="black" points="100,-304.5 100,-323.5 168,-323.5 168,-304.5 100,-304.5"/>
<text text-anchor="middle" x="134" y="-311.5" font-family="Helvetica,sans-Serif" font-size="10.00">BMP::copy</text>
</a>
</g>
</g>
<!-- Node1&#45;&gt;Node3 -->
<g id="edge2" class="edge">
<title>Node1&#45;&gt;Node3</title>
<path fill="none" stroke="midnightblue" d="M41.02,-345.3C51.65,-341.66 65.05,-337.07 77,-333 82.79,-331.03 88.92,-328.94 94.91,-326.91"/>
<polygon fill="midnightblue" stroke="midnightblue" points="96.45,-330.08 104.79,-323.55 94.2,-323.45 96.45,-330.08"/>
</g>
<!-- Node4 -->
<g id="node4" class="node">
<title>Node4</title>
<g id="a_node4"><a xlink:href="class_logger.html#adaa34620512b5fa13d3098602eb4aef0" target="_top" xlink:title="Записывает сообщение и завершает программу с заданным кодом выхода.">
<polygon fill="white" stroke="black" points="404,-323.5 404,-342.5 478,-342.5 478,-323.5 404,-323.5"/>
<text text-anchor="middle" x="441" y="-330.5" font-family="Helvetica,sans-Serif" font-size="10.00">Logger::exit</text>
</a>
</g>
</g>
<!-- Node1&#45;&gt;Node4 -->
<g id="edge10" class="edge">
<title>Node1&#45;&gt;Node4</title>
<path fill="none" stroke="midnightblue" d="M26.47,-361.73C34.74,-376.87 52.84,-405.77 77,-420 188.54,-485.68 253.44,-509.13 367,-447 403.79,-426.87 424.75,-379.43 434.09,-352.52"/>
<polygon fill="midnightblue" stroke="midnightblue" points="437.52,-353.28 437.29,-342.69 430.86,-351.11 437.52,-353.28"/>
</g>
<!-- Node6 -->
<g id="node6" class="node">
<title>Node6</title>
<g id="a_node6"><a xlink:href="class_logger.html#ad83dbe66156650acca19d3772ce41229" target="_top" xlink:title="Записывает сообщение в лог с определенным цветом.">
<polygon fill="white" stroke="black" points="630,-266.5 630,-285.5 701,-285.5 701,-266.5 630,-266.5"/>
<text text-anchor="middle" x="665.5" y="-273.5" font-family="Helvetica,sans-Serif" font-size="10.00">Logger::log</text>
</a>
</g>
</g>
<!-- Node1&#45;&gt;Node6 -->
<g id="edge14" class="edge">
<title>Node1&#45;&gt;Node6</title>
<path fill="none" stroke="midnightblue" d="M23.44,-361.69C28.3,-383.27 43.11,-435.4 77,-461 156.15,-520.78 196.81,-504 296,-504 296,-504 296,-504 442,-504 558.41,-504 633.8,-349.89 656.94,-295.07"/>
<polygon fill="midnightblue" stroke="midnightblue" points="660.3,-296.09 660.86,-285.51 653.83,-293.43 660.3,-296.09"/>
</g>
<!-- Node9 -->
<g id="node9" class="node">
<title>Node9</title>
<g id="a_node9"><a xlink:href="class_logger.html#a24b519e0f53e73937f93edd2da37ea76" target="_top" xlink:title="Записывает предупреждение в лог с желтым цветом.">
<polygon fill="white" stroke="black" points="257,-266.5 257,-285.5 337,-285.5 337,-266.5 257,-266.5"/>
<text text-anchor="middle" x="297" y="-273.5" font-family="Helvetica,sans-Serif" font-size="10.00">Logger::warn</text>
</a>
</g>
</g>
<!-- Node1&#45;&gt;Node9 -->
<g id="edge31" class="edge">
<title>Node1&#45;&gt;Node9</title>
<path fill="none" stroke="midnightblue" d="M27.63,-342.28C36.63,-328.97 54.78,-305.53 77,-295 130.86,-269.47 200.52,-268.02 246.65,-270.77"/>
<polygon fill="midnightblue" stroke="midnightblue" points="246.48,-274.27 256.7,-271.46 246.96,-267.28 246.48,-274.27"/>
</g>
<!-- Node10 -->
<g id="node10" class="node">
<title>Node10</title>
<g id="a_node10"><a xlink:href="class_b_m_p.html#acdebc7da18509fc92374934ad7a99ae2" target="_top" xlink:title="Получить информацию о изображении.">
<polygon fill="white" stroke="black" points="515,-76.5 515,-95.5 594,-95.5 594,-76.5 515,-76.5"/>
<text text-anchor="middle" x="554.5" y="-83.5" font-family="Helvetica,sans-Serif" font-size="10.00">BMP::getInfo</text>
</a>
</g>
</g>
<!-- Node1&#45;&gt;Node10 -->
<g id="edge11" class="edge">
<title>Node1&#45;&gt;Node10</title>
<path fill="none" stroke="midnightblue" d="M22.61,-342.2C26.14,-314.51 39.24,-234.19 77,-181 125.47,-112.72 147.65,-93.73 227,-67 324.61,-34.12 447.83,-57.38 511.35,-73.72"/>
<polygon fill="midnightblue" stroke="midnightblue" points="510.83,-77.21 521.39,-76.38 512.62,-70.44 510.83,-77.21"/>
</g>
<!-- Node11 -->
<g id="node11" class="node">
<title>Node11</title>
<g id="a_node11"><a xlink:href="class_b_m_p.html#a3b83e47741d70614c50d625649979176" target="_top" xlink:title="Проверить, является ли изображение валидным.">
<polygon fill="white" stroke="black" points="95.5,-0.5 95.5,-19.5 172.5,-19.5 172.5,-0.5 95.5,-0.5"/>
<text text-anchor="middle" x="134" y="-7.5" font-family="Helvetica,sans-Serif" font-size="10.00">BMP::isValid</text>
</a>
</g>
</g>
<!-- Node1&#45;&gt;Node11 -->
<g id="edge13" class="edge">
<title>Node1&#45;&gt;Node11</title>
<path fill="none" stroke="midnightblue" d="M21.97,-342.29C24.48,-294.4 37.62,-83.77 77,-34 79.88,-30.36 83.43,-27.25 87.32,-24.62"/>
<polygon fill="midnightblue" stroke="midnightblue" points="89.29,-27.53 96.27,-19.56 85.85,-21.43 89.29,-27.53"/>
</g>
<!-- Node12 -->
<g id="node12" class="node">
<title>Node12</title>
<g id="a_node12"><a xlink:href="class_b_m_p.html#a6760433189c91bee33a1e884909c3818" target="_top" xlink:title="Отразить изображение относительно указанной оси.">
<polygon fill="white" stroke="black" points="260,-418.5 260,-437.5 334,-437.5 334,-418.5 260,-418.5"/>
<text text-anchor="middle" x="297" y="-425.5" font-family="Helvetica,sans-Serif" font-size="10.00">BMP::mirror</text>
</a>
</g>
</g>
<!-- Node1&#45;&gt;Node12 -->
<g id="edge15" class="edge">
<title>Node1&#45;&gt;Node12</title>
<path fill="none" stroke="midnightblue" d="M31.66,-361.58C42.16,-370.91 59.45,-384.71 77,-392 133.45,-415.45 204.04,-423.66 249.56,-426.51"/>
<polygon fill="midnightblue" stroke="midnightblue" points="249.54,-430.02 259.73,-427.09 249.94,-423.03 249.54,-430.02"/>
</g>
<!-- Node13 -->
<g id="node13" class="node">
<title>Node13</title>
<g id="a_node13"><a xlink:href="operation__params_8h.html#a00a944e8a68555a108c478465b5e9018" target="_top" xlink:title="Парсинг командной строки и создание объекта OperationParams.">
<polygon fill="white" stroke="black" points="77,-190.5 77,-209.5 191,-209.5 191,-190.5 77,-190.5"/>
<text text-anchor="middle" x="134" y="-197.5" font-family="Helvetica,sans-Serif" font-size="10.00">parseCommandLine</text>
</a>
</g>
</g>
<!-- Node1&#45;&gt;Node13 -->
<g id="edge17" class="edge">
<title>Node1&#45;&gt;Node13</title>
<path fill="none" stroke="midnightblue" d="M26.64,-342.44C35.85,-325.58 56.18,-289.75 77,-262 89.14,-245.82 104.67,-228.87 116.3,-216.79"/>
<polygon fill="midnightblue" stroke="midnightblue" points="118.82,-219.21 123.3,-209.61 113.81,-214.33 118.82,-219.21"/>
</g>
<!-- Node18 -->
<g id="node18" class="node">
<title>Node18</title>
<g id="a_node18"><a xlink:href="class_b_m_p.html#ad6023dacfbf10c0326a59f7e996aba27" target="_top" xlink:title="Сохранить изображение в файл.">
<polygon fill="white" stroke="black" points="263,-380.5 263,-399.5 331,-399.5 331,-380.5 263,-380.5"/>
<text text-anchor="middle" x="297" y="-387.5" font-family="Helvetica,sans-Serif" font-size="10.00">BMP::save</text>
</a>
</g>
</g>
<!-- Node1&#45;&gt;Node18 -->
<g id="edge27" class="edge">
<title>Node1&#45;&gt;Node18</title>
<path fill="none" stroke="midnightblue" d="M41.21,-360.06C51.67,-364 64.84,-368.43 77,-371 137.15,-383.71 208.31,-387.94 252.81,-389.34"/>
<polygon fill="midnightblue" stroke="midnightblue" points="252.89,-392.84 262.98,-389.63 253.09,-385.85 252.89,-392.84"/>
</g>
<!-- Node19 -->
<g id="node19" class="node">
<title>Node19</title>
<g id="a_node19"><a xlink:href="class_b_m_p.html#aaff3df7f32657d64bf3b5f07e76a4edd" target="_top" xlink:title="Разделить изображение на части.">
<polygon fill="white" stroke="black" points="101.5,-342.5 101.5,-361.5 166.5,-361.5 166.5,-342.5 101.5,-342.5"/>
<text text-anchor="middle" x="134" y="-349.5" font-family="Helvetica,sans-Serif" font-size="10.00">BMP::split</text>
</a>
</g>
</g>
<!-- Node1&#45;&gt;Node19 -->
<g id="edge29" class="edge">
<title>Node1&#45;&gt;Node19</title>
<path fill="none" stroke="midnightblue" d="M41.18,-352C54.95,-352 73.87,-352 90.95,-352"/>
<polygon fill="midnightblue" stroke="midnightblue" points="91.29,-355.5 101.29,-352 91.29,-348.5 91.29,-355.5"/>
</g>
<!-- Node3&#45;&gt;Node4 -->
<g id="edge3" class="edge">
<title>Node3&#45;&gt;Node4</title>
<path fill="none" stroke="midnightblue" d="M168.22,-316.07C222.81,-319.47 331.6,-326.25 393.71,-330.12"/>
<polygon fill="midnightblue" stroke="midnightblue" points="393.8,-333.63 404,-330.76 394.23,-326.64 393.8,-333.63"/>
</g>
<!-- Node3&#45;&gt;Node9 -->
<g id="edge8" class="edge">
<title>Node3&#45;&gt;Node9</title>
<path fill="none" stroke="midnightblue" d="M168.36,-306.13C191.05,-300.77 221.44,-293.6 246.88,-287.59"/>
<polygon fill="midnightblue" stroke="midnightblue" points="247.79,-290.97 256.72,-285.27 246.19,-284.16 247.79,-290.97"/>
</g>
<!-- Node5 -->
<g id="node5" class="node">
<title>Node5</title>
<g id="a_node5"><a xlink:href="class_logger.html#ab6042fdfcbb14026098e0df9d6b32f27" target="_top" xlink:title="Записывает ошибку в лог с красным цветом.">
<polygon fill="white" stroke="black" points="515,-314.5 515,-333.5 594,-333.5 594,-314.5 515,-314.5"/>
<text text-anchor="middle" x="554.5" y="-321.5" font-family="Helvetica,sans-Serif" font-size="10.00">Logger::error</text>
</a>
</g>
</g>
<!-- Node4&#45;&gt;Node5 -->
<g id="edge4" class="edge">
<title>Node4&#45;&gt;Node5</title>
<path fill="none" stroke="midnightblue" d="M478.2,-330.08C486.61,-329.4 495.7,-328.67 504.56,-327.95"/>
<polygon fill="midnightblue" stroke="midnightblue" points="505.11,-331.42 514.79,-327.12 504.54,-324.44 505.11,-331.42"/>
</g>
<!-- Node5&#45;&gt;Node6 -->
<g id="edge5" class="edge">
<title>Node5&#45;&gt;Node6</title>
<path fill="none" stroke="midnightblue" d="M577.3,-314.4C593.34,-307.34 615.37,-297.63 633.28,-289.75"/>
<polygon fill="midnightblue" stroke="midnightblue" points="635,-292.81 642.74,-285.58 632.18,-286.41 635,-292.81"/>
</g>
<!-- Node7 -->
<g id="node7" class="node">
<title>Node7</title>
<g id="a_node7"><a xlink:href="logger_8cpp.html#afe00396766eb6b8ca4674de4c5d3d949" target="_top" xlink:title=" ">
<polygon fill="white" stroke="black" points="737,-285.5 737,-304.5 804,-304.5 804,-285.5 737,-285.5"/>
<text text-anchor="middle" x="770.5" y="-292.5" font-family="Helvetica,sans-Serif" font-size="10.00">resetColor</text>
</a>
</g>
</g>
<!-- Node6&#45;&gt;Node7 -->
<g id="edge6" class="edge">
<title>Node6&#45;&gt;Node7</title>
<path fill="none" stroke="midnightblue" d="M701.08,-282.38C709.4,-283.91 718.38,-285.57 727.01,-287.16"/>
<polygon fill="midnightblue" stroke="midnightblue" points="726.45,-290.62 736.92,-288.99 727.72,-283.73 726.45,-290.62"/>
</g>
<!-- Node8 -->
<g id="node8" class="node">
<title>Node8</title>
<g id="a_node8"><a xlink:href="logger_8cpp.html#a47a17bf6298ba8d1f42d32b14449e277" target="_top" xlink:title=" ">
<polygon fill="white" stroke="black" points="742,-247.5 742,-266.5 799,-266.5 799,-247.5 742,-247.5"/>
<text text-anchor="middle" x="770.5" y="-254.5" font-family="Helvetica,sans-Serif" font-size="10.00">setColor</text>
</a>
</g>
</g>
<!-- Node6&#45;&gt;Node8 -->
<g id="edge7" class="edge">
<title>Node6&#45;&gt;Node8</title>
<path fill="none" stroke="midnightblue" d="M701.08,-269.62C710.89,-267.81 721.61,-265.83 731.6,-263.99"/>
<polygon fill="midnightblue" stroke="midnightblue" points="732.47,-267.39 741.67,-262.13 731.2,-260.51 732.47,-267.39"/>
</g>
<!-- Node9&#45;&gt;Node6 -->
<g id="edge9" class="edge">
<title>Node9&#45;&gt;Node6</title>
<path fill="none" stroke="midnightblue" d="M337.22,-276C405.86,-276 547.34,-276 619.72,-276"/>
<polygon fill="midnightblue" stroke="midnightblue" points="619.88,-279.5 629.88,-276 619.88,-272.5 619.88,-279.5"/>
</g>
<!-- Node10&#45;&gt;Node6 -->
<g id="edge12" class="edge">
<title>Node10&#45;&gt;Node6</title>
<path fill="none" stroke="midnightblue" d="M561.06,-95.68C578.25,-125.66 630.83,-217.31 653.69,-257.16"/>
<polygon fill="midnightblue" stroke="midnightblue" points="650.81,-259.18 658.83,-266.11 656.89,-255.69 650.81,-259.18"/>
</g>
<!-- Node12&#45;&gt;Node4 -->
<g id="edge16" class="edge">
<title>Node12&#45;&gt;Node4</title>
<path fill="none" stroke="midnightblue" d="M334.22,-421.89C345.25,-419.04 357.07,-414.91 367,-409 392.17,-394.01 414.4,-368.05 427.54,-350.7"/>
<polygon fill="midnightblue" stroke="midnightblue" points="430.45,-352.65 433.54,-342.51 424.8,-348.51 430.45,-352.65"/>
</g>
<!-- Node13&#45;&gt;Node4 -->
<g id="edge20" class="edge">
<title>Node13&#45;&gt;Node4</title>
<path fill="none" stroke="midnightblue" d="M179.4,-209.51C242.1,-223.15 350.79,-247.65 367,-257 392.37,-271.64 414.56,-297.69 427.62,-315.15"/>
<polygon fill="midnightblue" stroke="midnightblue" points="424.89,-317.35 433.59,-323.4 430.56,-313.25 424.89,-317.35"/>
</g>
<!-- Node13&#45;&gt;Node9 -->
<g id="edge26" class="edge">
<title>Node13&#45;&gt;Node9</title>
<path fill="none" stroke="midnightblue" d="M149.87,-209.51C167.7,-220.66 198.75,-239.23 227,-252 235.92,-256.03 245.73,-259.82 255.09,-263.13"/>
<polygon fill="midnightblue" stroke="midnightblue" points="254.03,-266.47 264.62,-266.41 256.31,-259.85 254.03,-266.47"/>
</g>
<!-- Node14 -->
<g id="node14" class="node">
<title>Node14</title>
<g id="a_node14"><a xlink:href="operation__params_8cpp.html#a1451d6a0f33f9d0a02a4b055e5839e6e" target="_top" xlink:title="Отображение справки о возможных параметрах командной строки.">
<polygon fill="white" stroke="black" points="404,-124.5 404,-143.5 478,-143.5 478,-124.5 404,-124.5"/>
<text text-anchor="middle" x="441" y="-131.5" font-family="Helvetica,sans-Serif" font-size="10.00">displayHelp</text>
</a>
</g>
</g>
<!-- Node13&#45;&gt;Node14 -->
<g id="edge18" class="edge">
<title>Node13&#45;&gt;Node14</title>
<path fill="none" stroke="midnightblue" d="M164.62,-190.45C182.55,-184.89 205.95,-178 227,-173 284.06,-159.44 350.67,-147.93 394,-141"/>
<polygon fill="midnightblue" stroke="midnightblue" points="394.63,-144.44 403.96,-139.42 393.53,-137.53 394.63,-144.44"/>
</g>
<!-- Node15 -->
<g id="node15" class="node">
<title>Node15</title>
<g id="a_node15"><a xlink:href="operation__params_8cpp.html#abbd547560acd14f298e5d36dcf0398d3" target="_top" xlink:title="Парсинг строки с RGB&#45;значением цвета.">
<polygon fill="white" stroke="black" points="264.5,-190.5 264.5,-209.5 329.5,-209.5 329.5,-190.5 264.5,-190.5"/>
<text text-anchor="middle" x="297" y="-197.5" font-family="Helvetica,sans-Serif" font-size="10.00">parseRGB</text>
</a>
</g>
</g>
<!-- Node13&#45;&gt;Node15 -->
<g id="edge21" class="edge">
<title>Node13&#45;&gt;Node15</title>
<path fill="none" stroke="midnightblue" d="M191.31,-200C211.97,-200 234.97,-200 254.14,-200"/>
<polygon fill="midnightblue" stroke="midnightblue" points="254.35,-203.5 264.35,-200 254.35,-196.5 254.35,-203.5"/>
</g>
<!-- Node16 -->
<g id="node16" class="node">
<title>Node16</title>
<g id="a_node16"><a xlink:href="operation__params_8cpp.html#acb9b051691fc7054f0232d28aef686c4" target="_top" xlink:title="Парсинг строки с числами, разделенными пробелами.">
<polygon fill="white" stroke="black" points="403,-181.5 403,-200.5 479,-200.5 479,-181.5 403,-181.5"/>
<text text-anchor="middle" x="441" y="-188.5" font-family="Helvetica,sans-Serif" font-size="10.00">parseValues</text>
</a>
</g>
</g>
<!-- Node13&#45;&gt;Node16 -->
<g id="edge24" class="edge">
<title>Node13&#45;&gt;Node16</title>
<path fill="none" stroke="midnightblue" d="M172.33,-190.49C188.95,-186.73 208.83,-182.86 227,-181 288.9,-174.67 304.92,-176.77 367,-181 375.44,-181.58 384.39,-182.52 393.02,-183.61"/>
<polygon fill="midnightblue" stroke="midnightblue" points="392.59,-187.08 402.96,-184.93 393.51,-180.14 392.59,-187.08"/>
</g>
<!-- Node17 -->
<g id="node17" class="node">
<title>Node17</title>
<g id="a_node17"><a xlink:href="class_logger.html#ab7e9747c046ab01e065bde00aa26b44b" target="_top" xlink:title="Устанавливает разрешение использования цветов в выводе.">
<polygon fill="white" stroke="black" points="227,-76.5 227,-95.5 367,-95.5 367,-76.5 227,-76.5"/>
<text text-anchor="middle" x="297" y="-83.5" font-family="Helvetica,sans-Serif" font-size="10.00">Logger::setColorsEnabled</text>
</a>
</g>
</g>
<!-- Node13&#45;&gt;Node17 -->
<g id="edge25" class="edge">
<title>Node13&#45;&gt;Node17</title>
<path fill="none" stroke="midnightblue" d="M142.31,-190.46C156.67,-172.33 190.34,-132.71 227,-110 233.9,-105.73 241.66,-102.09 249.42,-99.04"/>
<polygon fill="midnightblue" stroke="midnightblue" points="250.64,-102.32 258.83,-95.6 248.23,-95.75 250.64,-102.32"/>
</g>
<!-- Node14&#45;&gt;Node6 -->
<g id="edge19" class="edge">
<title>Node14&#45;&gt;Node6</title>
<path fill="none" stroke="midnightblue" d="M456.94,-143.54C494.77,-167.68 594.58,-231.38 640.62,-260.76"/>
<polygon fill="midnightblue" stroke="midnightblue" points="639.02,-263.89 649.33,-266.32 642.78,-257.99 639.02,-263.89"/>
</g>
<!-- Node15&#45;&gt;Node4 -->
<g id="edge22" class="edge">
<title>Node15&#45;&gt;Node4</title>
<path fill="none" stroke="midnightblue" d="M329.65,-206.39C342.19,-210.05 356.16,-215.63 367,-224 398.39,-248.24 420.85,-289.93 432.01,-314.12"/>
<polygon fill="midnightblue" stroke="midnightblue" points="428.83,-315.6 436.09,-323.32 435.23,-312.76 428.83,-315.6"/>
</g>
<!-- Node15&#45;&gt;Node16 -->
<g id="edge23" class="edge">
<title>Node15&#45;&gt;Node16</title>
<path fill="none" stroke="midnightblue" d="M329.51,-198C348.04,-196.83 371.82,-195.32 392.57,-194.01"/>
<polygon fill="midnightblue" stroke="midnightblue" points="393.03,-197.48 402.79,-193.36 392.59,-190.5 393.03,-197.48"/>
</g>
<!-- Node18&#45;&gt;Node4 -->
<g id="edge28" class="edge">
<title>Node18&#45;&gt;Node4</title>
<path fill="none" stroke="midnightblue" d="M327.42,-380.42C339.74,-376.23 354.16,-371.12 367,-366 381.66,-360.15 397.66,-353.01 410.94,-346.86"/>
<polygon fill="midnightblue" stroke="midnightblue" points="412.49,-350 420.07,-342.6 409.53,-343.66 412.49,-350"/>
</g>
<!-- Node19&#45;&gt;Node4 -->
<g id="edge30" class="edge">
<title>Node19&#45;&gt;Node4</title>
<path fill="none" stroke="midnightblue" d="M166.53,-350.18C211.16,-347.58 295.32,-342.62 367,-338 375.66,-337.44 384.89,-336.83 393.77,-336.22"/>
<polygon fill="midnightblue" stroke="midnightblue" points="394.25,-339.7 403.99,-335.52 393.77,-332.72 394.25,-339.7"/>
</g>
</g>
</svg>
