<?xml version="1.0" encoding="UTF-8" standalone="no"?>
<!DOCTYPE svg PUBLIC "-//W3C//DTD SVG 1.1//EN"
 "http://www.w3.org/Graphics/SVG/1.1/DTD/svg11.dtd">
<!-- Generated by graphviz version 2.43.0 (0)
 -->
<!-- Title: source/main.cpp Pages: 1 -->
<svg width="732pt" height="252pt"
 viewBox="0.00 0.00 732.00 252.00" xmlns="http://www.w3.org/2000/svg" xmlns:xlink="http://www.w3.org/1999/xlink">
<g id="graph0" class="graph" transform="scale(1 1) rotate(0) translate(4 248)">
<title>source/main.cpp</title>
<polygon fill="white" stroke="transparent" points="-4,4 -4,-248 728,-248 728,4 -4,4"/>
<!-- Node1 -->
<g id="node1" class="node">
<title>Node1</title>
<g id="a_node1"><a xlink:title="Главный файл программы">
<polygon fill="#bfbfbf" stroke="black" points="482,-224.5 482,-243.5 579,-243.5 579,-224.5 482,-224.5"/>
<text text-anchor="middle" x="530.5" y="-231.5" font-family="Helvetica,sans-Serif" font-size="10.00">source/main.cpp</text>
</a>
</g>
</g>
<!-- Node2 -->
<g id="node2" class="node">
<title>Node2</title>
<g id="a_node2"><a xlink:href="bmp_8hpp.html" target="_top" xlink:title=" ">
<polygon fill="white" stroke="black" points="460,-168.5 460,-187.5 519,-187.5 519,-168.5 460,-168.5"/>
<text text-anchor="middle" x="489.5" y="-175.5" font-family="Helvetica,sans-Serif" font-size="10.00">bmp.hpp</text>
</a>
</g>
</g>
<!-- Node1&#45;&gt;Node2 -->
<g id="edge1" class="edge">
<title>Node1&#45;&gt;Node2</title>
<path fill="none" stroke="midnightblue" d="M523.73,-224.08C517.94,-216.46 509.44,-205.26 502.36,-195.94"/>
<polygon fill="midnightblue" stroke="midnightblue" points="504.98,-193.6 496.14,-187.75 499.4,-197.83 504.98,-193.6"/>
</g>
<!-- Node3 -->
<g id="node3" class="node">
<title>Node3</title>
<g id="a_node3"><a xlink:href="operation__params_8hpp.html" target="_top" xlink:title=" ">
<polygon fill="white" stroke="black" points="253.5,-112.5 253.5,-131.5 379.5,-131.5 379.5,-112.5 253.5,-112.5"/>
<text text-anchor="middle" x="316.5" y="-119.5" font-family="Helvetica,sans-Serif" font-size="10.00">operation_params.hpp</text>
</a>
</g>
</g>
<!-- Node1&#45;&gt;Node3 -->
<g id="edge19" class="edge">
<title>Node1&#45;&gt;Node3</title>
<path fill="none" stroke="midnightblue" d="M513.71,-224.37C476.44,-205.21 386.61,-159.04 342.21,-136.22"/>
<polygon fill="midnightblue" stroke="midnightblue" points="343.71,-133.05 333.21,-131.59 340.51,-139.28 343.71,-133.05"/>
</g>
<!-- Node14 -->
<g id="node14" class="node">
<title>Node14</title>
<g id="a_node14"><a xlink:href="logger_8hpp.html" target="_top" xlink:title=" ">
<polygon fill="white" stroke="black" points="550.5,-168.5 550.5,-187.5 618.5,-187.5 618.5,-168.5 550.5,-168.5"/>
<text text-anchor="middle" x="584.5" y="-175.5" font-family="Helvetica,sans-Serif" font-size="10.00">logger.hpp</text>
</a>
</g>
</g>
<!-- Node1&#45;&gt;Node14 -->
<g id="edge15" class="edge">
<title>Node1&#45;&gt;Node14</title>
<path fill="none" stroke="midnightblue" d="M539.42,-224.08C547.28,-216.22 558.93,-204.57 568.42,-195.08"/>
<polygon fill="midnightblue" stroke="midnightblue" points="571.15,-197.3 575.75,-187.75 566.2,-192.35 571.15,-197.3"/>
</g>
<!-- Node16 -->
<g id="node16" class="node">
<title>Node16</title>
<g id="a_node16"><a xlink:href="messages_8hpp.html" target="_top" xlink:title=" ">
<polygon fill="white" stroke="black" points="637,-168.5 637,-187.5 724,-187.5 724,-168.5 637,-168.5"/>
<text text-anchor="middle" x="680.5" y="-175.5" font-family="Helvetica,sans-Serif" font-size="10.00">messages.hpp</text>
</a>
</g>
</g>
<!-- Node1&#45;&gt;Node16 -->
<g id="edge18" class="edge">
<title>Node1&#45;&gt;Node16</title>
<path fill="none" stroke="midnightblue" d="M554.27,-224.44C579.39,-215.4 619.21,-201.06 647.4,-190.92"/>
<polygon fill="midnightblue" stroke="midnightblue" points="648.62,-194.2 656.84,-187.52 646.25,-187.61 648.62,-194.2"/>
</g>
<!-- Node2&#45;&gt;Node3 -->
<g id="edge2" class="edge">
<title>Node2&#45;&gt;Node3</title>
<path fill="none" stroke="midnightblue" d="M462.09,-168.44C432.73,-159.28 385.98,-144.69 353.4,-134.52"/>
<polygon fill="midnightblue" stroke="midnightblue" points="354.37,-131.16 343.78,-131.52 352.29,-137.84 354.37,-131.16"/>
</g>
<!-- Node4 -->
<g id="node4" class="node">
<title>Node4</title>
<g id="a_node4"><a xlink:href="structures_8hpp.html" target="_top" xlink:title=" ">
<polygon fill="white" stroke="black" points="505.5,-56.5 505.5,-75.5 591.5,-75.5 591.5,-56.5 505.5,-56.5"/>
<text text-anchor="middle" x="548.5" y="-63.5" font-family="Helvetica,sans-Serif" font-size="10.00">structures.hpp</text>
</a>
</g>
</g>
<!-- Node2&#45;&gt;Node4 -->
<g id="edge12" class="edge">
<title>Node2&#45;&gt;Node4</title>
<path fill="none" stroke="midnightblue" d="M494.13,-168.37C503.78,-150.38 526.21,-108.55 539.05,-84.63"/>
<polygon fill="midnightblue" stroke="midnightblue" points="542.25,-86.06 543.89,-75.59 536.08,-82.75 542.25,-86.06"/>
</g>
<!-- Node8 -->
<g id="node8" class="node">
<title>Node8</title>
<g id="a_node8"><a xlink:title=" ">
<polygon fill="white" stroke="#bfbfbf" points="437.5,-56.5 437.5,-75.5 487.5,-75.5 487.5,-56.5 437.5,-56.5"/>
<text text-anchor="middle" x="462.5" y="-63.5" font-family="Helvetica,sans-Serif" font-size="10.00">cstring</text>
</a>
</g>
</g>
<!-- Node2&#45;&gt;Node8 -->
<g id="edge13" class="edge">
<title>Node2&#45;&gt;Node8</title>
<path fill="none" stroke="midnightblue" d="M487.38,-168.37C483.02,-150.62 472.97,-109.67 467.06,-85.6"/>
<polygon fill="midnightblue" stroke="midnightblue" points="470.39,-84.47 464.61,-75.59 463.59,-86.14 470.39,-84.47"/>
</g>
<!-- Node13 -->
<g id="node13" class="node">
<title>Node13</title>
<g id="a_node13"><a xlink:title=" ">
<polygon fill="white" stroke="#bfbfbf" points="406,-112.5 406,-131.5 461,-131.5 461,-112.5 406,-112.5"/>
<text text-anchor="middle" x="433.5" y="-119.5" font-family="Helvetica,sans-Serif" font-size="10.00">fstream</text>
</a>
</g>
</g>
<!-- Node2&#45;&gt;Node13 -->
<g id="edge14" class="edge">
<title>Node2&#45;&gt;Node13</title>
<path fill="none" stroke="midnightblue" d="M480.5,-168.32C472.31,-160.42 459.99,-148.55 450.03,-138.94"/>
<polygon fill="midnightblue" stroke="midnightblue" points="452.29,-136.26 442.66,-131.83 447.43,-141.29 452.29,-136.26"/>
</g>
<!-- Node3&#45;&gt;Node4 -->
<g id="edge3" class="edge">
<title>Node3&#45;&gt;Node4</title>
<path fill="none" stroke="midnightblue" d="M353.26,-112.44C393.56,-103.06 458.31,-87.99 502.08,-77.8"/>
<polygon fill="midnightblue" stroke="midnightblue" points="502.96,-81.19 511.91,-75.52 501.38,-74.37 502.96,-81.19"/>
</g>
<!-- Node6 -->
<g id="node6" class="node">
<title>Node6</title>
<g id="a_node6"><a xlink:title=" ">
<polygon fill="white" stroke="#bfbfbf" points="362,-56.5 362,-75.5 419,-75.5 419,-56.5 362,-56.5"/>
<text text-anchor="middle" x="390.5" y="-63.5" font-family="Helvetica,sans-Serif" font-size="10.00">getopt.h</text>
</a>
</g>
</g>
<!-- Node3&#45;&gt;Node6 -->
<g id="edge5" class="edge">
<title>Node3&#45;&gt;Node6</title>
<path fill="none" stroke="midnightblue" d="M328.39,-112.32C339.65,-104.11 356.79,-91.6 370.21,-81.81"/>
<polygon fill="midnightblue" stroke="midnightblue" points="372.38,-84.56 378.39,-75.83 368.25,-78.9 372.38,-84.56"/>
</g>
<!-- Node7 -->
<g id="node7" class="node">
<title>Node7</title>
<g id="a_node7"><a xlink:title=" ">
<polygon fill="white" stroke="#bfbfbf" points="0,-56.5 0,-75.5 47,-75.5 47,-56.5 0,-56.5"/>
<text text-anchor="middle" x="23.5" y="-63.5" font-family="Helvetica,sans-Serif" font-size="10.00">vector</text>
</a>
</g>
</g>
<!-- Node3&#45;&gt;Node7 -->
<g id="edge6" class="edge">
<title>Node3&#45;&gt;Node7</title>
<path fill="none" stroke="midnightblue" d="M256.55,-112.47C205.7,-104.82 130.68,-92.58 57.1,-76.19"/>
<polygon fill="midnightblue" stroke="midnightblue" points="57.72,-72.74 47.2,-73.96 56.18,-79.57 57.72,-72.74"/>
</g>
<!-- Node3&#45;&gt;Node8 -->
<g id="edge7" class="edge">
<title>Node3&#45;&gt;Node8</title>
<path fill="none" stroke="midnightblue" d="M339.63,-112.44C363.98,-103.44 402.51,-89.19 429.92,-79.05"/>
<polygon fill="midnightblue" stroke="midnightblue" points="431.31,-82.27 439.47,-75.52 428.88,-75.7 431.31,-82.27"/>
</g>
<!-- Node9 -->
<g id="node9" class="node">
<title>Node9</title>
<g id="a_node9"><a xlink:title=" ">
<polygon fill="white" stroke="#bfbfbf" points="65,-56.5 65,-75.5 130,-75.5 130,-56.5 65,-56.5"/>
<text text-anchor="middle" x="97.5" y="-63.5" font-family="Helvetica,sans-Serif" font-size="10.00">functional</text>
</a>
</g>
</g>
<!-- Node3&#45;&gt;Node9 -->
<g id="edge8" class="edge">
<title>Node3&#45;&gt;Node9</title>
<path fill="none" stroke="midnightblue" d="M281.8,-112.44C243.36,-102.96 181.36,-87.68 140.03,-77.49"/>
<polygon fill="midnightblue" stroke="midnightblue" points="140.8,-74.07 130.25,-75.08 139.12,-80.87 140.8,-74.07"/>
</g>
<!-- Node10 -->
<g id="node10" class="node">
<title>Node10</title>
<g id="a_node10"><a xlink:title=" ">
<polygon fill="white" stroke="#bfbfbf" points="148.5,-56.5 148.5,-75.5 186.5,-75.5 186.5,-56.5 148.5,-56.5"/>
<text text-anchor="middle" x="167.5" y="-63.5" font-family="Helvetica,sans-Serif" font-size="10.00">map</text>
</a>
</g>
</g>
<!-- Node3&#45;&gt;Node10 -->
<g id="edge9" class="edge">
<title>Node3&#45;&gt;Node10</title>
<path fill="none" stroke="midnightblue" d="M292.89,-112.44C266.73,-102.96 224.52,-87.67 196.4,-77.47"/>
<polygon fill="midnightblue" stroke="midnightblue" points="197.33,-74.09 186.73,-73.97 194.94,-80.67 197.33,-74.09"/>
</g>
<!-- Node11 -->
<g id="node11" class="node">
<title>Node11</title>
<g id="a_node11"><a xlink:title=" ">
<polygon fill="white" stroke="#bfbfbf" points="204.5,-56.5 204.5,-75.5 260.5,-75.5 260.5,-56.5 204.5,-56.5"/>
<text text-anchor="middle" x="232.5" y="-63.5" font-family="Helvetica,sans-Serif" font-size="10.00">sstream</text>
</a>
</g>
</g>
<!-- Node3&#45;&gt;Node11 -->
<g id="edge10" class="edge">
<title>Node3&#45;&gt;Node11</title>
<path fill="none" stroke="midnightblue" d="M303,-112.32C289.9,-103.9 269.79,-90.97 254.39,-81.07"/>
<polygon fill="midnightblue" stroke="midnightblue" points="256.27,-78.12 245.96,-75.65 252.48,-84.01 256.27,-78.12"/>
</g>
<!-- Node12 -->
<g id="node12" class="node">
<title>Node12</title>
<g id="a_node12"><a xlink:title=" ">
<polygon fill="white" stroke="#bfbfbf" points="279,-56.5 279,-75.5 344,-75.5 344,-56.5 279,-56.5"/>
<text text-anchor="middle" x="311.5" y="-63.5" font-family="Helvetica,sans-Serif" font-size="10.00">stdexcept</text>
</a>
</g>
</g>
<!-- Node3&#45;&gt;Node12 -->
<g id="edge11" class="edge">
<title>Node3&#45;&gt;Node12</title>
<path fill="none" stroke="midnightblue" d="M315.67,-112.08C315.02,-105.01 314.08,-94.86 313.26,-85.99"/>
<polygon fill="midnightblue" stroke="midnightblue" points="316.72,-85.39 312.31,-75.75 309.75,-86.03 316.72,-85.39"/>
</g>
<!-- Node5 -->
<g id="node5" class="node">
<title>Node5</title>
<g id="a_node5"><a xlink:title=" ">
<polygon fill="white" stroke="#bfbfbf" points="561.5,-0.5 561.5,-19.5 605.5,-19.5 605.5,-0.5 561.5,-0.5"/>
<text text-anchor="middle" x="583.5" y="-7.5" font-family="Helvetica,sans-Serif" font-size="10.00">string</text>
</a>
</g>
</g>
<!-- Node4&#45;&gt;Node5 -->
<g id="edge4" class="edge">
<title>Node4&#45;&gt;Node5</title>
<path fill="none" stroke="midnightblue" d="M554.28,-56.08C559.17,-48.53 566.33,-37.49 572.33,-28.23"/>
<polygon fill="midnightblue" stroke="midnightblue" points="575.33,-30.05 577.83,-19.75 569.45,-26.24 575.33,-30.05"/>
</g>
<!-- Node14&#45;&gt;Node5 -->
<g id="edge17" class="edge">
<title>Node14&#45;&gt;Node5</title>
<path fill="none" stroke="midnightblue" d="M587.46,-168.45C593.92,-148.6 608.15,-97.9 600.5,-56 598.81,-46.76 595.33,-36.95 591.95,-28.85"/>
<polygon fill="midnightblue" stroke="midnightblue" points="595.13,-27.4 587.87,-19.69 588.74,-30.25 595.13,-27.4"/>
</g>
<!-- Node15 -->
<g id="node15" class="node">
<title>Node15</title>
<g id="a_node15"><a xlink:title=" ">
<polygon fill="white" stroke="#bfbfbf" points="647.5,-112.5 647.5,-131.5 707.5,-131.5 707.5,-112.5 647.5,-112.5"/>
<text text-anchor="middle" x="677.5" y="-119.5" font-family="Helvetica,sans-Serif" font-size="10.00">iostream</text>
</a>
</g>
</g>
<!-- Node14&#45;&gt;Node15 -->
<g id="edge16" class="edge">
<title>Node14&#45;&gt;Node15</title>
<path fill="none" stroke="midnightblue" d="M599.44,-168.32C614.09,-159.82 636.63,-146.73 653.74,-136.8"/>
<polygon fill="midnightblue" stroke="midnightblue" points="655.7,-139.7 662.6,-131.65 652.19,-133.65 655.7,-139.7"/>
</g>
</g>
</svg>
