<?xml version="1.0" encoding="UTF-8" standalone="no"?>
<!DOCTYPE svg PUBLIC "-//W3C//DTD SVG 1.1//EN"
 "http://www.w3.org/Graphics/SVG/1.1/DTD/svg11.dtd">
<!-- Generated by graphviz version 2.43.0 (0)
 -->
<!-- Title: main Pages: 1 -->
<svg width="444pt" height="142pt"
 viewBox="0.00 0.00 444.00 142.00" xmlns="http://www.w3.org/2000/svg" xmlns:xlink="http://www.w3.org/1999/xlink">
<g id="graph0" class="graph" transform="scale(1 1) rotate(0) translate(4 138)">
<title>main</title>
<polygon fill="white" stroke="transparent" points="-4,4 -4,-138 440,-138 440,4 -4,4"/>
<!-- Node1 -->
<g id="node1" class="node">
<title>Node1</title>
<g id="a_node1"><a xlink:title="Главная функция программы">
<polygon fill="#bfbfbf" stroke="black" points="0,-57.5 0,-76.5 41,-76.5 41,-57.5 0,-57.5"/>
<text text-anchor="middle" x="20.5" y="-64.5" font-family="Helvetica,sans-Serif" font-size="10.00">main</text>
</a>
</g>
</g>
<!-- Node2 -->
<g id="node2" class="node">
<title>Node2</title>
<g id="a_node2"><a xlink:href="operation__params_8cpp.html#a0048eb016cc89e79b003ff63259ea264" target="_top" xlink:title=" ">
<polygon fill="white" stroke="black" points="77,-57.5 77,-76.5 191,-76.5 191,-57.5 77,-57.5"/>
<text text-anchor="middle" x="134" y="-64.5" font-family="Helvetica,sans-Serif" font-size="10.00">parseCommandLine</text>
</a>
</g>
</g>
<!-- Node1&#45;&gt;Node2 -->
<g id="edge1" class="edge">
<title>Node1&#45;&gt;Node2</title>
<path fill="none" stroke="midnightblue" d="M41.18,-67C48.52,-67 57.33,-67 66.55,-67"/>
<polygon fill="midnightblue" stroke="midnightblue" points="66.66,-70.5 76.66,-67 66.66,-63.5 66.66,-70.5"/>
</g>
<!-- Node3 -->
<g id="node3" class="node">
<title>Node3</title>
<g id="a_node3"><a xlink:href="operation__params_8cpp.html#a1451d6a0f33f9d0a02a4b055e5839e6e" target="_top" xlink:title=" ">
<polygon fill="white" stroke="black" points="238.5,-114.5 238.5,-133.5 312.5,-133.5 312.5,-114.5 238.5,-114.5"/>
<text text-anchor="middle" x="275.5" y="-121.5" font-family="Helvetica,sans-Serif" font-size="10.00">displayHelp</text>
</a>
</g>
</g>
<!-- Node2&#45;&gt;Node3 -->
<g id="edge2" class="edge">
<title>Node2&#45;&gt;Node3</title>
<path fill="none" stroke="midnightblue" d="M158.03,-76.6C176.63,-84.32 203.47,-95.43 227,-105 231.49,-106.83 236.23,-108.74 240.91,-110.62"/>
<polygon fill="midnightblue" stroke="midnightblue" points="239.73,-113.92 250.31,-114.39 242.33,-107.42 239.73,-113.92"/>
</g>
<!-- Node4 -->
<g id="node4" class="node">
<title>Node4</title>
<g id="a_node4"><a xlink:href="operation__params_8cpp.html#adfab6ddfafab9bed92ac967c3a0fe0dd" target="_top" xlink:title=" ">
<polygon fill="white" stroke="black" points="227,-76.5 227,-95.5 324,-95.5 324,-76.5 227,-76.5"/>
<text text-anchor="middle" x="275.5" y="-83.5" font-family="Helvetica,sans-Serif" font-size="10.00">parseCoordinate</text>
</a>
</g>
</g>
<!-- Node2&#45;&gt;Node4 -->
<g id="edge3" class="edge">
<title>Node2&#45;&gt;Node4</title>
<path fill="none" stroke="midnightblue" d="M191.34,-74.67C199.72,-75.82 208.38,-76.99 216.79,-78.14"/>
<polygon fill="midnightblue" stroke="midnightblue" points="216.52,-81.64 226.9,-79.52 217.47,-74.7 216.52,-81.64"/>
</g>
<!-- Node5 -->
<g id="node5" class="node">
<title>Node5</title>
<g id="a_node5"><a xlink:href="operation__params_8cpp.html#acb9b051691fc7054f0232d28aef686c4" target="_top" xlink:title=" ">
<polygon fill="white" stroke="black" points="360,-38.5 360,-57.5 436,-57.5 436,-38.5 360,-38.5"/>
<text text-anchor="middle" x="398" y="-45.5" font-family="Helvetica,sans-Serif" font-size="10.00">parseValues</text>
</a>
</g>
</g>
<!-- Node2&#45;&gt;Node5 -->
<g id="edge7" class="edge">
<title>Node2&#45;&gt;Node5</title>
<path fill="none" stroke="midnightblue" d="M191.21,-62.92C238.49,-59.49 305.34,-54.65 349.87,-51.42"/>
<polygon fill="midnightblue" stroke="midnightblue" points="350.13,-54.91 359.85,-50.69 349.62,-47.93 350.13,-54.91"/>
</g>
<!-- Node6 -->
<g id="node6" class="node">
<title>Node6</title>
<g id="a_node6"><a xlink:href="operation__params_8cpp.html#abbd547560acd14f298e5d36dcf0398d3" target="_top" xlink:title=" ">
<polygon fill="white" stroke="black" points="243,-0.5 243,-19.5 308,-19.5 308,-0.5 243,-0.5"/>
<text text-anchor="middle" x="275.5" y="-7.5" font-family="Helvetica,sans-Serif" font-size="10.00">parseRGB</text>
</a>
</g>
</g>
<!-- Node2&#45;&gt;Node6 -->
<g id="edge5" class="edge">
<title>Node2&#45;&gt;Node6</title>
<path fill="none" stroke="midnightblue" d="M158.35,-57.46C181.18,-48.13 216.16,-33.84 241.76,-23.38"/>
<polygon fill="midnightblue" stroke="midnightblue" points="243.14,-26.59 251.07,-19.57 240.49,-20.11 243.14,-26.59"/>
</g>
<!-- Node4&#45;&gt;Node5 -->
<g id="edge4" class="edge">
<title>Node4&#45;&gt;Node5</title>
<path fill="none" stroke="midnightblue" d="M306.91,-76.41C322.03,-71.64 340.52,-65.81 356.8,-60.68"/>
<polygon fill="midnightblue" stroke="midnightblue" points="358.12,-63.93 366.6,-57.59 356.01,-57.26 358.12,-63.93"/>
</g>
<!-- Node6&#45;&gt;Node5 -->
<g id="edge6" class="edge">
<title>Node6&#45;&gt;Node5</title>
<path fill="none" stroke="midnightblue" d="M306.91,-19.59C322.03,-24.36 340.52,-30.19 356.8,-35.32"/>
<polygon fill="midnightblue" stroke="midnightblue" points="356.01,-38.74 366.6,-38.41 358.12,-32.07 356.01,-38.74"/>
</g>
</g>
</svg>
