<?xml version="1.0" encoding="UTF-8" standalone="no"?>
<!DOCTYPE svg PUBLIC "-//W3C//DTD SVG 1.1//EN"
 "http://www.w3.org/Graphics/SVG/1.1/DTD/svg11.dtd">
<!-- Generated by graphviz version 2.43.0 (0)
 -->
<!-- Title: main Pages: 1 -->
<svg width="931pt" height="594pt"
 viewBox="0.00 0.00 931.00 593.71" xmlns="http://www.w3.org/2000/svg" xmlns:xlink="http://www.w3.org/1999/xlink">
<g id="graph0" class="graph" transform="scale(1 1) rotate(0) translate(4 589.71)">
<title>main</title>
<polygon fill="white" stroke="transparent" points="-4,4 -4,-589.71 927,-589.71 927,4 -4,4"/>
<!-- Node1 -->
<g id="node1" class="node">
<title>Node1</title>
<g id="a_node1"><a xlink:title="Главная функция программы">
<polygon fill="#bfbfbf" stroke="black" points="0,-243.21 0,-262.21 41,-262.21 41,-243.21 0,-243.21"/>
<text text-anchor="middle" x="20.5" y="-250.21" font-family="Helvetica,sans-Serif" font-size="10.00">main</text>
</a>
</g>
</g>
<!-- Node2 -->
<g id="node2" class="node">
<title>Node2</title>
<g id="a_node2"><a xlink:href="class_b_m_p.html#a93eafd24ac18b0f450764d631a911e22" target="_top" xlink:title="Заменить цвет на изображении.">
<polygon fill="white" stroke="black" points="80.5,-566.21 80.5,-585.21 187.5,-585.21 187.5,-566.21 80.5,-566.21"/>
<text text-anchor="middle" x="134" y="-573.21" font-family="Helvetica,sans-Serif" font-size="10.00">BMP::colorReplace</text>
</a>
</g>
</g>
<!-- Node1&#45;&gt;Node2 -->
<g id="edge1" class="edge">
<title>Node1&#45;&gt;Node2</title>
<path fill="none" stroke="midnightblue" d="M21.98,-262.36C24.46,-309.03 37.38,-510.82 77,-556.71 78.15,-558.04 79.4,-559.28 80.73,-560.44"/>
<polygon fill="midnightblue" stroke="midnightblue" points="78.86,-563.4 89.09,-566.15 82.81,-557.62 78.86,-563.4"/>
</g>
<!-- Node3 -->
<g id="node3" class="node">
<title>Node3</title>
<g id="a_node3"><a xlink:href="class_b_m_p.html#aa5efccdbbacffe75174e3c126efc06ad" target="_top" xlink:title="Копировать область изображения.">
<polygon fill="white" stroke="black" points="100,-528.21 100,-547.21 168,-547.21 168,-528.21 100,-528.21"/>
<text text-anchor="middle" x="134" y="-535.21" font-family="Helvetica,sans-Serif" font-size="10.00">BMP::copy</text>
</a>
</g>
</g>
<!-- Node1&#45;&gt;Node3 -->
<g id="edge2" class="edge">
<title>Node1&#45;&gt;Node3</title>
<path fill="none" stroke="midnightblue" d="M22.37,-262.32C26.35,-304.61 44.14,-473.71 77,-513.71 80.79,-518.31 85.62,-522.06 90.86,-525.09"/>
<polygon fill="midnightblue" stroke="midnightblue" points="89.42,-528.28 99.94,-529.56 92.51,-522 89.42,-528.28"/>
</g>
<!-- Node4 -->
<g id="node4" class="node">
<title>Node4</title>
<g id="a_node4"><a xlink:href="class_logger.html#ad044e18a74f8f7417e2bf8d8b64a9e3d" target="_top" xlink:title="Записывает сообщение и завершает программу с заданным кодом выхода.">
<polygon fill="white" stroke="black" points="521,-224.21 521,-243.21 595,-243.21 595,-224.21 521,-224.21"/>
<text text-anchor="middle" x="558" y="-231.21" font-family="Helvetica,sans-Serif" font-size="10.00">Logger::exit</text>
</a>
</g>
</g>
<!-- Node1&#45;&gt;Node4 -->
<g id="edge3" class="edge">
<title>Node1&#45;&gt;Node4</title>
<path fill="none" stroke="midnightblue" d="M41.19,-244.55C51.64,-240.58 64.82,-236.15 77,-233.71 219.15,-205.16 258.02,-222.53 403,-221.71 438.11,-221.51 447,-218.92 482,-221.71 491.36,-222.45 501.32,-223.71 510.82,-225.14"/>
<polygon fill="midnightblue" stroke="midnightblue" points="510.47,-228.63 520.9,-226.74 511.57,-221.72 510.47,-228.63"/>
</g>
<!-- Node6 -->
<g id="node6" class="node">
<title>Node6</title>
<g id="a_node6"><a xlink:href="class_logger.html#a6faf175f206bf5734a4824c98296c677" target="_top" xlink:title="Записывает сообщение в лог с определенным цветом.">
<polygon fill="white" stroke="black" points="749,-414.21 749,-433.21 820,-433.21 820,-414.21 749,-414.21"/>
<text text-anchor="middle" x="784.5" y="-421.21" font-family="Helvetica,sans-Serif" font-size="10.00">Logger::log</text>
</a>
</g>
</g>
<!-- Node1&#45;&gt;Node6 -->
<g id="edge11" class="edge">
<title>Node1&#45;&gt;Node6</title>
<path fill="none" stroke="midnightblue" d="M23.08,-262.53C27.44,-286.8 41.75,-350.45 77,-388.71 150.95,-468.95 186.88,-499.71 296,-499.71 296,-499.71 296,-499.71 559,-499.71 629.5,-499.71 647.23,-487.08 713,-461.71 729.08,-455.51 746.11,-446.4 759.4,-438.66"/>
<polygon fill="midnightblue" stroke="midnightblue" points="761.56,-441.45 768.36,-433.33 757.98,-435.44 761.56,-441.45"/>
</g>
<!-- Node9 -->
<g id="node9" class="node">
<title>Node9</title>
<g id="a_node9"><a xlink:href="class_b_m_p.html#acdebc7da18509fc92374934ad7a99ae2" target="_top" xlink:title="Получить информацию о изображении.">
<polygon fill="white" stroke="black" points="403,-452.21 403,-471.21 482,-471.21 482,-452.21 403,-452.21"/>
<text text-anchor="middle" x="442.5" y="-459.21" font-family="Helvetica,sans-Serif" font-size="10.00">BMP::getInfo</text>
</a>
</g>
</g>
<!-- Node1&#45;&gt;Node9 -->
<g id="edge8" class="edge">
<title>Node1&#45;&gt;Node9</title>
<path fill="none" stroke="midnightblue" d="M27.15,-262.32C36.36,-277.5 55.72,-307.47 77,-328.71 135.34,-386.91 150.16,-407.91 227,-437.71 281.02,-458.65 348.02,-463.05 392.63,-463.25"/>
<polygon fill="midnightblue" stroke="midnightblue" points="392.91,-466.75 402.91,-463.23 392.9,-459.75 392.91,-466.75"/>
</g>
<!-- Node10 -->
<g id="node10" class="node">
<title>Node10</title>
<g id="a_node10"><a xlink:href="class_b_m_p.html#a3b83e47741d70614c50d625649979176" target="_top" xlink:title="Проверить, является ли изображение валидным.">
<polygon fill="white" stroke="black" points="95.5,-243.21 95.5,-262.21 172.5,-262.21 172.5,-243.21 95.5,-243.21"/>
<text text-anchor="middle" x="134" y="-250.21" font-family="Helvetica,sans-Serif" font-size="10.00">BMP::isValid</text>
</a>
</g>
</g>
<!-- Node1&#45;&gt;Node10 -->
<g id="edge10" class="edge">
<title>Node1&#45;&gt;Node10</title>
<path fill="none" stroke="midnightblue" d="M41.18,-252.71C53.49,-252.71 69.9,-252.71 85.45,-252.71"/>
<polygon fill="midnightblue" stroke="midnightblue" points="85.49,-256.21 95.49,-252.71 85.49,-249.21 85.49,-256.21"/>
</g>
<!-- Node11 -->
<g id="node11" class="node">
<title>Node11</title>
<g id="a_node11"><a xlink:href="class_b_m_p.html#a6760433189c91bee33a1e884909c3818" target="_top" xlink:title="Отразить изображение относительно указанной оси.">
<polygon fill="white" stroke="black" points="405.5,-110.21 405.5,-129.21 479.5,-129.21 479.5,-110.21 405.5,-110.21"/>
<text text-anchor="middle" x="442.5" y="-117.21" font-family="Helvetica,sans-Serif" font-size="10.00">BMP::mirror</text>
</a>
</g>
</g>
<!-- Node1&#45;&gt;Node11 -->
<g id="edge12" class="edge">
<title>Node1&#45;&gt;Node11</title>
<path fill="none" stroke="midnightblue" d="M23.02,-243.18C27.12,-220.94 40.68,-165.69 77,-141.71 128.02,-108.01 309.13,-112.6 395.29,-116.92"/>
<polygon fill="midnightblue" stroke="midnightblue" points="395.15,-120.41 405.31,-117.44 395.51,-113.42 395.15,-120.41"/>
</g>
<!-- Node12 -->
<g id="node12" class="node">
<title>Node12</title>
<g id="a_node12"><a xlink:href="operation__params_8hpp.html#a0048eb016cc89e79b003ff63259ea264" target="_top" xlink:title="Парсинг командной строки и создание объекта Operations.">
<polygon fill="white" stroke="black" points="77,-300.21 77,-319.21 191,-319.21 191,-300.21 77,-300.21"/>
<text text-anchor="middle" x="134" y="-307.21" font-family="Helvetica,sans-Serif" font-size="10.00">parseCommandLine</text>
</a>
</g>
</g>
<!-- Node1&#45;&gt;Node12 -->
<g id="edge14" class="edge">
<title>Node1&#45;&gt;Node12</title>
<path fill="none" stroke="midnightblue" d="M40.16,-262.25C57.93,-271.33 84.9,-285.12 105.2,-295.49"/>
<polygon fill="midnightblue" stroke="midnightblue" points="103.78,-298.7 114.28,-300.14 106.97,-292.47 103.78,-298.7"/>
</g>
<!-- Node18 -->
<g id="node18" class="node">
<title>Node18</title>
<g id="a_node18"><a xlink:href="class_b_m_p.html#ad6023dacfbf10c0326a59f7e996aba27" target="_top" xlink:title="Сохранить изображение в файл.">
<polygon fill="white" stroke="black" points="408.5,-148.21 408.5,-167.21 476.5,-167.21 476.5,-148.21 408.5,-148.21"/>
<text text-anchor="middle" x="442.5" y="-155.21" font-family="Helvetica,sans-Serif" font-size="10.00">BMP::save</text>
</a>
</g>
</g>
<!-- Node1&#45;&gt;Node18 -->
<g id="edge27" class="edge">
<title>Node1&#45;&gt;Node18</title>
<path fill="none" stroke="midnightblue" d="M25.79,-242.99C33.44,-226.97 51.14,-195.39 77,-181.71 181.46,-126.45 326.96,-138.92 398.42,-149.8"/>
<polygon fill="midnightblue" stroke="midnightblue" points="397.99,-153.27 408.41,-151.38 399.08,-146.36 397.99,-153.27"/>
</g>
<!-- Node19 -->
<g id="node19" class="node">
<title>Node19</title>
<g id="a_node19"><a xlink:href="class_b_m_p.html#aaff3df7f32657d64bf3b5f07e76a4edd" target="_top" xlink:title="Разделить изображение на части.">
<polygon fill="white" stroke="black" points="264.5,-72.21 264.5,-91.21 329.5,-91.21 329.5,-72.21 264.5,-72.21"/>
<text text-anchor="middle" x="297" y="-79.21" font-family="Helvetica,sans-Serif" font-size="10.00">BMP::split</text>
</a>
</g>
</g>
<!-- Node1&#45;&gt;Node19 -->
<g id="edge29" class="edge">
<title>Node1&#45;&gt;Node19</title>
<path fill="none" stroke="midnightblue" d="M21.87,-243.19C23.46,-216.51 31.94,-140.64 77,-105.71 127.83,-66.3 206.38,-68.31 254.3,-74.33"/>
<polygon fill="midnightblue" stroke="midnightblue" points="253.95,-77.81 264.33,-75.7 254.9,-70.88 253.95,-77.81"/>
</g>
<!-- Node20 -->
<g id="node20" class="node">
<title>Node20</title>
<g id="a_node20"><a xlink:href="class_logger.html#a0ba83481220ad6ddb4686d9d77de00d3" target="_top" xlink:title="Записывает предупреждение в лог с желтым цветом.">
<polygon fill="white" stroke="black" points="518,-129.21 518,-148.21 598,-148.21 598,-129.21 518,-129.21"/>
<text text-anchor="middle" x="558" y="-136.21" font-family="Helvetica,sans-Serif" font-size="10.00">Logger::warn</text>
</a>
</g>
</g>
<!-- Node1&#45;&gt;Node20 -->
<g id="edge31" class="edge">
<title>Node1&#45;&gt;Node20</title>
<path fill="none" stroke="midnightblue" d="M20.87,-242.87C19.43,-211.07 19.75,-110.56 77,-66.71 219.9,42.77 316.45,-1.01 482,-71.71 506.93,-82.35 529.2,-104.73 542.88,-120.69"/>
<polygon fill="midnightblue" stroke="midnightblue" points="540.49,-123.29 549.55,-128.78 545.89,-118.84 540.49,-123.29"/>
</g>
<!-- Node5 -->
<g id="node5" class="node">
<title>Node5</title>
<g id="a_node5"><a xlink:href="class_logger.html#a32783adace456c614c77d2944036e31b" target="_top" xlink:title="Записывает ошибку в лог с красным цветом.">
<polygon fill="white" stroke="black" points="634,-281.21 634,-300.21 713,-300.21 713,-281.21 634,-281.21"/>
<text text-anchor="middle" x="673.5" y="-288.21" font-family="Helvetica,sans-Serif" font-size="10.00">Logger::error</text>
</a>
</g>
</g>
<!-- Node4&#45;&gt;Node5 -->
<g id="edge4" class="edge">
<title>Node4&#45;&gt;Node5</title>
<path fill="none" stroke="midnightblue" d="M578,-243.25C596.17,-252.37 623.78,-266.24 644.48,-276.63"/>
<polygon fill="midnightblue" stroke="midnightblue" points="642.93,-279.78 653.44,-281.14 646.08,-273.52 642.93,-279.78"/>
</g>
<!-- Node5&#45;&gt;Node6 -->
<g id="edge5" class="edge">
<title>Node5&#45;&gt;Node6</title>
<path fill="none" stroke="midnightblue" d="M682.34,-300.27C700.48,-322.4 745.57,-377.42 768.94,-405.94"/>
<polygon fill="midnightblue" stroke="midnightblue" points="766.39,-408.35 775.44,-413.87 771.81,-403.92 766.39,-408.35"/>
</g>
<!-- Node7 -->
<g id="node7" class="node">
<title>Node7</title>
<g id="a_node7"><a xlink:href="logger_8cpp.html#a3ae85e4766efbf5abe5eaf6e5c4afc32" target="_top" xlink:title=" ">
<polygon fill="white" stroke="black" points="856,-433.21 856,-452.21 923,-452.21 923,-433.21 856,-433.21"/>
<text text-anchor="middle" x="889.5" y="-440.21" font-family="Helvetica,sans-Serif" font-size="10.00">resetColor</text>
</a>
</g>
</g>
<!-- Node6&#45;&gt;Node7 -->
<g id="edge6" class="edge">
<title>Node6&#45;&gt;Node7</title>
<path fill="none" stroke="midnightblue" d="M820.08,-430.09C828.4,-431.62 837.38,-433.28 846.01,-434.87"/>
<polygon fill="midnightblue" stroke="midnightblue" points="845.45,-438.33 855.92,-436.7 846.72,-431.44 845.45,-438.33"/>
</g>
<!-- Node8 -->
<g id="node8" class="node">
<title>Node8</title>
<g id="a_node8"><a xlink:href="logger_8cpp.html#a81d09f8360558968e2402c1565126734" target="_top" xlink:title=" ">
<polygon fill="white" stroke="black" points="861,-395.21 861,-414.21 918,-414.21 918,-395.21 861,-395.21"/>
<text text-anchor="middle" x="889.5" y="-402.21" font-family="Helvetica,sans-Serif" font-size="10.00">setColor</text>
</a>
</g>
</g>
<!-- Node6&#45;&gt;Node8 -->
<g id="edge7" class="edge">
<title>Node6&#45;&gt;Node8</title>
<path fill="none" stroke="midnightblue" d="M820.08,-417.33C829.89,-415.52 840.61,-413.54 850.6,-411.7"/>
<polygon fill="midnightblue" stroke="midnightblue" points="851.47,-415.1 860.67,-409.84 850.2,-408.21 851.47,-415.1"/>
</g>
<!-- Node9&#45;&gt;Node6 -->
<g id="edge9" class="edge">
<title>Node9&#45;&gt;Node6</title>
<path fill="none" stroke="midnightblue" d="M482.16,-461.32C534.74,-460.25 631.59,-456.41 713,-442.71 722.93,-441.04 733.48,-438.57 743.31,-435.97"/>
<polygon fill="midnightblue" stroke="midnightblue" points="744.53,-439.26 753.25,-433.24 742.68,-432.52 744.53,-439.26"/>
</g>
<!-- Node11&#45;&gt;Node4 -->
<g id="edge13" class="edge">
<title>Node11&#45;&gt;Node4</title>
<path fill="none" stroke="midnightblue" d="M467.3,-129.39C472.41,-132.02 477.6,-135.14 482,-138.71 509.35,-160.85 533.02,-194.68 546.11,-215.43"/>
<polygon fill="midnightblue" stroke="midnightblue" points="543.29,-217.52 551.51,-224.2 549.25,-213.85 543.29,-217.52"/>
</g>
<!-- Node12&#45;&gt;Node4 -->
<g id="edge17" class="edge">
<title>Node12&#45;&gt;Node4</title>
<path fill="none" stroke="midnightblue" d="M148.48,-300.19C169.76,-285.38 210.43,-257.94 227,-252.71 324.19,-221.99 445.37,-224.75 510.46,-229.32"/>
<polygon fill="midnightblue" stroke="midnightblue" points="510.57,-232.84 520.8,-230.1 511.09,-225.86 510.57,-232.84"/>
</g>
<!-- Node13 -->
<g id="node13" class="node">
<title>Node13</title>
<g id="a_node13"><a xlink:href="operation__params_8cpp.html#a1451d6a0f33f9d0a02a4b055e5839e6e" target="_top" xlink:title="Отображение справки о возможных параметрах командной строки.">
<polygon fill="white" stroke="black" points="636.5,-414.21 636.5,-433.21 710.5,-433.21 710.5,-414.21 636.5,-414.21"/>
<text text-anchor="middle" x="673.5" y="-421.21" font-family="Helvetica,sans-Serif" font-size="10.00">displayHelp</text>
</a>
</g>
</g>
<!-- Node12&#45;&gt;Node13 -->
<g id="edge15" class="edge">
<title>Node12&#45;&gt;Node13</title>
<path fill="none" stroke="midnightblue" d="M182.96,-319.27C185.83,-320.82 188.55,-322.62 191,-324.71 220.7,-349.97 194.72,-382.84 227,-404.71 290.92,-448 525.64,-435.37 626.23,-427.67"/>
<polygon fill="midnightblue" stroke="midnightblue" points="626.7,-431.15 636.4,-426.88 626.15,-424.17 626.7,-431.15"/>
</g>
<!-- Node14 -->
<g id="node14" class="node">
<title>Node14</title>
<g id="a_node14"><a xlink:href="operation__params_8cpp.html#adfab6ddfafab9bed92ac967c3a0fe0dd" target="_top" xlink:title=" ">
<polygon fill="white" stroke="black" points="248.5,-262.21 248.5,-281.21 345.5,-281.21 345.5,-262.21 248.5,-262.21"/>
<text text-anchor="middle" x="297" y="-269.21" font-family="Helvetica,sans-Serif" font-size="10.00">parseCoordinate</text>
</a>
</g>
</g>
<!-- Node12&#45;&gt;Node14 -->
<g id="edge18" class="edge">
<title>Node12&#45;&gt;Node14</title>
<path fill="none" stroke="midnightblue" d="M175.63,-300.12C196.97,-295.08 223.31,-288.86 245.91,-283.53"/>
<polygon fill="midnightblue" stroke="midnightblue" points="246.74,-286.93 255.67,-281.23 245.13,-280.12 246.74,-286.93"/>
</g>
<!-- Node15 -->
<g id="node15" class="node">
<title>Node15</title>
<g id="a_node15"><a xlink:href="operation__params_8cpp.html#acb9b051691fc7054f0232d28aef686c4" target="_top" xlink:title="Парсинг строки с числами, разделенными пробелами.">
<polygon fill="white" stroke="black" points="404.5,-300.21 404.5,-319.21 480.5,-319.21 480.5,-300.21 404.5,-300.21"/>
<text text-anchor="middle" x="442.5" y="-307.21" font-family="Helvetica,sans-Serif" font-size="10.00">parseValues</text>
</a>
</g>
</g>
<!-- Node12&#45;&gt;Node15 -->
<g id="edge25" class="edge">
<title>Node12&#45;&gt;Node15</title>
<path fill="none" stroke="midnightblue" d="M191.22,-309.71C249.5,-309.71 339.6,-309.71 394.31,-309.71"/>
<polygon fill="midnightblue" stroke="midnightblue" points="394.43,-313.21 404.43,-309.71 394.43,-306.21 394.43,-313.21"/>
</g>
<!-- Node16 -->
<g id="node16" class="node">
<title>Node16</title>
<g id="a_node16"><a xlink:href="operation__params_8cpp.html#abbd547560acd14f298e5d36dcf0398d3" target="_top" xlink:title="Парсинг строки с RGB&#45;значением цвета.">
<polygon fill="white" stroke="black" points="264.5,-376.21 264.5,-395.21 329.5,-395.21 329.5,-376.21 264.5,-376.21"/>
<text text-anchor="middle" x="297" y="-383.21" font-family="Helvetica,sans-Serif" font-size="10.00">parseRGB</text>
</a>
</g>
</g>
<!-- Node12&#45;&gt;Node16 -->
<g id="edge22" class="edge">
<title>Node12&#45;&gt;Node16</title>
<path fill="none" stroke="midnightblue" d="M147.75,-319.26C164.94,-331.74 196.87,-353.55 227,-366.71 235.7,-370.5 245.35,-373.73 254.6,-376.38"/>
<polygon fill="midnightblue" stroke="midnightblue" points="253.87,-379.81 264.44,-379.04 255.69,-373.05 253.87,-379.81"/>
</g>
<!-- Node17 -->
<g id="node17" class="node">
<title>Node17</title>
<g id="a_node17"><a xlink:href="class_logger.html#ab7e9747c046ab01e065bde00aa26b44b" target="_top" xlink:title="Устанавливает разрешение использования цветов в выводе.">
<polygon fill="white" stroke="black" points="227,-338.21 227,-357.21 367,-357.21 367,-338.21 227,-338.21"/>
<text text-anchor="middle" x="297" y="-345.21" font-family="Helvetica,sans-Serif" font-size="10.00">Logger::setColorsEnabled</text>
</a>
</g>
</g>
<!-- Node12&#45;&gt;Node17 -->
<g id="edge26" class="edge">
<title>Node12&#45;&gt;Node17</title>
<path fill="none" stroke="midnightblue" d="M175.63,-319.3C196.97,-324.33 223.31,-330.55 245.91,-335.88"/>
<polygon fill="midnightblue" stroke="midnightblue" points="245.13,-339.3 255.67,-338.19 246.74,-332.48 245.13,-339.3"/>
</g>
<!-- Node13&#45;&gt;Node6 -->
<g id="edge16" class="edge">
<title>Node13&#45;&gt;Node6</title>
<path fill="none" stroke="midnightblue" d="M710.8,-423.71C719.7,-423.71 729.35,-423.71 738.61,-423.71"/>
<polygon fill="midnightblue" stroke="midnightblue" points="738.84,-427.21 748.84,-423.71 738.84,-420.21 738.84,-427.21"/>
</g>
<!-- Node14&#45;&gt;Node4 -->
<g id="edge19" class="edge">
<title>Node14&#45;&gt;Node4</title>
<path fill="none" stroke="midnightblue" d="M345.76,-266.21C382.96,-261.75 435.86,-255.02 482,-247.71 491.32,-246.23 501.26,-244.49 510.75,-242.75"/>
<polygon fill="midnightblue" stroke="midnightblue" points="511.64,-246.15 520.83,-240.87 510.36,-239.26 511.64,-246.15"/>
</g>
<!-- Node14&#45;&gt;Node15 -->
<g id="edge20" class="edge">
<title>Node14&#45;&gt;Node15</title>
<path fill="none" stroke="midnightblue" d="M334.21,-281.3C352.82,-286.22 375.7,-292.28 395.54,-297.54"/>
<polygon fill="midnightblue" stroke="midnightblue" points="394.74,-300.94 405.3,-300.12 396.53,-294.18 394.74,-300.94"/>
</g>
<!-- Node15&#45;&gt;Node4 -->
<g id="edge21" class="edge">
<title>Node15&#45;&gt;Node4</title>
<path fill="none" stroke="midnightblue" d="M459.34,-300.07C466.34,-295.75 474.63,-290.55 482,-285.71 500.09,-273.81 520.23,-259.8 535.09,-249.32"/>
<polygon fill="midnightblue" stroke="midnightblue" points="537.45,-251.94 543.59,-243.3 533.4,-246.22 537.45,-251.94"/>
</g>
<!-- Node16&#45;&gt;Node4 -->
<g id="edge23" class="edge">
<title>Node16&#45;&gt;Node4</title>
<path fill="none" stroke="midnightblue" d="M329.55,-381.93C368.41,-376 435.02,-361.6 482,-328.71 511.11,-308.33 534.49,-273.42 547,-252.07"/>
<polygon fill="midnightblue" stroke="midnightblue" points="550.08,-253.74 551.97,-243.32 543.99,-250.28 550.08,-253.74"/>
</g>
<!-- Node16&#45;&gt;Node15 -->
<g id="edge24" class="edge">
<title>Node16&#45;&gt;Node15</title>
<path fill="none" stroke="midnightblue" d="M329.5,-379.73C341.61,-376.75 355.32,-372.51 367,-366.71 388.22,-356.17 409.37,-339.21 423.69,-326.52"/>
<polygon fill="midnightblue" stroke="midnightblue" points="426.23,-328.94 431.28,-319.63 421.52,-323.76 426.23,-328.94"/>
</g>
<!-- Node18&#45;&gt;Node4 -->
<g id="edge28" class="edge">
<title>Node18&#45;&gt;Node4</title>
<path fill="none" stroke="midnightblue" d="M459.34,-167.34C466.34,-171.66 474.63,-176.86 482,-181.71 500.09,-193.6 520.23,-207.62 535.09,-218.09"/>
<polygon fill="midnightblue" stroke="midnightblue" points="533.4,-221.19 543.59,-224.11 537.45,-215.48 533.4,-221.19"/>
</g>
<!-- Node19&#45;&gt;Node4 -->
<g id="edge30" class="edge">
<title>Node19&#45;&gt;Node4</title>
<path fill="none" stroke="midnightblue" d="M329.51,-76.72C368.62,-72.26 435.8,-70.43 482,-100.71 492.7,-107.72 529.88,-179.72 547.54,-214.76"/>
<polygon fill="midnightblue" stroke="midnightblue" points="544.54,-216.59 552.16,-223.95 550.8,-213.45 544.54,-216.59"/>
</g>
<!-- Node20&#45;&gt;Node6 -->
<g id="edge32" class="edge">
<title>Node20&#45;&gt;Node6</title>
<path fill="none" stroke="midnightblue" d="M574,-148.4C603.87,-168.33 671.51,-216.72 713,-271.71 745.14,-314.31 767.42,-373.92 777.47,-404.28"/>
<polygon fill="midnightblue" stroke="midnightblue" points="774.22,-405.6 780.61,-414.05 780.88,-403.46 774.22,-405.6"/>
</g>
</g>
</svg>
