<?xml version="1.0" encoding="UTF-8" standalone="no"?>
<!DOCTYPE svg PUBLIC "-//W3C//DTD SVG 1.1//EN"
 "http://www.w3.org/Graphics/SVG/1.1/DTD/svg11.dtd">
<!-- Generated by graphviz version 2.43.0 (0)
 -->
<!-- Title: main Pages: 1 -->
<svg width="925pt" height="598pt"
 viewBox="0.00 0.00 925.00 598.00" xmlns="http://www.w3.org/2000/svg" xmlns:xlink="http://www.w3.org/1999/xlink">
<g id="graph0" class="graph" transform="scale(1 1) rotate(0) translate(4 594)">
<title>main</title>
<polygon fill="white" stroke="transparent" points="-4,4 -4,-594 921,-594 921,4 -4,4"/>
<!-- Node1 -->
<g id="node1" class="node">
<title>Node1</title>
<g id="a_node1"><a xlink:title="Главная функция программы">
<polygon fill="#bfbfbf" stroke="black" points="0,-380.5 0,-399.5 41,-399.5 41,-380.5 0,-380.5"/>
<text text-anchor="middle" x="20.5" y="-387.5" font-family="Helvetica,sans-Serif" font-size="10.00">main</text>
</a>
</g>
</g>
<!-- Node2 -->
<g id="node2" class="node">
<title>Node2</title>
<g id="a_node2"><a xlink:href="class_b_m_p.html#a93eafd24ac18b0f450764d631a911e22" target="_top" xlink:title="Заменить цвет на изображении.">
<polygon fill="white" stroke="black" points="80.5,-570.5 80.5,-589.5 187.5,-589.5 187.5,-570.5 80.5,-570.5"/>
<text text-anchor="middle" x="134" y="-577.5" font-family="Helvetica,sans-Serif" font-size="10.00">BMP::colorReplace</text>
</a>
</g>
</g>
<!-- Node1&#45;&gt;Node2 -->
<g id="edge1" class="edge">
<title>Node1&#45;&gt;Node2</title>
<path fill="none" stroke="midnightblue" d="M22.04,-399.61C24.12,-427.43 33.77,-509.06 77,-556 80.49,-559.79 84.69,-563.01 89.19,-565.74"/>
<polygon fill="midnightblue" stroke="midnightblue" points="87.63,-568.87 98.12,-570.39 90.87,-562.67 87.63,-568.87"/>
</g>
<!-- Node3 -->
<g id="node3" class="node">
<title>Node3</title>
<g id="a_node3"><a xlink:href="class_b_m_p.html#aa5efccdbbacffe75174e3c126efc06ad" target="_top" xlink:title="Копировать область изображения.">
<polygon fill="white" stroke="black" points="100,-114.5 100,-133.5 168,-133.5 168,-114.5 100,-114.5"/>
<text text-anchor="middle" x="134" y="-121.5" font-family="Helvetica,sans-Serif" font-size="10.00">BMP::copy</text>
</a>
</g>
</g>
<!-- Node1&#45;&gt;Node3 -->
<g id="edge2" class="edge">
<title>Node1&#45;&gt;Node3</title>
<path fill="none" stroke="midnightblue" d="M24.66,-380.26C32.62,-355.94 54.51,-290.71 77,-238 91.64,-203.7 111.37,-164.98 123.08,-142.63"/>
<polygon fill="midnightblue" stroke="midnightblue" points="126.28,-144.07 127.85,-133.6 120.09,-140.81 126.28,-144.07"/>
</g>
<!-- Node4 -->
<g id="node4" class="node">
<title>Node4</title>
<g id="a_node4"><a xlink:href="class_logger.html#adaa34620512b5fa13d3098602eb4aef0" target="_top" xlink:title="Записывает сообщение и завершает программу с заданным кодом выхода.">
<polygon fill="white" stroke="black" points="518,-323.5 518,-342.5 592,-342.5 592,-323.5 518,-323.5"/>
<text text-anchor="middle" x="555" y="-330.5" font-family="Helvetica,sans-Serif" font-size="10.00">Logger::exit</text>
</a>
</g>
</g>
<!-- Node1&#45;&gt;Node4 -->
<g id="edge10" class="edge">
<title>Node1&#45;&gt;Node4</title>
<path fill="none" stroke="midnightblue" d="M41.45,-396.68C107.58,-417.65 324.33,-476.82 482,-409 509.28,-397.27 531.07,-369.55 543.26,-351.03"/>
<polygon fill="midnightblue" stroke="midnightblue" points="546.23,-352.88 548.6,-342.56 540.31,-349.15 546.23,-352.88"/>
</g>
<!-- Node6 -->
<g id="node6" class="node">
<title>Node6</title>
<g id="a_node6"><a xlink:href="class_logger.html#ad83dbe66156650acca19d3772ce41229" target="_top" xlink:title="Записывает сообщение в лог с определенным цветом.">
<polygon fill="white" stroke="black" points="743,-152.5 743,-171.5 814,-171.5 814,-152.5 743,-152.5"/>
<text text-anchor="middle" x="778.5" y="-159.5" font-family="Helvetica,sans-Serif" font-size="10.00">Logger::log</text>
</a>
</g>
</g>
<!-- Node1&#45;&gt;Node6 -->
<g id="edge14" class="edge">
<title>Node1&#45;&gt;Node6</title>
<path fill="none" stroke="midnightblue" d="M23.12,-399.51C27.45,-421.75 41.46,-477.28 77,-504 155.96,-563.37 197.21,-542 296,-542 296,-542 296,-542 556,-542 724.49,-542 767.08,-259.7 775.63,-181.74"/>
<polygon fill="midnightblue" stroke="midnightblue" points="779.12,-182.08 776.66,-171.78 772.15,-181.36 779.12,-182.08"/>
</g>
<!-- Node9 -->
<g id="node9" class="node">
<title>Node9</title>
<g id="a_node9"><a xlink:href="class_logger.html#a24b519e0f53e73937f93edd2da37ea76" target="_top" xlink:title="Записывает предупреждение в лог с желтым цветом.">
<polygon fill="white" stroke="black" points="257,-76.5 257,-95.5 337,-95.5 337,-76.5 257,-76.5"/>
<text text-anchor="middle" x="297" y="-83.5" font-family="Helvetica,sans-Serif" font-size="10.00">Logger::warn</text>
</a>
</g>
</g>
<!-- Node1&#45;&gt;Node9 -->
<g id="edge35" class="edge">
<title>Node1&#45;&gt;Node9</title>
<path fill="none" stroke="midnightblue" d="M21.88,-380.45C23.87,-335.19 34.74,-143.01 77,-105 122.7,-63.9 197.57,-66.99 246.82,-74.94"/>
<polygon fill="midnightblue" stroke="midnightblue" points="246.47,-78.43 256.92,-76.69 247.67,-71.53 246.47,-78.43"/>
</g>
<!-- Node10 -->
<g id="node10" class="node">
<title>Node10</title>
<g id="a_node10"><a xlink:href="class_b_m_p.html#acdebc7da18509fc92374934ad7a99ae2" target="_top" xlink:title="Получить информацию о изображении.">
<polygon fill="white" stroke="black" points="403,-38.5 403,-57.5 482,-57.5 482,-38.5 403,-38.5"/>
<text text-anchor="middle" x="442.5" y="-45.5" font-family="Helvetica,sans-Serif" font-size="10.00">BMP::getInfo</text>
</a>
</g>
</g>
<!-- Node1&#45;&gt;Node10 -->
<g id="edge11" class="edge">
<title>Node1&#45;&gt;Node10</title>
<path fill="none" stroke="midnightblue" d="M21.61,-380.48C22.4,-331.66 28.61,-109.98 77,-67 122.46,-26.62 304.58,-36.1 392.94,-43.38"/>
<polygon fill="midnightblue" stroke="midnightblue" points="392.72,-46.88 402.98,-44.23 393.31,-39.9 392.72,-46.88"/>
</g>
<!-- Node11 -->
<g id="node11" class="node">
<title>Node11</title>
<g id="a_node11"><a xlink:href="class_b_m_p.html#a3b83e47741d70614c50d625649979176" target="_top" xlink:title="Проверить, является ли изображение валидным.">
<polygon fill="white" stroke="black" points="95.5,-0.5 95.5,-19.5 172.5,-19.5 172.5,-0.5 95.5,-0.5"/>
<text text-anchor="middle" x="134" y="-7.5" font-family="Helvetica,sans-Serif" font-size="10.00">BMP::isValid</text>
</a>
</g>
</g>
<!-- Node1&#45;&gt;Node11 -->
<g id="edge13" class="edge">
<title>Node1&#45;&gt;Node11</title>
<path fill="none" stroke="midnightblue" d="M21.78,-380.18C23.41,-328.7 33.26,-90.32 77,-34 79.81,-30.38 83.28,-27.29 87.1,-24.67"/>
<polygon fill="midnightblue" stroke="midnightblue" points="88.96,-27.64 95.9,-19.63 85.48,-21.56 88.96,-27.64"/>
</g>
<!-- Node12 -->
<g id="node12" class="node">
<title>Node12</title>
<g id="a_node12"><a xlink:href="class_b_m_p.html#a6760433189c91bee33a1e884909c3818" target="_top" xlink:title="Отразить изображение относительно указанной оси.">
<polygon fill="white" stroke="black" points="405.5,-380.5 405.5,-399.5 479.5,-399.5 479.5,-380.5 405.5,-380.5"/>
<text text-anchor="middle" x="442.5" y="-387.5" font-family="Helvetica,sans-Serif" font-size="10.00">BMP::mirror</text>
</a>
</g>
</g>
<!-- Node1&#45;&gt;Node12 -->
<g id="edge15" class="edge">
<title>Node1&#45;&gt;Node12</title>
<path fill="none" stroke="midnightblue" d="M41.19,-390C104.52,-390 304.06,-390 395.24,-390"/>
<polygon fill="midnightblue" stroke="midnightblue" points="395.28,-393.5 405.28,-390 395.28,-386.5 395.28,-393.5"/>
</g>
<!-- Node13 -->
<g id="node13" class="node">
<title>Node13</title>
<g id="a_node13"><a xlink:href="operation__params_8h.html#a0048eb016cc89e79b003ff63259ea264" target="_top" xlink:title="Парсинг командной строки и создание объекта Operations.">
<polygon fill="white" stroke="black" points="77,-247.5 77,-266.5 191,-266.5 191,-247.5 77,-247.5"/>
<text text-anchor="middle" x="134" y="-254.5" font-family="Helvetica,sans-Serif" font-size="10.00">parseCommandLine</text>
</a>
</g>
</g>
<!-- Node1&#45;&gt;Node13 -->
<g id="edge17" class="edge">
<title>Node1&#45;&gt;Node13</title>
<path fill="none" stroke="midnightblue" d="M29.52,-380.43C48.07,-358.3 94.2,-303.29 118.1,-274.77"/>
<polygon fill="midnightblue" stroke="midnightblue" points="121.01,-276.75 124.75,-266.84 115.65,-272.25 121.01,-276.75"/>
</g>
<!-- Node19 -->
<g id="node19" class="node">
<title>Node19</title>
<g id="a_node19"><a xlink:href="class_b_m_p.html#ad6023dacfbf10c0326a59f7e996aba27" target="_top" xlink:title="Сохранить изображение в файл.">
<polygon fill="white" stroke="black" points="408.5,-494.5 408.5,-513.5 476.5,-513.5 476.5,-494.5 408.5,-494.5"/>
<text text-anchor="middle" x="442.5" y="-501.5" font-family="Helvetica,sans-Serif" font-size="10.00">BMP::save</text>
</a>
</g>
</g>
<!-- Node1&#45;&gt;Node19 -->
<g id="edge31" class="edge">
<title>Node1&#45;&gt;Node19</title>
<path fill="none" stroke="midnightblue" d="M25.09,-399.6C32.11,-416.92 49.45,-453.17 77,-470 178.32,-531.9 325.87,-521.56 398.22,-511.46"/>
<polygon fill="midnightblue" stroke="midnightblue" points="398.95,-514.89 408.34,-509.97 397.93,-507.96 398.95,-514.89"/>
</g>
<!-- Node20 -->
<g id="node20" class="node">
<title>Node20</title>
<g id="a_node20"><a xlink:href="class_b_m_p.html#aaff3df7f32657d64bf3b5f07e76a4edd" target="_top" xlink:title="Разделить изображение на части.">
<polygon fill="white" stroke="black" points="410,-456.5 410,-475.5 475,-475.5 475,-456.5 410,-456.5"/>
<text text-anchor="middle" x="442.5" y="-463.5" font-family="Helvetica,sans-Serif" font-size="10.00">BMP::split</text>
</a>
</g>
</g>
<!-- Node1&#45;&gt;Node20 -->
<g id="edge33" class="edge">
<title>Node1&#45;&gt;Node20</title>
<path fill="none" stroke="midnightblue" d="M28.45,-399.77C37.86,-412.12 55.92,-432.86 77,-442 185.46,-489.05 329.26,-480.3 399.4,-472.07"/>
<polygon fill="midnightblue" stroke="midnightblue" points="400.11,-475.51 409.61,-470.81 399.26,-468.56 400.11,-475.51"/>
</g>
<!-- Node3&#45;&gt;Node4 -->
<g id="edge3" class="edge">
<title>Node3&#45;&gt;Node4</title>
<path fill="none" stroke="midnightblue" d="M168.18,-128.08C234.72,-137.78 386.29,-167.74 482,-248 505.96,-268.09 528.38,-296.71 541.64,-315.07"/>
<polygon fill="midnightblue" stroke="midnightblue" points="538.91,-317.27 547.54,-323.41 544.62,-313.22 538.91,-317.27"/>
</g>
<!-- Node3&#45;&gt;Node9 -->
<g id="edge8" class="edge">
<title>Node3&#45;&gt;Node9</title>
<path fill="none" stroke="midnightblue" d="M168.36,-116.13C191.05,-110.77 221.44,-103.6 246.88,-97.59"/>
<polygon fill="midnightblue" stroke="midnightblue" points="247.79,-100.97 256.72,-95.27 246.19,-94.16 247.79,-100.97"/>
</g>
<!-- Node5 -->
<g id="node5" class="node">
<title>Node5</title>
<g id="a_node5"><a xlink:href="class_logger.html#ab6042fdfcbb14026098e0df9d6b32f27" target="_top" xlink:title="Записывает ошибку в лог с красным цветом.">
<polygon fill="white" stroke="black" points="628,-247.5 628,-266.5 707,-266.5 707,-247.5 628,-247.5"/>
<text text-anchor="middle" x="667.5" y="-254.5" font-family="Helvetica,sans-Serif" font-size="10.00">Logger::error</text>
</a>
</g>
</g>
<!-- Node4&#45;&gt;Node5 -->
<g id="edge4" class="edge">
<title>Node4&#45;&gt;Node5</title>
<path fill="none" stroke="midnightblue" d="M569.99,-323.37C588.68,-310.53 621.98,-287.62 644.15,-272.37"/>
<polygon fill="midnightblue" stroke="midnightblue" points="646.36,-275.1 652.62,-266.55 642.4,-269.33 646.36,-275.1"/>
</g>
<!-- Node5&#45;&gt;Node6 -->
<g id="edge5" class="edge">
<title>Node5&#45;&gt;Node6</title>
<path fill="none" stroke="midnightblue" d="M679.75,-247.19C698.45,-230.89 736.11,-198.07 758.83,-178.27"/>
<polygon fill="midnightblue" stroke="midnightblue" points="761.23,-180.82 766.47,-171.61 756.63,-175.55 761.23,-180.82"/>
</g>
<!-- Node7 -->
<g id="node7" class="node">
<title>Node7</title>
<g id="a_node7"><a xlink:href="logger_8cpp.html#afe00396766eb6b8ca4674de4c5d3d949" target="_top" xlink:title=" ">
<polygon fill="white" stroke="black" points="850,-171.5 850,-190.5 917,-190.5 917,-171.5 850,-171.5"/>
<text text-anchor="middle" x="883.5" y="-178.5" font-family="Helvetica,sans-Serif" font-size="10.00">resetColor</text>
</a>
</g>
</g>
<!-- Node6&#45;&gt;Node7 -->
<g id="edge6" class="edge">
<title>Node6&#45;&gt;Node7</title>
<path fill="none" stroke="midnightblue" d="M814.08,-168.38C822.4,-169.91 831.38,-171.57 840.01,-173.16"/>
<polygon fill="midnightblue" stroke="midnightblue" points="839.45,-176.62 849.92,-174.99 840.72,-169.73 839.45,-176.62"/>
</g>
<!-- Node8 -->
<g id="node8" class="node">
<title>Node8</title>
<g id="a_node8"><a xlink:href="logger_8cpp.html#a47a17bf6298ba8d1f42d32b14449e277" target="_top" xlink:title=" ">
<polygon fill="white" stroke="black" points="855,-133.5 855,-152.5 912,-152.5 912,-133.5 855,-133.5"/>
<text text-anchor="middle" x="883.5" y="-140.5" font-family="Helvetica,sans-Serif" font-size="10.00">setColor</text>
</a>
</g>
</g>
<!-- Node6&#45;&gt;Node8 -->
<g id="edge7" class="edge">
<title>Node6&#45;&gt;Node8</title>
<path fill="none" stroke="midnightblue" d="M814.08,-155.62C823.89,-153.81 834.61,-151.83 844.6,-149.99"/>
<polygon fill="midnightblue" stroke="midnightblue" points="845.47,-153.39 854.67,-148.13 844.2,-146.51 845.47,-153.39"/>
</g>
<!-- Node9&#45;&gt;Node6 -->
<g id="edge9" class="edge">
<title>Node9&#45;&gt;Node6</title>
<path fill="none" stroke="midnightblue" d="M337.24,-92.22C425.63,-106.23 639.86,-140.18 733.01,-154.95"/>
<polygon fill="midnightblue" stroke="midnightblue" points="732.54,-158.42 742.96,-156.53 733.63,-151.5 732.54,-158.42"/>
</g>
<!-- Node10&#45;&gt;Node6 -->
<g id="edge12" class="edge">
<title>Node10&#45;&gt;Node6</title>
<path fill="none" stroke="midnightblue" d="M482.43,-42.39C536.41,-36.55 635.39,-33.01 707,-72 736.34,-87.98 757.58,-121.86 768.68,-143.19"/>
<polygon fill="midnightblue" stroke="midnightblue" points="765.61,-144.86 773.19,-152.26 771.88,-141.74 765.61,-144.86"/>
</g>
<!-- Node12&#45;&gt;Node4 -->
<g id="edge16" class="edge">
<title>Node12&#45;&gt;Node4</title>
<path fill="none" stroke="midnightblue" d="M462.24,-380.33C479.89,-371.23 506.53,-357.48 526.57,-347.15"/>
<polygon fill="midnightblue" stroke="midnightblue" points="528.25,-350.22 535.53,-342.53 525.04,-344 528.25,-350.22"/>
</g>
<!-- Node13&#45;&gt;Node4 -->
<g id="edge20" class="edge">
<title>Node13&#45;&gt;Node4</title>
<path fill="none" stroke="midnightblue" d="M191.29,-248.3C262.36,-239.89 386.83,-233.88 482,-276 503.45,-285.49 524.02,-302.9 537.65,-315.99"/>
<polygon fill="midnightblue" stroke="midnightblue" points="535.25,-318.55 544.82,-323.11 540.18,-313.58 535.25,-318.55"/>
</g>
<!-- Node13&#45;&gt;Node9 -->
<g id="edge30" class="edge">
<title>Node13&#45;&gt;Node9</title>
<path fill="none" stroke="midnightblue" d="M142.46,-247.29C157.6,-227.77 193.39,-182.67 227,-148 242.93,-131.57 262.44,-114.27 276.64,-102.14"/>
<polygon fill="midnightblue" stroke="midnightblue" points="278.95,-104.77 284.32,-95.63 274.43,-99.42 278.95,-104.77"/>
</g>
<!-- Node14 -->
<g id="node14" class="node">
<title>Node14</title>
<g id="a_node14"><a xlink:href="operation__params_8cpp.html#a1451d6a0f33f9d0a02a4b055e5839e6e" target="_top" xlink:title="Отображение справки о возможных параметрах командной строки.">
<polygon fill="white" stroke="black" points="518,-152.5 518,-171.5 592,-171.5 592,-152.5 518,-152.5"/>
<text text-anchor="middle" x="555" y="-159.5" font-family="Helvetica,sans-Serif" font-size="10.00">displayHelp</text>
</a>
</g>
</g>
<!-- Node13&#45;&gt;Node14 -->
<g id="edge18" class="edge">
<title>Node13&#45;&gt;Node14</title>
<path fill="none" stroke="midnightblue" d="M142.89,-247.32C157.43,-230.28 190.36,-195.39 227,-181 321.21,-144 442.48,-149.26 507.64,-155.91"/>
<polygon fill="midnightblue" stroke="midnightblue" points="507.29,-159.39 517.61,-156.98 508.04,-152.43 507.29,-159.39"/>
</g>
<!-- Node15 -->
<g id="node15" class="node">
<title>Node15</title>
<g id="a_node15"><a xlink:href="operation__params_8cpp.html#adfab6ddfafab9bed92ac967c3a0fe0dd" target="_top" xlink:title=" ">
<polygon fill="white" stroke="black" points="248.5,-266.5 248.5,-285.5 345.5,-285.5 345.5,-266.5 248.5,-266.5"/>
<text text-anchor="middle" x="297" y="-273.5" font-family="Helvetica,sans-Serif" font-size="10.00">parseCoordinate</text>
</a>
</g>
</g>
<!-- Node13&#45;&gt;Node15 -->
<g id="edge21" class="edge">
<title>Node13&#45;&gt;Node15</title>
<path fill="none" stroke="midnightblue" d="M191.31,-263.65C206.41,-265.43 222.77,-267.36 237.97,-269.15"/>
<polygon fill="midnightblue" stroke="midnightblue" points="237.93,-272.67 248.27,-270.37 238.75,-265.72 237.93,-272.67"/>
</g>
<!-- Node16 -->
<g id="node16" class="node">
<title>Node16</title>
<g id="a_node16"><a xlink:href="operation__params_8cpp.html#acb9b051691fc7054f0232d28aef686c4" target="_top" xlink:title="Парсинг строки с числами, разделенными пробелами.">
<polygon fill="white" stroke="black" points="404.5,-304.5 404.5,-323.5 480.5,-323.5 480.5,-304.5 404.5,-304.5"/>
<text text-anchor="middle" x="442.5" y="-311.5" font-family="Helvetica,sans-Serif" font-size="10.00">parseValues</text>
</a>
</g>
</g>
<!-- Node13&#45;&gt;Node16 -->
<g id="edge28" class="edge">
<title>Node13&#45;&gt;Node16</title>
<path fill="none" stroke="midnightblue" d="M153.46,-266.59C171.65,-275.56 200.48,-288.51 227,-295 283.31,-308.78 350.11,-312.84 394.02,-313.9"/>
<polygon fill="midnightblue" stroke="midnightblue" points="394.06,-317.4 404.13,-314.1 394.2,-310.4 394.06,-317.4"/>
</g>
<!-- Node17 -->
<g id="node17" class="node">
<title>Node17</title>
<g id="a_node17"><a xlink:href="operation__params_8cpp.html#abbd547560acd14f298e5d36dcf0398d3" target="_top" xlink:title="Парсинг строки с RGB&#45;значением цвета.">
<polygon fill="white" stroke="black" points="264.5,-342.5 264.5,-361.5 329.5,-361.5 329.5,-342.5 264.5,-342.5"/>
<text text-anchor="middle" x="297" y="-349.5" font-family="Helvetica,sans-Serif" font-size="10.00">parseRGB</text>
</a>
</g>
</g>
<!-- Node13&#45;&gt;Node17 -->
<g id="edge25" class="edge">
<title>Node13&#45;&gt;Node17</title>
<path fill="none" stroke="midnightblue" d="M145.25,-266.74C161.47,-281.7 194.53,-310.43 227,-328 235.61,-332.66 245.3,-336.69 254.64,-340.05"/>
<polygon fill="midnightblue" stroke="midnightblue" points="253.59,-343.39 264.18,-343.3 255.85,-336.76 253.59,-343.39"/>
</g>
<!-- Node18 -->
<g id="node18" class="node">
<title>Node18</title>
<g id="a_node18"><a xlink:href="class_logger.html#ab7e9747c046ab01e065bde00aa26b44b" target="_top" xlink:title="Устанавливает разрешение использования цветов в выводе.">
<polygon fill="white" stroke="black" points="227,-190.5 227,-209.5 367,-209.5 367,-190.5 227,-190.5"/>
<text text-anchor="middle" x="297" y="-197.5" font-family="Helvetica,sans-Serif" font-size="10.00">Logger::setColorsEnabled</text>
</a>
</g>
</g>
<!-- Node13&#45;&gt;Node18 -->
<g id="edge29" class="edge">
<title>Node13&#45;&gt;Node18</title>
<path fill="none" stroke="midnightblue" d="M161.55,-247.4C179.91,-240.78 204.92,-231.8 227,-224 237.33,-220.35 248.55,-216.43 258.88,-212.84"/>
<polygon fill="midnightblue" stroke="midnightblue" points="260.15,-216.1 268.45,-209.52 257.85,-209.49 260.15,-216.1"/>
</g>
<!-- Node14&#45;&gt;Node6 -->
<g id="edge19" class="edge">
<title>Node14&#45;&gt;Node6</title>
<path fill="none" stroke="midnightblue" d="M592.08,-162C630.5,-162 691.37,-162 732.8,-162"/>
<polygon fill="midnightblue" stroke="midnightblue" points="732.89,-165.5 742.89,-162 732.89,-158.5 732.89,-165.5"/>
</g>
<!-- Node15&#45;&gt;Node4 -->
<g id="edge22" class="edge">
<title>Node15&#45;&gt;Node4</title>
<path fill="none" stroke="midnightblue" d="M345.87,-275.98C383.59,-277.13 437.13,-281.4 482,-295 499.36,-300.26 517.42,-309.8 531.11,-318.01"/>
<polygon fill="midnightblue" stroke="midnightblue" points="529.48,-321.11 539.82,-323.4 533.16,-315.16 529.48,-321.11"/>
</g>
<!-- Node15&#45;&gt;Node16 -->
<g id="edge23" class="edge">
<title>Node15&#45;&gt;Node16</title>
<path fill="none" stroke="midnightblue" d="M334.21,-285.59C352.82,-290.52 375.7,-296.57 395.54,-301.83"/>
<polygon fill="midnightblue" stroke="midnightblue" points="394.74,-305.24 405.3,-304.41 396.53,-298.47 394.74,-305.24"/>
</g>
<!-- Node16&#45;&gt;Node4 -->
<g id="edge24" class="edge">
<title>Node16&#45;&gt;Node4</title>
<path fill="none" stroke="midnightblue" d="M480.6,-320.38C489.35,-321.88 498.78,-323.5 507.87,-325.07"/>
<polygon fill="midnightblue" stroke="midnightblue" points="507.48,-328.55 517.93,-326.8 508.67,-321.65 507.48,-328.55"/>
</g>
<!-- Node17&#45;&gt;Node4 -->
<g id="edge26" class="edge">
<title>Node17&#45;&gt;Node4</title>
<path fill="none" stroke="midnightblue" d="M329.65,-349.65C374.33,-346.34 456.18,-340.26 507.7,-336.44"/>
<polygon fill="midnightblue" stroke="midnightblue" points="508.18,-339.91 517.9,-335.68 507.66,-332.93 508.18,-339.91"/>
</g>
<!-- Node17&#45;&gt;Node16 -->
<g id="edge27" class="edge">
<title>Node17&#45;&gt;Node16</title>
<path fill="none" stroke="midnightblue" d="M329.85,-343.57C349.16,-338.45 374.14,-331.84 395.57,-326.16"/>
<polygon fill="midnightblue" stroke="midnightblue" points="396.68,-329.49 405.45,-323.55 394.89,-322.72 396.68,-329.49"/>
</g>
<!-- Node19&#45;&gt;Node4 -->
<g id="edge32" class="edge">
<title>Node19&#45;&gt;Node4</title>
<path fill="none" stroke="midnightblue" d="M469.14,-494.37C473.8,-491.82 478.34,-488.72 482,-485 519.92,-446.46 540.66,-384.15 549.22,-352.62"/>
<polygon fill="midnightblue" stroke="midnightblue" points="552.64,-353.4 551.76,-342.84 545.86,-351.64 552.64,-353.4"/>
</g>
<!-- Node20&#45;&gt;Node4 -->
<g id="edge34" class="edge">
<title>Node20&#45;&gt;Node4</title>
<path fill="none" stroke="midnightblue" d="M462.29,-456.48C468.96,-452.55 476.24,-447.61 482,-442 509.88,-414.84 532.74,-375.12 544.77,-351.87"/>
<polygon fill="midnightblue" stroke="midnightblue" points="548.01,-353.24 549.39,-342.73 541.76,-350.08 548.01,-353.24"/>
</g>
</g>
</svg>
