<?xml version="1.0" encoding="UTF-8" standalone="no"?>
<!DOCTYPE svg PUBLIC "-//W3C//DTD SVG 1.1//EN"
 "http://www.w3.org/Graphics/SVG/1.1/DTD/svg11.dtd">
<!-- Generated by graphviz version 2.43.0 (0)
 -->
<!-- Title: parseRGB Pages: 1 -->
<svg width="620pt" height="66pt"
 viewBox="0.00 0.00 620.00 66.00" xmlns="http://www.w3.org/2000/svg" xmlns:xlink="http://www.w3.org/1999/xlink">
<g id="graph0" class="graph" transform="scale(1 1) rotate(0) translate(4 62)">
<title>parseRGB</title>
<polygon fill="white" stroke="transparent" points="-4,4 -4,-62 616,-62 616,4 -4,4"/>
<!-- Node1 -->
<g id="node1" class="node">
<title>Node1</title>
<g id="a_node1"><a xlink:title="Парсинг строки с RGB&#45;значением цвета.">
<polygon fill="#bfbfbf" stroke="black" points="0,-19.5 0,-38.5 65,-38.5 65,-19.5 0,-19.5"/>
<text text-anchor="middle" x="32.5" y="-26.5" font-family="Helvetica,sans-Serif" font-size="10.00">parseRGB</text>
</a>
</g>
</g>
<!-- Node2 -->
<g id="node2" class="node">
<title>Node2</title>
<g id="a_node2"><a xlink:href="class_logger.html#adaa34620512b5fa13d3098602eb4aef0" target="_top" xlink:title="Записывает сообщение и завершает программу с заданным кодом выхода.">
<polygon fill="white" stroke="black" points="213,-19.5 213,-38.5 287,-38.5 287,-19.5 213,-19.5"/>
<text text-anchor="middle" x="250" y="-26.5" font-family="Helvetica,sans-Serif" font-size="10.00">Logger::exit</text>
</a>
</g>
</g>
<!-- Node1&#45;&gt;Node2 -->
<g id="edge1" class="edge">
<title>Node1&#45;&gt;Node2</title>
<path fill="none" stroke="midnightblue" d="M65.3,-29C101.56,-29 161.18,-29 202.63,-29"/>
<polygon fill="midnightblue" stroke="midnightblue" points="202.75,-32.5 212.75,-29 202.75,-25.5 202.75,-32.5"/>
</g>
<!-- Node7 -->
<g id="node7" class="node">
<title>Node7</title>
<g id="a_node7"><a xlink:href="operation__params_8cpp.html#acb9b051691fc7054f0232d28aef686c4" target="_top" xlink:title="Парсинг строки с числами, разделенными пробелами.">
<polygon fill="white" stroke="black" points="101,-0.5 101,-19.5 177,-19.5 177,-0.5 101,-0.5"/>
<text text-anchor="middle" x="139" y="-7.5" font-family="Helvetica,sans-Serif" font-size="10.00">parseValues</text>
</a>
</g>
</g>
<!-- Node1&#45;&gt;Node7 -->
<g id="edge6" class="edge">
<title>Node1&#45;&gt;Node7</title>
<path fill="none" stroke="midnightblue" d="M65.14,-23.25C73.25,-21.77 82.16,-20.15 90.88,-18.57"/>
<polygon fill="midnightblue" stroke="midnightblue" points="91.75,-21.97 100.96,-16.73 90.5,-15.08 91.75,-21.97"/>
</g>
<!-- Node3 -->
<g id="node3" class="node">
<title>Node3</title>
<g id="a_node3"><a xlink:href="class_logger.html#ab6042fdfcbb14026098e0df9d6b32f27" target="_top" xlink:title="Записывает ошибку в лог с красным цветом.">
<polygon fill="white" stroke="black" points="323,-19.5 323,-38.5 402,-38.5 402,-19.5 323,-19.5"/>
<text text-anchor="middle" x="362.5" y="-26.5" font-family="Helvetica,sans-Serif" font-size="10.00">Logger::error</text>
</a>
</g>
</g>
<!-- Node2&#45;&gt;Node3 -->
<g id="edge2" class="edge">
<title>Node2&#45;&gt;Node3</title>
<path fill="none" stroke="midnightblue" d="M287.18,-29C295.42,-29 304.29,-29 312.95,-29"/>
<polygon fill="midnightblue" stroke="midnightblue" points="312.95,-32.5 322.95,-29 312.95,-25.5 312.95,-32.5"/>
</g>
<!-- Node4 -->
<g id="node4" class="node">
<title>Node4</title>
<g id="a_node4"><a xlink:href="class_logger.html#ad83dbe66156650acca19d3772ce41229" target="_top" xlink:title="Записывает сообщение в лог с определенным цветом.">
<polygon fill="white" stroke="black" points="438,-19.5 438,-38.5 509,-38.5 509,-19.5 438,-19.5"/>
<text text-anchor="middle" x="473.5" y="-26.5" font-family="Helvetica,sans-Serif" font-size="10.00">Logger::log</text>
</a>
</g>
</g>
<!-- Node3&#45;&gt;Node4 -->
<g id="edge3" class="edge">
<title>Node3&#45;&gt;Node4</title>
<path fill="none" stroke="midnightblue" d="M402.24,-29C410.5,-29 419.3,-29 427.77,-29"/>
<polygon fill="midnightblue" stroke="midnightblue" points="427.88,-32.5 437.88,-29 427.88,-25.5 427.88,-32.5"/>
</g>
<!-- Node5 -->
<g id="node5" class="node">
<title>Node5</title>
<g id="a_node5"><a xlink:href="logger_8cpp.html#afe00396766eb6b8ca4674de4c5d3d949" target="_top" xlink:title=" ">
<polygon fill="white" stroke="black" points="545,-38.5 545,-57.5 612,-57.5 612,-38.5 545,-38.5"/>
<text text-anchor="middle" x="578.5" y="-45.5" font-family="Helvetica,sans-Serif" font-size="10.00">resetColor</text>
</a>
</g>
</g>
<!-- Node4&#45;&gt;Node5 -->
<g id="edge4" class="edge">
<title>Node4&#45;&gt;Node5</title>
<path fill="none" stroke="midnightblue" d="M509.08,-35.38C517.4,-36.91 526.38,-38.57 535.01,-40.16"/>
<polygon fill="midnightblue" stroke="midnightblue" points="534.45,-43.62 544.92,-41.99 535.72,-36.73 534.45,-43.62"/>
</g>
<!-- Node6 -->
<g id="node6" class="node">
<title>Node6</title>
<g id="a_node6"><a xlink:href="logger_8cpp.html#a47a17bf6298ba8d1f42d32b14449e277" target="_top" xlink:title=" ">
<polygon fill="white" stroke="black" points="550,-0.5 550,-19.5 607,-19.5 607,-0.5 550,-0.5"/>
<text text-anchor="middle" x="578.5" y="-7.5" font-family="Helvetica,sans-Serif" font-size="10.00">setColor</text>
</a>
</g>
</g>
<!-- Node4&#45;&gt;Node6 -->
<g id="edge5" class="edge">
<title>Node4&#45;&gt;Node6</title>
<path fill="none" stroke="midnightblue" d="M509.08,-22.62C518.89,-20.81 529.61,-18.83 539.6,-16.99"/>
<polygon fill="midnightblue" stroke="midnightblue" points="540.47,-20.39 549.67,-15.13 539.2,-13.51 540.47,-20.39"/>
</g>
<!-- Node7&#45;&gt;Node2 -->
<g id="edge7" class="edge">
<title>Node7&#45;&gt;Node2</title>
<path fill="none" stroke="midnightblue" d="M177.21,-16.49C185.45,-17.92 194.29,-19.46 202.84,-20.95"/>
<polygon fill="midnightblue" stroke="midnightblue" points="202.25,-24.4 212.7,-22.67 203.45,-17.51 202.25,-24.4"/>
</g>
</g>
</svg>
