<?xml version="1.0" encoding="UTF-8" standalone="no"?>
<!DOCTYPE svg PUBLIC "-//W3C//DTD SVG 1.1//EN"
 "http://www.w3.org/Graphics/SVG/1.1/DTD/svg11.dtd">
<!-- Generated by graphviz version 2.43.0 (0)
 -->
<!-- Title: include/operation_params.hpp Pages: 1 -->
<svg width="359pt" height="140pt"
 viewBox="0.00 0.00 358.50 140.00" xmlns="http://www.w3.org/2000/svg" xmlns:xlink="http://www.w3.org/1999/xlink">
<g id="graph0" class="graph" transform="scale(1 1) rotate(0) translate(4 136)">
<title>include/operation_params.hpp</title>
<polygon fill="white" stroke="transparent" points="-4,4 -4,-136 354.5,-136 354.5,4 -4,4"/>
<!-- Node1 -->
<g id="node1" class="node">
<title>Node1</title>
<g id="a_node1"><a xlink:title=" ">
<polygon fill="#bfbfbf" stroke="black" points="79,-112.5 79,-131.5 243,-131.5 243,-112.5 79,-112.5"/>
<text text-anchor="middle" x="161" y="-119.5" font-family="Helvetica,sans-Serif" font-size="10.00">include/operation_params.hpp</text>
</a>
</g>
</g>
<!-- Node2 -->
<g id="node2" class="node">
<title>Node2</title>
<g id="a_node2"><a xlink:href="bmp_8hpp.html" target="_top" xlink:title=" ">
<polygon fill="white" stroke="black" points="35,-56.5 35,-75.5 133,-75.5 133,-56.5 35,-56.5"/>
<text text-anchor="middle" x="84" y="-63.5" font-family="Helvetica,sans-Serif" font-size="10.00">include/bmp.hpp</text>
</a>
</g>
</g>
<!-- Node1&#45;&gt;Node2 -->
<g id="edge1" class="edge">
<title>Node1&#45;&gt;Node2</title>
<path fill="none" stroke="midnightblue" d="M140.1,-106.34C126.09,-96.52 108.12,-83.91 96.34,-75.65"/>
<polygon fill="midnightblue" stroke="midnightblue" points="138.43,-109.45 148.63,-112.32 142.45,-103.72 138.43,-109.45"/>
</g>
<!-- Node4 -->
<g id="node4" class="node">
<title>Node4</title>
<g id="a_node4"><a xlink:href="main_8cpp.html" target="_top" xlink:title="Главный файл программы">
<polygon fill="white" stroke="black" points="112.5,-0.5 112.5,-19.5 209.5,-19.5 209.5,-0.5 112.5,-0.5"/>
<text text-anchor="middle" x="161" y="-7.5" font-family="Helvetica,sans-Serif" font-size="10.00">source/main.cpp</text>
</a>
</g>
</g>
<!-- Node1&#45;&gt;Node4 -->
<g id="edge4" class="edge">
<title>Node1&#45;&gt;Node4</title>
<path fill="none" stroke="midnightblue" d="M161,-102.35C161,-78.25 161,-37.31 161,-19.59"/>
<polygon fill="midnightblue" stroke="midnightblue" points="157.5,-102.37 161,-112.37 164.5,-102.37 157.5,-102.37"/>
</g>
<!-- Node5 -->
<g id="node5" class="node">
<title>Node5</title>
<g id="a_node5"><a xlink:href="operation__params_8cpp.html" target="_top" xlink:title=" ">
<polygon fill="white" stroke="black" points="189.5,-56.5 189.5,-75.5 350.5,-75.5 350.5,-56.5 189.5,-56.5"/>
<text text-anchor="middle" x="270" y="-63.5" font-family="Helvetica,sans-Serif" font-size="10.00">source/operation_params.cpp</text>
</a>
</g>
</g>
<!-- Node1&#45;&gt;Node5 -->
<g id="edge5" class="edge">
<title>Node1&#45;&gt;Node5</title>
<path fill="none" stroke="midnightblue" d="M187.52,-107.86C207.73,-97.85 234.99,-84.35 252.53,-75.65"/>
<polygon fill="midnightblue" stroke="midnightblue" points="185.92,-104.75 178.51,-112.32 189.03,-111.02 185.92,-104.75"/>
</g>
<!-- Node3 -->
<g id="node3" class="node">
<title>Node3</title>
<g id="a_node3"><a xlink:href="bmp_8cpp.html" target="_top" xlink:title="Реализация методов класса BMP для работы с изображениями в формате BMP.">
<polygon fill="white" stroke="black" points="0,-0.5 0,-19.5 94,-19.5 94,-0.5 0,-0.5"/>
<text text-anchor="middle" x="47" y="-7.5" font-family="Helvetica,sans-Serif" font-size="10.00">source/bmp.cpp</text>
</a>
</g>
</g>
<!-- Node2&#45;&gt;Node3 -->
<g id="edge2" class="edge">
<title>Node2&#45;&gt;Node3</title>
<path fill="none" stroke="midnightblue" d="M72.05,-47.57C65.69,-38.27 58.13,-27.25 53,-19.75"/>
<polygon fill="midnightblue" stroke="midnightblue" points="69.35,-49.81 77.89,-56.08 75.13,-45.86 69.35,-49.81"/>
</g>
<!-- Node2&#45;&gt;Node4 -->
<g id="edge3" class="edge">
<title>Node2&#45;&gt;Node4</title>
<path fill="none" stroke="midnightblue" d="M104.9,-50.34C118.91,-40.52 136.88,-27.91 148.66,-19.65"/>
<polygon fill="midnightblue" stroke="midnightblue" points="102.55,-47.72 96.37,-56.32 106.57,-53.45 102.55,-47.72"/>
</g>
</g>
</svg>
