<?xml version="1.0" encoding="UTF-8" standalone="no"?>
<!DOCTYPE svg PUBLIC "-//W3C//DTD SVG 1.1//EN"
 "http://www.w3.org/Graphics/SVG/1.1/DTD/svg11.dtd">
<!-- Generated by graphviz version 2.43.0 (0)
 -->
<!-- Title: parseCommandLine Pages: 1 -->
<svg width="739pt" height="185pt"
 viewBox="0.00 0.00 739.00 184.59" xmlns="http://www.w3.org/2000/svg" xmlns:xlink="http://www.w3.org/1999/xlink">
<g id="graph0" class="graph" transform="scale(1 1) rotate(0) translate(4 180.59)">
<title>parseCommandLine</title>
<polygon fill="white" stroke="transparent" points="-4,4 -4,-180.59 735,-180.59 735,4 -4,4"/>
<!-- Node1 -->
<g id="node1" class="node">
<title>Node1</title>
<g id="a_node1"><a xlink:title="Парсинг командной строки и создание объекта OperationParams.">
<polygon fill="#bfbfbf" stroke="black" points="0,-81.09 0,-100.09 114,-100.09 114,-81.09 0,-81.09"/>
<text text-anchor="middle" x="57" y="-88.09" font-family="Helvetica,sans-Serif" font-size="10.00">parseCommandLine</text>
</a>
</g>
</g>
<!-- Node2 -->
<g id="node2" class="node">
<title>Node2</title>
<g id="a_node2"><a xlink:href="operation__params_8cpp.html#a1451d6a0f33f9d0a02a4b055e5839e6e" target="_top" xlink:title="Отображение справки о возможных параметрах командной строки.">
<polygon fill="white" stroke="black" points="444.5,-157.09 444.5,-176.09 518.5,-176.09 518.5,-157.09 444.5,-157.09"/>
<text text-anchor="middle" x="481.5" y="-164.09" font-family="Helvetica,sans-Serif" font-size="10.00">displayHelp</text>
</a>
</g>
</g>
<!-- Node1&#45;&gt;Node2 -->
<g id="edge1" class="edge">
<title>Node1&#45;&gt;Node2</title>
<path fill="none" stroke="midnightblue" d="M69.89,-100.28C86.61,-113.27 118.54,-135.83 150,-145.59 247.52,-175.88 368.81,-174.25 433.94,-170.41"/>
<polygon fill="midnightblue" stroke="midnightblue" points="434.53,-173.88 444.29,-169.76 434.09,-166.9 434.53,-173.88"/>
</g>
<!-- Node6 -->
<g id="node6" class="node">
<title>Node6</title>
<g id="a_node6"><a xlink:href="class_logger.html#adaa34620512b5fa13d3098602eb4aef0" target="_top" xlink:title="Записывает сообщение и завершает программу с заданным кодом выхода.">
<polygon fill="white" stroke="black" points="329,-110.09 329,-129.09 403,-129.09 403,-110.09 329,-110.09"/>
<text text-anchor="middle" x="366" y="-117.09" font-family="Helvetica,sans-Serif" font-size="10.00">Logger::exit</text>
</a>
</g>
</g>
<!-- Node1&#45;&gt;Node6 -->
<g id="edge5" class="edge">
<title>Node1&#45;&gt;Node6</title>
<path fill="none" stroke="midnightblue" d="M75.33,-100.17C93.36,-109.55 122.71,-123.18 150,-128.59 207.33,-139.97 274.89,-134.08 318.76,-127.78"/>
<polygon fill="midnightblue" stroke="midnightblue" points="319.47,-131.21 328.84,-126.26 318.43,-124.29 319.47,-131.21"/>
</g>
<!-- Node8 -->
<g id="node8" class="node">
<title>Node8</title>
<g id="a_node8"><a xlink:href="operation__params_8cpp.html#abbd547560acd14f298e5d36dcf0398d3" target="_top" xlink:title="Парсинг строки с RGB&#45;значением цвета.">
<polygon fill="white" stroke="black" points="187.5,-100.09 187.5,-119.09 252.5,-119.09 252.5,-100.09 187.5,-100.09"/>
<text text-anchor="middle" x="220" y="-107.09" font-family="Helvetica,sans-Serif" font-size="10.00">parseRGB</text>
</a>
</g>
</g>
<!-- Node1&#45;&gt;Node8 -->
<g id="edge8" class="edge">
<title>Node1&#45;&gt;Node8</title>
<path fill="none" stroke="midnightblue" d="M114.31,-97.24C135.06,-99.69 158.18,-102.42 177.4,-104.69"/>
<polygon fill="midnightblue" stroke="midnightblue" points="177.01,-108.16 187.35,-105.86 177.83,-101.21 177.01,-108.16"/>
</g>
<!-- Node9 -->
<g id="node9" class="node">
<title>Node9</title>
<g id="a_node9"><a xlink:href="operation__params_8cpp.html#acb9b051691fc7054f0232d28aef686c4" target="_top" xlink:title="Парсинг строки с числами, разделенными пробелами.">
<polygon fill="white" stroke="black" points="328,-67.09 328,-86.09 404,-86.09 404,-67.09 328,-67.09"/>
<text text-anchor="middle" x="366" y="-74.09" font-family="Helvetica,sans-Serif" font-size="10.00">parseValues</text>
</a>
</g>
</g>
<!-- Node1&#45;&gt;Node9 -->
<g id="edge11" class="edge">
<title>Node1&#45;&gt;Node9</title>
<path fill="none" stroke="midnightblue" d="M114.31,-88.03C172.69,-85.36 262.93,-81.25 317.73,-78.75"/>
<polygon fill="midnightblue" stroke="midnightblue" points="318.04,-82.24 327.87,-78.29 317.72,-75.25 318.04,-82.24"/>
</g>
<!-- Node10 -->
<g id="node10" class="node">
<title>Node10</title>
<g id="a_node10"><a xlink:href="class_logger.html#ab7e9747c046ab01e065bde00aa26b44b" target="_top" xlink:title="Устанавливает разрешение использования цветов в выводе.">
<polygon fill="white" stroke="black" points="150,-24.09 150,-43.09 290,-43.09 290,-24.09 150,-24.09"/>
<text text-anchor="middle" x="220" y="-31.09" font-family="Helvetica,sans-Serif" font-size="10.00">Logger::setColorsEnabled</text>
</a>
</g>
</g>
<!-- Node1&#45;&gt;Node10 -->
<g id="edge12" class="edge">
<title>Node1&#45;&gt;Node10</title>
<path fill="none" stroke="midnightblue" d="M84.55,-81C102.91,-74.37 127.92,-65.39 150,-57.59 160.33,-53.95 171.55,-50.03 181.88,-46.43"/>
<polygon fill="midnightblue" stroke="midnightblue" points="183.15,-49.7 191.45,-43.11 180.85,-43.08 183.15,-49.7"/>
</g>
<!-- Node11 -->
<g id="node11" class="node">
<title>Node11</title>
<g id="a_node11"><a xlink:href="class_logger.html#a24b519e0f53e73937f93edd2da37ea76" target="_top" xlink:title="Записывает предупреждение в лог с желтым цветом.">
<polygon fill="white" stroke="black" points="326,-5.09 326,-24.09 406,-24.09 406,-5.09 326,-5.09"/>
<text text-anchor="middle" x="366" y="-12.09" font-family="Helvetica,sans-Serif" font-size="10.00">Logger::warn</text>
</a>
</g>
</g>
<!-- Node1&#45;&gt;Node11 -->
<g id="edge13" class="edge">
<title>Node1&#45;&gt;Node11</title>
<path fill="none" stroke="midnightblue" d="M65.58,-80.97C79.88,-63.7 112.76,-27.99 150,-14.59 204.26,4.92 271.31,0.88 315.97,-5.39"/>
<polygon fill="midnightblue" stroke="midnightblue" points="315.58,-8.87 325.98,-6.88 316.61,-1.94 315.58,-8.87"/>
</g>
<!-- Node3 -->
<g id="node3" class="node">
<title>Node3</title>
<g id="a_node3"><a xlink:href="class_logger.html#ad83dbe66156650acca19d3772ce41229" target="_top" xlink:title="Записывает сообщение в лог с определенным цветом.">
<polygon fill="white" stroke="black" points="557,-110.09 557,-129.09 628,-129.09 628,-110.09 557,-110.09"/>
<text text-anchor="middle" x="592.5" y="-117.09" font-family="Helvetica,sans-Serif" font-size="10.00">Logger::log</text>
</a>
</g>
</g>
<!-- Node2&#45;&gt;Node3 -->
<g id="edge2" class="edge">
<title>Node2&#45;&gt;Node3</title>
<path fill="none" stroke="midnightblue" d="M504.56,-157.08C520.41,-150.25 542.02,-140.93 559.73,-133.3"/>
<polygon fill="midnightblue" stroke="midnightblue" points="561.3,-136.43 569.1,-129.25 558.53,-130 561.3,-136.43"/>
</g>
<!-- Node4 -->
<g id="node4" class="node">
<title>Node4</title>
<g id="a_node4"><a xlink:href="logger_8cpp.html#afe00396766eb6b8ca4674de4c5d3d949" target="_top" xlink:title=" ">
<polygon fill="white" stroke="black" points="664,-129.09 664,-148.09 731,-148.09 731,-129.09 664,-129.09"/>
<text text-anchor="middle" x="697.5" y="-136.09" font-family="Helvetica,sans-Serif" font-size="10.00">resetColor</text>
</a>
</g>
</g>
<!-- Node3&#45;&gt;Node4 -->
<g id="edge3" class="edge">
<title>Node3&#45;&gt;Node4</title>
<path fill="none" stroke="midnightblue" d="M628.08,-125.97C636.4,-127.51 645.38,-129.17 654.01,-130.76"/>
<polygon fill="midnightblue" stroke="midnightblue" points="653.45,-134.21 663.92,-132.59 654.72,-127.33 653.45,-134.21"/>
</g>
<!-- Node5 -->
<g id="node5" class="node">
<title>Node5</title>
<g id="a_node5"><a xlink:href="logger_8cpp.html#a47a17bf6298ba8d1f42d32b14449e277" target="_top" xlink:title=" ">
<polygon fill="white" stroke="black" points="669,-91.09 669,-110.09 726,-110.09 726,-91.09 669,-91.09"/>
<text text-anchor="middle" x="697.5" y="-98.09" font-family="Helvetica,sans-Serif" font-size="10.00">setColor</text>
</a>
</g>
</g>
<!-- Node3&#45;&gt;Node5 -->
<g id="edge4" class="edge">
<title>Node3&#45;&gt;Node5</title>
<path fill="none" stroke="midnightblue" d="M628.08,-113.22C637.89,-111.41 648.61,-109.43 658.6,-107.59"/>
<polygon fill="midnightblue" stroke="midnightblue" points="659.47,-110.98 668.67,-105.73 658.2,-104.1 659.47,-110.98"/>
</g>
<!-- Node7 -->
<g id="node7" class="node">
<title>Node7</title>
<g id="a_node7"><a xlink:href="class_logger.html#ab6042fdfcbb14026098e0df9d6b32f27" target="_top" xlink:title="Записывает ошибку в лог с красным цветом.">
<polygon fill="white" stroke="black" points="442,-110.09 442,-129.09 521,-129.09 521,-110.09 442,-110.09"/>
<text text-anchor="middle" x="481.5" y="-117.09" font-family="Helvetica,sans-Serif" font-size="10.00">Logger::error</text>
</a>
</g>
</g>
<!-- Node6&#45;&gt;Node7 -->
<g id="edge6" class="edge">
<title>Node6&#45;&gt;Node7</title>
<path fill="none" stroke="midnightblue" d="M403.22,-119.59C412.28,-119.59 422.13,-119.59 431.69,-119.59"/>
<polygon fill="midnightblue" stroke="midnightblue" points="431.88,-123.1 441.88,-119.59 431.88,-116.1 431.88,-123.1"/>
</g>
<!-- Node7&#45;&gt;Node3 -->
<g id="edge7" class="edge">
<title>Node7&#45;&gt;Node3</title>
<path fill="none" stroke="midnightblue" d="M521.24,-119.59C529.5,-119.59 538.3,-119.59 546.77,-119.59"/>
<polygon fill="midnightblue" stroke="midnightblue" points="546.88,-123.1 556.88,-119.59 546.88,-116.1 546.88,-123.1"/>
</g>
<!-- Node8&#45;&gt;Node6 -->
<g id="edge9" class="edge">
<title>Node8&#45;&gt;Node6</title>
<path fill="none" stroke="midnightblue" d="M252.6,-111.79C271.95,-113.13 297.06,-114.88 318.64,-116.38"/>
<polygon fill="midnightblue" stroke="midnightblue" points="318.69,-119.89 328.91,-117.09 319.17,-112.9 318.69,-119.89"/>
</g>
<!-- Node8&#45;&gt;Node9 -->
<g id="edge10" class="edge">
<title>Node8&#45;&gt;Node9</title>
<path fill="none" stroke="midnightblue" d="M252.6,-102.35C271.76,-97.96 296.55,-92.28 317.98,-87.37"/>
<polygon fill="midnightblue" stroke="midnightblue" points="318.9,-90.75 327.87,-85.1 317.34,-83.93 318.9,-90.75"/>
</g>
<!-- Node11&#45;&gt;Node3 -->
<g id="edge14" class="edge">
<title>Node11&#45;&gt;Node3</title>
<path fill="none" stroke="midnightblue" d="M387.32,-24.1C427.12,-42.71 515.51,-84.05 561.85,-105.73"/>
<polygon fill="midnightblue" stroke="midnightblue" points="560.52,-108.97 571.07,-110.04 563.49,-102.63 560.52,-108.97"/>
</g>
</g>
</svg>
