<?xml version="1.0" encoding="UTF-8" standalone="no"?>
<!DOCTYPE svg PUBLIC "-//W3C//DTD SVG 1.1//EN"
 "http://www.w3.org/Graphics/SVG/1.1/DTD/svg11.dtd">
<!-- Generated by graphviz version 2.43.0 (0)
 -->
<!-- Title: parseValues Pages: 1 -->
<svg width="519pt" height="66pt"
 viewBox="0.00 0.00 519.00 66.00" xmlns="http://www.w3.org/2000/svg" xmlns:xlink="http://www.w3.org/1999/xlink">
<g id="graph0" class="graph" transform="scale(1 1) rotate(0) translate(4 62)">
<title>parseValues</title>
<polygon fill="white" stroke="transparent" points="-4,4 -4,-62 515,-62 515,4 -4,4"/>
<!-- Node1 -->
<g id="node1" class="node">
<title>Node1</title>
<g id="a_node1"><a xlink:title="Парсинг строки с числами, разделенными пробелами.">
<polygon fill="#bfbfbf" stroke="black" points="0,-19.5 0,-38.5 76,-38.5 76,-19.5 0,-19.5"/>
<text text-anchor="middle" x="38" y="-26.5" font-family="Helvetica,sans-Serif" font-size="10.00">parseValues</text>
</a>
</g>
</g>
<!-- Node2 -->
<g id="node2" class="node">
<title>Node2</title>
<g id="a_node2"><a xlink:href="class_logger.html#ad044e18a74f8f7417e2bf8d8b64a9e3d" target="_top" xlink:title="Записывает сообщение и завершает программу с заданным кодом выхода.">
<polygon fill="white" stroke="black" points="112,-19.5 112,-38.5 186,-38.5 186,-19.5 112,-19.5"/>
<text text-anchor="middle" x="149" y="-26.5" font-family="Helvetica,sans-Serif" font-size="10.00">Logger::exit</text>
</a>
</g>
</g>
<!-- Node1&#45;&gt;Node2 -->
<g id="edge1" class="edge">
<title>Node1&#45;&gt;Node2</title>
<path fill="none" stroke="midnightblue" d="M76.21,-29C84.36,-29 93.09,-29 101.56,-29"/>
<polygon fill="midnightblue" stroke="midnightblue" points="101.7,-32.5 111.7,-29 101.7,-25.5 101.7,-32.5"/>
</g>
<!-- Node3 -->
<g id="node3" class="node">
<title>Node3</title>
<g id="a_node3"><a xlink:href="class_logger.html#a32783adace456c614c77d2944036e31b" target="_top" xlink:title="Записывает ошибку в лог с красным цветом.">
<polygon fill="white" stroke="black" points="222,-19.5 222,-38.5 301,-38.5 301,-19.5 222,-19.5"/>
<text text-anchor="middle" x="261.5" y="-26.5" font-family="Helvetica,sans-Serif" font-size="10.00">Logger::error</text>
</a>
</g>
</g>
<!-- Node2&#45;&gt;Node3 -->
<g id="edge2" class="edge">
<title>Node2&#45;&gt;Node3</title>
<path fill="none" stroke="midnightblue" d="M186.18,-29C194.42,-29 203.29,-29 211.95,-29"/>
<polygon fill="midnightblue" stroke="midnightblue" points="211.95,-32.5 221.95,-29 211.95,-25.5 211.95,-32.5"/>
</g>
<!-- Node4 -->
<g id="node4" class="node">
<title>Node4</title>
<g id="a_node4"><a xlink:href="class_logger.html#a6faf175f206bf5734a4824c98296c677" target="_top" xlink:title="Записывает сообщение в лог с определенным цветом.">
<polygon fill="white" stroke="black" points="337,-19.5 337,-38.5 408,-38.5 408,-19.5 337,-19.5"/>
<text text-anchor="middle" x="372.5" y="-26.5" font-family="Helvetica,sans-Serif" font-size="10.00">Logger::log</text>
</a>
</g>
</g>
<!-- Node3&#45;&gt;Node4 -->
<g id="edge3" class="edge">
<title>Node3&#45;&gt;Node4</title>
<path fill="none" stroke="midnightblue" d="M301.24,-29C309.5,-29 318.3,-29 326.77,-29"/>
<polygon fill="midnightblue" stroke="midnightblue" points="326.88,-32.5 336.88,-29 326.88,-25.5 326.88,-32.5"/>
</g>
<!-- Node5 -->
<g id="node5" class="node">
<title>Node5</title>
<g id="a_node5"><a xlink:href="logger_8cpp.html#a3ae85e4766efbf5abe5eaf6e5c4afc32" target="_top" xlink:title=" ">
<polygon fill="white" stroke="black" points="444,-38.5 444,-57.5 511,-57.5 511,-38.5 444,-38.5"/>
<text text-anchor="middle" x="477.5" y="-45.5" font-family="Helvetica,sans-Serif" font-size="10.00">resetColor</text>
</a>
</g>
</g>
<!-- Node4&#45;&gt;Node5 -->
<g id="edge4" class="edge">
<title>Node4&#45;&gt;Node5</title>
<path fill="none" stroke="midnightblue" d="M408.08,-35.38C416.4,-36.91 425.38,-38.57 434.01,-40.16"/>
<polygon fill="midnightblue" stroke="midnightblue" points="433.45,-43.62 443.92,-41.99 434.72,-36.73 433.45,-43.62"/>
</g>
<!-- Node6 -->
<g id="node6" class="node">
<title>Node6</title>
<g id="a_node6"><a xlink:href="logger_8cpp.html#a81d09f8360558968e2402c1565126734" target="_top" xlink:title=" ">
<polygon fill="white" stroke="black" points="449,-0.5 449,-19.5 506,-19.5 506,-0.5 449,-0.5"/>
<text text-anchor="middle" x="477.5" y="-7.5" font-family="Helvetica,sans-Serif" font-size="10.00">setColor</text>
</a>
</g>
</g>
<!-- Node4&#45;&gt;Node6 -->
<g id="edge5" class="edge">
<title>Node4&#45;&gt;Node6</title>
<path fill="none" stroke="midnightblue" d="M408.08,-22.62C417.89,-20.81 428.61,-18.83 438.6,-16.99"/>
<polygon fill="midnightblue" stroke="midnightblue" points="439.47,-20.39 448.67,-15.13 438.2,-13.51 439.47,-20.39"/>
</g>
</g>
</svg>
