<?xml version="1.0" encoding="UTF-8" standalone="no"?>
<!DOCTYPE svg PUBLIC "-//W3C//DTD SVG 1.1//EN"
 "http://www.w3.org/Graphics/SVG/1.1/DTD/svg11.dtd">
<!-- Generated by graphviz version 2.43.0 (0)
 -->
<!-- Title: parseCommandLine Pages: 1 -->
<svg width="851pt" height="248pt"
 viewBox="0.00 0.00 851.00 248.12" xmlns="http://www.w3.org/2000/svg" xmlns:xlink="http://www.w3.org/1999/xlink">
<g id="graph0" class="graph" transform="scale(1 1) rotate(0) translate(4 244.12)">
<title>parseCommandLine</title>
<polygon fill="white" stroke="transparent" points="-4,4 -4,-244.12 847,-244.12 847,4 -4,4"/>
<!-- Node1 -->
<g id="node1" class="node">
<title>Node1</title>
<g id="a_node1"><a xlink:title="Парсинг командной строки и создание объекта Operations.">
<polygon fill="#bfbfbf" stroke="black" points="0,-106.62 0,-125.62 114,-125.62 114,-106.62 0,-106.62"/>
<text text-anchor="middle" x="57" y="-113.62" font-family="Helvetica,sans-Serif" font-size="10.00">parseCommandLine</text>
</a>
</g>
</g>
<!-- Node2 -->
<g id="node2" class="node">
<title>Node2</title>
<g id="a_node2"><a xlink:href="operation__params_8cpp.html#a1451d6a0f33f9d0a02a4b055e5839e6e" target="_top" xlink:title="Отображение справки о возможных параметрах командной строки.">
<polygon fill="white" stroke="black" points="327,-220.62 327,-239.62 401,-239.62 401,-220.62 327,-220.62"/>
<text text-anchor="middle" x="364" y="-227.62" font-family="Helvetica,sans-Serif" font-size="10.00">displayHelp</text>
</a>
</g>
</g>
<!-- Node1&#45;&gt;Node2 -->
<g id="edge1" class="edge">
<title>Node1&#45;&gt;Node2</title>
<path fill="none" stroke="midnightblue" d="M64.48,-125.83C77.86,-144.99 110.64,-187.43 150,-206.12 203.17,-231.37 271.96,-234.58 316.76,-233.34"/>
<polygon fill="midnightblue" stroke="midnightblue" points="316.91,-236.84 326.77,-232.98 316.65,-229.84 316.91,-236.84"/>
</g>
<!-- Node6 -->
<g id="node6" class="node">
<title>Node6</title>
<g id="a_node6"><a xlink:href="class_logger.html#adaa34620512b5fa13d3098602eb4aef0" target="_top" xlink:title="Записывает сообщение и завершает программу с заданным кодом выхода.">
<polygon fill="white" stroke="black" points="441,-125.62 441,-144.62 515,-144.62 515,-125.62 441,-125.62"/>
<text text-anchor="middle" x="478" y="-132.62" font-family="Helvetica,sans-Serif" font-size="10.00">Logger::exit</text>
</a>
</g>
</g>
<!-- Node1&#45;&gt;Node6 -->
<g id="edge5" class="edge">
<title>Node1&#45;&gt;Node6</title>
<path fill="none" stroke="midnightblue" d="M68.91,-125.76C85.2,-139.44 117.47,-163.86 150,-173.12 253.36,-202.54 381.3,-168.24 441.95,-147.95"/>
<polygon fill="midnightblue" stroke="midnightblue" points="443.1,-151.26 451.43,-144.71 440.84,-144.63 443.1,-151.26"/>
</g>
<!-- Node8 -->
<g id="node8" class="node">
<title>Node8</title>
<g id="a_node8"><a xlink:href="operation__params_8cpp.html#adfab6ddfafab9bed92ac967c3a0fe0dd" target="_top" xlink:title=" ">
<polygon fill="white" stroke="black" points="171.5,-144.62 171.5,-163.62 268.5,-163.62 268.5,-144.62 171.5,-144.62"/>
<text text-anchor="middle" x="220" y="-151.62" font-family="Helvetica,sans-Serif" font-size="10.00">parseCoordinate</text>
</a>
</g>
</g>
<!-- Node1&#45;&gt;Node8 -->
<g id="edge8" class="edge">
<title>Node1&#45;&gt;Node8</title>
<path fill="none" stroke="midnightblue" d="M98.63,-125.71C119.97,-130.74 146.31,-136.96 168.91,-142.29"/>
<polygon fill="midnightblue" stroke="midnightblue" points="168.13,-145.71 178.67,-144.6 169.74,-138.89 168.13,-145.71"/>
</g>
<!-- Node9 -->
<g id="node9" class="node">
<title>Node9</title>
<g id="a_node9"><a xlink:href="operation__params_8cpp.html#acb9b051691fc7054f0232d28aef686c4" target="_top" xlink:title="Парсинг строки с числами, разделенными пробелами.">
<polygon fill="white" stroke="black" points="326,-106.62 326,-125.62 402,-125.62 402,-106.62 326,-106.62"/>
<text text-anchor="middle" x="364" y="-113.62" font-family="Helvetica,sans-Serif" font-size="10.00">parseValues</text>
</a>
</g>
</g>
<!-- Node1&#45;&gt;Node9 -->
<g id="edge15" class="edge">
<title>Node1&#45;&gt;Node9</title>
<path fill="none" stroke="midnightblue" d="M114.3,-116.12C172.19,-116.12 261.34,-116.12 315.7,-116.12"/>
<polygon fill="midnightblue" stroke="midnightblue" points="315.76,-119.62 325.76,-116.12 315.76,-112.62 315.76,-119.62"/>
</g>
<!-- Node10 -->
<g id="node10" class="node">
<title>Node10</title>
<g id="a_node10"><a xlink:href="operation__params_8cpp.html#abbd547560acd14f298e5d36dcf0398d3" target="_top" xlink:title="Парсинг строки с RGB&#45;значением цвета.">
<polygon fill="white" stroke="black" points="187.5,-68.62 187.5,-87.62 252.5,-87.62 252.5,-68.62 187.5,-68.62"/>
<text text-anchor="middle" x="220" y="-75.62" font-family="Helvetica,sans-Serif" font-size="10.00">parseRGB</text>
</a>
</g>
</g>
<!-- Node1&#45;&gt;Node10 -->
<g id="edge12" class="edge">
<title>Node1&#45;&gt;Node10</title>
<path fill="none" stroke="midnightblue" d="M98.63,-106.53C122.67,-100.85 153.07,-93.68 177.3,-87.96"/>
<polygon fill="midnightblue" stroke="midnightblue" points="178.34,-91.31 187.27,-85.61 176.73,-84.5 178.34,-91.31"/>
</g>
<!-- Node11 -->
<g id="node11" class="node">
<title>Node11</title>
<g id="a_node11"><a xlink:href="class_logger.html#ab7e9747c046ab01e065bde00aa26b44b" target="_top" xlink:title="Устанавливает разрешение использования цветов в выводе.">
<polygon fill="white" stroke="black" points="150,-30.62 150,-49.62 290,-49.62 290,-30.62 150,-30.62"/>
<text text-anchor="middle" x="220" y="-37.62" font-family="Helvetica,sans-Serif" font-size="10.00">Logger::setColorsEnabled</text>
</a>
</g>
</g>
<!-- Node1&#45;&gt;Node11 -->
<g id="edge16" class="edge">
<title>Node1&#45;&gt;Node11</title>
<path fill="none" stroke="midnightblue" d="M70.75,-106.56C87.94,-94.08 119.87,-72.28 150,-59.12 155.4,-56.76 161.16,-54.62 166.97,-52.71"/>
<polygon fill="midnightblue" stroke="midnightblue" points="168.22,-55.99 176.74,-49.69 166.15,-49.3 168.22,-55.99"/>
</g>
<!-- Node12 -->
<g id="node12" class="node">
<title>Node12</title>
<g id="a_node12"><a xlink:href="class_logger.html#a24b519e0f53e73937f93edd2da37ea76" target="_top" xlink:title="Записывает предупреждение в лог с желтым цветом.">
<polygon fill="white" stroke="black" points="438,-30.62 438,-49.62 518,-49.62 518,-30.62 438,-30.62"/>
<text text-anchor="middle" x="478" y="-37.62" font-family="Helvetica,sans-Serif" font-size="10.00">Logger::warn</text>
</a>
</g>
</g>
<!-- Node1&#45;&gt;Node12 -->
<g id="edge17" class="edge">
<title>Node1&#45;&gt;Node12</title>
<path fill="none" stroke="midnightblue" d="M63.58,-106.43C76,-85.98 108.14,-38.85 150,-21.12 247.71,20.28 376.73,-8.77 439.49,-27.56"/>
<polygon fill="midnightblue" stroke="midnightblue" points="438.75,-31 449.34,-30.59 440.81,-24.31 438.75,-31"/>
</g>
<!-- Node3 -->
<g id="node3" class="node">
<title>Node3</title>
<g id="a_node3"><a xlink:href="class_logger.html#ad83dbe66156650acca19d3772ce41229" target="_top" xlink:title="Записывает сообщение в лог с определенным цветом.">
<polygon fill="white" stroke="black" points="669,-125.62 669,-144.62 740,-144.62 740,-125.62 669,-125.62"/>
<text text-anchor="middle" x="704.5" y="-132.62" font-family="Helvetica,sans-Serif" font-size="10.00">Logger::log</text>
</a>
</g>
</g>
<!-- Node2&#45;&gt;Node3 -->
<g id="edge2" class="edge">
<title>Node2&#45;&gt;Node3</title>
<path fill="none" stroke="midnightblue" d="M399.01,-220.57C460.72,-203.25 591.09,-166.67 659.49,-147.47"/>
<polygon fill="midnightblue" stroke="midnightblue" points="660.83,-150.73 669.52,-144.66 658.94,-143.99 660.83,-150.73"/>
</g>
<!-- Node4 -->
<g id="node4" class="node">
<title>Node4</title>
<g id="a_node4"><a xlink:href="logger_8cpp.html#afe00396766eb6b8ca4674de4c5d3d949" target="_top" xlink:title=" ">
<polygon fill="white" stroke="black" points="776,-144.62 776,-163.62 843,-163.62 843,-144.62 776,-144.62"/>
<text text-anchor="middle" x="809.5" y="-151.62" font-family="Helvetica,sans-Serif" font-size="10.00">resetColor</text>
</a>
</g>
</g>
<!-- Node3&#45;&gt;Node4 -->
<g id="edge3" class="edge">
<title>Node3&#45;&gt;Node4</title>
<path fill="none" stroke="midnightblue" d="M740.08,-141.5C748.4,-143.03 757.38,-144.69 766.01,-146.28"/>
<polygon fill="midnightblue" stroke="midnightblue" points="765.45,-149.74 775.92,-148.11 766.72,-142.85 765.45,-149.74"/>
</g>
<!-- Node5 -->
<g id="node5" class="node">
<title>Node5</title>
<g id="a_node5"><a xlink:href="logger_8cpp.html#a47a17bf6298ba8d1f42d32b14449e277" target="_top" xlink:title=" ">
<polygon fill="white" stroke="black" points="781,-106.62 781,-125.62 838,-125.62 838,-106.62 781,-106.62"/>
<text text-anchor="middle" x="809.5" y="-113.62" font-family="Helvetica,sans-Serif" font-size="10.00">setColor</text>
</a>
</g>
</g>
<!-- Node3&#45;&gt;Node5 -->
<g id="edge4" class="edge">
<title>Node3&#45;&gt;Node5</title>
<path fill="none" stroke="midnightblue" d="M740.08,-128.74C749.89,-126.93 760.61,-124.95 770.6,-123.11"/>
<polygon fill="midnightblue" stroke="midnightblue" points="771.47,-126.51 780.67,-121.25 770.2,-119.62 771.47,-126.51"/>
</g>
<!-- Node7 -->
<g id="node7" class="node">
<title>Node7</title>
<g id="a_node7"><a xlink:href="class_logger.html#ab6042fdfcbb14026098e0df9d6b32f27" target="_top" xlink:title="Записывает ошибку в лог с красным цветом.">
<polygon fill="white" stroke="black" points="554,-125.62 554,-144.62 633,-144.62 633,-125.62 554,-125.62"/>
<text text-anchor="middle" x="593.5" y="-132.62" font-family="Helvetica,sans-Serif" font-size="10.00">Logger::error</text>
</a>
</g>
</g>
<!-- Node6&#45;&gt;Node7 -->
<g id="edge6" class="edge">
<title>Node6&#45;&gt;Node7</title>
<path fill="none" stroke="midnightblue" d="M515.22,-135.12C524.28,-135.12 534.13,-135.12 543.69,-135.12"/>
<polygon fill="midnightblue" stroke="midnightblue" points="543.88,-138.62 553.88,-135.12 543.88,-131.62 543.88,-138.62"/>
</g>
<!-- Node7&#45;&gt;Node3 -->
<g id="edge7" class="edge">
<title>Node7&#45;&gt;Node3</title>
<path fill="none" stroke="midnightblue" d="M633.24,-135.12C641.5,-135.12 650.3,-135.12 658.77,-135.12"/>
<polygon fill="midnightblue" stroke="midnightblue" points="658.88,-138.62 668.88,-135.12 658.88,-131.62 658.88,-138.62"/>
</g>
<!-- Node8&#45;&gt;Node6 -->
<g id="edge9" class="edge">
<title>Node8&#45;&gt;Node6</title>
<path fill="none" stroke="midnightblue" d="M268.55,-150.59C314.93,-147.15 385,-141.95 430.89,-138.54"/>
<polygon fill="midnightblue" stroke="midnightblue" points="431.15,-142.03 440.86,-137.8 430.63,-135.05 431.15,-142.03"/>
</g>
<!-- Node8&#45;&gt;Node9 -->
<g id="edge10" class="edge">
<title>Node8&#45;&gt;Node9</title>
<path fill="none" stroke="midnightblue" d="M256.83,-144.53C275.16,-139.62 297.68,-133.6 317.25,-128.36"/>
<polygon fill="midnightblue" stroke="midnightblue" points="318.42,-131.67 327.18,-125.7 316.61,-124.91 318.42,-131.67"/>
</g>
<!-- Node9&#45;&gt;Node6 -->
<g id="edge11" class="edge">
<title>Node9&#45;&gt;Node6</title>
<path fill="none" stroke="midnightblue" d="M402.29,-122.44C411.36,-123.98 421.17,-125.65 430.6,-127.25"/>
<polygon fill="midnightblue" stroke="midnightblue" points="430.18,-130.73 440.63,-128.95 431.36,-123.82 430.18,-130.73"/>
</g>
<!-- Node10&#45;&gt;Node6 -->
<g id="edge13" class="edge">
<title>Node10&#45;&gt;Node6</title>
<path fill="none" stroke="midnightblue" d="M252.74,-77.99C289.42,-78.63 351.24,-82.15 402,-97.12 420.15,-102.47 439.14,-112.14 453.48,-120.39"/>
<polygon fill="midnightblue" stroke="midnightblue" points="451.78,-123.45 462.17,-125.54 455.35,-117.43 451.78,-123.45"/>
</g>
<!-- Node10&#45;&gt;Node9 -->
<g id="edge14" class="edge">
<title>Node10&#45;&gt;Node9</title>
<path fill="none" stroke="midnightblue" d="M252.51,-86.55C271.63,-91.67 296.34,-98.28 317.55,-103.95"/>
<polygon fill="midnightblue" stroke="midnightblue" points="316.76,-107.37 327.32,-106.57 318.57,-100.6 316.76,-107.37"/>
</g>
<!-- Node12&#45;&gt;Node3 -->
<g id="edge18" class="edge">
<title>Node12&#45;&gt;Node3</title>
<path fill="none" stroke="midnightblue" d="M501.76,-49.75C541.95,-66.76 625.58,-102.14 671.54,-121.59"/>
<polygon fill="midnightblue" stroke="midnightblue" points="670.44,-124.93 681.01,-125.6 673.17,-118.48 670.44,-124.93"/>
</g>
</g>
</svg>
