<?xml version="1.0" encoding="UTF-8" standalone="no"?>
<!DOCTYPE svg PUBLIC "-//W3C//DTD SVG 1.1//EN"
 "http://www.w3.org/Graphics/SVG/1.1/DTD/svg11.dtd">
<!-- Generated by graphviz version 2.43.0 (0)
 -->
<!-- Title: parseCommandLine Pages: 1 -->
<svg width="525pt" height="218pt"
 viewBox="0.00 0.00 525.00 218.00" xmlns="http://www.w3.org/2000/svg" xmlns:xlink="http://www.w3.org/1999/xlink">
<g id="graph0" class="graph" transform="scale(1 1) rotate(0) translate(4 214)">
<title>parseCommandLine</title>
<polygon fill="white" stroke="transparent" points="-4,4 -4,-214 521,-214 521,4 -4,4"/>
<!-- Node1 -->
<g id="node1" class="node">
<title>Node1</title>
<g id="a_node1"><a xlink:title="Парсинг командной строки и создание объекта OperationParams.">
<polygon fill="#bfbfbf" stroke="black" points="0,-95.5 0,-114.5 114,-114.5 114,-95.5 0,-95.5"/>
<text text-anchor="middle" x="57" y="-102.5" font-family="Helvetica,sans-Serif" font-size="10.00">parseCommandLine</text>
</a>
</g>
</g>
<!-- Node2 -->
<g id="node2" class="node">
<title>Node2</title>
<g id="a_node2"><a xlink:href="operation__params_8cpp.html#a1451d6a0f33f9d0a02a4b055e5839e6e" target="_top" xlink:title="Отображение справки о возможных параметрах командной строки.">
<polygon fill="white" stroke="black" points="183,-190.5 183,-209.5 257,-209.5 257,-190.5 183,-190.5"/>
<text text-anchor="middle" x="220" y="-197.5" font-family="Helvetica,sans-Serif" font-size="10.00">displayHelp</text>
</a>
</g>
</g>
<!-- Node1&#45;&gt;Node2 -->
<g id="edge1" class="edge">
<title>Node1&#45;&gt;Node2</title>
<path fill="none" stroke="midnightblue" d="M68.25,-114.74C84.47,-129.7 117.53,-158.43 150,-176 157.78,-180.21 166.44,-183.91 174.93,-187.06"/>
<polygon fill="midnightblue" stroke="midnightblue" points="173.79,-190.37 184.38,-190.38 176.11,-183.76 173.79,-190.37"/>
</g>
<!-- Node4 -->
<g id="node4" class="node">
<title>Node4</title>
<g id="a_node4"><a xlink:href="class_logger.html#ac2b605d549e7b4d89fd229230fe99bb4" target="_top" xlink:title="Записывает сообщение и завершает программу с заданным кодом выхода.">
<polygon fill="white" stroke="black" points="327,-143.5 327,-162.5 401,-162.5 401,-143.5 327,-143.5"/>
<text text-anchor="middle" x="364" y="-150.5" font-family="Helvetica,sans-Serif" font-size="10.00">Logger::exit</text>
</a>
</g>
</g>
<!-- Node1&#45;&gt;Node4 -->
<g id="edge3" class="edge">
<title>Node1&#45;&gt;Node4</title>
<path fill="none" stroke="midnightblue" d="M76.06,-114.66C94.19,-123.81 123.18,-137.02 150,-143 206.37,-155.56 273.13,-156.53 316.69,-155.37"/>
<polygon fill="midnightblue" stroke="midnightblue" points="316.81,-158.86 326.7,-155.05 316.59,-151.87 316.81,-158.86"/>
</g>
<!-- Node6 -->
<g id="node6" class="node">
<title>Node6</title>
<g id="a_node6"><a xlink:href="operation__params_8cpp.html#abbd547560acd14f298e5d36dcf0398d3" target="_top" xlink:title="Парсинг строки с RGB&#45;значением цвета.">
<polygon fill="white" stroke="black" points="187.5,-114.5 187.5,-133.5 252.5,-133.5 252.5,-114.5 187.5,-114.5"/>
<text text-anchor="middle" x="220" y="-121.5" font-family="Helvetica,sans-Serif" font-size="10.00">parseRGB</text>
</a>
</g>
</g>
<!-- Node1&#45;&gt;Node6 -->
<g id="edge5" class="edge">
<title>Node1&#45;&gt;Node6</title>
<path fill="none" stroke="midnightblue" d="M114.31,-111.65C135.06,-114.09 158.18,-116.82 177.4,-119.09"/>
<polygon fill="midnightblue" stroke="midnightblue" points="177.01,-122.57 187.35,-120.27 177.83,-115.62 177.01,-122.57"/>
</g>
<!-- Node7 -->
<g id="node7" class="node">
<title>Node7</title>
<g id="a_node7"><a xlink:href="operation__params_8cpp.html#acb9b051691fc7054f0232d28aef686c4" target="_top" xlink:title="Парсинг строки с числами, разделенными пробелами.">
<polygon fill="white" stroke="black" points="326,-86.5 326,-105.5 402,-105.5 402,-86.5 326,-86.5"/>
<text text-anchor="middle" x="364" y="-93.5" font-family="Helvetica,sans-Serif" font-size="10.00">parseValues</text>
</a>
</g>
</g>
<!-- Node1&#45;&gt;Node7 -->
<g id="edge8" class="edge">
<title>Node1&#45;&gt;Node7</title>
<path fill="none" stroke="midnightblue" d="M114.3,-103.34C172.19,-101.63 261.34,-99 315.7,-97.4"/>
<polygon fill="midnightblue" stroke="midnightblue" points="315.87,-100.89 325.76,-97.1 315.66,-93.9 315.87,-100.89"/>
</g>
<!-- Node8 -->
<g id="node8" class="node">
<title>Node8</title>
<g id="a_node8"><a xlink:href="class_logger.html#ab7e9747c046ab01e065bde00aa26b44b" target="_top" xlink:title="Устанавливает разрешение использования цветов в выводе.">
<polygon fill="white" stroke="black" points="150,-38.5 150,-57.5 290,-57.5 290,-38.5 150,-38.5"/>
<text text-anchor="middle" x="220" y="-45.5" font-family="Helvetica,sans-Serif" font-size="10.00">Logger::setColorsEnabled</text>
</a>
</g>
</g>
<!-- Node1&#45;&gt;Node8 -->
<g id="edge9" class="edge">
<title>Node1&#45;&gt;Node8</title>
<path fill="none" stroke="midnightblue" d="M84.55,-95.4C102.91,-88.78 127.92,-79.8 150,-72 160.33,-68.35 171.55,-64.43 181.88,-60.84"/>
<polygon fill="midnightblue" stroke="midnightblue" points="183.15,-64.1 191.45,-57.52 180.85,-57.49 183.15,-64.1"/>
</g>
<!-- Node9 -->
<g id="node9" class="node">
<title>Node9</title>
<g id="a_node9"><a xlink:href="class_logger.html#a24b519e0f53e73937f93edd2da37ea76" target="_top" xlink:title="Записывает предупреждение в лог.">
<polygon fill="white" stroke="black" points="180,-0.5 180,-19.5 260,-19.5 260,-0.5 180,-0.5"/>
<text text-anchor="middle" x="220" y="-7.5" font-family="Helvetica,sans-Serif" font-size="10.00">Logger::warn</text>
</a>
</g>
</g>
<!-- Node1&#45;&gt;Node9 -->
<g id="edge10" class="edge">
<title>Node1&#45;&gt;Node9</title>
<path fill="none" stroke="midnightblue" d="M66.96,-95.31C82.38,-79.19 115.63,-46.88 150,-29 156.22,-25.76 163.05,-23.03 169.92,-20.74"/>
<polygon fill="midnightblue" stroke="midnightblue" points="171.41,-23.95 179.95,-17.68 169.37,-17.25 171.41,-23.95"/>
</g>
<!-- Node3 -->
<g id="node3" class="node">
<title>Node3</title>
<g id="a_node3"><a xlink:href="class_logger.html#af5bd3aa615eb67a5a49c02d8040812db" target="_top" xlink:title="Записывает сообщение в лог.">
<polygon fill="white" stroke="black" points="328.5,-190.5 328.5,-209.5 399.5,-209.5 399.5,-190.5 328.5,-190.5"/>
<text text-anchor="middle" x="364" y="-197.5" font-family="Helvetica,sans-Serif" font-size="10.00">Logger::log</text>
</a>
</g>
</g>
<!-- Node2&#45;&gt;Node3 -->
<g id="edge2" class="edge">
<title>Node2&#45;&gt;Node3</title>
<path fill="none" stroke="midnightblue" d="M257.2,-200C275.73,-200 298.46,-200 318.09,-200"/>
<polygon fill="midnightblue" stroke="midnightblue" points="318.34,-203.5 328.34,-200 318.34,-196.5 318.34,-203.5"/>
</g>
<!-- Node5 -->
<g id="node5" class="node">
<title>Node5</title>
<g id="a_node5"><a xlink:href="class_logger.html#ab6042fdfcbb14026098e0df9d6b32f27" target="_top" xlink:title="Записывает ошибку в лог.">
<polygon fill="white" stroke="black" points="438,-143.5 438,-162.5 517,-162.5 517,-143.5 438,-143.5"/>
<text text-anchor="middle" x="477.5" y="-150.5" font-family="Helvetica,sans-Serif" font-size="10.00">Logger::error</text>
</a>
</g>
</g>
<!-- Node4&#45;&gt;Node5 -->
<g id="edge4" class="edge">
<title>Node4&#45;&gt;Node5</title>
<path fill="none" stroke="midnightblue" d="M401.2,-153C409.61,-153 418.7,-153 427.56,-153"/>
<polygon fill="midnightblue" stroke="midnightblue" points="427.79,-156.5 437.79,-153 427.79,-149.5 427.79,-156.5"/>
</g>
<!-- Node6&#45;&gt;Node4 -->
<g id="edge6" class="edge">
<title>Node6&#45;&gt;Node4</title>
<path fill="none" stroke="midnightblue" d="M252.51,-130.44C271.4,-134.29 295.76,-139.27 316.79,-143.56"/>
<polygon fill="midnightblue" stroke="midnightblue" points="316.32,-147.04 326.81,-145.61 317.72,-140.18 316.32,-147.04"/>
</g>
<!-- Node6&#45;&gt;Node7 -->
<g id="edge7" class="edge">
<title>Node6&#45;&gt;Node7</title>
<path fill="none" stroke="midnightblue" d="M252.51,-117.79C271.12,-114.12 295.04,-109.4 315.85,-105.3"/>
<polygon fill="midnightblue" stroke="midnightblue" points="316.65,-108.71 325.79,-103.34 315.3,-101.84 316.65,-108.71"/>
</g>
</g>
</svg>
