<?xml version="1.0" encoding="UTF-8" standalone="no"?>
<!DOCTYPE svg PUBLIC "-//W3C//DTD SVG 1.1//EN"
 "http://www.w3.org/Graphics/SVG/1.1/DTD/svg11.dtd">
<!-- Generated by graphviz version 2.43.0 (0)
 -->
<!-- Title: include/operation_params.hpp Pages: 1 -->
<svg width="601pt" height="140pt"
 viewBox="0.00 0.00 600.50 140.00" xmlns="http://www.w3.org/2000/svg" xmlns:xlink="http://www.w3.org/1999/xlink">
<g id="graph0" class="graph" transform="scale(1 1) rotate(0) translate(4 136)">
<title>include/operation_params.hpp</title>
<polygon fill="white" stroke="transparent" points="-4,4 -4,-136 596.5,-136 596.5,4 -4,4"/>
<!-- Node1 -->
<g id="node1" class="node">
<title>Node1</title>
<g id="a_node1"><a xlink:title=" ">
<polygon fill="#bfbfbf" stroke="black" points="226,-112.5 226,-131.5 390,-131.5 390,-112.5 226,-112.5"/>
<text text-anchor="middle" x="308" y="-119.5" font-family="Helvetica,sans-Serif" font-size="10.00">include/operation_params.hpp</text>
</a>
</g>
</g>
<!-- Node2 -->
<g id="node2" class="node">
<title>Node2</title>
<g id="a_node2"><a xlink:href="structures_8hpp.html" target="_top" xlink:title=" ">
<polygon fill="white" stroke="black" points="0,-56.5 0,-75.5 86,-75.5 86,-56.5 0,-56.5"/>
<text text-anchor="middle" x="43" y="-63.5" font-family="Helvetica,sans-Serif" font-size="10.00">structures.hpp</text>
</a>
</g>
</g>
<!-- Node1&#45;&gt;Node2 -->
<g id="edge1" class="edge">
<title>Node1&#45;&gt;Node2</title>
<path fill="none" stroke="midnightblue" d="M266.01,-112.44C219.59,-102.98 144.77,-87.74 94.76,-77.55"/>
<polygon fill="midnightblue" stroke="midnightblue" points="95.29,-74.08 84.79,-75.52 93.89,-80.94 95.29,-74.08"/>
</g>
<!-- Node4 -->
<g id="node4" class="node">
<title>Node4</title>
<g id="a_node4"><a xlink:title=" ">
<polygon fill="white" stroke="#bfbfbf" points="104.5,-56.5 104.5,-75.5 161.5,-75.5 161.5,-56.5 104.5,-56.5"/>
<text text-anchor="middle" x="133" y="-63.5" font-family="Helvetica,sans-Serif" font-size="10.00">getopt.h</text>
</a>
</g>
</g>
<!-- Node1&#45;&gt;Node4 -->
<g id="edge3" class="edge">
<title>Node1&#45;&gt;Node4</title>
<path fill="none" stroke="midnightblue" d="M280.27,-112.44C250.57,-103.28 203.28,-88.69 170.33,-78.52"/>
<polygon fill="midnightblue" stroke="midnightblue" points="171.19,-75.12 160.6,-75.52 169.12,-81.81 171.19,-75.12"/>
</g>
<!-- Node5 -->
<g id="node5" class="node">
<title>Node5</title>
<g id="a_node5"><a xlink:title=" ">
<polygon fill="white" stroke="#bfbfbf" points="179.5,-56.5 179.5,-75.5 226.5,-75.5 226.5,-56.5 179.5,-56.5"/>
<text text-anchor="middle" x="203" y="-63.5" font-family="Helvetica,sans-Serif" font-size="10.00">vector</text>
</a>
</g>
</g>
<!-- Node1&#45;&gt;Node5 -->
<g id="edge4" class="edge">
<title>Node1&#45;&gt;Node5</title>
<path fill="none" stroke="midnightblue" d="M291.13,-112.32C274.29,-103.66 248.19,-90.24 228.76,-80.25"/>
<polygon fill="midnightblue" stroke="midnightblue" points="230.32,-77.12 219.83,-75.65 227.12,-83.34 230.32,-77.12"/>
</g>
<!-- Node6 -->
<g id="node6" class="node">
<title>Node6</title>
<g id="a_node6"><a xlink:title=" ">
<polygon fill="white" stroke="#bfbfbf" points="245,-56.5 245,-75.5 295,-75.5 295,-56.5 245,-56.5"/>
<text text-anchor="middle" x="270" y="-63.5" font-family="Helvetica,sans-Serif" font-size="10.00">cstring</text>
</a>
</g>
</g>
<!-- Node1&#45;&gt;Node6 -->
<g id="edge5" class="edge">
<title>Node1&#45;&gt;Node6</title>
<path fill="none" stroke="midnightblue" d="M301.73,-112.08C296.36,-104.46 288.48,-93.26 281.92,-83.94"/>
<polygon fill="midnightblue" stroke="midnightblue" points="284.78,-81.91 276.16,-75.75 279.05,-85.94 284.78,-81.91"/>
</g>
<!-- Node7 -->
<g id="node7" class="node">
<title>Node7</title>
<g id="a_node7"><a xlink:title=" ">
<polygon fill="white" stroke="#bfbfbf" points="313.5,-56.5 313.5,-75.5 378.5,-75.5 378.5,-56.5 313.5,-56.5"/>
<text text-anchor="middle" x="346" y="-63.5" font-family="Helvetica,sans-Serif" font-size="10.00">functional</text>
</a>
</g>
</g>
<!-- Node1&#45;&gt;Node7 -->
<g id="edge6" class="edge">
<title>Node1&#45;&gt;Node7</title>
<path fill="none" stroke="midnightblue" d="M314.27,-112.08C319.64,-104.46 327.52,-93.26 334.08,-83.94"/>
<polygon fill="midnightblue" stroke="midnightblue" points="336.95,-85.94 339.84,-75.75 331.22,-81.91 336.95,-85.94"/>
</g>
<!-- Node8 -->
<g id="node8" class="node">
<title>Node8</title>
<g id="a_node8"><a xlink:title=" ">
<polygon fill="white" stroke="#bfbfbf" points="397,-56.5 397,-75.5 435,-75.5 435,-56.5 397,-56.5"/>
<text text-anchor="middle" x="416" y="-63.5" font-family="Helvetica,sans-Serif" font-size="10.00">map</text>
</a>
</g>
</g>
<!-- Node1&#45;&gt;Node8 -->
<g id="edge7" class="edge">
<title>Node1&#45;&gt;Node8</title>
<path fill="none" stroke="midnightblue" d="M325.35,-112.32C342.67,-103.66 369.52,-90.24 389.5,-80.25"/>
<polygon fill="midnightblue" stroke="midnightblue" points="391.31,-83.26 398.69,-75.65 388.18,-77 391.31,-83.26"/>
</g>
<!-- Node9 -->
<g id="node9" class="node">
<title>Node9</title>
<g id="a_node9"><a xlink:title=" ">
<polygon fill="white" stroke="#bfbfbf" points="453,-56.5 453,-75.5 509,-75.5 509,-56.5 453,-56.5"/>
<text text-anchor="middle" x="481" y="-63.5" font-family="Helvetica,sans-Serif" font-size="10.00">sstream</text>
</a>
</g>
</g>
<!-- Node1&#45;&gt;Node9 -->
<g id="edge8" class="edge">
<title>Node1&#45;&gt;Node9</title>
<path fill="none" stroke="midnightblue" d="M335.41,-112.44C364.77,-103.28 411.52,-88.69 444.1,-78.52"/>
<polygon fill="midnightblue" stroke="midnightblue" points="445.21,-81.84 453.72,-75.52 443.13,-75.16 445.21,-81.84"/>
</g>
<!-- Node10 -->
<g id="node10" class="node">
<title>Node10</title>
<g id="a_node10"><a xlink:title=" ">
<polygon fill="white" stroke="#bfbfbf" points="527.5,-56.5 527.5,-75.5 592.5,-75.5 592.5,-56.5 527.5,-56.5"/>
<text text-anchor="middle" x="560" y="-63.5" font-family="Helvetica,sans-Serif" font-size="10.00">stdexcept</text>
</a>
</g>
</g>
<!-- Node1&#45;&gt;Node10 -->
<g id="edge9" class="edge">
<title>Node1&#45;&gt;Node10</title>
<path fill="none" stroke="midnightblue" d="M347.93,-112.44C394.22,-102.52 470.19,-86.24 517.53,-76.1"/>
<polygon fill="midnightblue" stroke="midnightblue" points="518.42,-79.49 527.47,-73.97 516.96,-72.64 518.42,-79.49"/>
</g>
<!-- Node3 -->
<g id="node3" class="node">
<title>Node3</title>
<g id="a_node3"><a xlink:title=" ">
<polygon fill="white" stroke="#bfbfbf" points="21,-0.5 21,-19.5 65,-19.5 65,-0.5 21,-0.5"/>
<text text-anchor="middle" x="43" y="-7.5" font-family="Helvetica,sans-Serif" font-size="10.00">string</text>
</a>
</g>
</g>
<!-- Node2&#45;&gt;Node3 -->
<g id="edge2" class="edge">
<title>Node2&#45;&gt;Node3</title>
<path fill="none" stroke="midnightblue" d="M43,-56.08C43,-49.01 43,-38.86 43,-29.99"/>
<polygon fill="midnightblue" stroke="midnightblue" points="46.5,-29.75 43,-19.75 39.5,-29.75 46.5,-29.75"/>
</g>
</g>
</svg>
