<?xml version="1.0" encoding="UTF-8" standalone="no"?>
<!DOCTYPE svg PUBLIC "-//W3C//DTD SVG 1.1//EN"
 "http://www.w3.org/Graphics/SVG/1.1/DTD/svg11.dtd">
<!-- Generated by graphviz version 2.43.0 (0)
 -->
<!-- Title: include/operation_params.h Pages: 1 -->
<svg width="314pt" height="140pt"
 viewBox="0.00 0.00 313.50 140.00" xmlns="http://www.w3.org/2000/svg" xmlns:xlink="http://www.w3.org/1999/xlink">
<g id="graph0" class="graph" transform="scale(1 1) rotate(0) translate(4 136)">
<title>include/operation_params.h</title>
<polygon fill="white" stroke="transparent" points="-4,4 -4,-136 309.5,-136 309.5,4 -4,4"/>
<!-- Node1 -->
<g id="node1" class="node">
<title>Node1</title>
<g id="a_node1"><a xlink:title="Заголовочный файл, содержащий определения структур и классов.">
<polygon fill="#bfbfbf" stroke="black" points="58,-112.5 58,-131.5 210,-131.5 210,-112.5 58,-112.5"/>
<text text-anchor="middle" x="134" y="-119.5" font-family="Helvetica,sans-Serif" font-size="10.00">include/operation_params.h</text>
</a>
</g>
</g>
<!-- Node2 -->
<g id="node2" class="node">
<title>Node2</title>
<g id="a_node2"><a xlink:href="bmp_8h.html" target="_top" xlink:title="Заголовочный файл, содержащий определения структур и классов.">
<polygon fill="white" stroke="black" points="20,-56.5 20,-75.5 106,-75.5 106,-56.5 20,-56.5"/>
<text text-anchor="middle" x="63" y="-63.5" font-family="Helvetica,sans-Serif" font-size="10.00">include/bmp.h</text>
</a>
</g>
</g>
<!-- Node1&#45;&gt;Node2 -->
<g id="edge1" class="edge">
<title>Node1&#45;&gt;Node2</title>
<path fill="none" stroke="midnightblue" d="M114.41,-106.1C101.63,-96.38 85.39,-84.03 74.61,-75.83"/>
<polygon fill="midnightblue" stroke="midnightblue" points="112.51,-109.06 122.59,-112.32 116.75,-103.48 112.51,-109.06"/>
</g>
<!-- Node4 -->
<g id="node4" class="node">
<title>Node4</title>
<g id="a_node4"><a xlink:href="main_8cpp.html" target="_top" xlink:title="Главный файл программы">
<polygon fill="white" stroke="black" points="94.5,-0.5 94.5,-19.5 173.5,-19.5 173.5,-0.5 94.5,-0.5"/>
<text text-anchor="middle" x="134" y="-7.5" font-family="Helvetica,sans-Serif" font-size="10.00">src/main.cpp</text>
</a>
</g>
</g>
<!-- Node1&#45;&gt;Node4 -->
<g id="edge4" class="edge">
<title>Node1&#45;&gt;Node4</title>
<path fill="none" stroke="midnightblue" d="M134,-102.35C134,-78.25 134,-37.31 134,-19.59"/>
<polygon fill="midnightblue" stroke="midnightblue" points="130.5,-102.37 134,-112.37 137.5,-102.37 130.5,-102.37"/>
</g>
<!-- Node5 -->
<g id="node5" class="node">
<title>Node5</title>
<g id="a_node5"><a xlink:href="operation__params_8cpp.html" target="_top" xlink:title="Определяет функции для анализа параметров операций из командной строки.">
<polygon fill="white" stroke="black" points="162.5,-56.5 162.5,-75.5 305.5,-75.5 305.5,-56.5 162.5,-56.5"/>
<text text-anchor="middle" x="234" y="-63.5" font-family="Helvetica,sans-Serif" font-size="10.00">src/operation_params.cpp</text>
</a>
</g>
</g>
<!-- Node1&#45;&gt;Node5 -->
<g id="edge5" class="edge">
<title>Node1&#45;&gt;Node5</title>
<path fill="none" stroke="midnightblue" d="M159.09,-107.45C177.55,-97.48 202.1,-84.23 217.97,-75.65"/>
<polygon fill="midnightblue" stroke="midnightblue" points="157.2,-104.49 150.07,-112.32 160.53,-110.65 157.2,-104.49"/>
</g>
<!-- Node3 -->
<g id="node3" class="node">
<title>Node3</title>
<g id="a_node3"><a xlink:href="bmp_8cpp.html" target="_top" xlink:title="Реализация методов класса BMP для работы с изображениями в формате BMP.">
<polygon fill="white" stroke="black" points="0,-0.5 0,-19.5 76,-19.5 76,-0.5 0,-0.5"/>
<text text-anchor="middle" x="38" y="-7.5" font-family="Helvetica,sans-Serif" font-size="10.00">src/bmp.cpp</text>
</a>
</g>
</g>
<!-- Node2&#45;&gt;Node3 -->
<g id="edge2" class="edge">
<title>Node2&#45;&gt;Node3</title>
<path fill="none" stroke="midnightblue" d="M54.66,-46.98C50.42,-37.82 45.45,-27.09 42.05,-19.75"/>
<polygon fill="midnightblue" stroke="midnightblue" points="51.49,-48.48 58.87,-56.08 57.85,-45.54 51.49,-48.48"/>
</g>
<!-- Node2&#45;&gt;Node4 -->
<g id="edge3" class="edge">
<title>Node2&#45;&gt;Node4</title>
<path fill="none" stroke="midnightblue" d="M82.59,-50.1C95.37,-40.38 111.61,-28.03 122.39,-19.83"/>
<polygon fill="midnightblue" stroke="midnightblue" points="80.25,-47.48 74.41,-56.32 84.49,-53.06 80.25,-47.48"/>
</g>
</g>
</svg>
