<?xml version="1.0" encoding="UTF-8" standalone="no"?>
<!DOCTYPE svg PUBLIC "-//W3C//DTD SVG 1.1//EN"
 "http://www.w3.org/Graphics/SVG/1.1/DTD/svg11.dtd">
<!-- Generated by graphviz version 2.43.0 (0)
 -->
<!-- Title: parseValues Pages: 1 -->
<svg width="444pt" height="79pt"
 viewBox="0.00 0.00 444.00 78.83" xmlns="http://www.w3.org/2000/svg" xmlns:xlink="http://www.w3.org/1999/xlink">
<g id="graph0" class="graph" transform="scale(1 1) rotate(0) translate(4 74.83)">
<title>parseValues</title>
<polygon fill="white" stroke="transparent" points="-4,4 -4,-74.83 440,-74.83 440,4 -4,4"/>
<!-- Node1 -->
<g id="node1" class="node">
<title>Node1</title>
<g id="a_node1"><a xlink:title=" ">
<polygon fill="#bfbfbf" stroke="black" points="360,-38.5 360,-57.5 436,-57.5 436,-38.5 360,-38.5"/>
<text text-anchor="middle" x="398" y="-45.5" font-family="Helvetica,sans-Serif" font-size="10.00">parseValues</text>
</a>
</g>
</g>
<!-- Node2 -->
<g id="node2" class="node">
<title>Node2</title>
<g id="a_node2"><a xlink:href="operation__params_8cpp.html#a0048eb016cc89e79b003ff63259ea264" target="_top" xlink:title=" ">
<polygon fill="white" stroke="black" points="77,-38.5 77,-57.5 191,-57.5 191,-38.5 77,-38.5"/>
<text text-anchor="middle" x="134" y="-45.5" font-family="Helvetica,sans-Serif" font-size="10.00">parseCommandLine</text>
</a>
</g>
</g>
<!-- Node1&#45;&gt;Node2 -->
<g id="edge1" class="edge">
<title>Node1&#45;&gt;Node2</title>
<path fill="none" stroke="midnightblue" d="M357.53,-60.23C346.76,-63.02 335.03,-65.59 324,-67 281.24,-72.47 269.89,-71.38 227,-67 208.83,-65.14 188.95,-61.27 172.33,-57.51"/>
<polygon fill="midnightblue" stroke="midnightblue" points="358.78,-63.52 367.5,-57.5 356.93,-56.76 358.78,-63.52"/>
</g>
<!-- Node4 -->
<g id="node4" class="node">
<title>Node4</title>
<g id="a_node4"><a xlink:href="operation__params_8cpp.html#adfab6ddfafab9bed92ac967c3a0fe0dd" target="_top" xlink:title=" ">
<polygon fill="white" stroke="black" points="227,-38.5 227,-57.5 324,-57.5 324,-38.5 227,-38.5"/>
<text text-anchor="middle" x="275.5" y="-45.5" font-family="Helvetica,sans-Serif" font-size="10.00">parseCoordinate</text>
</a>
</g>
</g>
<!-- Node1&#45;&gt;Node4 -->
<g id="edge3" class="edge">
<title>Node1&#45;&gt;Node4</title>
<path fill="none" stroke="midnightblue" d="M349.6,-48C341.32,-48 332.7,-48 324.4,-48"/>
<polygon fill="midnightblue" stroke="midnightblue" points="349.86,-51.5 359.86,-48 349.86,-44.5 349.86,-51.5"/>
</g>
<!-- Node5 -->
<g id="node5" class="node">
<title>Node5</title>
<g id="a_node5"><a xlink:href="operation__params_8cpp.html#abbd547560acd14f298e5d36dcf0398d3" target="_top" xlink:title=" ">
<polygon fill="white" stroke="black" points="243,-0.5 243,-19.5 308,-19.5 308,-0.5 243,-0.5"/>
<text text-anchor="middle" x="275.5" y="-7.5" font-family="Helvetica,sans-Serif" font-size="10.00">parseRGB</text>
</a>
</g>
</g>
<!-- Node1&#45;&gt;Node5 -->
<g id="edge5" class="edge">
<title>Node1&#45;&gt;Node5</title>
<path fill="none" stroke="midnightblue" d="M356.79,-35.32C340.51,-30.19 322.02,-24.36 306.9,-19.59"/>
<polygon fill="midnightblue" stroke="midnightblue" points="356,-38.74 366.59,-38.41 358.11,-32.07 356,-38.74"/>
</g>
<!-- Node3 -->
<g id="node3" class="node">
<title>Node3</title>
<g id="a_node3"><a xlink:href="main_8cpp.html#a0ddf1224851353fc92bfbff6f499fa97" target="_top" xlink:title="Главная функция программы">
<polygon fill="white" stroke="black" points="0,-38.5 0,-57.5 41,-57.5 41,-38.5 0,-38.5"/>
<text text-anchor="middle" x="20.5" y="-45.5" font-family="Helvetica,sans-Serif" font-size="10.00">main</text>
</a>
</g>
</g>
<!-- Node2&#45;&gt;Node3 -->
<g id="edge2" class="edge">
<title>Node2&#45;&gt;Node3</title>
<path fill="none" stroke="midnightblue" d="M66.7,-48C57.37,-48 48.45,-48 41.04,-48"/>
<polygon fill="midnightblue" stroke="midnightblue" points="66.92,-51.5 76.92,-48 66.92,-44.5 66.92,-51.5"/>
</g>
<!-- Node4&#45;&gt;Node2 -->
<g id="edge4" class="edge">
<title>Node4&#45;&gt;Node2</title>
<path fill="none" stroke="midnightblue" d="M216.7,-48C208.22,-48 199.5,-48 191.06,-48"/>
<polygon fill="midnightblue" stroke="midnightblue" points="216.88,-51.5 226.88,-48 216.88,-44.5 216.88,-51.5"/>
</g>
<!-- Node5&#45;&gt;Node2 -->
<g id="edge6" class="edge">
<title>Node5&#45;&gt;Node2</title>
<path fill="none" stroke="midnightblue" d="M233.03,-21.3C212.95,-26.77 189.1,-33.26 169.96,-38.48"/>
<polygon fill="midnightblue" stroke="midnightblue" points="234.12,-24.63 242.85,-18.62 232.28,-17.87 234.12,-24.63"/>
</g>
</g>
</svg>
