<?xml version="1.0" encoding="UTF-8" standalone="no"?>
<!DOCTYPE svg PUBLIC "-//W3C//DTD SVG 1.1//EN"
 "http://www.w3.org/Graphics/SVG/1.1/DTD/svg11.dtd">
<!-- Generated by graphviz version 2.43.0 (0)
 -->
<!-- Title: parseCommandLine Pages: 1 -->
<svg width="845pt" height="218pt"
 viewBox="0.00 0.00 845.00 218.00" xmlns="http://www.w3.org/2000/svg" xmlns:xlink="http://www.w3.org/1999/xlink">
<g id="graph0" class="graph" transform="scale(1 1) rotate(0) translate(4 214)">
<title>parseCommandLine</title>
<polygon fill="white" stroke="transparent" points="-4,4 -4,-214 841,-214 841,4 -4,4"/>
<!-- Node1 -->
<g id="node1" class="node">
<title>Node1</title>
<g id="a_node1"><a xlink:title="Парсинг командной строки и создание объекта Operations.">
<polygon fill="#bfbfbf" stroke="black" points="0,-95.5 0,-114.5 114,-114.5 114,-95.5 0,-95.5"/>
<text text-anchor="middle" x="57" y="-102.5" font-family="Helvetica,sans-Serif" font-size="10.00">parseCommandLine</text>
</a>
</g>
</g>
<!-- Node2 -->
<g id="node2" class="node">
<title>Node2</title>
<g id="a_node2"><a xlink:href="operation__params_8cpp.html#a1451d6a0f33f9d0a02a4b055e5839e6e" target="_top" xlink:title="Отображение справки о возможных параметрах командной строки.">
<polygon fill="white" stroke="black" points="327,-190.5 327,-209.5 401,-209.5 401,-190.5 327,-190.5"/>
<text text-anchor="middle" x="364" y="-197.5" font-family="Helvetica,sans-Serif" font-size="10.00">displayHelp</text>
</a>
</g>
</g>
<!-- Node1&#45;&gt;Node2 -->
<g id="edge1" class="edge">
<title>Node1&#45;&gt;Node2</title>
<path fill="none" stroke="midnightblue" d="M66.83,-114.61C82.06,-130.48 115.03,-161.84 150,-176 204.29,-197.98 272.33,-202.01 316.69,-201.85"/>
<polygon fill="midnightblue" stroke="midnightblue" points="316.93,-205.34 326.89,-201.73 316.85,-198.34 316.93,-205.34"/>
</g>
<!-- Node6 -->
<g id="node6" class="node">
<title>Node6</title>
<g id="a_node6"><a xlink:href="class_logger.html#ad044e18a74f8f7417e2bf8d8b64a9e3d" target="_top" xlink:title="Записывает сообщение и завершает программу с заданным кодом выхода.">
<polygon fill="white" stroke="black" points="438,-114.5 438,-133.5 512,-133.5 512,-114.5 438,-114.5"/>
<text text-anchor="middle" x="475" y="-121.5" font-family="Helvetica,sans-Serif" font-size="10.00">Logger::exit</text>
</a>
</g>
</g>
<!-- Node1&#45;&gt;Node6 -->
<g id="edge5" class="edge">
<title>Node1&#45;&gt;Node6</title>
<path fill="none" stroke="midnightblue" d="M75.33,-114.58C93.36,-123.95 122.71,-137.59 150,-143 247.38,-162.32 364.19,-146.05 427.56,-134.02"/>
<polygon fill="midnightblue" stroke="midnightblue" points="428.49,-137.41 437.63,-132.06 427.15,-130.54 428.49,-137.41"/>
</g>
<!-- Node8 -->
<g id="node8" class="node">
<title>Node8</title>
<g id="a_node8"><a xlink:href="operation__params_8cpp.html#adfab6ddfafab9bed92ac967c3a0fe0dd" target="_top" xlink:title=" ">
<polygon fill="white" stroke="black" points="171.5,-114.5 171.5,-133.5 268.5,-133.5 268.5,-114.5 171.5,-114.5"/>
<text text-anchor="middle" x="220" y="-121.5" font-family="Helvetica,sans-Serif" font-size="10.00">parseCoordinate</text>
</a>
</g>
</g>
<!-- Node1&#45;&gt;Node8 -->
<g id="edge8" class="edge">
<title>Node1&#45;&gt;Node8</title>
<path fill="none" stroke="midnightblue" d="M114.31,-111.65C129.41,-113.43 145.77,-115.36 160.97,-117.15"/>
<polygon fill="midnightblue" stroke="midnightblue" points="160.93,-120.67 171.27,-118.37 161.75,-113.72 160.93,-120.67"/>
</g>
<!-- Node9 -->
<g id="node9" class="node">
<title>Node9</title>
<g id="a_node9"><a xlink:href="operation__params_8cpp.html#acb9b051691fc7054f0232d28aef686c4" target="_top" xlink:title="Парсинг строки с числами, разделенными пробелами.">
<polygon fill="white" stroke="black" points="326,-76.5 326,-95.5 402,-95.5 402,-76.5 326,-76.5"/>
<text text-anchor="middle" x="364" y="-83.5" font-family="Helvetica,sans-Serif" font-size="10.00">parseValues</text>
</a>
</g>
</g>
<!-- Node1&#45;&gt;Node9 -->
<g id="edge15" class="edge">
<title>Node1&#45;&gt;Node9</title>
<path fill="none" stroke="midnightblue" d="M114.3,-101.49C172.19,-97.89 261.34,-92.33 315.7,-88.95"/>
<polygon fill="midnightblue" stroke="midnightblue" points="316,-92.43 325.76,-88.32 315.56,-85.45 316,-92.43"/>
</g>
<!-- Node10 -->
<g id="node10" class="node">
<title>Node10</title>
<g id="a_node10"><a xlink:href="operation__params_8cpp.html#abbd547560acd14f298e5d36dcf0398d3" target="_top" xlink:title="Парсинг строки с RGB&#45;значением цвета.">
<polygon fill="white" stroke="black" points="187.5,-38.5 187.5,-57.5 252.5,-57.5 252.5,-38.5 187.5,-38.5"/>
<text text-anchor="middle" x="220" y="-45.5" font-family="Helvetica,sans-Serif" font-size="10.00">parseRGB</text>
</a>
</g>
</g>
<!-- Node1&#45;&gt;Node10 -->
<g id="edge12" class="edge">
<title>Node1&#45;&gt;Node10</title>
<path fill="none" stroke="midnightblue" d="M84.55,-95.4C102.91,-88.78 127.92,-79.8 150,-72 160.33,-68.35 171.55,-64.43 181.88,-60.84"/>
<polygon fill="midnightblue" stroke="midnightblue" points="183.15,-64.1 191.45,-57.52 180.85,-57.49 183.15,-64.1"/>
</g>
<!-- Node11 -->
<g id="node11" class="node">
<title>Node11</title>
<g id="a_node11"><a xlink:href="class_logger.html#ab7e9747c046ab01e065bde00aa26b44b" target="_top" xlink:title="Устанавливает разрешение использования цветов в выводе.">
<polygon fill="white" stroke="black" points="150,-0.5 150,-19.5 290,-19.5 290,-0.5 150,-0.5"/>
<text text-anchor="middle" x="220" y="-7.5" font-family="Helvetica,sans-Serif" font-size="10.00">Logger::setColorsEnabled</text>
</a>
</g>
</g>
<!-- Node1&#45;&gt;Node11 -->
<g id="edge16" class="edge">
<title>Node1&#45;&gt;Node11</title>
<path fill="none" stroke="midnightblue" d="M66.96,-95.31C82.38,-79.19 115.63,-46.88 150,-29 154.32,-26.75 158.93,-24.75 163.65,-22.97"/>
<polygon fill="midnightblue" stroke="midnightblue" points="165.1,-26.17 173.42,-19.61 162.82,-19.55 165.1,-26.17"/>
</g>
<!-- Node3 -->
<g id="node3" class="node">
<title>Node3</title>
<g id="a_node3"><a xlink:href="class_logger.html#a6faf175f206bf5734a4824c98296c677" target="_top" xlink:title="Записывает сообщение в лог с определенным цветом.">
<polygon fill="white" stroke="black" points="663,-152.5 663,-171.5 734,-171.5 734,-152.5 663,-152.5"/>
<text text-anchor="middle" x="698.5" y="-159.5" font-family="Helvetica,sans-Serif" font-size="10.00">Logger::log</text>
</a>
</g>
</g>
<!-- Node2&#45;&gt;Node3 -->
<g id="edge2" class="edge">
<title>Node2&#45;&gt;Node3</title>
<path fill="none" stroke="midnightblue" d="M401.22,-195.86C462.41,-188.87 586.08,-174.73 652.65,-167.13"/>
<polygon fill="midnightblue" stroke="midnightblue" points="653.29,-170.58 662.83,-165.96 652.5,-163.62 653.29,-170.58"/>
</g>
<!-- Node4 -->
<g id="node4" class="node">
<title>Node4</title>
<g id="a_node4"><a xlink:href="logger_8cpp.html#a3ae85e4766efbf5abe5eaf6e5c4afc32" target="_top" xlink:title=" ">
<polygon fill="white" stroke="black" points="770,-171.5 770,-190.5 837,-190.5 837,-171.5 770,-171.5"/>
<text text-anchor="middle" x="803.5" y="-178.5" font-family="Helvetica,sans-Serif" font-size="10.00">resetColor</text>
</a>
</g>
</g>
<!-- Node3&#45;&gt;Node4 -->
<g id="edge3" class="edge">
<title>Node3&#45;&gt;Node4</title>
<path fill="none" stroke="midnightblue" d="M734.08,-168.38C742.4,-169.91 751.38,-171.57 760.01,-173.16"/>
<polygon fill="midnightblue" stroke="midnightblue" points="759.45,-176.62 769.92,-174.99 760.72,-169.73 759.45,-176.62"/>
</g>
<!-- Node5 -->
<g id="node5" class="node">
<title>Node5</title>
<g id="a_node5"><a xlink:href="logger_8cpp.html#a81d09f8360558968e2402c1565126734" target="_top" xlink:title=" ">
<polygon fill="white" stroke="black" points="775,-133.5 775,-152.5 832,-152.5 832,-133.5 775,-133.5"/>
<text text-anchor="middle" x="803.5" y="-140.5" font-family="Helvetica,sans-Serif" font-size="10.00">setColor</text>
</a>
</g>
</g>
<!-- Node3&#45;&gt;Node5 -->
<g id="edge4" class="edge">
<title>Node3&#45;&gt;Node5</title>
<path fill="none" stroke="midnightblue" d="M734.08,-155.62C743.89,-153.81 754.61,-151.83 764.6,-149.99"/>
<polygon fill="midnightblue" stroke="midnightblue" points="765.47,-153.39 774.67,-148.13 764.2,-146.51 765.47,-153.39"/>
</g>
<!-- Node7 -->
<g id="node7" class="node">
<title>Node7</title>
<g id="a_node7"><a xlink:href="class_logger.html#a32783adace456c614c77d2944036e31b" target="_top" xlink:title="Записывает ошибку в лог с красным цветом.">
<polygon fill="white" stroke="black" points="548,-133.5 548,-152.5 627,-152.5 627,-133.5 548,-133.5"/>
<text text-anchor="middle" x="587.5" y="-140.5" font-family="Helvetica,sans-Serif" font-size="10.00">Logger::error</text>
</a>
</g>
</g>
<!-- Node6&#45;&gt;Node7 -->
<g id="edge6" class="edge">
<title>Node6&#45;&gt;Node7</title>
<path fill="none" stroke="midnightblue" d="M512.18,-130.22C520.42,-131.64 529.29,-133.16 537.95,-134.65"/>
<polygon fill="midnightblue" stroke="midnightblue" points="537.51,-138.13 547.95,-136.37 538.69,-131.23 537.51,-138.13"/>
</g>
<!-- Node7&#45;&gt;Node3 -->
<g id="edge7" class="edge">
<title>Node7&#45;&gt;Node3</title>
<path fill="none" stroke="midnightblue" d="M627.24,-149.75C635.5,-151.19 644.3,-152.73 652.77,-154.2"/>
<polygon fill="midnightblue" stroke="midnightblue" points="652.43,-157.7 662.88,-155.97 653.63,-150.8 652.43,-157.7"/>
</g>
<!-- Node8&#45;&gt;Node6 -->
<g id="edge9" class="edge">
<title>Node8&#45;&gt;Node6</title>
<path fill="none" stroke="midnightblue" d="M268.59,-124C314.14,-124 382.41,-124 427.57,-124"/>
<polygon fill="midnightblue" stroke="midnightblue" points="427.68,-127.5 437.68,-124 427.68,-120.5 427.68,-127.5"/>
</g>
<!-- Node8&#45;&gt;Node9 -->
<g id="edge10" class="edge">
<title>Node8&#45;&gt;Node9</title>
<path fill="none" stroke="midnightblue" d="M256.83,-114.41C275.16,-109.51 297.68,-103.48 317.25,-98.24"/>
<polygon fill="midnightblue" stroke="midnightblue" points="318.42,-101.55 327.18,-95.59 316.61,-94.79 318.42,-101.55"/>
</g>
<!-- Node9&#45;&gt;Node6 -->
<g id="edge11" class="edge">
<title>Node9&#45;&gt;Node6</title>
<path fill="none" stroke="midnightblue" d="M392.51,-95.59C405.93,-100.27 422.28,-105.97 436.8,-111.03"/>
<polygon fill="midnightblue" stroke="midnightblue" points="435.91,-114.43 446.5,-114.41 438.21,-107.82 435.91,-114.43"/>
</g>
<!-- Node10&#45;&gt;Node6 -->
<g id="edge13" class="edge">
<title>Node10&#45;&gt;Node6</title>
<path fill="none" stroke="midnightblue" d="M252.7,-46.1C289.88,-45.03 352.7,-46.9 402,-67 423.97,-75.96 444.72,-93.76 458.25,-107.1"/>
<polygon fill="midnightblue" stroke="midnightblue" points="455.84,-109.64 465.34,-114.33 460.84,-104.74 455.84,-109.64"/>
</g>
<!-- Node10&#45;&gt;Node9 -->
<g id="edge14" class="edge">
<title>Node10&#45;&gt;Node9</title>
<path fill="none" stroke="midnightblue" d="M252.51,-56.43C271.63,-61.55 296.34,-68.16 317.55,-73.84"/>
<polygon fill="midnightblue" stroke="midnightblue" points="316.76,-77.25 327.32,-76.45 318.57,-70.49 316.76,-77.25"/>
</g>
</g>
</svg>
