<?xml version="1.0" encoding="UTF-8" standalone="no"?>
<!DOCTYPE svg PUBLIC "-//W3C//DTD SVG 1.1//EN"
 "http://www.w3.org/Graphics/SVG/1.1/DTD/svg11.dtd">
<!-- Generated by graphviz version 2.43.0 (0)
 -->
<!-- Title: parseCommandLine Pages: 1 -->
<svg width="367pt" height="142pt"
 viewBox="0.00 0.00 367.00 142.00" xmlns="http://www.w3.org/2000/svg" xmlns:xlink="http://www.w3.org/1999/xlink">
<g id="graph0" class="graph" transform="scale(1 1) rotate(0) translate(4 138)">
<title>parseCommandLine</title>
<polygon fill="white" stroke="transparent" points="-4,4 -4,-138 363,-138 363,4 -4,4"/>
<!-- Node1 -->
<g id="node1" class="node">
<title>Node1</title>
<g id="a_node1"><a xlink:title=" ">
<polygon fill="#bfbfbf" stroke="black" points="0,-57.5 0,-76.5 114,-76.5 114,-57.5 0,-57.5"/>
<text text-anchor="middle" x="57" y="-64.5" font-family="Helvetica,sans-Serif" font-size="10.00">parseCommandLine</text>
</a>
</g>
</g>
<!-- Node2 -->
<g id="node2" class="node">
<title>Node2</title>
<g id="a_node2"><a xlink:href="operation__params_8cpp.html#a1451d6a0f33f9d0a02a4b055e5839e6e" target="_top" xlink:title=" ">
<polygon fill="white" stroke="black" points="161.5,-114.5 161.5,-133.5 235.5,-133.5 235.5,-114.5 161.5,-114.5"/>
<text text-anchor="middle" x="198.5" y="-121.5" font-family="Helvetica,sans-Serif" font-size="10.00">displayHelp</text>
</a>
</g>
</g>
<!-- Node1&#45;&gt;Node2 -->
<g id="edge1" class="edge">
<title>Node1&#45;&gt;Node2</title>
<path fill="none" stroke="midnightblue" d="M81.03,-76.6C99.63,-84.32 126.47,-95.43 150,-105 154.49,-106.83 159.23,-108.74 163.91,-110.62"/>
<polygon fill="midnightblue" stroke="midnightblue" points="162.73,-113.92 173.31,-114.39 165.33,-107.42 162.73,-113.92"/>
</g>
<!-- Node3 -->
<g id="node3" class="node">
<title>Node3</title>
<g id="a_node3"><a xlink:href="operation__params_8cpp.html#adfab6ddfafab9bed92ac967c3a0fe0dd" target="_top" xlink:title=" ">
<polygon fill="white" stroke="black" points="150,-76.5 150,-95.5 247,-95.5 247,-76.5 150,-76.5"/>
<text text-anchor="middle" x="198.5" y="-83.5" font-family="Helvetica,sans-Serif" font-size="10.00">parseCoordinate</text>
</a>
</g>
</g>
<!-- Node1&#45;&gt;Node3 -->
<g id="edge2" class="edge">
<title>Node1&#45;&gt;Node3</title>
<path fill="none" stroke="midnightblue" d="M114.34,-74.67C122.72,-75.82 131.38,-76.99 139.79,-78.14"/>
<polygon fill="midnightblue" stroke="midnightblue" points="139.52,-81.64 149.9,-79.52 140.47,-74.7 139.52,-81.64"/>
</g>
<!-- Node4 -->
<g id="node4" class="node">
<title>Node4</title>
<g id="a_node4"><a xlink:href="operation__params_8cpp.html#acb9b051691fc7054f0232d28aef686c4" target="_top" xlink:title=" ">
<polygon fill="white" stroke="black" points="283,-38.5 283,-57.5 359,-57.5 359,-38.5 283,-38.5"/>
<text text-anchor="middle" x="321" y="-45.5" font-family="Helvetica,sans-Serif" font-size="10.00">parseValues</text>
</a>
</g>
</g>
<!-- Node1&#45;&gt;Node4 -->
<g id="edge6" class="edge">
<title>Node1&#45;&gt;Node4</title>
<path fill="none" stroke="midnightblue" d="M114.21,-62.92C161.49,-59.49 228.34,-54.65 272.87,-51.42"/>
<polygon fill="midnightblue" stroke="midnightblue" points="273.13,-54.91 282.85,-50.69 272.62,-47.93 273.13,-54.91"/>
</g>
<!-- Node5 -->
<g id="node5" class="node">
<title>Node5</title>
<g id="a_node5"><a xlink:href="operation__params_8cpp.html#abbd547560acd14f298e5d36dcf0398d3" target="_top" xlink:title=" ">
<polygon fill="white" stroke="black" points="166,-0.5 166,-19.5 231,-19.5 231,-0.5 166,-0.5"/>
<text text-anchor="middle" x="198.5" y="-7.5" font-family="Helvetica,sans-Serif" font-size="10.00">parseRGB</text>
</a>
</g>
</g>
<!-- Node1&#45;&gt;Node5 -->
<g id="edge4" class="edge">
<title>Node1&#45;&gt;Node5</title>
<path fill="none" stroke="midnightblue" d="M81.35,-57.46C104.18,-48.13 139.16,-33.84 164.76,-23.38"/>
<polygon fill="midnightblue" stroke="midnightblue" points="166.14,-26.59 174.07,-19.57 163.49,-20.11 166.14,-26.59"/>
</g>
<!-- Node3&#45;&gt;Node4 -->
<g id="edge3" class="edge">
<title>Node3&#45;&gt;Node4</title>
<path fill="none" stroke="midnightblue" d="M229.91,-76.41C245.03,-71.64 263.52,-65.81 279.8,-60.68"/>
<polygon fill="midnightblue" stroke="midnightblue" points="281.12,-63.93 289.6,-57.59 279.01,-57.26 281.12,-63.93"/>
</g>
<!-- Node5&#45;&gt;Node4 -->
<g id="edge5" class="edge">
<title>Node5&#45;&gt;Node4</title>
<path fill="none" stroke="midnightblue" d="M229.91,-19.59C245.03,-24.36 263.52,-30.19 279.8,-35.32"/>
<polygon fill="midnightblue" stroke="midnightblue" points="279.01,-38.74 289.6,-38.41 281.12,-32.07 279.01,-38.74"/>
</g>
</g>
</svg>
