<?xml version="1.0" encoding="UTF-8" standalone="no"?>
<!DOCTYPE svg PUBLIC "-//W3C//DTD SVG 1.1//EN"
 "http://www.w3.org/Graphics/SVG/1.1/DTD/svg11.dtd">
<!-- Generated by graphviz version 2.43.0 (0)
 -->
<!-- Title: parseRGB Pages: 1 -->
<svg width="510pt" height="85pt"
 viewBox="0.00 0.00 510.00 85.00" xmlns="http://www.w3.org/2000/svg" xmlns:xlink="http://www.w3.org/1999/xlink">
<g id="graph0" class="graph" transform="scale(1 1) rotate(0) translate(4 81)">
<title>parseRGB</title>
<polygon fill="white" stroke="transparent" points="-4,4 -4,-81 506,-81 506,4 -4,4"/>
<!-- Node1 -->
<g id="node1" class="node">
<title>Node1</title>
<g id="a_node1"><a xlink:title="Парсинг строки с RGB&#45;значением цвета.">
<polygon fill="#bfbfbf" stroke="black" points="0,-19.5 0,-38.5 65,-38.5 65,-19.5 0,-19.5"/>
<text text-anchor="middle" x="32.5" y="-26.5" font-family="Helvetica,sans-Serif" font-size="10.00">parseRGB</text>
</a>
</g>
</g>
<!-- Node2 -->
<g id="node2" class="node">
<title>Node2</title>
<g id="a_node2"><a xlink:href="class_logger.html#adaa34620512b5fa13d3098602eb4aef0" target="_top" xlink:title="Записывает сообщение и завершает программу с заданным кодом выхода.">
<polygon fill="white" stroke="black" points="102,-38.5 102,-57.5 176,-57.5 176,-38.5 102,-38.5"/>
<text text-anchor="middle" x="139" y="-45.5" font-family="Helvetica,sans-Serif" font-size="10.00">Logger::exit</text>
</a>
</g>
</g>
<!-- Node1&#45;&gt;Node2 -->
<g id="edge1" class="edge">
<title>Node1&#45;&gt;Node2</title>
<path fill="none" stroke="midnightblue" d="M65.14,-34.75C73.52,-36.28 82.74,-37.95 91.72,-39.59"/>
<polygon fill="midnightblue" stroke="midnightblue" points="91.24,-43.06 101.71,-41.4 92.5,-36.17 91.24,-43.06"/>
</g>
<!-- Node7 -->
<g id="node7" class="node">
<title>Node7</title>
<g id="a_node7"><a xlink:href="operation__params_8cpp.html#acb9b051691fc7054f0232d28aef686c4" target="_top" xlink:title="Парсинг строки с числами, разделенными пробелами.">
<polygon fill="white" stroke="black" points="101,-0.5 101,-19.5 177,-19.5 177,-0.5 101,-0.5"/>
<text text-anchor="middle" x="139" y="-7.5" font-family="Helvetica,sans-Serif" font-size="10.00">parseValues</text>
</a>
</g>
</g>
<!-- Node1&#45;&gt;Node7 -->
<g id="edge6" class="edge">
<title>Node1&#45;&gt;Node7</title>
<path fill="none" stroke="midnightblue" d="M65.14,-23.25C73.25,-21.77 82.16,-20.15 90.88,-18.57"/>
<polygon fill="midnightblue" stroke="midnightblue" points="91.75,-21.97 100.96,-16.73 90.5,-15.08 91.75,-21.97"/>
</g>
<!-- Node3 -->
<g id="node3" class="node">
<title>Node3</title>
<g id="a_node3"><a xlink:href="class_logger.html#ab6042fdfcbb14026098e0df9d6b32f27" target="_top" xlink:title="Записывает ошибку в лог с красным цветом.">
<polygon fill="white" stroke="black" points="213,-38.5 213,-57.5 292,-57.5 292,-38.5 213,-38.5"/>
<text text-anchor="middle" x="252.5" y="-45.5" font-family="Helvetica,sans-Serif" font-size="10.00">Logger::error</text>
</a>
</g>
</g>
<!-- Node2&#45;&gt;Node3 -->
<g id="edge2" class="edge">
<title>Node2&#45;&gt;Node3</title>
<path fill="none" stroke="midnightblue" d="M176.2,-48C184.61,-48 193.7,-48 202.56,-48"/>
<polygon fill="midnightblue" stroke="midnightblue" points="202.79,-51.5 212.79,-48 202.79,-44.5 202.79,-51.5"/>
</g>
<!-- Node4 -->
<g id="node4" class="node">
<title>Node4</title>
<g id="a_node4"><a xlink:href="class_logger.html#ad83dbe66156650acca19d3772ce41229" target="_top" xlink:title="Записывает сообщение в лог с определенным цветом.">
<polygon fill="white" stroke="black" points="328,-38.5 328,-57.5 399,-57.5 399,-38.5 328,-38.5"/>
<text text-anchor="middle" x="363.5" y="-45.5" font-family="Helvetica,sans-Serif" font-size="10.00">Logger::log</text>
</a>
</g>
</g>
<!-- Node3&#45;&gt;Node4 -->
<g id="edge3" class="edge">
<title>Node3&#45;&gt;Node4</title>
<path fill="none" stroke="midnightblue" d="M292.24,-48C300.5,-48 309.3,-48 317.77,-48"/>
<polygon fill="midnightblue" stroke="midnightblue" points="317.88,-51.5 327.88,-48 317.88,-44.5 317.88,-51.5"/>
</g>
<!-- Node5 -->
<g id="node5" class="node">
<title>Node5</title>
<g id="a_node5"><a xlink:href="logger_8cpp.html#afe00396766eb6b8ca4674de4c5d3d949" target="_top" xlink:title=" ">
<polygon fill="white" stroke="black" points="435,-57.5 435,-76.5 502,-76.5 502,-57.5 435,-57.5"/>
<text text-anchor="middle" x="468.5" y="-64.5" font-family="Helvetica,sans-Serif" font-size="10.00">resetColor</text>
</a>
</g>
</g>
<!-- Node4&#45;&gt;Node5 -->
<g id="edge4" class="edge">
<title>Node4&#45;&gt;Node5</title>
<path fill="none" stroke="midnightblue" d="M399.08,-54.38C407.4,-55.91 416.38,-57.57 425.01,-59.16"/>
<polygon fill="midnightblue" stroke="midnightblue" points="424.45,-62.62 434.92,-60.99 425.72,-55.73 424.45,-62.62"/>
</g>
<!-- Node6 -->
<g id="node6" class="node">
<title>Node6</title>
<g id="a_node6"><a xlink:href="logger_8cpp.html#a47a17bf6298ba8d1f42d32b14449e277" target="_top" xlink:title=" ">
<polygon fill="white" stroke="black" points="440,-19.5 440,-38.5 497,-38.5 497,-19.5 440,-19.5"/>
<text text-anchor="middle" x="468.5" y="-26.5" font-family="Helvetica,sans-Serif" font-size="10.00">setColor</text>
</a>
</g>
</g>
<!-- Node4&#45;&gt;Node6 -->
<g id="edge5" class="edge">
<title>Node4&#45;&gt;Node6</title>
<path fill="none" stroke="midnightblue" d="M399.08,-41.62C408.89,-39.81 419.61,-37.83 429.6,-35.99"/>
<polygon fill="midnightblue" stroke="midnightblue" points="430.47,-39.39 439.67,-34.13 429.2,-32.51 430.47,-39.39"/>
</g>
</g>
</svg>
