<?xml version="1.0" encoding="UTF-8" standalone="no"?>
<!DOCTYPE svg PUBLIC "-//W3C//DTD SVG 1.1//EN"
 "http://www.w3.org/Graphics/SVG/1.1/DTD/svg11.dtd">
<!-- Generated by graphviz version 2.43.0 (0)
 -->
<!-- Title: src/operation_params.cpp Pages: 1 -->
<svg width="876pt" height="196pt"
 viewBox="0.00 0.00 875.50 196.00" xmlns="http://www.w3.org/2000/svg" xmlns:xlink="http://www.w3.org/1999/xlink">
<g id="graph0" class="graph" transform="scale(1 1) rotate(0) translate(4 192)">
<title>src/operation_params.cpp</title>
<polygon fill="white" stroke="transparent" points="-4,4 -4,-192 871.5,-192 871.5,4 -4,4"/>
<!-- Node1 -->
<g id="node1" class="node">
<title>Node1</title>
<g id="a_node1"><a xlink:title=" ">
<polygon fill="#bfbfbf" stroke="black" points="379.5,-168.5 379.5,-187.5 522.5,-187.5 522.5,-168.5 379.5,-168.5"/>
<text text-anchor="middle" x="451" y="-175.5" font-family="Helvetica,sans-Serif" font-size="10.00">src/operation_params.cpp</text>
</a>
</g>
</g>
<!-- Node2 -->
<g id="node2" class="node">
<title>Node2</title>
<g id="a_node2"><a xlink:href="operation__params_8h.html" target="_top" xlink:title="Заголовочный файл, содержащий определения структур и классов.">
<polygon fill="white" stroke="black" points="26,-112.5 26,-131.5 140,-131.5 140,-112.5 26,-112.5"/>
<text text-anchor="middle" x="83" y="-119.5" font-family="Helvetica,sans-Serif" font-size="10.00">operation_params.h</text>
</a>
</g>
</g>
<!-- Node1&#45;&gt;Node2 -->
<g id="edge1" class="edge">
<title>Node1&#45;&gt;Node2</title>
<path fill="none" stroke="midnightblue" d="M392.69,-168.44C326.72,-158.76 219.47,-143.03 150.08,-132.84"/>
<polygon fill="midnightblue" stroke="midnightblue" points="150.53,-129.37 140.13,-131.38 149.52,-136.3 150.53,-129.37"/>
</g>
<!-- Node5 -->
<g id="node5" class="node">
<title>Node5</title>
<g id="a_node5"><a xlink:title=" ">
<polygon fill="white" stroke="#bfbfbf" points="132,-0.5 132,-19.5 176,-19.5 176,-0.5 132,-0.5"/>
<text text-anchor="middle" x="154" y="-7.5" font-family="Helvetica,sans-Serif" font-size="10.00">string</text>
</a>
</g>
</g>
<!-- Node1&#45;&gt;Node5 -->
<g id="edge14" class="edge">
<title>Node1&#45;&gt;Node5</title>
<path fill="none" stroke="midnightblue" d="M379.45,-169.58C322.67,-162.46 248.99,-150.11 225,-132 194.7,-109.13 205.72,-88.44 186,-56 180.15,-46.37 172.93,-36.1 166.83,-27.81"/>
<polygon fill="midnightblue" stroke="midnightblue" points="169.56,-25.62 160.76,-19.71 163.95,-29.81 169.56,-25.62"/>
</g>
<!-- Node6 -->
<g id="node6" class="node">
<title>Node6</title>
<g id="a_node6"><a xlink:title=" ">
<polygon fill="white" stroke="#bfbfbf" points="130.5,-56.5 130.5,-75.5 177.5,-75.5 177.5,-56.5 130.5,-56.5"/>
<text text-anchor="middle" x="154" y="-63.5" font-family="Helvetica,sans-Serif" font-size="10.00">vector</text>
</a>
</g>
</g>
<!-- Node1&#45;&gt;Node6 -->
<g id="edge15" class="edge">
<title>Node1&#45;&gt;Node6</title>
<path fill="none" stroke="midnightblue" d="M379.21,-171.31C313.33,-164.88 221.62,-152.56 192,-132 175.93,-120.84 165.66,-100.51 159.9,-85.55"/>
<polygon fill="midnightblue" stroke="midnightblue" points="163.1,-84.09 156.49,-75.81 156.49,-86.41 163.1,-84.09"/>
</g>
<!-- Node7 -->
<g id="node7" class="node">
<title>Node7</title>
<g id="a_node7"><a xlink:title=" ">
<polygon fill="white" stroke="#bfbfbf" points="234.5,-112.5 234.5,-131.5 291.5,-131.5 291.5,-112.5 234.5,-112.5"/>
<text text-anchor="middle" x="263" y="-119.5" font-family="Helvetica,sans-Serif" font-size="10.00">getopt.h</text>
</a>
</g>
</g>
<!-- Node1&#45;&gt;Node7 -->
<g id="edge7" class="edge">
<title>Node1&#45;&gt;Node7</title>
<path fill="none" stroke="midnightblue" d="M421.21,-168.44C388.89,-159.16 337.16,-144.3 301.71,-134.12"/>
<polygon fill="midnightblue" stroke="midnightblue" points="302.3,-130.65 291.72,-131.25 300.37,-137.38 302.3,-130.65"/>
</g>
<!-- Node8 -->
<g id="node8" class="node">
<title>Node8</title>
<g id="a_node8"><a xlink:title=" ">
<polygon fill="white" stroke="#bfbfbf" points="310,-112.5 310,-131.5 360,-131.5 360,-112.5 310,-112.5"/>
<text text-anchor="middle" x="335" y="-119.5" font-family="Helvetica,sans-Serif" font-size="10.00">cstring</text>
</a>
</g>
</g>
<!-- Node1&#45;&gt;Node8 -->
<g id="edge8" class="edge">
<title>Node1&#45;&gt;Node8</title>
<path fill="none" stroke="midnightblue" d="M432.62,-168.44C413.78,-159.68 384.27,-145.94 362.62,-135.86"/>
<polygon fill="midnightblue" stroke="midnightblue" points="363.84,-132.56 353.29,-131.52 360.88,-138.91 363.84,-132.56"/>
</g>
<!-- Node9 -->
<g id="node9" class="node">
<title>Node9</title>
<g id="a_node9"><a xlink:title=" ">
<polygon fill="white" stroke="#bfbfbf" points="378.5,-112.5 378.5,-131.5 443.5,-131.5 443.5,-112.5 378.5,-112.5"/>
<text text-anchor="middle" x="411" y="-119.5" font-family="Helvetica,sans-Serif" font-size="10.00">functional</text>
</a>
</g>
</g>
<!-- Node1&#45;&gt;Node9 -->
<g id="edge9" class="edge">
<title>Node1&#45;&gt;Node9</title>
<path fill="none" stroke="midnightblue" d="M444.39,-168.08C438.74,-160.46 430.46,-149.26 423.55,-139.94"/>
<polygon fill="midnightblue" stroke="midnightblue" points="426.25,-137.7 417.48,-131.75 420.62,-141.87 426.25,-137.7"/>
</g>
<!-- Node10 -->
<g id="node10" class="node">
<title>Node10</title>
<g id="a_node10"><a xlink:title=" ">
<polygon fill="white" stroke="#bfbfbf" points="462,-112.5 462,-131.5 522,-131.5 522,-112.5 462,-112.5"/>
<text text-anchor="middle" x="492" y="-119.5" font-family="Helvetica,sans-Serif" font-size="10.00">iostream</text>
</a>
</g>
</g>
<!-- Node1&#45;&gt;Node10 -->
<g id="edge10" class="edge">
<title>Node1&#45;&gt;Node10</title>
<path fill="none" stroke="midnightblue" d="M457.77,-168.08C463.56,-160.46 472.06,-149.26 479.14,-139.94"/>
<polygon fill="midnightblue" stroke="midnightblue" points="482.1,-141.83 485.36,-131.75 476.52,-137.6 482.1,-141.83"/>
</g>
<!-- Node11 -->
<g id="node11" class="node">
<title>Node11</title>
<g id="a_node11"><a xlink:title=" ">
<polygon fill="white" stroke="#bfbfbf" points="540,-112.5 540,-131.5 578,-131.5 578,-112.5 540,-112.5"/>
<text text-anchor="middle" x="559" y="-119.5" font-family="Helvetica,sans-Serif" font-size="10.00">map</text>
</a>
</g>
</g>
<!-- Node1&#45;&gt;Node11 -->
<g id="edge11" class="edge">
<title>Node1&#45;&gt;Node11</title>
<path fill="none" stroke="midnightblue" d="M468.35,-168.32C485.67,-159.66 512.52,-146.24 532.5,-136.25"/>
<polygon fill="midnightblue" stroke="midnightblue" points="534.31,-139.26 541.69,-131.65 531.18,-133 534.31,-139.26"/>
</g>
<!-- Node12 -->
<g id="node12" class="node">
<title>Node12</title>
<g id="a_node12"><a xlink:title=" ">
<polygon fill="white" stroke="#bfbfbf" points="596,-112.5 596,-131.5 652,-131.5 652,-112.5 596,-112.5"/>
<text text-anchor="middle" x="624" y="-119.5" font-family="Helvetica,sans-Serif" font-size="10.00">sstream</text>
</a>
</g>
</g>
<!-- Node1&#45;&gt;Node12 -->
<g id="edge12" class="edge">
<title>Node1&#45;&gt;Node12</title>
<path fill="none" stroke="midnightblue" d="M478.41,-168.44C507.77,-159.28 554.52,-144.69 587.1,-134.52"/>
<polygon fill="midnightblue" stroke="midnightblue" points="588.21,-137.84 596.72,-131.52 586.13,-131.16 588.21,-137.84"/>
</g>
<!-- Node13 -->
<g id="node13" class="node">
<title>Node13</title>
<g id="a_node13"><a xlink:title=" ">
<polygon fill="white" stroke="#bfbfbf" points="670.5,-112.5 670.5,-131.5 735.5,-131.5 735.5,-112.5 670.5,-112.5"/>
<text text-anchor="middle" x="703" y="-119.5" font-family="Helvetica,sans-Serif" font-size="10.00">stdexcept</text>
</a>
</g>
</g>
<!-- Node1&#45;&gt;Node13 -->
<g id="edge13" class="edge">
<title>Node1&#45;&gt;Node13</title>
<path fill="none" stroke="midnightblue" d="M490.93,-168.44C537.22,-158.52 613.19,-142.24 660.53,-132.1"/>
<polygon fill="midnightblue" stroke="midnightblue" points="661.42,-135.49 670.47,-129.97 659.96,-128.64 661.42,-135.49"/>
</g>
<!-- Node14 -->
<g id="node14" class="node">
<title>Node14</title>
<g id="a_node14"><a xlink:href="logger_8h.html" target="_top" xlink:title="Заголовочный файл, содержащий определения структур и классов.">
<polygon fill="white" stroke="black" points="485,-56.5 485,-75.5 541,-75.5 541,-56.5 485,-56.5"/>
<text text-anchor="middle" x="513" y="-63.5" font-family="Helvetica,sans-Serif" font-size="10.00">logger.h</text>
</a>
</g>
</g>
<!-- Node1&#45;&gt;Node14 -->
<g id="edge16" class="edge">
<title>Node1&#45;&gt;Node14</title>
<path fill="none" stroke="midnightblue" d="M522.71,-176.33C600.36,-173.9 716.91,-164.71 745,-132 750.79,-125.26 750.66,-118.86 745,-112 720.87,-82.74 610.57,-72.27 551.16,-68.71"/>
<polygon fill="midnightblue" stroke="midnightblue" points="551.22,-65.21 541.04,-68.15 550.83,-72.2 551.22,-65.21"/>
</g>
<!-- Node15 -->
<g id="node15" class="node">
<title>Node15</title>
<g id="a_node15"><a xlink:href="messages_8h.html" target="_top" xlink:title="Заголовочный файл, содержащий определения структур и классов.">
<polygon fill="white" stroke="black" points="792.5,-112.5 792.5,-131.5 867.5,-131.5 867.5,-112.5 792.5,-112.5"/>
<text text-anchor="middle" x="830" y="-119.5" font-family="Helvetica,sans-Serif" font-size="10.00">messages.h</text>
</a>
</g>
</g>
<!-- Node1&#45;&gt;Node15 -->
<g id="edge18" class="edge">
<title>Node1&#45;&gt;Node15</title>
<path fill="none" stroke="midnightblue" d="M517.8,-168.5C583.95,-159.91 688.1,-145.96 778,-132 779.3,-131.8 780.61,-131.59 781.94,-131.38"/>
<polygon fill="midnightblue" stroke="midnightblue" points="782.95,-134.76 792.25,-129.69 781.82,-127.85 782.95,-134.76"/>
</g>
<!-- Node3 -->
<g id="node3" class="node">
<title>Node3</title>
<g id="a_node3"><a xlink:href="structures_8h.html" target="_top" xlink:title="Заголовочный файл, содержащий определения структур и классов.">
<polygon fill="white" stroke="black" points="0,-56.5 0,-75.5 74,-75.5 74,-56.5 0,-56.5"/>
<text text-anchor="middle" x="37" y="-63.5" font-family="Helvetica,sans-Serif" font-size="10.00">structures.h</text>
</a>
</g>
</g>
<!-- Node2&#45;&gt;Node3 -->
<g id="edge2" class="edge">
<title>Node2&#45;&gt;Node3</title>
<path fill="none" stroke="midnightblue" d="M75.4,-112.08C68.77,-104.3 58.98,-92.8 50.94,-83.37"/>
<polygon fill="midnightblue" stroke="midnightblue" points="53.6,-81.09 44.45,-75.75 48.27,-85.63 53.6,-81.09"/>
</g>
<!-- Node2&#45;&gt;Node5 -->
<g id="edge5" class="edge">
<title>Node2&#45;&gt;Node5</title>
<path fill="none" stroke="midnightblue" d="M87.64,-112.42C94.55,-99.81 108.09,-75.67 121,-56 127.25,-46.48 134.71,-36.22 140.96,-27.91"/>
<polygon fill="midnightblue" stroke="midnightblue" points="143.88,-29.85 147.15,-19.77 138.31,-25.61 143.88,-29.85"/>
</g>
<!-- Node2&#45;&gt;Node6 -->
<g id="edge6" class="edge">
<title>Node2&#45;&gt;Node6</title>
<path fill="none" stroke="midnightblue" d="M94.41,-112.32C105.11,-104.18 121.34,-91.84 134.16,-82.09"/>
<polygon fill="midnightblue" stroke="midnightblue" points="136.54,-84.67 142.39,-75.83 132.31,-79.1 136.54,-84.67"/>
</g>
<!-- Node4 -->
<g id="node4" class="node">
<title>Node4</title>
<g id="a_node4"><a xlink:title=" ">
<polygon fill="white" stroke="#bfbfbf" points="12,-0.5 12,-19.5 62,-19.5 62,-0.5 12,-0.5"/>
<text text-anchor="middle" x="37" y="-7.5" font-family="Helvetica,sans-Serif" font-size="10.00">cstdint</text>
</a>
</g>
</g>
<!-- Node3&#45;&gt;Node4 -->
<g id="edge3" class="edge">
<title>Node3&#45;&gt;Node4</title>
<path fill="none" stroke="midnightblue" d="M37,-56.08C37,-49.01 37,-38.86 37,-29.99"/>
<polygon fill="midnightblue" stroke="midnightblue" points="40.5,-29.75 37,-19.75 33.5,-29.75 40.5,-29.75"/>
</g>
<!-- Node3&#45;&gt;Node5 -->
<g id="edge4" class="edge">
<title>Node3&#45;&gt;Node5</title>
<path fill="none" stroke="midnightblue" d="M55.54,-56.44C74.62,-47.64 104.57,-33.81 126.44,-23.72"/>
<polygon fill="midnightblue" stroke="midnightblue" points="127.93,-26.88 135.55,-19.52 125,-20.53 127.93,-26.88"/>
</g>
<!-- Node14&#45;&gt;Node5 -->
<g id="edge17" class="edge">
<title>Node14&#45;&gt;Node5</title>
<path fill="none" stroke="midnightblue" d="M484.83,-60.76C419.11,-50.88 255.96,-26.34 186.33,-15.86"/>
<polygon fill="midnightblue" stroke="midnightblue" points="186.78,-12.39 176.37,-14.37 185.74,-19.31 186.78,-12.39"/>
</g>
</g>
</svg>
