<?xml version="1.0" encoding="UTF-8" standalone="no"?>
<!DOCTYPE svg PUBLIC "-//W3C//DTD SVG 1.1//EN"
 "http://www.w3.org/Graphics/SVG/1.1/DTD/svg11.dtd">
<!-- Generated by graphviz version 2.43.0 (0)
 -->
<!-- Title: source/operation_params.cpp Pages: 1 -->
<svg width="769pt" height="196pt"
 viewBox="0.00 0.00 768.50 196.00" xmlns="http://www.w3.org/2000/svg" xmlns:xlink="http://www.w3.org/1999/xlink">
<g id="graph0" class="graph" transform="scale(1 1) rotate(0) translate(4 192)">
<title>source/operation_params.cpp</title>
<polygon fill="white" stroke="transparent" points="-4,4 -4,-192 764.5,-192 764.5,4 -4,4"/>
<!-- Node1 -->
<g id="node1" class="node">
<title>Node1</title>
<g id="a_node1"><a xlink:title=" ">
<polygon fill="#bfbfbf" stroke="black" points="540.5,-168.5 540.5,-187.5 701.5,-187.5 701.5,-168.5 540.5,-168.5"/>
<text text-anchor="middle" x="621" y="-175.5" font-family="Helvetica,sans-Serif" font-size="10.00">source/operation_params.cpp</text>
</a>
</g>
</g>
<!-- Node2 -->
<g id="node2" class="node">
<title>Node2</title>
<g id="a_node2"><a xlink:href="operation__params_8hpp.html" target="_top" xlink:title=" ">
<polygon fill="white" stroke="black" points="283,-112.5 283,-131.5 409,-131.5 409,-112.5 283,-112.5"/>
<text text-anchor="middle" x="346" y="-119.5" font-family="Helvetica,sans-Serif" font-size="10.00">operation_params.hpp</text>
</a>
</g>
</g>
<!-- Node1&#45;&gt;Node2 -->
<g id="edge1" class="edge">
<title>Node1&#45;&gt;Node2</title>
<path fill="none" stroke="midnightblue" d="M577.43,-168.44C529.15,-158.96 451.29,-143.67 399.39,-133.48"/>
<polygon fill="midnightblue" stroke="midnightblue" points="399.86,-130.01 389.37,-131.52 398.51,-136.88 399.86,-130.01"/>
</g>
<!-- Node12 -->
<g id="node12" class="node">
<title>Node12</title>
<g id="a_node12"><a xlink:href="logger_8hpp.html" target="_top" xlink:title=" ">
<polygon fill="white" stroke="black" points="587,-112.5 587,-131.5 655,-131.5 655,-112.5 587,-112.5"/>
<text text-anchor="middle" x="621" y="-119.5" font-family="Helvetica,sans-Serif" font-size="10.00">logger.hpp</text>
</a>
</g>
</g>
<!-- Node1&#45;&gt;Node12 -->
<g id="edge11" class="edge">
<title>Node1&#45;&gt;Node12</title>
<path fill="none" stroke="midnightblue" d="M621,-168.08C621,-161.01 621,-150.86 621,-141.99"/>
<polygon fill="midnightblue" stroke="midnightblue" points="624.5,-141.75 621,-131.75 617.5,-141.75 624.5,-141.75"/>
</g>
<!-- Node14 -->
<g id="node14" class="node">
<title>Node14</title>
<g id="a_node14"><a xlink:href="messages_8hpp.html" target="_top" xlink:title=" ">
<polygon fill="white" stroke="black" points="673.5,-112.5 673.5,-131.5 760.5,-131.5 760.5,-112.5 673.5,-112.5"/>
<text text-anchor="middle" x="717" y="-119.5" font-family="Helvetica,sans-Serif" font-size="10.00">messages.hpp</text>
</a>
</g>
</g>
<!-- Node1&#45;&gt;Node14 -->
<g id="edge14" class="edge">
<title>Node1&#45;&gt;Node14</title>
<path fill="none" stroke="midnightblue" d="M636.42,-168.32C651.54,-159.82 674.82,-146.73 692.47,-136.8"/>
<polygon fill="midnightblue" stroke="midnightblue" points="694.61,-139.61 701.61,-131.65 691.18,-133.51 694.61,-139.61"/>
</g>
<!-- Node3 -->
<g id="node3" class="node">
<title>Node3</title>
<g id="a_node3"><a xlink:href="structures_8hpp.html" target="_top" xlink:title=" ">
<polygon fill="white" stroke="black" points="0,-56.5 0,-75.5 86,-75.5 86,-56.5 0,-56.5"/>
<text text-anchor="middle" x="43" y="-63.5" font-family="Helvetica,sans-Serif" font-size="10.00">structures.hpp</text>
</a>
</g>
</g>
<!-- Node2&#45;&gt;Node3 -->
<g id="edge2" class="edge">
<title>Node2&#45;&gt;Node3</title>
<path fill="none" stroke="midnightblue" d="M297.99,-112.44C243.05,-102.65 153.33,-86.66 96.28,-76.49"/>
<polygon fill="midnightblue" stroke="midnightblue" points="96.83,-73.04 86.37,-74.73 95.6,-79.93 96.83,-73.04"/>
</g>
<!-- Node5 -->
<g id="node5" class="node">
<title>Node5</title>
<g id="a_node5"><a xlink:title=" ">
<polygon fill="white" stroke="#bfbfbf" points="104.5,-56.5 104.5,-75.5 161.5,-75.5 161.5,-56.5 104.5,-56.5"/>
<text text-anchor="middle" x="133" y="-63.5" font-family="Helvetica,sans-Serif" font-size="10.00">getopt.h</text>
</a>
</g>
</g>
<!-- Node2&#45;&gt;Node5 -->
<g id="edge4" class="edge">
<title>Node2&#45;&gt;Node5</title>
<path fill="none" stroke="midnightblue" d="M312.25,-112.44C273.97,-102.74 211.66,-86.94 171.51,-76.76"/>
<polygon fill="midnightblue" stroke="midnightblue" points="172.36,-73.37 161.81,-74.3 170.64,-80.15 172.36,-73.37"/>
</g>
<!-- Node6 -->
<g id="node6" class="node">
<title>Node6</title>
<g id="a_node6"><a xlink:title=" ">
<polygon fill="white" stroke="#bfbfbf" points="179.5,-56.5 179.5,-75.5 226.5,-75.5 226.5,-56.5 179.5,-56.5"/>
<text text-anchor="middle" x="203" y="-63.5" font-family="Helvetica,sans-Serif" font-size="10.00">vector</text>
</a>
</g>
</g>
<!-- Node2&#45;&gt;Node6 -->
<g id="edge5" class="edge">
<title>Node2&#45;&gt;Node6</title>
<path fill="none" stroke="midnightblue" d="M323.34,-112.44C299.6,-103.48 262.09,-89.31 235.26,-79.18"/>
<polygon fill="midnightblue" stroke="midnightblue" points="236.14,-75.77 225.55,-75.52 233.67,-82.32 236.14,-75.77"/>
</g>
<!-- Node7 -->
<g id="node7" class="node">
<title>Node7</title>
<g id="a_node7"><a xlink:title=" ">
<polygon fill="white" stroke="#bfbfbf" points="245,-56.5 245,-75.5 295,-75.5 295,-56.5 245,-56.5"/>
<text text-anchor="middle" x="270" y="-63.5" font-family="Helvetica,sans-Serif" font-size="10.00">cstring</text>
</a>
</g>
</g>
<!-- Node2&#45;&gt;Node7 -->
<g id="edge6" class="edge">
<title>Node2&#45;&gt;Node7</title>
<path fill="none" stroke="midnightblue" d="M333.79,-112.32C322.22,-104.11 304.62,-91.6 290.84,-81.81"/>
<polygon fill="midnightblue" stroke="midnightblue" points="292.61,-78.77 282.43,-75.83 288.56,-84.48 292.61,-78.77"/>
</g>
<!-- Node8 -->
<g id="node8" class="node">
<title>Node8</title>
<g id="a_node8"><a xlink:title=" ">
<polygon fill="white" stroke="#bfbfbf" points="313.5,-56.5 313.5,-75.5 378.5,-75.5 378.5,-56.5 313.5,-56.5"/>
<text text-anchor="middle" x="346" y="-63.5" font-family="Helvetica,sans-Serif" font-size="10.00">functional</text>
</a>
</g>
</g>
<!-- Node2&#45;&gt;Node8 -->
<g id="edge7" class="edge">
<title>Node2&#45;&gt;Node8</title>
<path fill="none" stroke="midnightblue" d="M346,-112.08C346,-105.01 346,-94.86 346,-85.99"/>
<polygon fill="midnightblue" stroke="midnightblue" points="349.5,-85.75 346,-75.75 342.5,-85.75 349.5,-85.75"/>
</g>
<!-- Node9 -->
<g id="node9" class="node">
<title>Node9</title>
<g id="a_node9"><a xlink:title=" ">
<polygon fill="white" stroke="#bfbfbf" points="397,-56.5 397,-75.5 435,-75.5 435,-56.5 397,-56.5"/>
<text text-anchor="middle" x="416" y="-63.5" font-family="Helvetica,sans-Serif" font-size="10.00">map</text>
</a>
</g>
</g>
<!-- Node2&#45;&gt;Node9 -->
<g id="edge8" class="edge">
<title>Node2&#45;&gt;Node9</title>
<path fill="none" stroke="midnightblue" d="M357.25,-112.32C367.8,-104.18 383.8,-91.84 396.44,-82.09"/>
<polygon fill="midnightblue" stroke="midnightblue" points="398.77,-84.71 404.55,-75.83 394.49,-79.17 398.77,-84.71"/>
</g>
<!-- Node10 -->
<g id="node10" class="node">
<title>Node10</title>
<g id="a_node10"><a xlink:title=" ">
<polygon fill="white" stroke="#bfbfbf" points="453,-56.5 453,-75.5 509,-75.5 509,-56.5 453,-56.5"/>
<text text-anchor="middle" x="481" y="-63.5" font-family="Helvetica,sans-Serif" font-size="10.00">sstream</text>
</a>
</g>
</g>
<!-- Node2&#45;&gt;Node10 -->
<g id="edge9" class="edge">
<title>Node2&#45;&gt;Node10</title>
<path fill="none" stroke="midnightblue" d="M367.39,-112.44C389.71,-103.52 424.9,-89.44 450.21,-79.32"/>
<polygon fill="midnightblue" stroke="midnightblue" points="451.72,-82.48 459.71,-75.52 449.12,-75.98 451.72,-82.48"/>
</g>
<!-- Node11 -->
<g id="node11" class="node">
<title>Node11</title>
<g id="a_node11"><a xlink:title=" ">
<polygon fill="white" stroke="#bfbfbf" points="527.5,-56.5 527.5,-75.5 592.5,-75.5 592.5,-56.5 527.5,-56.5"/>
<text text-anchor="middle" x="560" y="-63.5" font-family="Helvetica,sans-Serif" font-size="10.00">stdexcept</text>
</a>
</g>
</g>
<!-- Node2&#45;&gt;Node11 -->
<g id="edge10" class="edge">
<title>Node2&#45;&gt;Node11</title>
<path fill="none" stroke="midnightblue" d="M379.91,-112.44C417.18,-103.04 477.1,-87.92 517.48,-77.73"/>
<polygon fill="midnightblue" stroke="midnightblue" points="518.46,-81.09 527.3,-75.25 516.75,-74.3 518.46,-81.09"/>
</g>
<!-- Node4 -->
<g id="node4" class="node">
<title>Node4</title>
<g id="a_node4"><a xlink:title=" ">
<polygon fill="white" stroke="#bfbfbf" points="310,-0.5 310,-19.5 354,-19.5 354,-0.5 310,-0.5"/>
<text text-anchor="middle" x="332" y="-7.5" font-family="Helvetica,sans-Serif" font-size="10.00">string</text>
</a>
</g>
</g>
<!-- Node3&#45;&gt;Node4 -->
<g id="edge3" class="edge">
<title>Node3&#45;&gt;Node4</title>
<path fill="none" stroke="midnightblue" d="M86.27,-56.92C144.75,-45.99 247.7,-26.75 299.82,-17.01"/>
<polygon fill="midnightblue" stroke="midnightblue" points="300.65,-20.42 309.84,-15.14 299.37,-13.54 300.65,-20.42"/>
</g>
<!-- Node12&#45;&gt;Node4 -->
<g id="edge13" class="edge">
<title>Node12&#45;&gt;Node4</title>
<path fill="none" stroke="midnightblue" d="M621.04,-112.32C620.59,-98.22 617.52,-70.46 601,-56 566.23,-25.56 428.07,-15.38 364.42,-12.26"/>
<polygon fill="midnightblue" stroke="midnightblue" points="364.31,-8.75 354.16,-11.78 363.98,-15.74 364.31,-8.75"/>
</g>
<!-- Node13 -->
<g id="node13" class="node">
<title>Node13</title>
<g id="a_node13"><a xlink:title=" ">
<polygon fill="white" stroke="#bfbfbf" points="649,-56.5 649,-75.5 709,-75.5 709,-56.5 649,-56.5"/>
<text text-anchor="middle" x="679" y="-63.5" font-family="Helvetica,sans-Serif" font-size="10.00">iostream</text>
</a>
</g>
</g>
<!-- Node12&#45;&gt;Node13 -->
<g id="edge12" class="edge">
<title>Node12&#45;&gt;Node13</title>
<path fill="none" stroke="midnightblue" d="M630.32,-112.32C638.89,-104.34 651.81,-92.31 662.19,-82.65"/>
<polygon fill="midnightblue" stroke="midnightblue" points="664.58,-85.21 669.51,-75.83 659.81,-80.09 664.58,-85.21"/>
</g>
</g>
</svg>
