<?xml version="1.0" encoding="UTF-8" standalone="no"?>
<!DOCTYPE svg PUBLIC "-//W3C//DTD SVG 1.1//EN"
 "http://www.w3.org/Graphics/SVG/1.1/DTD/svg11.dtd">
<!-- Generated by graphviz version 2.43.0 (0)
 -->
<!-- Title: include/structures.h Pages: 1 -->
<svg width="314pt" height="196pt"
 viewBox="0.00 0.00 313.50 196.00" xmlns="http://www.w3.org/2000/svg" xmlns:xlink="http://www.w3.org/1999/xlink">
<g id="graph0" class="graph" transform="scale(1 1) rotate(0) translate(4 192)">
<title>include/structures.h</title>
<polygon fill="white" stroke="transparent" points="-4,4 -4,-192 309.5,-192 309.5,4 -4,4"/>
<!-- Node1 -->
<g id="node1" class="node">
<title>Node1</title>
<g id="a_node1"><a xlink:title="Заголовочный файл, содержащий определения структур и классов.">
<polygon fill="#bfbfbf" stroke="black" points="34.5,-168.5 34.5,-187.5 147.5,-187.5 147.5,-168.5 34.5,-168.5"/>
<text text-anchor="middle" x="91" y="-175.5" font-family="Helvetica,sans-Serif" font-size="10.00">include/structures.h</text>
</a>
</g>
</g>
<!-- Node2 -->
<g id="node2" class="node">
<title>Node2</title>
<g id="a_node2"><a xlink:href="bmp_8h.html" target="_top" xlink:title="Заголовочный файл, содержащий определения структур и классов.">
<polygon fill="white" stroke="black" points="12,-56.5 12,-75.5 98,-75.5 98,-56.5 12,-56.5"/>
<text text-anchor="middle" x="55" y="-63.5" font-family="Helvetica,sans-Serif" font-size="10.00">include/bmp.h</text>
</a>
</g>
</g>
<!-- Node1&#45;&gt;Node2 -->
<g id="edge1" class="edge">
<title>Node1&#45;&gt;Node2</title>
<path fill="none" stroke="midnightblue" d="M75.3,-160.55C68.69,-152.58 61.7,-142.47 58,-132 51.23,-112.83 52.5,-88.48 53.85,-75.72"/>
<polygon fill="midnightblue" stroke="midnightblue" points="72.89,-163.11 82.13,-168.29 78.13,-158.48 72.89,-163.11"/>
</g>
<!-- Node5 -->
<g id="node5" class="node">
<title>Node5</title>
<g id="a_node5"><a xlink:href="operation__params_8h.html" target="_top" xlink:title="Заголовочный файл, содержащий определения структур и классов.">
<polygon fill="white" stroke="black" points="67,-112.5 67,-131.5 219,-131.5 219,-112.5 67,-112.5"/>
<text text-anchor="middle" x="143" y="-119.5" font-family="Helvetica,sans-Serif" font-size="10.00">include/operation_params.h</text>
</a>
</g>
</g>
<!-- Node1&#45;&gt;Node5 -->
<g id="edge4" class="edge">
<title>Node1&#45;&gt;Node5</title>
<path fill="none" stroke="midnightblue" d="M106.68,-160.72C115.84,-151.2 127.05,-139.56 134.57,-131.75"/>
<polygon fill="midnightblue" stroke="midnightblue" points="104,-158.45 99.59,-168.08 109.04,-163.31 104,-158.45"/>
</g>
<!-- Node3 -->
<g id="node3" class="node">
<title>Node3</title>
<g id="a_node3"><a xlink:href="bmp_8cpp.html" target="_top" xlink:title="Реализация методов класса BMP для работы с изображениями в формате BMP.">
<polygon fill="white" stroke="black" points="0,-0.5 0,-19.5 76,-19.5 76,-0.5 0,-0.5"/>
<text text-anchor="middle" x="38" y="-7.5" font-family="Helvetica,sans-Serif" font-size="10.00">src/bmp.cpp</text>
</a>
</g>
</g>
<!-- Node2&#45;&gt;Node3 -->
<g id="edge2" class="edge">
<title>Node2&#45;&gt;Node3</title>
<path fill="none" stroke="midnightblue" d="M49.14,-46.4C46.3,-37.36 43.02,-26.94 40.75,-19.75"/>
<polygon fill="midnightblue" stroke="midnightblue" points="45.85,-47.6 52.19,-56.08 52.53,-45.49 45.85,-47.6"/>
</g>
<!-- Node4 -->
<g id="node4" class="node">
<title>Node4</title>
<g id="a_node4"><a xlink:href="main_8cpp.html" target="_top" xlink:title="Главный файл программы">
<polygon fill="white" stroke="black" points="94.5,-0.5 94.5,-19.5 173.5,-19.5 173.5,-0.5 94.5,-0.5"/>
<text text-anchor="middle" x="134" y="-7.5" font-family="Helvetica,sans-Serif" font-size="10.00">src/main.cpp</text>
</a>
</g>
</g>
<!-- Node2&#45;&gt;Node4 -->
<g id="edge3" class="edge">
<title>Node2&#45;&gt;Node4</title>
<path fill="none" stroke="midnightblue" d="M76.03,-50.62C90.47,-40.76 109.14,-27.99 121.34,-19.65"/>
<polygon fill="midnightblue" stroke="midnightblue" points="73.97,-47.79 67.69,-56.32 77.92,-53.57 73.97,-47.79"/>
</g>
<!-- Node5&#45;&gt;Node2 -->
<g id="edge5" class="edge">
<title>Node5&#45;&gt;Node2</title>
<path fill="none" stroke="midnightblue" d="M120.02,-106.9C103.89,-97 82.82,-84.07 69.1,-75.65"/>
<polygon fill="midnightblue" stroke="midnightblue" points="118.51,-110.08 128.86,-112.32 122.17,-104.11 118.51,-110.08"/>
</g>
<!-- Node5&#45;&gt;Node4 -->
<g id="edge6" class="edge">
<title>Node5&#45;&gt;Node4</title>
<path fill="none" stroke="midnightblue" d="M141.47,-102.35C139.5,-78.25 136.15,-37.31 134.7,-19.59"/>
<polygon fill="midnightblue" stroke="midnightblue" points="137.99,-102.69 142.29,-112.37 144.97,-102.12 137.99,-102.69"/>
</g>
<!-- Node6 -->
<g id="node6" class="node">
<title>Node6</title>
<g id="a_node6"><a xlink:href="operation__params_8cpp.html" target="_top" xlink:title="Определяет функции для анализа параметров операций из командной строки.">
<polygon fill="white" stroke="black" points="162.5,-56.5 162.5,-75.5 305.5,-75.5 305.5,-56.5 162.5,-56.5"/>
<text text-anchor="middle" x="234" y="-63.5" font-family="Helvetica,sans-Serif" font-size="10.00">src/operation_params.cpp</text>
</a>
</g>
</g>
<!-- Node5&#45;&gt;Node6 -->
<g id="edge7" class="edge">
<title>Node5&#45;&gt;Node6</title>
<path fill="none" stroke="midnightblue" d="M166.29,-107.18C183.04,-97.24 205.1,-84.15 219.42,-75.65"/>
<polygon fill="midnightblue" stroke="midnightblue" points="164.43,-104.21 157.62,-112.32 168.01,-110.23 164.43,-104.21"/>
</g>
</g>
</svg>
