<?xml version="1.0" encoding="UTF-8" standalone="no"?>
<!DOCTYPE svg PUBLIC "-//W3C//DTD SVG 1.1//EN"
 "http://www.w3.org/Graphics/SVG/1.1/DTD/svg11.dtd">
<!-- Generated by graphviz version 2.43.0 (0)
 -->
<!-- Title: Operations Pages: 1 -->
<svg width="171pt" height="117pt"
 viewBox="0.00 0.00 171.00 117.00" xmlns="http://www.w3.org/2000/svg" xmlns:xlink="http://www.w3.org/1999/xlink">
<g id="graph0" class="graph" transform="scale(1 1) rotate(0) translate(4 113)">
<title>Operations</title>
<polygon fill="white" stroke="transparent" points="-4,4 -4,-113 167,-113 167,4 -4,4"/>
<!-- Node1 -->
<g id="node1" class="node">
<title>Node1</title>
<g id="a_node1"><a xlink:title="Структура, представляющая параметры операции над изображением.">
<polygon fill="#bfbfbf" stroke="black" points="43,-0.5 43,-19.5 113,-19.5 113,-0.5 43,-0.5"/>
<text text-anchor="middle" x="78" y="-7.5" font-family="Helvetica,sans-Serif" font-size="10.00">Operations</text>
</a>
</g>
</g>
<!-- Node2 -->
<g id="node2" class="node">
<title>Node2</title>
<g id="a_node2"><a xlink:href="struct_coordinate.html" target="_top" xlink:title="Структура, представляющая координаты точки на плоскости.">
<polygon fill="white" stroke="black" points="0,-89.5 0,-108.5 70,-108.5 70,-89.5 0,-89.5"/>
<text text-anchor="middle" x="35" y="-96.5" font-family="Helvetica,sans-Serif" font-size="10.00">Coordinate</text>
</a>
</g>
</g>
<!-- Node2&#45;&gt;Node1 -->
<g id="edge1" class="edge">
<title>Node2&#45;&gt;Node1</title>
<path fill="none" stroke="#9a32cd" stroke-dasharray="5,2" d="M30.92,-79.05C29.26,-66.61 29.09,-50.4 36,-38 40.47,-29.97 48.44,-23.96 56.24,-19.68"/>
<polygon fill="#9a32cd" stroke="#9a32cd" points="27.53,-79.96 32.71,-89.2 34.42,-78.74 27.53,-79.96"/>
<text text-anchor="middle" x="67.5" y="-63" font-family="Helvetica,sans-Serif" font-size="10.00"> dest_left_up</text>
<text text-anchor="middle" x="67.5" y="-52" font-family="Helvetica,sans-Serif" font-size="10.00">left_up</text>
<text text-anchor="middle" x="67.5" y="-41" font-family="Helvetica,sans-Serif" font-size="10.00">right_down</text>
</g>
<!-- Node3 -->
<g id="node3" class="node">
<title>Node3</title>
<g id="a_node3"><a xlink:href="struct_r_g_b.html" target="_top" xlink:title="Структура, представляющая цвет в формате RGB.">
<polygon fill="white" stroke="black" points="102,-89.5 102,-108.5 140,-108.5 140,-89.5 102,-89.5"/>
<text text-anchor="middle" x="121" y="-96.5" font-family="Helvetica,sans-Serif" font-size="10.00">RGB</text>
</a>
</g>
</g>
<!-- Node3&#45;&gt;Node1 -->
<g id="edge2" class="edge">
<title>Node3&#45;&gt;Node1</title>
<path fill="none" stroke="#9a32cd" stroke-dasharray="5,2" d="M115.88,-79.58C112.09,-67.37 106.33,-51.22 99,-38 95.31,-31.35 90.06,-24.6 85.74,-19.51"/>
<polygon fill="#9a32cd" stroke="#9a32cd" points="112.61,-80.88 118.78,-89.49 119.33,-78.91 112.61,-80.88"/>
<text text-anchor="middle" x="137.5" y="-63" font-family="Helvetica,sans-Serif" font-size="10.00"> line_color</text>
<text text-anchor="middle" x="137.5" y="-52" font-family="Helvetica,sans-Serif" font-size="10.00">new_color</text>
<text text-anchor="middle" x="137.5" y="-41" font-family="Helvetica,sans-Serif" font-size="10.00">old_color</text>
</g>
</g>
</svg>
