<?xml version="1.0" encoding="UTF-8" standalone="no"?>
<!DOCTYPE svg PUBLIC "-//W3C//DTD SVG 1.1//EN"
 "http://www.w3.org/Graphics/SVG/1.1/DTD/svg11.dtd">
<!-- Generated by graphviz version 2.43.0 (0)
 -->
<!-- Title: include/structures.hpp Pages: 1 -->
<svg width="359pt" height="196pt"
 viewBox="0.00 0.00 358.50 196.00" xmlns="http://www.w3.org/2000/svg" xmlns:xlink="http://www.w3.org/1999/xlink">
<g id="graph0" class="graph" transform="scale(1 1) rotate(0) translate(4 192)">
<title>include/structures.hpp</title>
<polygon fill="white" stroke="transparent" points="-4,4 -4,-192 354.5,-192 354.5,4 -4,4"/>
<!-- Node1 -->
<g id="node1" class="node">
<title>Node1</title>
<g id="a_node1"><a xlink:title=" ">
<polygon fill="#bfbfbf" stroke="black" points="52.5,-168.5 52.5,-187.5 177.5,-187.5 177.5,-168.5 52.5,-168.5"/>
<text text-anchor="middle" x="115" y="-175.5" font-family="Helvetica,sans-Serif" font-size="10.00">include/structures.hpp</text>
</a>
</g>
</g>
<!-- Node2 -->
<g id="node2" class="node">
<title>Node2</title>
<g id="a_node2"><a xlink:href="bmp_8hpp.html" target="_top" xlink:title=" ">
<polygon fill="white" stroke="black" points="27,-56.5 27,-75.5 125,-75.5 125,-56.5 27,-56.5"/>
<text text-anchor="middle" x="76" y="-63.5" font-family="Helvetica,sans-Serif" font-size="10.00">include/bmp.hpp</text>
</a>
</g>
</g>
<!-- Node1&#45;&gt;Node2 -->
<g id="edge1" class="edge">
<title>Node1&#45;&gt;Node2</title>
<path fill="none" stroke="midnightblue" d="M98.34,-161.29C91,-153.29 83.13,-142.95 79,-132 71.83,-112.97 73.26,-88.57 74.74,-75.75"/>
<polygon fill="midnightblue" stroke="midnightblue" points="95.84,-163.75 105.33,-168.45 100.84,-158.85 95.84,-163.75"/>
</g>
<!-- Node5 -->
<g id="node5" class="node">
<title>Node5</title>
<g id="a_node5"><a xlink:href="operation__params_8hpp.html" target="_top" xlink:title=" ">
<polygon fill="white" stroke="black" points="88,-112.5 88,-131.5 252,-131.5 252,-112.5 88,-112.5"/>
<text text-anchor="middle" x="170" y="-119.5" font-family="Helvetica,sans-Serif" font-size="10.00">include/operation_params.hpp</text>
</a>
</g>
</g>
<!-- Node1&#45;&gt;Node5 -->
<g id="edge4" class="edge">
<title>Node1&#45;&gt;Node5</title>
<path fill="none" stroke="midnightblue" d="M131.29,-161C141.04,-151.43 153.05,-139.64 161.09,-131.75"/>
<polygon fill="midnightblue" stroke="midnightblue" points="128.77,-158.58 124.08,-168.08 133.67,-163.57 128.77,-158.58"/>
</g>
<!-- Node3 -->
<g id="node3" class="node">
<title>Node3</title>
<g id="a_node3"><a xlink:href="bmp_8cpp.html" target="_top" xlink:title="Реализация методов класса BMP для работы с изображениями в формате BMP.">
<polygon fill="white" stroke="black" points="0,-0.5 0,-19.5 94,-19.5 94,-0.5 0,-0.5"/>
<text text-anchor="middle" x="47" y="-7.5" font-family="Helvetica,sans-Serif" font-size="10.00">source/bmp.cpp</text>
</a>
</g>
</g>
<!-- Node2&#45;&gt;Node3 -->
<g id="edge2" class="edge">
<title>Node2&#45;&gt;Node3</title>
<path fill="none" stroke="midnightblue" d="M66.32,-46.98C61.4,-37.82 55.64,-27.09 51.7,-19.75"/>
<polygon fill="midnightblue" stroke="midnightblue" points="63.4,-48.93 71.21,-56.08 69.56,-45.62 63.4,-48.93"/>
</g>
<!-- Node4 -->
<g id="node4" class="node">
<title>Node4</title>
<g id="a_node4"><a xlink:href="main_8cpp.html" target="_top" xlink:title="Главный файл программы">
<polygon fill="white" stroke="black" points="112.5,-0.5 112.5,-19.5 209.5,-19.5 209.5,-0.5 112.5,-0.5"/>
<text text-anchor="middle" x="161" y="-7.5" font-family="Helvetica,sans-Serif" font-size="10.00">source/main.cpp</text>
</a>
</g>
</g>
<!-- Node2&#45;&gt;Node4 -->
<g id="edge3" class="edge">
<title>Node2&#45;&gt;Node4</title>
<path fill="none" stroke="midnightblue" d="M98.19,-50.9C113.78,-41 134.13,-28.07 147.38,-19.65"/>
<polygon fill="midnightblue" stroke="midnightblue" points="96.22,-48.01 89.66,-56.32 99.97,-53.92 96.22,-48.01"/>
</g>
<!-- Node5&#45;&gt;Node2 -->
<g id="edge5" class="edge">
<title>Node5&#45;&gt;Node2</title>
<path fill="none" stroke="midnightblue" d="M145.94,-107.18C128.64,-97.24 105.85,-84.15 91.07,-75.65"/>
<polygon fill="midnightblue" stroke="midnightblue" points="144.48,-110.38 154.9,-112.32 147.97,-104.31 144.48,-110.38"/>
</g>
<!-- Node5&#45;&gt;Node4 -->
<g id="edge6" class="edge">
<title>Node5&#45;&gt;Node4</title>
<path fill="none" stroke="midnightblue" d="M168.47,-102.35C166.5,-78.25 163.15,-37.31 161.7,-19.59"/>
<polygon fill="midnightblue" stroke="midnightblue" points="164.99,-102.69 169.29,-112.37 171.97,-102.12 164.99,-102.69"/>
</g>
<!-- Node6 -->
<g id="node6" class="node">
<title>Node6</title>
<g id="a_node6"><a xlink:href="operation__params_8cpp.html" target="_top" xlink:title=" ">
<polygon fill="white" stroke="black" points="189.5,-56.5 189.5,-75.5 350.5,-75.5 350.5,-56.5 189.5,-56.5"/>
<text text-anchor="middle" x="270" y="-63.5" font-family="Helvetica,sans-Serif" font-size="10.00">source/operation_params.cpp</text>
</a>
</g>
</g>
<!-- Node5&#45;&gt;Node6 -->
<g id="edge7" class="edge">
<title>Node5&#45;&gt;Node6</title>
<path fill="none" stroke="midnightblue" d="M195.09,-107.45C213.55,-97.48 238.1,-84.23 253.97,-75.65"/>
<polygon fill="midnightblue" stroke="midnightblue" points="193.2,-104.49 186.07,-112.32 196.53,-110.65 193.2,-104.49"/>
</g>
</g>
</svg>
