<?xml version="1.0" encoding="UTF-8" standalone="no"?>
<!DOCTYPE svg PUBLIC "-//W3C//DTD SVG 1.1//EN"
 "http://www.w3.org/Graphics/SVG/1.1/DTD/svg11.dtd">
<!-- Generated by graphviz version 2.43.0 (0)
 -->
<!-- Title: src/operation_params.cpp Pages: 1 -->
<svg width="674pt" height="196pt"
 viewBox="0.00 0.00 673.50 196.00" xmlns="http://www.w3.org/2000/svg" xmlns:xlink="http://www.w3.org/1999/xlink">
<g id="graph0" class="graph" transform="scale(1 1) rotate(0) translate(4 192)">
<title>src/operation_params.cpp</title>
<polygon fill="white" stroke="transparent" points="-4,4 -4,-192 669.5,-192 669.5,4 -4,4"/>
<!-- Node1 -->
<g id="node1" class="node">
<title>Node1</title>
<g id="a_node1"><a xlink:title="Определяет функции для анализа параметров операций из командной строки.">
<polygon fill="#bfbfbf" stroke="black" points="238.5,-168.5 238.5,-187.5 381.5,-187.5 381.5,-168.5 238.5,-168.5"/>
<text text-anchor="middle" x="310" y="-175.5" font-family="Helvetica,sans-Serif" font-size="10.00">src/operation_params.cpp</text>
</a>
</g>
</g>
<!-- Node2 -->
<g id="node2" class="node">
<title>Node2</title>
<g id="a_node2"><a xlink:href="../../df/d10/operation__params_8h.html" target="_top" xlink:title="Заголовочный файл, содержащий определения структур и классов.">
<polygon fill="white" stroke="black" points="26,-112.5 26,-131.5 140,-131.5 140,-112.5 26,-112.5"/>
<text text-anchor="middle" x="83" y="-119.5" font-family="Helvetica,sans-Serif" font-size="10.00">operation_params.h</text>
</a>
</g>
</g>
<!-- Node1&#45;&gt;Node2 -->
<g id="edge1" class="edge">
<title>Node1&#45;&gt;Node2</title>
<path fill="none" stroke="midnightblue" d="M274.03,-168.44C234.68,-159.08 171.51,-144.06 128.69,-133.87"/>
<polygon fill="midnightblue" stroke="midnightblue" points="129.34,-130.43 118.8,-131.52 127.72,-137.24 129.34,-130.43"/>
</g>
<!-- Node5 -->
<g id="node5" class="node">
<title>Node5</title>
<g id="a_node5"><a xlink:title=" ">
<polygon fill="white" stroke="#bfbfbf" points="132,-0.5 132,-19.5 176,-19.5 176,-0.5 132,-0.5"/>
<text text-anchor="middle" x="154" y="-7.5" font-family="Helvetica,sans-Serif" font-size="10.00">string</text>
</a>
</g>
</g>
<!-- Node1&#45;&gt;Node5 -->
<g id="edge14" class="edge">
<title>Node1&#45;&gt;Node5</title>
<path fill="none" stroke="midnightblue" d="M298.08,-168.3C286.56,-159.64 268.85,-145.72 255,-132 220.17,-97.51 184.64,-52.05 166.43,-27.85"/>
<polygon fill="midnightblue" stroke="midnightblue" points="169.13,-25.61 160.34,-19.69 163.52,-29.8 169.13,-25.61"/>
</g>
<!-- Node6 -->
<g id="node6" class="node">
<title>Node6</title>
<g id="a_node6"><a xlink:title=" ">
<polygon fill="white" stroke="#bfbfbf" points="130.5,-56.5 130.5,-75.5 177.5,-75.5 177.5,-56.5 130.5,-56.5"/>
<text text-anchor="middle" x="154" y="-63.5" font-family="Helvetica,sans-Serif" font-size="10.00">vector</text>
</a>
</g>
</g>
<!-- Node1&#45;&gt;Node6 -->
<g id="edge15" class="edge">
<title>Node1&#45;&gt;Node6</title>
<path fill="none" stroke="midnightblue" d="M268.47,-168.5C244.06,-161.83 213.83,-150.5 192,-132 177.24,-119.49 166.84,-99.7 160.7,-85.25"/>
<polygon fill="midnightblue" stroke="midnightblue" points="163.91,-83.85 156.97,-75.84 157.4,-86.43 163.91,-83.85"/>
</g>
<!-- Node7 -->
<g id="node7" class="node">
<title>Node7</title>
<g id="a_node7"><a xlink:href="../../d1/d8c/logger_8h.html" target="_top" xlink:title="Заголовочный файл, содержащий определения структур и классов.">
<polygon fill="white" stroke="black" points="234,-56.5 234,-75.5 290,-75.5 290,-56.5 234,-56.5"/>
<text text-anchor="middle" x="262" y="-63.5" font-family="Helvetica,sans-Serif" font-size="10.00">logger.h</text>
</a>
</g>
</g>
<!-- Node1&#45;&gt;Node7 -->
<g id="edge7" class="edge">
<title>Node1&#45;&gt;Node7</title>
<path fill="none" stroke="midnightblue" d="M296.77,-168.45C285.76,-160.5 270.82,-147.55 264,-132 257.62,-117.46 257.65,-99.28 258.96,-85.85"/>
<polygon fill="midnightblue" stroke="midnightblue" points="262.44,-86.23 260.26,-75.86 255.5,-85.33 262.44,-86.23"/>
</g>
<!-- Node8 -->
<g id="node8" class="node">
<title>Node8</title>
<g id="a_node8"><a xlink:href="../../d5/d48/messages_8h.html" target="_top" xlink:title="Заголовочный файл, содержащий определения структур и классов.">
<polygon fill="white" stroke="black" points="272.5,-112.5 272.5,-131.5 347.5,-131.5 347.5,-112.5 272.5,-112.5"/>
<text text-anchor="middle" x="310" y="-119.5" font-family="Helvetica,sans-Serif" font-size="10.00">messages.h</text>
</a>
</g>
</g>
<!-- Node1&#45;&gt;Node8 -->
<g id="edge9" class="edge">
<title>Node1&#45;&gt;Node8</title>
<path fill="none" stroke="midnightblue" d="M310,-168.08C310,-161.01 310,-150.86 310,-141.99"/>
<polygon fill="midnightblue" stroke="midnightblue" points="313.5,-141.75 310,-131.75 306.5,-141.75 313.5,-141.75"/>
</g>
<!-- Node9 -->
<g id="node9" class="node">
<title>Node9</title>
<g id="a_node9"><a xlink:title=" ">
<polygon fill="white" stroke="#bfbfbf" points="366,-112.5 366,-131.5 430,-131.5 430,-112.5 366,-112.5"/>
<text text-anchor="middle" x="398" y="-119.5" font-family="Helvetica,sans-Serif" font-size="10.00">algorithm</text>
</a>
</g>
</g>
<!-- Node1&#45;&gt;Node9 -->
<g id="edge10" class="edge">
<title>Node1&#45;&gt;Node9</title>
<path fill="none" stroke="midnightblue" d="M324.14,-168.32C337.87,-159.9 358.94,-146.97 375.06,-137.07"/>
<polygon fill="midnightblue" stroke="midnightblue" points="377.2,-139.87 383.9,-131.65 373.54,-133.9 377.2,-139.87"/>
</g>
<!-- Node10 -->
<g id="node10" class="node">
<title>Node10</title>
<g id="a_node10"><a xlink:title=" ">
<polygon fill="white" stroke="#bfbfbf" points="448,-112.5 448,-131.5 508,-131.5 508,-112.5 448,-112.5"/>
<text text-anchor="middle" x="478" y="-119.5" font-family="Helvetica,sans-Serif" font-size="10.00">iostream</text>
</a>
</g>
</g>
<!-- Node1&#45;&gt;Node10 -->
<g id="edge11" class="edge">
<title>Node1&#45;&gt;Node10</title>
<path fill="none" stroke="midnightblue" d="M336.62,-168.44C365.01,-159.32 410.14,-144.81 441.75,-134.65"/>
<polygon fill="midnightblue" stroke="midnightblue" points="443.06,-137.91 451.5,-131.52 440.91,-131.24 443.06,-137.91"/>
</g>
<!-- Node11 -->
<g id="node11" class="node">
<title>Node11</title>
<g id="a_node11"><a xlink:title=" ">
<polygon fill="white" stroke="#bfbfbf" points="526,-112.5 526,-131.5 582,-131.5 582,-112.5 526,-112.5"/>
<text text-anchor="middle" x="554" y="-119.5" font-family="Helvetica,sans-Serif" font-size="10.00">sstream</text>
</a>
</g>
</g>
<!-- Node1&#45;&gt;Node11 -->
<g id="edge12" class="edge">
<title>Node1&#45;&gt;Node11</title>
<path fill="none" stroke="midnightblue" d="M350.52,-168.5C390.18,-160.11 452.56,-146.73 515.61,-132.28"/>
<polygon fill="midnightblue" stroke="midnightblue" points="516.77,-135.6 525.74,-129.95 515.21,-128.78 516.77,-135.6"/>
</g>
<!-- Node12 -->
<g id="node12" class="node">
<title>Node12</title>
<g id="a_node12"><a xlink:title=" ">
<polygon fill="white" stroke="#bfbfbf" points="600.5,-112.5 600.5,-131.5 665.5,-131.5 665.5,-112.5 600.5,-112.5"/>
<text text-anchor="middle" x="633" y="-119.5" font-family="Helvetica,sans-Serif" font-size="10.00">stdexcept</text>
</a>
</g>
</g>
<!-- Node1&#45;&gt;Node12 -->
<g id="edge13" class="edge">
<title>Node1&#45;&gt;Node12</title>
<path fill="none" stroke="midnightblue" d="M368.82,-168.5C423.61,-160.37 507.8,-147.35 590.64,-131.98"/>
<polygon fill="midnightblue" stroke="midnightblue" points="591.29,-135.42 600.47,-130.15 590,-128.54 591.29,-135.42"/>
</g>
<!-- Node3 -->
<g id="node3" class="node">
<title>Node3</title>
<g id="a_node3"><a xlink:href="../../dd/da3/structures_8h.html" target="_top" xlink:title="Заголовочный файл, содержащий определения структур и классов.">
<polygon fill="white" stroke="black" points="0,-56.5 0,-75.5 74,-75.5 74,-56.5 0,-56.5"/>
<text text-anchor="middle" x="37" y="-63.5" font-family="Helvetica,sans-Serif" font-size="10.00">structures.h</text>
</a>
</g>
</g>
<!-- Node2&#45;&gt;Node3 -->
<g id="edge2" class="edge">
<title>Node2&#45;&gt;Node3</title>
<path fill="none" stroke="midnightblue" d="M75.4,-112.08C68.77,-104.3 58.98,-92.8 50.94,-83.37"/>
<polygon fill="midnightblue" stroke="midnightblue" points="53.6,-81.09 44.45,-75.75 48.27,-85.63 53.6,-81.09"/>
</g>
<!-- Node2&#45;&gt;Node5 -->
<g id="edge5" class="edge">
<title>Node2&#45;&gt;Node5</title>
<path fill="none" stroke="midnightblue" d="M87.64,-112.42C94.55,-99.81 108.09,-75.67 121,-56 127.25,-46.48 134.71,-36.22 140.96,-27.91"/>
<polygon fill="midnightblue" stroke="midnightblue" points="143.88,-29.85 147.15,-19.77 138.31,-25.61 143.88,-29.85"/>
</g>
<!-- Node2&#45;&gt;Node6 -->
<g id="edge6" class="edge">
<title>Node2&#45;&gt;Node6</title>
<path fill="none" stroke="midnightblue" d="M94.41,-112.32C105.11,-104.18 121.34,-91.84 134.16,-82.09"/>
<polygon fill="midnightblue" stroke="midnightblue" points="136.54,-84.67 142.39,-75.83 132.31,-79.1 136.54,-84.67"/>
</g>
<!-- Node4 -->
<g id="node4" class="node">
<title>Node4</title>
<g id="a_node4"><a xlink:title=" ">
<polygon fill="white" stroke="#bfbfbf" points="12,-0.5 12,-19.5 62,-19.5 62,-0.5 12,-0.5"/>
<text text-anchor="middle" x="37" y="-7.5" font-family="Helvetica,sans-Serif" font-size="10.00">cstdint</text>
</a>
</g>
</g>
<!-- Node3&#45;&gt;Node4 -->
<g id="edge3" class="edge">
<title>Node3&#45;&gt;Node4</title>
<path fill="none" stroke="midnightblue" d="M37,-56.08C37,-49.01 37,-38.86 37,-29.99"/>
<polygon fill="midnightblue" stroke="midnightblue" points="40.5,-29.75 37,-19.75 33.5,-29.75 40.5,-29.75"/>
</g>
<!-- Node3&#45;&gt;Node5 -->
<g id="edge4" class="edge">
<title>Node3&#45;&gt;Node5</title>
<path fill="none" stroke="midnightblue" d="M55.54,-56.44C74.62,-47.64 104.57,-33.81 126.44,-23.72"/>
<polygon fill="midnightblue" stroke="midnightblue" points="127.93,-26.88 135.55,-19.52 125,-20.53 127.93,-26.88"/>
</g>
<!-- Node7&#45;&gt;Node5 -->
<g id="edge8" class="edge">
<title>Node7&#45;&gt;Node5</title>
<path fill="none" stroke="midnightblue" d="M244.65,-56.32C227.33,-47.66 200.48,-34.24 180.5,-24.25"/>
<polygon fill="midnightblue" stroke="midnightblue" points="181.82,-21 171.31,-19.65 178.69,-27.26 181.82,-21"/>
</g>
</g>
</svg>
