<?xml version="1.0" encoding="UTF-8" standalone="no"?>
<!DOCTYPE svg PUBLIC "-//W3C//DTD SVG 1.1//EN"
 "http://www.w3.org/Graphics/SVG/1.1/DTD/svg11.dtd">
<!-- Generated by graphviz version 2.43.0 (0)
 -->
<!-- Title: src/main.cpp Pages: 1 -->
<svg width="482pt" height="252pt"
 viewBox="0.00 0.00 482.00 252.00" xmlns="http://www.w3.org/2000/svg" xmlns:xlink="http://www.w3.org/1999/xlink">
<g id="graph0" class="graph" transform="scale(1 1) rotate(0) translate(4 248)">
<title>src/main.cpp</title>
<polygon fill="white" stroke="transparent" points="-4,4 -4,-248 478,-248 478,4 -4,4"/>
<!-- Node1 -->
<g id="node1" class="node">
<title>Node1</title>
<g id="a_node1"><a xlink:title="Главный файл программы">
<polygon fill="#bfbfbf" stroke="black" points="260.5,-224.5 260.5,-243.5 339.5,-243.5 339.5,-224.5 260.5,-224.5"/>
<text text-anchor="middle" x="300" y="-231.5" font-family="Helvetica,sans-Serif" font-size="10.00">src/main.cpp</text>
</a>
</g>
</g>
<!-- Node2 -->
<g id="node2" class="node">
<title>Node2</title>
<g id="a_node2"><a xlink:href="../../d2/dc6/bmp_8h.html" target="_top" xlink:title="Заголовочный файл, содержащий определения структур и классов.">
<polygon fill="white" stroke="black" points="250.5,-168.5 250.5,-187.5 297.5,-187.5 297.5,-168.5 250.5,-168.5"/>
<text text-anchor="middle" x="274" y="-175.5" font-family="Helvetica,sans-Serif" font-size="10.00">bmp.h</text>
</a>
</g>
</g>
<!-- Node1&#45;&gt;Node2 -->
<g id="edge1" class="edge">
<title>Node1&#45;&gt;Node2</title>
<path fill="none" stroke="midnightblue" d="M295.71,-224.08C292.15,-216.69 286.98,-205.95 282.58,-196.81"/>
<polygon fill="midnightblue" stroke="midnightblue" points="285.71,-195.24 278.21,-187.75 279.4,-198.28 285.71,-195.24"/>
</g>
<!-- Node3 -->
<g id="node3" class="node">
<title>Node3</title>
<g id="a_node3"><a xlink:href="../../df/d10/operation__params_8h.html" target="_top" xlink:title="Заголовочный файл, содержащий определения структур и классов.">
<polygon fill="white" stroke="black" points="302,-112.5 302,-131.5 416,-131.5 416,-112.5 302,-112.5"/>
<text text-anchor="middle" x="359" y="-119.5" font-family="Helvetica,sans-Serif" font-size="10.00">operation_params.h</text>
</a>
</g>
</g>
<!-- Node1&#45;&gt;Node3 -->
<g id="edge16" class="edge">
<title>Node1&#45;&gt;Node3</title>
<path fill="none" stroke="midnightblue" d="M304.63,-224.37C314.28,-206.38 336.71,-164.55 349.55,-140.63"/>
<polygon fill="midnightblue" stroke="midnightblue" points="352.75,-142.06 354.39,-131.59 346.58,-138.75 352.75,-142.06"/>
</g>
<!-- Node10 -->
<g id="node10" class="node">
<title>Node10</title>
<g id="a_node10"><a xlink:href="../../d1/d8c/logger_8h.html" target="_top" xlink:title="Заголовочный файл, содержащий определения структур и классов.">
<polygon fill="white" stroke="black" points="0,-56.5 0,-75.5 56,-75.5 56,-56.5 0,-56.5"/>
<text text-anchor="middle" x="28" y="-63.5" font-family="Helvetica,sans-Serif" font-size="10.00">logger.h</text>
</a>
</g>
</g>
<!-- Node1&#45;&gt;Node10 -->
<g id="edge14" class="edge">
<title>Node1&#45;&gt;Node10</title>
<path fill="none" stroke="midnightblue" d="M275.62,-224.44C235,-209.5 151.92,-176.01 91,-132 71.59,-117.98 52.97,-97.62 41.07,-83.44"/>
<polygon fill="midnightblue" stroke="midnightblue" points="43.63,-81.04 34.58,-75.51 38.21,-85.47 43.63,-81.04"/>
</g>
<!-- Node11 -->
<g id="node11" class="node">
<title>Node11</title>
<g id="a_node11"><a xlink:href="../../d5/d48/messages_8h.html" target="_top" xlink:title="Заголовочный файл, содержащий определения структур и классов.">
<polygon fill="white" stroke="black" points="354.5,-168.5 354.5,-187.5 429.5,-187.5 429.5,-168.5 354.5,-168.5"/>
<text text-anchor="middle" x="392" y="-175.5" font-family="Helvetica,sans-Serif" font-size="10.00">messages.h</text>
</a>
</g>
</g>
<!-- Node1&#45;&gt;Node11 -->
<g id="edge17" class="edge">
<title>Node1&#45;&gt;Node11</title>
<path fill="none" stroke="midnightblue" d="M314.78,-224.32C329.27,-215.82 351.57,-202.73 368.49,-192.8"/>
<polygon fill="midnightblue" stroke="midnightblue" points="370.4,-195.74 377.26,-187.65 366.86,-189.7 370.4,-195.74"/>
</g>
<!-- Node2&#45;&gt;Node3 -->
<g id="edge2" class="edge">
<title>Node2&#45;&gt;Node3</title>
<path fill="none" stroke="midnightblue" d="M287.66,-168.32C300.92,-159.9 321.27,-146.97 336.85,-137.07"/>
<polygon fill="midnightblue" stroke="midnightblue" points="338.81,-139.97 345.38,-131.65 335.06,-134.06 338.81,-139.97"/>
</g>
<!-- Node4 -->
<g id="node4" class="node">
<title>Node4</title>
<g id="a_node4"><a xlink:href="../../dd/da3/structures_8h.html" target="_top" xlink:title="Заголовочный файл, содержащий определения структур и классов.">
<polygon fill="white" stroke="black" points="376,-56.5 376,-75.5 450,-75.5 450,-56.5 376,-56.5"/>
<text text-anchor="middle" x="413" y="-63.5" font-family="Helvetica,sans-Serif" font-size="10.00">structures.h</text>
</a>
</g>
</g>
<!-- Node2&#45;&gt;Node4 -->
<g id="edge8" class="edge">
<title>Node2&#45;&gt;Node4</title>
<path fill="none" stroke="midnightblue" d="M297.66,-173.42C336.19,-167.07 409.71,-152.51 425,-132 435.15,-118.38 429.55,-98.77 423.02,-84.66"/>
<polygon fill="midnightblue" stroke="midnightblue" points="426,-82.8 418.31,-75.52 419.78,-86.01 426,-82.8"/>
</g>
<!-- Node5 -->
<g id="node5" class="node">
<title>Node5</title>
<g id="a_node5"><a xlink:title=" ">
<polygon fill="white" stroke="#bfbfbf" points="424,-0.5 424,-19.5 474,-19.5 474,-0.5 424,-0.5"/>
<text text-anchor="middle" x="449" y="-7.5" font-family="Helvetica,sans-Serif" font-size="10.00">cstdint</text>
</a>
</g>
</g>
<!-- Node2&#45;&gt;Node5 -->
<g id="edge9" class="edge">
<title>Node2&#45;&gt;Node5</title>
<path fill="none" stroke="midnightblue" d="M297.78,-173.44C338.79,-166.86 420.41,-151.63 441,-132 468.59,-105.7 461.16,-56.08 454.44,-29.28"/>
<polygon fill="midnightblue" stroke="midnightblue" points="457.81,-28.34 451.8,-19.62 451.06,-30.19 457.81,-28.34"/>
</g>
<!-- Node6 -->
<g id="node6" class="node">
<title>Node6</title>
<g id="a_node6"><a xlink:title=" ">
<polygon fill="white" stroke="#bfbfbf" points="241,-0.5 241,-19.5 285,-19.5 285,-0.5 241,-0.5"/>
<text text-anchor="middle" x="263" y="-7.5" font-family="Helvetica,sans-Serif" font-size="10.00">string</text>
</a>
</g>
</g>
<!-- Node2&#45;&gt;Node6 -->
<g id="edge12" class="edge">
<title>Node2&#45;&gt;Node6</title>
<path fill="none" stroke="midnightblue" d="M250.32,-174.3C207.73,-168.91 120.95,-155.28 103,-132 61.98,-78.79 173.65,-37.06 231.17,-19.73"/>
<polygon fill="midnightblue" stroke="midnightblue" points="232.29,-23.05 240.9,-16.87 230.32,-16.33 232.29,-23.05"/>
</g>
<!-- Node7 -->
<g id="node7" class="node">
<title>Node7</title>
<g id="a_node7"><a xlink:title=" ">
<polygon fill="white" stroke="#bfbfbf" points="253.5,-56.5 253.5,-75.5 300.5,-75.5 300.5,-56.5 253.5,-56.5"/>
<text text-anchor="middle" x="277" y="-63.5" font-family="Helvetica,sans-Serif" font-size="10.00">vector</text>
</a>
</g>
</g>
<!-- Node2&#45;&gt;Node7 -->
<g id="edge13" class="edge">
<title>Node2&#45;&gt;Node7</title>
<path fill="none" stroke="midnightblue" d="M274.24,-168.37C274.72,-150.62 275.84,-109.67 276.49,-85.6"/>
<polygon fill="midnightblue" stroke="midnightblue" points="279.99,-85.68 276.77,-75.59 272.99,-85.49 279.99,-85.68"/>
</g>
<!-- Node8 -->
<g id="node8" class="node">
<title>Node8</title>
<g id="a_node8"><a xlink:title=" ">
<polygon fill="white" stroke="#bfbfbf" points="112.5,-112.5 112.5,-131.5 167.5,-131.5 167.5,-112.5 112.5,-112.5"/>
<text text-anchor="middle" x="140" y="-119.5" font-family="Helvetica,sans-Serif" font-size="10.00">fstream</text>
</a>
</g>
</g>
<!-- Node2&#45;&gt;Node8 -->
<g id="edge10" class="edge">
<title>Node2&#45;&gt;Node8</title>
<path fill="none" stroke="midnightblue" d="M252.77,-168.44C230.62,-159.52 195.68,-145.44 170.56,-135.32"/>
<polygon fill="midnightblue" stroke="midnightblue" points="171.72,-132.01 161.13,-131.52 169.1,-138.5 171.72,-132.01"/>
</g>
<!-- Node9 -->
<g id="node9" class="node">
<title>Node9</title>
<g id="a_node9"><a xlink:title=" ">
<polygon fill="white" stroke="#bfbfbf" points="186,-112.5 186,-131.5 246,-131.5 246,-112.5 186,-112.5"/>
<text text-anchor="middle" x="216" y="-119.5" font-family="Helvetica,sans-Serif" font-size="10.00">iostream</text>
</a>
</g>
</g>
<!-- Node2&#45;&gt;Node9 -->
<g id="edge11" class="edge">
<title>Node2&#45;&gt;Node9</title>
<path fill="none" stroke="midnightblue" d="M264.68,-168.32C256.11,-160.34 243.19,-148.31 232.81,-138.65"/>
<polygon fill="midnightblue" stroke="midnightblue" points="235.19,-136.09 225.49,-131.83 230.42,-141.21 235.19,-136.09"/>
</g>
<!-- Node3&#45;&gt;Node4 -->
<g id="edge3" class="edge">
<title>Node3&#45;&gt;Node4</title>
<path fill="none" stroke="midnightblue" d="M367.92,-112.08C375.78,-104.22 387.43,-92.57 396.92,-83.08"/>
<polygon fill="midnightblue" stroke="midnightblue" points="399.65,-85.3 404.25,-75.75 394.7,-80.35 399.65,-85.3"/>
</g>
<!-- Node3&#45;&gt;Node6 -->
<g id="edge6" class="edge">
<title>Node3&#45;&gt;Node6</title>
<path fill="none" stroke="midnightblue" d="M352.89,-112.28C343.82,-99.51 326.01,-75.16 309,-56 299.91,-45.77 288.99,-35.02 280.07,-26.6"/>
<polygon fill="midnightblue" stroke="midnightblue" points="282.25,-23.85 272.55,-19.6 277.48,-28.97 282.25,-23.85"/>
</g>
<!-- Node3&#45;&gt;Node7 -->
<g id="edge7" class="edge">
<title>Node3&#45;&gt;Node7</title>
<path fill="none" stroke="midnightblue" d="M345.83,-112.32C333.15,-103.98 313.77,-91.21 298.79,-81.35"/>
<polygon fill="midnightblue" stroke="midnightblue" points="300.42,-78.23 290.14,-75.65 296.57,-84.08 300.42,-78.23"/>
</g>
<!-- Node4&#45;&gt;Node5 -->
<g id="edge4" class="edge">
<title>Node4&#45;&gt;Node5</title>
<path fill="none" stroke="midnightblue" d="M418.94,-56.08C423.98,-48.53 431.34,-37.49 437.51,-28.23"/>
<polygon fill="midnightblue" stroke="midnightblue" points="440.53,-30.01 443.17,-19.75 434.71,-26.13 440.53,-30.01"/>
</g>
<!-- Node4&#45;&gt;Node6 -->
<g id="edge5" class="edge">
<title>Node4&#45;&gt;Node6</title>
<path fill="none" stroke="midnightblue" d="M389.23,-56.44C363.66,-47.24 322.88,-32.56 294.62,-22.38"/>
<polygon fill="midnightblue" stroke="midnightblue" points="295.78,-19.08 285.19,-18.99 293.41,-25.67 295.78,-19.08"/>
</g>
<!-- Node10&#45;&gt;Node6 -->
<g id="edge15" class="edge">
<title>Node10&#45;&gt;Node6</title>
<path fill="none" stroke="midnightblue" d="M56.35,-58.49C100.38,-48.37 184.94,-28.94 231.07,-18.34"/>
<polygon fill="midnightblue" stroke="midnightblue" points="231.88,-21.74 240.84,-16.09 230.31,-14.92 231.88,-21.74"/>
</g>
</g>
</svg>
