<?xml version="1.0" encoding="UTF-8" standalone="no"?>
<!DOCTYPE svg PUBLIC "-//W3C//DTD SVG 1.1//EN"
 "http://www.w3.org/Graphics/SVG/1.1/DTD/svg11.dtd">
<!-- Generated by graphviz version 2.43.0 (0)
 -->
<!-- Title: src/logger.cpp Pages: 1 -->
<svg width="235pt" height="140pt"
 viewBox="0.00 0.00 235.00 140.00" xmlns="http://www.w3.org/2000/svg" xmlns:xlink="http://www.w3.org/1999/xlink">
<g id="graph0" class="graph" transform="scale(1 1) rotate(0) translate(4 136)">
<title>src/logger.cpp</title>
<polygon fill="white" stroke="transparent" points="-4,4 -4,-136 231,-136 231,4 -4,4"/>
<!-- Node1 -->
<g id="node1" class="node">
<title>Node1</title>
<g id="a_node1"><a xlink:title="Implementation file for the Logger class.">
<polygon fill="#bfbfbf" stroke="black" points="70,-112.5 70,-131.5 154,-131.5 154,-112.5 70,-112.5"/>
<text text-anchor="middle" x="112" y="-119.5" font-family="Helvetica,sans-Serif" font-size="10.00">src/logger.cpp</text>
</a>
</g>
</g>
<!-- Node2 -->
<g id="node2" class="node">
<title>Node2</title>
<g id="a_node2"><a xlink:href="../../d1/d8c/logger_8h.html" target="_top" xlink:title="Заголовочный файл, содержащий определения структур и классов.">
<polygon fill="white" stroke="black" points="0,-56.5 0,-75.5 56,-75.5 56,-56.5 0,-56.5"/>
<text text-anchor="middle" x="28" y="-63.5" font-family="Helvetica,sans-Serif" font-size="10.00">logger.h</text>
</a>
</g>
</g>
<!-- Node1&#45;&gt;Node2 -->
<g id="edge1" class="edge">
<title>Node1&#45;&gt;Node2</title>
<path fill="none" stroke="midnightblue" d="M98.5,-112.32C85.4,-103.9 65.29,-90.97 49.89,-81.07"/>
<polygon fill="midnightblue" stroke="midnightblue" points="51.77,-78.12 41.46,-75.65 47.98,-84.01 51.77,-78.12"/>
</g>
<!-- Node4 -->
<g id="node4" class="node">
<title>Node4</title>
<g id="a_node4"><a xlink:href="../../d5/d48/messages_8h.html" target="_top" xlink:title="Заголовочный файл, содержащий определения структур и классов.">
<polygon fill="white" stroke="black" points="74.5,-56.5 74.5,-75.5 149.5,-75.5 149.5,-56.5 74.5,-56.5"/>
<text text-anchor="middle" x="112" y="-63.5" font-family="Helvetica,sans-Serif" font-size="10.00">messages.h</text>
</a>
</g>
</g>
<!-- Node1&#45;&gt;Node4 -->
<g id="edge3" class="edge">
<title>Node1&#45;&gt;Node4</title>
<path fill="none" stroke="midnightblue" d="M112,-112.08C112,-105.01 112,-94.86 112,-85.99"/>
<polygon fill="midnightblue" stroke="midnightblue" points="115.5,-85.75 112,-75.75 108.5,-85.75 115.5,-85.75"/>
</g>
<!-- Node5 -->
<g id="node5" class="node">
<title>Node5</title>
<g id="a_node5"><a xlink:title=" ">
<polygon fill="white" stroke="#bfbfbf" points="167,-56.5 167,-75.5 227,-75.5 227,-56.5 167,-56.5"/>
<text text-anchor="middle" x="197" y="-63.5" font-family="Helvetica,sans-Serif" font-size="10.00">iostream</text>
</a>
</g>
</g>
<!-- Node1&#45;&gt;Node5 -->
<g id="edge4" class="edge">
<title>Node1&#45;&gt;Node5</title>
<path fill="none" stroke="midnightblue" d="M125.66,-112.32C138.92,-103.9 159.27,-90.97 174.85,-81.07"/>
<polygon fill="midnightblue" stroke="midnightblue" points="176.81,-83.97 183.38,-75.65 173.06,-78.06 176.81,-83.97"/>
</g>
<!-- Node3 -->
<g id="node3" class="node">
<title>Node3</title>
<g id="a_node3"><a xlink:title=" ">
<polygon fill="white" stroke="#bfbfbf" points="6,-0.5 6,-19.5 50,-19.5 50,-0.5 6,-0.5"/>
<text text-anchor="middle" x="28" y="-7.5" font-family="Helvetica,sans-Serif" font-size="10.00">string</text>
</a>
</g>
</g>
<!-- Node2&#45;&gt;Node3 -->
<g id="edge2" class="edge">
<title>Node2&#45;&gt;Node3</title>
<path fill="none" stroke="midnightblue" d="M28,-56.08C28,-49.01 28,-38.86 28,-29.99"/>
<polygon fill="midnightblue" stroke="midnightblue" points="31.5,-29.75 28,-19.75 24.5,-29.75 31.5,-29.75"/>
</g>
</g>
</svg>
