<?xml version="1.0" encoding="UTF-8" standalone="no"?>
<!DOCTYPE svg PUBLIC "-//W3C//DTD SVG 1.1//EN"
 "http://www.w3.org/Graphics/SVG/1.1/DTD/svg11.dtd">
<!-- Generated by graphviz version 2.43.0 (0)
 -->
<!-- Title: main Pages: 1 -->
<svg width="602pt" height="522pt"
 viewBox="0.00 0.00 602.00 522.00" xmlns="http://www.w3.org/2000/svg" xmlns:xlink="http://www.w3.org/1999/xlink">
<g id="graph0" class="graph" transform="scale(1 1) rotate(0) translate(4 518)">
<title>main</title>
<polygon fill="white" stroke="transparent" points="-4,4 -4,-518 598,-518 598,4 -4,4"/>
<!-- Node1 -->
<g id="node1" class="node">
<title>Node1</title>
<g id="a_node1"><a xlink:title="Главная функция программы">
<polygon fill="#bfbfbf" stroke="black" points="0,-190.5 0,-209.5 41,-209.5 41,-190.5 0,-190.5"/>
<text text-anchor="middle" x="20.5" y="-197.5" font-family="Helvetica,sans-Serif" font-size="10.00">main</text>
</a>
</g>
</g>
<!-- Node2 -->
<g id="node2" class="node">
<title>Node2</title>
<g id="a_node2"><a xlink:href="../../d6/dd1/class_b_m_p.html#a93eafd24ac18b0f450764d631a911e22" target="_top" xlink:title="Заменить цвет на изображении.">
<polygon fill="white" stroke="black" points="80.5,-494.5 80.5,-513.5 187.5,-513.5 187.5,-494.5 80.5,-494.5"/>
<text text-anchor="middle" x="134" y="-501.5" font-family="Helvetica,sans-Serif" font-size="10.00">BMP::colorReplace</text>
</a>
</g>
</g>
<!-- Node1&#45;&gt;Node2 -->
<g id="edge1" class="edge">
<title>Node1&#45;&gt;Node2</title>
<path fill="none" stroke="midnightblue" d="M22.1,-209.65C25.09,-254.5 39.69,-442.29 77,-485 78.16,-486.33 79.42,-487.57 80.75,-488.71"/>
<polygon fill="midnightblue" stroke="midnightblue" points="78.89,-491.68 89.13,-494.4 82.82,-485.89 78.89,-491.68"/>
</g>
<!-- Node3 -->
<g id="node3" class="node">
<title>Node3</title>
<g id="a_node3"><a xlink:href="../../d6/dd1/class_b_m_p.html#aa5efccdbbacffe75174e3c126efc06ad" target="_top" xlink:title="Копировать область изображения.">
<polygon fill="white" stroke="black" points="100,-190.5 100,-209.5 168,-209.5 168,-190.5 100,-190.5"/>
<text text-anchor="middle" x="134" y="-197.5" font-family="Helvetica,sans-Serif" font-size="10.00">BMP::copy</text>
</a>
</g>
</g>
<!-- Node1&#45;&gt;Node3 -->
<g id="edge2" class="edge">
<title>Node1&#45;&gt;Node3</title>
<path fill="none" stroke="midnightblue" d="M41.18,-200C54.64,-200 73.02,-200 89.8,-200"/>
<polygon fill="midnightblue" stroke="midnightblue" points="89.98,-203.5 99.98,-200 89.98,-196.5 89.98,-203.5"/>
</g>
<!-- Node4 -->
<g id="node4" class="node">
<title>Node4</title>
<g id="a_node4"><a xlink:href="../../d3/d42/class_logger.html#ac2b605d549e7b4d89fd229230fe99bb4" target="_top" xlink:title="Записывает сообщение и завершает программу с заданным кодом выхода.">
<polygon fill="white" stroke="black" points="404,-361.5 404,-380.5 478,-380.5 478,-361.5 404,-361.5"/>
<text text-anchor="middle" x="441" y="-368.5" font-family="Helvetica,sans-Serif" font-size="10.00">Logger::exit</text>
</a>
</g>
</g>
<!-- Node1&#45;&gt;Node4 -->
<g id="edge6" class="edge">
<title>Node1&#45;&gt;Node4</title>
<path fill="none" stroke="midnightblue" d="M24.19,-209.58C30.46,-230.57 47.8,-281.35 77,-314 129.6,-372.82 151.21,-387.02 227,-409 286.76,-426.33 306.56,-423.79 367,-409 385.15,-404.56 403.82,-394.73 417.73,-386.19"/>
<polygon fill="midnightblue" stroke="midnightblue" points="419.99,-388.89 426.53,-380.56 416.22,-382.99 419.99,-388.89"/>
</g>
<!-- Node6 -->
<g id="node6" class="node">
<title>Node6</title>
<g id="a_node6"><a xlink:href="../../d3/d42/class_logger.html#a24b519e0f53e73937f93edd2da37ea76" target="_top" xlink:title="Записывает предупреждение в лог.">
<polygon fill="white" stroke="black" points="257,-114.5 257,-133.5 337,-133.5 337,-114.5 257,-114.5"/>
<text text-anchor="middle" x="297" y="-121.5" font-family="Helvetica,sans-Serif" font-size="10.00">Logger::warn</text>
</a>
</g>
</g>
<!-- Node1&#45;&gt;Node6 -->
<g id="edge27" class="edge">
<title>Node1&#45;&gt;Node6</title>
<path fill="none" stroke="midnightblue" d="M27.63,-190.28C36.63,-176.97 54.78,-153.53 77,-143 130.86,-117.47 200.52,-116.02 246.65,-118.77"/>
<polygon fill="midnightblue" stroke="midnightblue" points="246.48,-122.27 256.7,-119.46 246.96,-115.28 246.48,-122.27"/>
</g>
<!-- Node7 -->
<g id="node7" class="node">
<title>Node7</title>
<g id="a_node7"><a xlink:href="../../d6/dd1/class_b_m_p.html#acdebc7da18509fc92374934ad7a99ae2" target="_top" xlink:title="Получить информацию о изображении.">
<polygon fill="white" stroke="black" points="257.5,-38.5 257.5,-57.5 336.5,-57.5 336.5,-38.5 257.5,-38.5"/>
<text text-anchor="middle" x="297" y="-45.5" font-family="Helvetica,sans-Serif" font-size="10.00">BMP::getInfo</text>
</a>
</g>
</g>
<!-- Node1&#45;&gt;Node7 -->
<g id="edge7" class="edge">
<title>Node1&#45;&gt;Node7</title>
<path fill="none" stroke="midnightblue" d="M22.47,-190.29C25.49,-165.82 37.04,-101.47 77,-72 126.18,-35.73 199.28,-35.38 247.28,-40.25"/>
<polygon fill="midnightblue" stroke="midnightblue" points="247.1,-43.75 257.43,-41.39 247.88,-36.8 247.1,-43.75"/>
</g>
<!-- Node8 -->
<g id="node8" class="node">
<title>Node8</title>
<g id="a_node8"><a xlink:href="../../d3/d42/class_logger.html#af5bd3aa615eb67a5a49c02d8040812db" target="_top" xlink:title="Записывает сообщение в лог.">
<polygon fill="white" stroke="black" points="405.5,-76.5 405.5,-95.5 476.5,-95.5 476.5,-76.5 405.5,-76.5"/>
<text text-anchor="middle" x="441" y="-83.5" font-family="Helvetica,sans-Serif" font-size="10.00">Logger::log</text>
</a>
</g>
</g>
<!-- Node1&#45;&gt;Node8 -->
<g id="edge10" class="edge">
<title>Node1&#45;&gt;Node8</title>
<path fill="none" stroke="midnightblue" d="M24.62,-190.25C31.06,-171.86 47.76,-132.37 77,-115 177.63,-55.22 322.57,-66.74 395.1,-77.7"/>
<polygon fill="midnightblue" stroke="midnightblue" points="394.83,-81.2 405.26,-79.3 395.93,-74.28 394.83,-81.2"/>
</g>
<!-- Node9 -->
<g id="node9" class="node">
<title>Node9</title>
<g id="a_node9"><a xlink:href="../../d6/dd1/class_b_m_p.html#a3b83e47741d70614c50d625649979176" target="_top" xlink:title="Проверить, является ли изображение валидным.">
<polygon fill="white" stroke="black" points="95.5,-0.5 95.5,-19.5 172.5,-19.5 172.5,-0.5 95.5,-0.5"/>
<text text-anchor="middle" x="134" y="-7.5" font-family="Helvetica,sans-Serif" font-size="10.00">BMP::isValid</text>
</a>
</g>
</g>
<!-- Node1&#45;&gt;Node9 -->
<g id="edge9" class="edge">
<title>Node1&#45;&gt;Node9</title>
<path fill="none" stroke="midnightblue" d="M22.04,-190.39C24.12,-162.57 33.77,-80.94 77,-34 80.49,-30.21 84.69,-26.99 89.19,-24.26"/>
<polygon fill="midnightblue" stroke="midnightblue" points="90.87,-27.33 98.12,-19.61 87.63,-21.13 90.87,-27.33"/>
</g>
<!-- Node10 -->
<g id="node10" class="node">
<title>Node10</title>
<g id="a_node10"><a xlink:href="../../d6/dd1/class_b_m_p.html#a6760433189c91bee33a1e884909c3818" target="_top" xlink:title="Отразить изображение относительно указанной оси.">
<polygon fill="white" stroke="black" points="260,-380.5 260,-399.5 334,-399.5 334,-380.5 260,-380.5"/>
<text text-anchor="middle" x="297" y="-387.5" font-family="Helvetica,sans-Serif" font-size="10.00">BMP::mirror</text>
</a>
</g>
</g>
<!-- Node1&#45;&gt;Node10 -->
<g id="edge11" class="edge">
<title>Node1&#45;&gt;Node10</title>
<path fill="none" stroke="midnightblue" d="M30.05,-209.8C40.55,-221.59 59.18,-241.71 77,-257 139.15,-310.33 154.75,-325.46 227,-364 236.06,-368.83 246.23,-373.19 255.91,-376.9"/>
<polygon fill="midnightblue" stroke="midnightblue" points="254.78,-380.21 265.37,-380.38 257.19,-373.64 254.78,-380.21"/>
</g>
<!-- Node11 -->
<g id="node11" class="node">
<title>Node11</title>
<g id="a_node11"><a xlink:href="../../df/d10/operation__params_8h.html#a00a944e8a68555a108c478465b5e9018" target="_top" xlink:title="Парсинг командной строки и создание объекта OperationParams.">
<polygon fill="white" stroke="black" points="77,-228.5 77,-247.5 191,-247.5 191,-228.5 77,-228.5"/>
<text text-anchor="middle" x="134" y="-235.5" font-family="Helvetica,sans-Serif" font-size="10.00">parseCommandLine</text>
</a>
</g>
</g>
<!-- Node1&#45;&gt;Node11 -->
<g id="edge13" class="edge">
<title>Node1&#45;&gt;Node11</title>
<path fill="none" stroke="midnightblue" d="M41.02,-206.7C51.65,-210.34 65.05,-214.93 77,-219 82.79,-220.97 88.92,-223.06 94.91,-225.09"/>
<polygon fill="midnightblue" stroke="midnightblue" points="94.2,-228.55 104.79,-228.45 96.45,-221.92 94.2,-228.55"/>
</g>
<!-- Node16 -->
<g id="node16" class="node">
<title>Node16</title>
<g id="a_node16"><a xlink:href="../../d6/dd1/class_b_m_p.html#ad6023dacfbf10c0326a59f7e996aba27" target="_top" xlink:title="Сохранить изображение в файл.">
<polygon fill="white" stroke="black" points="100,-456.5 100,-475.5 168,-475.5 168,-456.5 100,-456.5"/>
<text text-anchor="middle" x="134" y="-463.5" font-family="Helvetica,sans-Serif" font-size="10.00">BMP::save</text>
</a>
</g>
</g>
<!-- Node1&#45;&gt;Node16 -->
<g id="edge23" class="edge">
<title>Node1&#45;&gt;Node16</title>
<path fill="none" stroke="midnightblue" d="M22.55,-209.73C27.12,-250.26 46.34,-405.27 77,-442 80.78,-446.53 85.57,-450.22 90.74,-453.23"/>
<polygon fill="midnightblue" stroke="midnightblue" points="89.2,-456.37 99.72,-457.67 92.31,-450.09 89.2,-456.37"/>
</g>
<!-- Node17 -->
<g id="node17" class="node">
<title>Node17</title>
<g id="a_node17"><a xlink:href="../../d6/dd1/class_b_m_p.html#aaff3df7f32657d64bf3b5f07e76a4edd" target="_top" xlink:title="Разделить изображение на части.">
<polygon fill="white" stroke="black" points="101.5,-152.5 101.5,-171.5 166.5,-171.5 166.5,-152.5 101.5,-152.5"/>
<text text-anchor="middle" x="134" y="-159.5" font-family="Helvetica,sans-Serif" font-size="10.00">BMP::split</text>
</a>
</g>
</g>
<!-- Node1&#45;&gt;Node17 -->
<g id="edge25" class="edge">
<title>Node1&#45;&gt;Node17</title>
<path fill="none" stroke="midnightblue" d="M41.02,-193.3C51.65,-189.66 65.05,-185.07 77,-181 82.79,-179.03 88.92,-176.94 94.91,-174.91"/>
<polygon fill="midnightblue" stroke="midnightblue" points="96.45,-178.08 104.79,-171.55 94.2,-171.45 96.45,-178.08"/>
</g>
<!-- Node3&#45;&gt;Node4 -->
<g id="edge3" class="edge">
<title>Node3&#45;&gt;Node4</title>
<path fill="none" stroke="midnightblue" d="M168.15,-200.6C216.25,-203.03 306.29,-213.56 367,-257 400.76,-281.16 422.69,-326.26 433.04,-351.9"/>
<polygon fill="midnightblue" stroke="midnightblue" points="429.79,-353.21 436.66,-361.28 436.33,-350.69 429.79,-353.21"/>
</g>
<!-- Node3&#45;&gt;Node6 -->
<g id="edge5" class="edge">
<title>Node3&#45;&gt;Node6</title>
<path fill="none" stroke="midnightblue" d="M168.21,-191.69C176.02,-188.95 184.08,-185.43 191,-181 210.59,-168.45 207.05,-154.97 227,-143 233.23,-139.26 240.2,-136.24 247.27,-133.81"/>
<polygon fill="midnightblue" stroke="midnightblue" points="248.37,-137.13 256.89,-130.83 246.3,-130.44 248.37,-137.13"/>
</g>
<!-- Node5 -->
<g id="node5" class="node">
<title>Node5</title>
<g id="a_node5"><a xlink:href="../../d3/d42/class_logger.html#ab6042fdfcbb14026098e0df9d6b32f27" target="_top" xlink:title="Записывает ошибку в лог.">
<polygon fill="white" stroke="black" points="515,-361.5 515,-380.5 594,-380.5 594,-361.5 515,-361.5"/>
<text text-anchor="middle" x="554.5" y="-368.5" font-family="Helvetica,sans-Serif" font-size="10.00">Logger::error</text>
</a>
</g>
</g>
<!-- Node4&#45;&gt;Node5 -->
<g id="edge4" class="edge">
<title>Node4&#45;&gt;Node5</title>
<path fill="none" stroke="midnightblue" d="M478.2,-371C486.61,-371 495.7,-371 504.56,-371"/>
<polygon fill="midnightblue" stroke="midnightblue" points="504.79,-374.5 514.79,-371 504.79,-367.5 504.79,-374.5"/>
</g>
<!-- Node7&#45;&gt;Node8 -->
<g id="edge8" class="edge">
<title>Node7&#45;&gt;Node8</title>
<path fill="none" stroke="midnightblue" d="M333.83,-57.59C352.53,-62.59 375.58,-68.76 395.42,-74.07"/>
<polygon fill="midnightblue" stroke="midnightblue" points="394.6,-77.47 405.16,-76.68 396.41,-70.71 394.6,-77.47"/>
</g>
<!-- Node10&#45;&gt;Node4 -->
<g id="edge12" class="edge">
<title>Node10&#45;&gt;Node4</title>
<path fill="none" stroke="midnightblue" d="M334.2,-385.16C352.31,-382.73 374.43,-379.77 393.76,-377.19"/>
<polygon fill="midnightblue" stroke="midnightblue" points="394.42,-380.63 403.87,-375.83 393.49,-373.69 394.42,-380.63"/>
</g>
<!-- Node11&#45;&gt;Node4 -->
<g id="edge16" class="edge">
<title>Node11&#45;&gt;Node4</title>
<path fill="none" stroke="midnightblue" d="M141.25,-247.73C154.45,-267.4 187.27,-311.86 227,-333 279.61,-360.99 348.81,-368.88 393.84,-370.84"/>
<polygon fill="midnightblue" stroke="midnightblue" points="393.78,-374.34 403.9,-371.19 394.03,-367.34 393.78,-374.34"/>
</g>
<!-- Node11&#45;&gt;Node6 -->
<g id="edge22" class="edge">
<title>Node11&#45;&gt;Node6</title>
<path fill="none" stroke="midnightblue" d="M175.99,-228.46C181.43,-225.99 186.63,-222.89 191,-219 218.91,-194.14 198.38,-167.04 227,-143 232.76,-138.17 239.65,-134.56 246.81,-131.86"/>
<polygon fill="midnightblue" stroke="midnightblue" points="248.2,-135.09 256.67,-128.72 246.08,-128.42 248.2,-135.09"/>
</g>
<!-- Node12 -->
<g id="node12" class="node">
<title>Node12</title>
<g id="a_node12"><a xlink:href="../../d8/da4/operation__params_8cpp.html#a1451d6a0f33f9d0a02a4b055e5839e6e" target="_top" xlink:title="Отображение справки о возможных параметрах командной строки.">
<polygon fill="white" stroke="black" points="260,-152.5 260,-171.5 334,-171.5 334,-152.5 260,-152.5"/>
<text text-anchor="middle" x="297" y="-159.5" font-family="Helvetica,sans-Serif" font-size="10.00">displayHelp</text>
</a>
</g>
</g>
<!-- Node11&#45;&gt;Node12 -->
<g id="edge14" class="edge">
<title>Node11&#45;&gt;Node12</title>
<path fill="none" stroke="midnightblue" d="M170.34,-228.5C177.43,-225.92 184.64,-222.77 191,-219 209.68,-207.94 208.36,-197.13 227,-186 234.12,-181.75 242.11,-178.1 250.05,-175.03"/>
<polygon fill="midnightblue" stroke="midnightblue" points="251.44,-178.25 259.66,-171.56 249.07,-171.66 251.44,-178.25"/>
</g>
<!-- Node13 -->
<g id="node13" class="node">
<title>Node13</title>
<g id="a_node13"><a xlink:href="../../d8/da4/operation__params_8cpp.html#abbd547560acd14f298e5d36dcf0398d3" target="_top" xlink:title="Парсинг строки с RGB&#45;значением цвета.">
<polygon fill="white" stroke="black" points="264.5,-266.5 264.5,-285.5 329.5,-285.5 329.5,-266.5 264.5,-266.5"/>
<text text-anchor="middle" x="297" y="-273.5" font-family="Helvetica,sans-Serif" font-size="10.00">parseRGB</text>
</a>
</g>
</g>
<!-- Node11&#45;&gt;Node13 -->
<g id="edge17" class="edge">
<title>Node11&#45;&gt;Node13</title>
<path fill="none" stroke="midnightblue" d="M175.63,-247.59C199.67,-253.26 230.07,-260.44 254.3,-266.16"/>
<polygon fill="midnightblue" stroke="midnightblue" points="253.73,-269.62 264.27,-268.51 255.34,-262.81 253.73,-269.62"/>
</g>
<!-- Node14 -->
<g id="node14" class="node">
<title>Node14</title>
<g id="a_node14"><a xlink:href="../../d8/da4/operation__params_8cpp.html#acb9b051691fc7054f0232d28aef686c4" target="_top" xlink:title="Парсинг строки с числами, разделенными пробелами.">
<polygon fill="white" stroke="black" points="403,-228.5 403,-247.5 479,-247.5 479,-228.5 403,-228.5"/>
<text text-anchor="middle" x="441" y="-235.5" font-family="Helvetica,sans-Serif" font-size="10.00">parseValues</text>
</a>
</g>
</g>
<!-- Node11&#45;&gt;Node14 -->
<g id="edge20" class="edge">
<title>Node11&#45;&gt;Node14</title>
<path fill="none" stroke="midnightblue" d="M191.3,-238C249.19,-238 338.34,-238 392.7,-238"/>
<polygon fill="midnightblue" stroke="midnightblue" points="392.76,-241.5 402.76,-238 392.76,-234.5 392.76,-241.5"/>
</g>
<!-- Node15 -->
<g id="node15" class="node">
<title>Node15</title>
<g id="a_node15"><a xlink:href="../../d3/d42/class_logger.html#ab7e9747c046ab01e065bde00aa26b44b" target="_top" xlink:title="Устанавливает разрешение использования цветов в выводе.">
<polygon fill="white" stroke="black" points="227,-304.5 227,-323.5 367,-323.5 367,-304.5 227,-304.5"/>
<text text-anchor="middle" x="297" y="-311.5" font-family="Helvetica,sans-Serif" font-size="10.00">Logger::setColorsEnabled</text>
</a>
</g>
</g>
<!-- Node11&#45;&gt;Node15 -->
<g id="edge21" class="edge">
<title>Node11&#45;&gt;Node15</title>
<path fill="none" stroke="midnightblue" d="M147.75,-247.56C164.94,-260.04 196.87,-281.84 227,-295 232.4,-297.36 238.16,-299.49 243.97,-301.41"/>
<polygon fill="midnightblue" stroke="midnightblue" points="243.15,-304.82 253.74,-304.42 245.22,-298.13 243.15,-304.82"/>
</g>
<!-- Node12&#45;&gt;Node8 -->
<g id="edge15" class="edge">
<title>Node12&#45;&gt;Node8</title>
<path fill="none" stroke="midnightblue" d="M334.1,-154.92C345,-152.03 356.79,-148.13 367,-143 387.9,-132.5 408.61,-115.53 422.61,-102.83"/>
<polygon fill="midnightblue" stroke="midnightblue" points="425.09,-105.31 430.02,-95.93 420.32,-100.18 425.09,-105.31"/>
</g>
<!-- Node13&#45;&gt;Node4 -->
<g id="edge18" class="edge">
<title>Node13&#45;&gt;Node4</title>
<path fill="none" stroke="midnightblue" d="M329.65,-280.98C341.91,-283.85 355.68,-288.26 367,-295 392.17,-309.99 414.4,-335.95 427.54,-353.3"/>
<polygon fill="midnightblue" stroke="midnightblue" points="424.8,-355.49 433.54,-361.49 430.45,-351.35 424.8,-355.49"/>
</g>
<!-- Node13&#45;&gt;Node14 -->
<g id="edge19" class="edge">
<title>Node13&#45;&gt;Node14</title>
<path fill="none" stroke="midnightblue" d="M329.51,-267.57C348.63,-262.45 373.34,-255.84 394.55,-250.16"/>
<polygon fill="midnightblue" stroke="midnightblue" points="395.57,-253.51 404.32,-247.55 393.76,-246.75 395.57,-253.51"/>
</g>
<!-- Node16&#45;&gt;Node4 -->
<g id="edge24" class="edge">
<title>Node16&#45;&gt;Node4</title>
<path fill="none" stroke="midnightblue" d="M168.3,-469.17C215.05,-472.2 301.71,-472.52 367,-442 392.27,-430.19 414.12,-405.96 427.17,-389.12"/>
<polygon fill="midnightblue" stroke="midnightblue" points="430.31,-390.75 433.48,-380.64 424.7,-386.57 430.31,-390.75"/>
</g>
<!-- Node17&#45;&gt;Node6 -->
<g id="edge26" class="edge">
<title>Node17&#45;&gt;Node6</title>
<path fill="none" stroke="midnightblue" d="M166.81,-154.49C189.62,-149.11 220.8,-141.75 246.8,-135.61"/>
<polygon fill="midnightblue" stroke="midnightblue" points="247.93,-138.94 256.86,-133.24 246.32,-132.13 247.93,-138.94"/>
</g>
</g>
</svg>
