<?xml version="1.0" encoding="UTF-8" standalone="no"?>
<!DOCTYPE svg PUBLIC "-//W3C//DTD SVG 1.1//EN"
 "http://www.w3.org/Graphics/SVG/1.1/DTD/svg11.dtd">
<!-- Generated by graphviz version 2.43.0 (0)
 -->
<!-- Title: include/bmp.h Pages: 1 -->
<svg width="182pt" height="84pt"
 viewBox="0.00 0.00 181.50 84.00" xmlns="http://www.w3.org/2000/svg" xmlns:xlink="http://www.w3.org/1999/xlink">
<g id="graph0" class="graph" transform="scale(1 1) rotate(0) translate(4 80)">
<title>include/bmp.h</title>
<polygon fill="white" stroke="transparent" points="-4,4 -4,-80 177.5,-80 177.5,4 -4,4"/>
<!-- Node1 -->
<g id="node1" class="node">
<title>Node1</title>
<g id="a_node1"><a xlink:title="Заголовочный файл, содержащий определения структур и классов.">
<polygon fill="#bfbfbf" stroke="black" points="43,-56.5 43,-75.5 129,-75.5 129,-56.5 43,-56.5"/>
<text text-anchor="middle" x="86" y="-63.5" font-family="Helvetica,sans-Serif" font-size="10.00">include/bmp.h</text>
</a>
</g>
</g>
<!-- Node2 -->
<g id="node2" class="node">
<title>Node2</title>
<g id="a_node2"><a xlink:href="../../de/d0a/bmp_8cpp.html" target="_top" xlink:title="Реализация методов класса BMP для работы с изображениями в формате BMP.">
<polygon fill="white" stroke="black" points="0,-0.5 0,-19.5 76,-19.5 76,-0.5 0,-0.5"/>
<text text-anchor="middle" x="38" y="-7.5" font-family="Helvetica,sans-Serif" font-size="10.00">src/bmp.cpp</text>
</a>
</g>
</g>
<!-- Node1&#45;&gt;Node2 -->
<g id="edge1" class="edge">
<title>Node1&#45;&gt;Node2</title>
<path fill="none" stroke="midnightblue" d="M71.27,-48.43C62.86,-38.97 52.65,-27.48 45.78,-19.75"/>
<polygon fill="midnightblue" stroke="midnightblue" points="68.81,-50.93 78.07,-56.08 74.05,-46.28 68.81,-50.93"/>
</g>
<!-- Node3 -->
<g id="node3" class="node">
<title>Node3</title>
<g id="a_node3"><a xlink:href="../../df/d0a/main_8cpp.html" target="_top" xlink:title="Главный файл программы">
<polygon fill="white" stroke="black" points="94.5,-0.5 94.5,-19.5 173.5,-19.5 173.5,-0.5 94.5,-0.5"/>
<text text-anchor="middle" x="134" y="-7.5" font-family="Helvetica,sans-Serif" font-size="10.00">src/main.cpp</text>
</a>
</g>
</g>
<!-- Node1&#45;&gt;Node3 -->
<g id="edge2" class="edge">
<title>Node1&#45;&gt;Node3</title>
<path fill="none" stroke="midnightblue" d="M100.73,-48.43C109.14,-38.97 119.35,-27.48 126.22,-19.75"/>
<polygon fill="midnightblue" stroke="midnightblue" points="97.95,-46.28 93.93,-56.08 103.19,-50.93 97.95,-46.28"/>
</g>
</g>
</svg>
